<svg width="20" height="14" viewBox="0 0 20 14" fill="none" xmlns="http://www.w3.org/2000/svg">
<rect width="20" height="14" rx="2" fill="#d5d5d5" fill-opacity="0.75"/>
<path d="M7.95299 6.57419C7.59999 6.38819 7.15299 6.21219 6.61999 6.05019C6.13699 5.90719 5.76699 5.77219 5.51999 5.64719C5.29499 5.53419 5.14299 5.41319 5.06699 5.28919C4.99099 5.16219 4.95099 5.00119 4.95099 4.80919C4.95099 4.50719 5.05999 4.28519 5.28499 4.13019C5.52999 3.96219 5.84999 3.87719 6.23899 3.87719C6.55599 3.87719 6.85699 3.93119 7.13299 4.03819C7.41199 4.14519 7.70399 4.31919 7.99799 4.55419L8.14599 4.67219L9.02599 3.69019L8.88399 3.55419C8.49999 3.19619 8.09699 2.92619 7.68499 2.75419C7.27099 2.58019 6.76799 2.49219 6.19199 2.49219C5.66099 2.49219 5.17899 2.59019 4.75899 2.78319C4.33199 2.97819 3.99299 3.25519 3.75199 3.60919C3.50999 3.96419 3.38799 4.37319 3.38799 4.82219C3.38799 5.48619 3.60799 6.02119 4.04099 6.41319C4.45299 6.78719 5.10599 7.10819 5.97999 7.36819C6.44399 7.50319 6.79899 7.63819 7.03799 7.76919C7.25799 7.89019 7.41199 8.02319 7.49599 8.16619C7.57999 8.30719 7.62299 8.49319 7.62299 8.71819C7.62299 9.11819 7.48499 9.41219 7.20199 9.61719C6.90199 9.83419 6.51399 9.94419 6.04799 9.94419C5.65199 9.94419 5.28899 9.87919 4.97099 9.74919C4.64599 9.61619 4.31999 9.41919 4.00099 9.16119L3.85399 9.04119L2.97699 10.0182L3.10899 10.1522C3.87299 10.9322 4.86599 11.3282 6.05999 11.3282C6.69399 11.3282 7.25299 11.2182 7.72199 11.0022C8.19899 10.7822 8.56999 10.4712 8.82599 10.0782C9.08299 9.68319 9.21299 9.22519 9.21299 8.71519C9.21299 8.18919 9.09499 7.74419 8.86099 7.39219C8.62999 7.04519 8.32599 6.77019 7.95299 6.57419Z" fill="#282828"/>
<path d="M14.256 2.66016H12.524L9.74298 11.3282H11.318L11.942 9.25216H14.777L15.401 11.3282H17.023L14.299 2.79916L14.256 2.66016ZM14.381 7.92816H12.338L13.364 4.50716L14.381 7.92816Z" fill="#282828"/>
</svg>
