<svg width="20" height="26" viewBox="0 0 20 26" fill="none" xmlns="http://www.w3.org/2000/svg">
<path d="M6.13616 20.3055L6.13478 20.3041C3.79846 17.9183 2.6511 15.987 2.08017 14.3677C1.50968 12.7497 1.5 11.4064 1.5 10.1358C1.5 5.32763 5.32435 1.51557 10 1.50014C14.6756 1.51557 18.5 5.32776 18.5 10.1359C18.5 11.4065 18.4903 12.7498 17.9198 14.3678C17.3489 15.9872 16.2015 17.9184 13.8652 20.3043L13.8638 20.3057L10 24.2826L6.13616 20.3055Z" fill="#97215E" stroke="#BD487F"/>
<path d="M14.95 9.875L13.45 7.85C13.15 7.475 12.7 7.25 12.25 7.25H7.75C7.3 7.25 6.85 7.475 6.55 7.85L5.05 9.875C4.825 10.1 4.75 10.4 4.75 10.775V13.25C4.75 14.075 5.425 14.75 6.25 14.75H7.75L8.5 13.625H11.5L12.25 14.75H13.75C14.575 14.75 15.25 14.075 15.25 13.25V10.775C15.25 10.4 15.175 10.1 14.95 9.875ZM7 13.25C6.55 13.25 6.25 12.95 6.25 12.5C6.25 12.05 6.55 11.75 7 11.75C7.45 11.75 7.75 12.05 7.75 12.5C7.75 12.95 7.45 13.25 7 13.25ZM6.25 10.25V10.1L7.225 8.825C7.45 8.525 7.75 8.375 8.125 8.375H11.875C12.25 8.375 12.55 8.525 12.775 8.825L13.75 10.1V10.25H6.25ZM13 13.25C12.55 13.25 12.25 12.95 12.25 12.5C12.25 12.05 12.55 11.75 13 11.75C13.45 11.75 13.75 12.05 13.75 12.5C13.75 12.95 13.45 13.25 13 13.25Z" fill="white"/>
</svg>
