<svg width="20" height="26" viewBox="0 0 20 26" fill="none" xmlns="http://www.w3.org/2000/svg">
<path d="M10 24.2826L6.13616 20.3055L6.13478 20.3041C3.79846 17.9183 2.6511 15.987 2.08017 14.3677C1.50968 12.7497 1.5 11.4064 1.5 10.1358C1.5 5.32763 5.32435 1.51557 10 1.50014C14.6756 1.51557 18.5 5.32776 18.5 10.1359C18.5 11.4065 18.4903 12.7498 17.9198 14.3678C17.3489 15.9872 16.2015 17.9184 13.8652 20.3043L13.8638 20.3057L10 24.2826Z" fill="#5B72A4" stroke="#7F94C9"/>
<path fill-rule="evenodd" clip-rule="evenodd" d="M8.99609 8.99609H6.85109C6.73839 8.9961 6.6268 8.97382 6.52274 8.93054C6.41868 8.88726 6.3242 8.82383 6.24474 8.7439C6.16528 8.66398 6.10241 8.56913 6.05974 8.46482C6.01706 8.36051 5.99543 8.24879 5.99609 8.13609V6.85109C5.99741 6.62474 6.08791 6.40803 6.24797 6.24797C6.40803 6.08791 6.62474 5.99741 6.85109 5.99609H8.99609L9.37109 6.74609H12.9961L13.7311 7.49609L12.9961 8.24609H11.7461L11.2461 7.74609L10.7461 8.24609H9.37109L8.99609 8.99609ZM6.99609 7.99609V6.99609H8.49609V7.99609H6.99609Z" fill="white"/>
<path fill-rule="evenodd" clip-rule="evenodd" d="M13.3861 10.3461L13.8861 11.4961H14.7461C14.8237 11.5543 14.8867 11.6298 14.9301 11.7166C14.9735 11.8034 14.9961 11.8991 14.9961 11.9961C14.9961 12.0931 14.9735 12.1888 14.9301 12.2756C14.8867 12.3624 14.8237 12.4379 14.7461 12.4961H14.4961V15.4961C14.4961 15.6287 14.4434 15.7559 14.3496 15.8496C14.2559 15.9434 14.1287 15.9961 13.9961 15.9961H12.4961C12.3635 15.9961 12.2363 15.9434 12.1425 15.8496C12.0488 15.7559 11.9961 15.6287 11.9961 15.4961V14.9961H7.99609V15.4961C7.99609 15.6287 7.94341 15.7559 7.84965 15.8496C7.75588 15.9434 7.6287 15.9961 7.49609 15.9961H5.99609C5.86349 15.9961 5.73631 15.9434 5.64254 15.8496C5.54877 15.7559 5.49609 15.6287 5.49609 15.4961V12.4961H5.24609C5.16847 12.4379 5.10547 12.3624 5.06208 12.2756C5.01868 12.1888 4.99609 12.0931 4.99609 11.9961C4.99609 11.8991 5.01868 11.8034 5.06208 11.7166C5.10547 11.6298 5.16847 11.5543 5.24609 11.4961H6.13609L6.63609 10.3461C6.74023 10.0989 6.91365 9.88714 7.13545 9.73632C7.35725 9.5855 7.61794 9.50207 7.88609 9.49609H12.1211C12.3915 9.50044 12.6549 9.58303 12.8794 9.73388C13.1039 9.88472 13.2799 10.0974 13.3861 10.3461ZM6.99609 11.9961L7.55109 10.7511C7.57668 10.681 7.62185 10.6197 7.68123 10.5745C7.74061 10.5293 7.81171 10.5021 7.88609 10.4961H12.1211C12.1962 10.5018 12.2681 10.5288 12.3283 10.574C12.3885 10.6191 12.4346 10.6806 12.4611 10.7511L12.9961 11.9961H6.99609ZM6.74609 12.9961H7.99609V13.9961H6.74609C6.66847 13.9379 6.60547 13.8624 6.56208 13.7756C6.51868 13.6888 6.49609 13.5931 6.49609 13.4961C6.49609 13.3991 6.51868 13.3034 6.56208 13.2166C6.60547 13.1298 6.66847 13.0543 6.74609 12.9961ZM13.4301 13.7756C13.3867 13.8624 13.3237 13.9379 13.2461 13.9961H11.9961V12.9961H13.2461C13.3237 13.0543 13.3867 13.1298 13.4301 13.2166C13.4735 13.3034 13.4961 13.3991 13.4961 13.4961C13.4961 13.5931 13.4735 13.6888 13.4301 13.7756Z" fill="white"/>
</svg>
