<svg width="20" height="26" viewBox="0 0 20 26" fill="none" xmlns="http://www.w3.org/2000/svg">
<path d="M10 24.2826L6.13616 20.3055L6.13478 20.3041C3.79846 17.9183 2.6511 15.987 2.08017 14.3677C1.50968 12.7497 1.5 11.4064 1.5 10.1358C1.5 5.32763 5.32435 1.51557 10 1.50014C14.6756 1.51557 18.5 5.32776 18.5 10.1359C18.5 11.4065 18.4903 12.7498 17.9198 14.3678C17.3489 15.9872 16.2015 17.9184 13.8652 20.3043L13.8638 20.3057L10 24.2826Z" fill="#BA4A82" stroke="#E26EA5"/>
<path d="M11.1261 10.5C11.5446 10.4999 11.9548 10.383 12.3105 10.1626C12.6662 9.94221 12.9535 9.62695 13.1399 9.25228C13.3263 8.87761 13.4045 8.45837 13.3658 8.04168C13.327 7.625 13.1728 7.22737 12.9205 6.89349C12.6682 6.55962 12.3278 6.30272 11.9375 6.15167C11.5473 6.00063 11.1226 5.96142 10.7113 6.03845C10.2999 6.11548 9.91823 6.30571 9.60906 6.58774C9.2999 6.86978 9.07551 7.23245 8.96112 7.635C8.78808 7.35965 8.54622 7.13418 8.25942 6.98086C7.97262 6.82754 7.65078 6.75166 7.3257 6.76073C7.00061 6.76979 6.68351 6.86348 6.40569 7.03254C6.12788 7.2016 5.89896 7.44019 5.74152 7.72476C5.58409 8.00933 5.5036 8.33003 5.50798 8.65522C5.51237 8.9804 5.60148 9.29882 5.76653 9.57904C5.93158 9.85925 6.16685 10.0916 6.44912 10.2531C6.7314 10.4146 7.05091 10.4997 7.37612 10.5H11.1261ZM11.1261 7.5C11.2745 7.5 11.4195 7.54399 11.5428 7.6264C11.6661 7.70881 11.7623 7.82594 11.819 7.96299C11.8758 8.10003 11.8906 8.25083 11.8617 8.39632C11.8328 8.5418 11.7613 8.67544 11.6565 8.78033C11.5516 8.88522 11.4179 8.95665 11.2724 8.98559C11.127 9.01453 10.9762 8.99968 10.8391 8.94291C10.7021 8.88614 10.5849 8.79001 10.5025 8.66668C10.4201 8.54334 10.3761 8.39834 10.3761 8.25C10.3761 8.05109 10.4551 7.86032 10.5958 7.71967C10.7364 7.57902 10.9272 7.5 11.1261 7.5ZM6.62612 8.625C6.62612 8.47666 6.67011 8.33166 6.75252 8.20832C6.83493 8.08499 6.95207 7.98886 7.08911 7.93209C7.22616 7.87532 7.37695 7.86047 7.52244 7.88941C7.66793 7.91835 7.80156 7.98978 7.90645 8.09467C8.01134 8.19956 8.08277 8.3332 8.11171 8.47868C8.14065 8.62417 8.1258 8.77497 8.06903 8.91201C8.01227 9.04906 7.91614 9.16619 7.7928 9.2486C7.66946 9.33101 7.52446 9.375 7.37612 9.375C7.17721 9.375 6.98645 9.29598 6.84579 9.15533C6.70514 9.01468 6.62612 8.82391 6.62612 8.625ZM14.5011 12V15.5H13.5011L12.0011 14.5V15.5C12.0011 15.6326 11.9484 15.7598 11.8547 15.8536C11.7609 15.9473 11.6337 16 11.5011 16H7.00112C6.86851 16 6.74134 15.9473 6.64757 15.8536C6.5538 15.7598 6.50112 15.6326 6.50112 15.5V12C6.50112 11.8674 6.5538 11.7402 6.64757 11.6464C6.74134 11.5527 6.86851 11.5 7.00112 11.5H11.5011C11.6337 11.5 11.7609 11.5527 11.8547 11.6464C11.9484 11.7402 12.0011 11.8674 12.0011 12V13L13.5011 12H14.5011Z" fill="white"/>
</svg>
