<svg width="20" height="26" viewBox="0 0 20 26" fill="none" xmlns="http://www.w3.org/2000/svg">
<path d="M10 24.2826L6.13616 20.3055L6.13478 20.3041C3.79846 17.9183 2.6511 15.987 2.08017 14.3677C1.50968 12.7497 1.5 11.4064 1.5 10.1358C1.5 5.32763 5.32435 1.51557 10 1.50014C14.6756 1.51557 18.5 5.32776 18.5 10.1359C18.5 11.4065 18.4903 12.7498 17.9198 14.3678C17.3489 15.9872 16.2015 17.9184 13.8652 20.3043L13.8638 20.3057L10 24.2826Z" fill="#BA6517" stroke="#E3883B"/>
<path d="M11.5008 15H10.5008C10.5008 15 10.5008 13.265 10.5008 12.65C10.5004 12.3956 10.5969 12.1507 10.7708 11.965L14.5008 8H8.72578L6.72578 6L6.13578 6.63L7.50078 8H5.30078L9.21078 11.95C9.39552 12.1363 9.49968 12.3877 9.50078 12.65C9.50078 13.285 9.50078 15 9.50078 15H8.50078C8.23556 15 7.98121 15.1054 7.79367 15.2929C7.60614 15.4804 7.50078 15.7348 7.50078 16H12.5008C12.5008 15.7348 12.3954 15.4804 12.2079 15.2929C12.0204 15.1054 11.766 15 11.5008 15ZM10.5008 11C10.3426 10.9988 10.187 10.9602 10.0467 10.8872C9.90637 10.8142 9.78537 10.7089 9.69362 10.5801C9.60188 10.4513 9.542 10.3025 9.5189 10.146C9.49581 9.98956 9.51016 9.82985 9.56078 9.68C9.62732 9.48299 9.75361 9.31163 9.92209 9.18975C10.0906 9.06787 10.2928 9.00154 10.5008 9C10.6734 8.99716 10.8434 9.04242 10.9918 9.13073C11.1401 9.21904 11.261 9.3469 11.3408 9.5C11.4275 9.65012 11.4738 9.82021 11.4749 9.99359C11.4761 10.167 11.4322 10.3377 11.3475 10.4889C11.2627 10.6402 11.1402 10.7669 10.9917 10.8565C10.8433 10.9461 10.6741 10.9955 10.5008 11Z" fill="white"/>
</svg>
