<svg width="20" height="26" viewBox="0 0 20 26" fill="none" xmlns="http://www.w3.org/2000/svg">
<path d="M10 24.2826L6.13616 20.3055L6.13478 20.3041C3.79846 17.9183 2.6511 15.987 2.08017 14.3677C1.50968 12.7497 1.5 11.4064 1.5 10.1358C1.5 5.32763 5.32435 1.51557 10 1.50014C14.6756 1.51557 18.5 5.32776 18.5 10.1359C18.5 11.4065 18.4903 12.7498 17.9198 14.3678C17.3489 15.9872 16.2015 17.9184 13.8652 20.3043L13.8638 20.3057L10 24.2826Z" fill="#97215E" stroke="#BD487F"/>
<path d="M4.75 7.0625H6.36465C6.45631 7.0625 6.53453 7.12876 6.5496 7.21917L7.4657 12.7158C7.57118 13.3486 8.11874 13.8125 8.76034 13.8125H13.75V12.6875H8.76034C8.66869 12.6875 8.59046 12.6212 8.5754 12.5308L8.38276 11.375H13.75C14.1642 11.375 14.5 11.0392 14.5 10.625V8H7.82026L7.6593 7.03423C7.55382 6.40135 7.00626 5.9375 6.36465 5.9375H4.75V7.0625Z" fill="white"/>
<path d="M13.75 15.3125C13.75 15.8303 13.3303 16.25 12.8125 16.25C12.2947 16.25 11.875 15.8303 11.875 15.3125C11.875 14.7947 12.2947 14.375 12.8125 14.375C13.3303 14.375 13.75 14.7947 13.75 15.3125Z" fill="white"/>
<path d="M8.6875 16.25C9.20527 16.25 9.625 15.8303 9.625 15.3125C9.625 14.7947 9.20527 14.375 8.6875 14.375C8.16973 14.375 7.75 14.7947 7.75 15.3125C7.75 15.8303 8.16973 16.25 8.6875 16.25Z" fill="white"/>
</svg>
