<svg width="20" height="26" viewBox="0 0 20 26" fill="none" xmlns="http://www.w3.org/2000/svg">
<path d="M10 24.2826L6.13616 20.3055L6.13478 20.3041C3.79846 17.9183 2.6511 15.987 2.08017 14.3677C1.50968 12.7497 1.5 11.4064 1.5 10.1358C1.5 5.32763 5.32435 1.51557 10 1.50014C14.6756 1.51557 18.5 5.32776 18.5 10.1359C18.5 11.4065 18.4903 12.7498 17.9198 14.3678C17.3489 15.9872 16.2015 17.9184 13.8652 20.3043L13.8638 20.3057L10 24.2826Z" fill="#5B72A4" stroke="#7F94C9"/>
<path d="M10.7935 6.40625C9.33777 6.40625 8.03317 7.58044 8.03317 9.10615V10.25H7.00189V11.75H8.03317V12.5378C8.03317 13.0935 7.70589 13.5971 7.19806 13.8228L7.01037 13.9062H7.00192V13.9106C6.9987 13.9117 6.9953 13.913 6.99219 13.9143L7.00192 13.9106V13.9362V15.5937H13.0019V13.9062H9.4016C9.60762 13.4887 9.72067 13.0222 9.72067 12.5378V11.75H11.6894V10.25H9.72067V8.975C9.72067 8.375 10.2271 7.835 10.7521 7.835C11.2396 7.835 11.5021 7.9625 11.6896 8.1875L12.6422 7.19703C12.1584 6.71325 11.5396 6.40625 10.7935 6.40625Z" fill="white"/>
</svg>
