<svg width="20" height="26" viewBox="0 0 20 26" fill="none" xmlns="http://www.w3.org/2000/svg">
<path d="M10 24.2826L6.13616 20.3055L6.13478 20.3041C3.79846 17.9183 2.6511 15.987 2.08017 14.3677C1.50968 12.7497 1.5 11.4064 1.5 10.1358C1.5 5.32763 5.32435 1.51557 10 1.50014C14.6756 1.51557 18.5 5.32776 18.5 10.1359C18.5 11.4065 18.4903 12.7498 17.9198 14.3678C17.3489 15.9872 16.2015 17.9184 13.8652 20.3043L13.8638 20.3057L10 24.2826Z" fill="#1B8862" stroke="#48AD84"/>
<path d="M14.8606 10.5009L14.1556 9.80094L15.0406 8.91594L14.0006 7.85594L14.5006 7.32594L13.8006 6.61594L13.2706 7.15094L12.2106 6.08594L11.3256 6.97094L10.6206 6.26594C10.5741 6.21907 10.5188 6.18188 10.4579 6.15649C10.397 6.13111 10.3316 6.11804 10.2656 6.11804C10.1996 6.11804 10.1343 6.13111 10.0733 6.15649C10.0124 6.18188 9.95711 6.21907 9.91062 6.26594L9.03062 7.15094C8.9375 7.24462 8.88523 7.37134 8.88523 7.50344C8.88523 7.63553 8.9375 7.76226 9.03062 7.85594L10.7956 9.62094L8.50062 11.9209L6.73062 10.1559C6.68414 10.1091 6.62884 10.0719 6.56791 10.0465C6.50698 10.0211 6.44163 10.008 6.37562 10.008C6.30962 10.008 6.24427 10.0211 6.18334 10.0465C6.12241 10.0719 6.06711 10.1091 6.02062 10.1559L5.31563 10.8609C5.2225 10.9546 5.17023 11.0813 5.17023 11.2134C5.17023 11.3455 5.2225 11.4723 5.31563 11.5659L6.00062 12.2759L5.14062 13.1609L6.20062 14.2209L5.50062 14.9259L6.20062 15.6359L6.90562 14.9259L7.96562 16.0009L8.85062 15.1059L9.56062 15.8109C9.65431 15.9041 9.78103 15.9563 9.91312 15.9563C10.0452 15.9563 10.1719 15.9041 10.2656 15.8109L10.9706 15.1059C11.0175 15.0595 11.0547 15.0042 11.0801 14.9432C11.1055 14.8823 11.1185 14.8169 11.1185 14.7509C11.1185 14.6849 11.1055 14.6196 11.0801 14.5586C11.0547 14.4977 11.0175 14.4424 10.9706 14.3959L9.20562 12.6309L11.5056 10.3309L13.2706 12.0959C13.3643 12.1891 13.491 12.2413 13.6231 12.2413C13.7552 12.2413 13.8819 12.1891 13.9756 12.0959L14.8606 11.2159C14.9082 11.1694 14.9461 11.1138 14.9719 11.0524C14.9978 10.991 15.0111 10.925 15.0111 10.8584C15.0111 10.7918 14.9978 10.7259 14.9719 10.6645C14.9461 10.6031 14.9082 10.5475 14.8606 10.5009Z" fill="white"/>
</svg>
