<svg width="20" height="26" viewBox="0 0 20 26" fill="none" xmlns="http://www.w3.org/2000/svg">
<path d="M10 24.2826L6.13616 20.3055L6.13478 20.3041C3.79846 17.9183 2.6511 15.987 2.08017 14.3677C1.50968 12.7497 1.5 11.4064 1.5 10.1358C1.5 5.32763 5.32435 1.51557 10 1.50014C14.6756 1.51557 18.5 5.32776 18.5 10.1359C18.5 11.4065 18.4903 12.7498 17.9198 14.3678C17.3489 15.9872 16.2015 17.9184 13.8652 20.3043L13.8638 20.3057L10 24.2826Z" fill="#BF173E" stroke="#E9475E"/>
<path d="M10 6L5 7.78V9.21L10 7.42L15 9.21V7.78L10 6Z" fill="white"/>
<path d="M12.3117 10.8207C12.1321 10.7745 11.9439 10.75 11.7499 10.75C10.5073 10.75 9.49994 11.7574 9.49994 13C9.49994 14.2426 10.5073 15.25 11.7499 15.25C11.9439 15.25 12.1321 15.2255 12.3117 15.1793C11.7741 15.688 11.0485 16 10.25 16C8.59311 16 7.24997 14.6568 7.24997 13C7.24997 11.3431 8.59311 9.99999 10.25 9.99999C11.0485 9.99999 11.7741 10.312 12.3117 10.8207Z" fill="white"/>
</svg>
