<svg width="20" height="26" viewBox="0 0 20 26" fill="none" xmlns="http://www.w3.org/2000/svg">
<path d="M10 24.2826L6.13616 20.3055L6.13478 20.3041C3.79846 17.9183 2.6511 15.987 2.08017 14.3677C1.50968 12.7497 1.5 11.4064 1.5 10.1358C1.5 5.32763 5.32435 1.51557 10 1.50014C14.6756 1.51557 18.5 5.32776 18.5 10.1359C18.5 11.4065 18.4903 12.7498 17.9198 14.3678C17.3489 15.9872 16.2015 17.9184 13.8652 20.3043L13.8638 20.3057L10 24.2826Z" fill="#BF173E" stroke="#E9475E"/>
<path d="M12.5 11H10.5V13H9.5V11H7.5V10H9.5V8H10.5V10H12.5V11ZM13.5 7H6.5V12.91L10 14.855L13.5 12.91V7ZM14.5 6V13.5L10 16L5.5 13.5V6H14.5Z" fill="white"/>
</svg>
