<svg width="20" height="26" viewBox="0 0 20 26" fill="none" xmlns="http://www.w3.org/2000/svg">
<path d="M6.13616 20.3055L6.13478 20.3041C3.79846 17.9183 2.6511 15.987 2.08017 14.3677C1.50968 12.7497 1.5 11.4064 1.5 10.1358C1.5 5.32763 5.32435 1.51557 10 1.50014C14.6756 1.51557 18.5 5.32776 18.5 10.1359C18.5 11.4065 18.4903 12.7498 17.9198 14.3678C17.3489 15.9872 16.2015 17.9184 13.8652 20.3043L13.8638 20.3057L10 24.2826L6.13616 20.3055Z" fill="#5F6D87" stroke="#8190AB"/>
<path d="M8.50009 6.50079V9.50079H5.5001V8.52577H6.77509L4.9751 6.72578L5.65009 6.05078L7.4501 7.85078V6.57577H8.50009V6.50079ZM11.5001 6.50079V9.50079H14.5001V8.52577H13.2251L15.0251 6.72578L14.3501 6.05078L12.5501 7.85078V6.57577H11.5001V6.50079ZM12.4751 15.5008V14.2258L14.2751 16.0258L14.9501 15.3508L13.1501 13.5508H14.4251V12.5758H11.4251V15.5758H12.4751V15.5008ZM8.50009 15.5008V12.5008H5.5001V13.4758H6.77509L4.9751 15.2758L5.65009 15.9508L7.4501 14.1508V15.4258H8.50009V15.5008ZM10.0001 9.87579C9.40009 9.87579 8.87509 10.4008 8.87509 11.0008C8.87509 11.6008 9.40009 12.1258 10.0001 12.1258C10.6001 12.1258 11.1251 11.6008 11.1251 11.0008C11.1251 10.4008 10.6001 9.87579 10.0001 9.87579Z" fill="white"/>
</svg>
