<svg width="20" height="26" viewBox="0 0 20 26" fill="none" xmlns="http://www.w3.org/2000/svg">
<path d="M10 24.2826L6.13616 20.3055L6.13478 20.3041C3.79846 17.9183 2.6511 15.987 2.08017 14.3677C1.50968 12.7497 1.5 11.4064 1.5 10.1358C1.5 5.32763 5.32435 1.51557 10 1.50014C14.6756 1.51557 18.5 5.32776 18.5 10.1359C18.5 11.4065 18.4903 12.7498 17.9198 14.3678C17.3489 15.9872 16.2015 17.9184 13.8652 20.3043L13.8638 20.3057L10 24.2826Z" fill="#853A92" stroke="#AA5DB6"/>
<path d="M8.50019 13.4835V13.5476C8.50019 13.8437 8.41253 14.1333 8.24826 14.3797L8.00211 14.7489C7.83784 14.9953 7.75019 15.2848 7.75019 15.5809V16.2518H12.6252V11.7782C12.6252 11.5274 12.7505 11.2932 12.9592 11.1541L13.3104 10.92C13.5741 10.7441 13.6989 10.4215 13.622 10.114L13.5172 9.69487C13.4337 9.361 13.1338 9.12677 12.7896 9.12677H10.9055C10.6126 9.12677 10.3752 8.88934 10.3752 8.59644C10.3752 8.45579 10.4311 8.3209 10.5305 8.22144L10.5766 8.17535C10.6889 8.0631 10.7588 7.91547 10.7746 7.75751L10.7997 7.50651C10.8164 7.33916 10.7926 7.17023 10.7301 7.01407L10.6078 6.70838C10.4603 6.33952 10.1578 6.05432 9.78092 5.92869C9.4411 5.81541 9.07019 5.84177 8.74981 6.00196L8.46924 6.14225C8.02858 6.36258 7.75019 6.81298 7.75019 7.30566V7.32573C7.75019 7.74809 7.96127 8.14249 8.31269 8.37677L8.57579 8.55218C8.76284 8.67687 8.87519 8.8868 8.87519 9.1116C8.87519 9.35287 8.7459 9.57565 8.53642 9.69535L6.76078 10.71C6.46097 10.8813 6.31688 11.2352 6.41174 11.5672L6.76983 12.8205C6.88953 13.2395 7.36045 13.4466 7.75019 13.2518L7.95748 13.1481C8.20682 13.0235 8.50019 13.2048 8.50019 13.4835Z" fill="white"/>
</svg>
