<svg width="20" height="26" viewBox="0 0 20 26" fill="none" xmlns="http://www.w3.org/2000/svg">
<path d="M10 24.2826L6.13616 20.3055L6.13478 20.3041C3.79846 17.9183 2.6511 15.987 2.08017 14.3677C1.50968 12.7497 1.5 11.4064 1.5 10.1358C1.5 5.32763 5.32435 1.51557 10 1.50014C14.6756 1.51557 18.5 5.32776 18.5 10.1359C18.5 11.4065 18.4903 12.7498 17.9198 14.3678C17.3489 15.9872 16.2015 17.9184 13.8652 20.3043L13.8638 20.3057L10 24.2826Z" fill="#875147" stroke="#AC7267"/>
<path d="M10 8C12.205 8 14 9.345 14 11C14 12.655 12.205 14 10 14C7.795 14 6 12.655 6 11C6 9.345 7.795 8 10 8ZM10 7C7.24 7 5 8.79 5 11C5 13.21 7.24 15 10 15C12.76 15 15 13.21 15 11C15 8.79 12.76 7 10 7ZM10 10C11.22 10 12 10.59 12 11C12 11.41 11.22 12 10 12C8.78 12 8 11.41 8 11C8 10.59 8.78 10 10 10ZM10 9C8.345 9 7 9.895 7 11C7 12.105 8.345 13 10 13C11.655 13 13 12.105 13 11C13 9.895 11.655 9 10 9Z" fill="white"/>
</svg>
