<svg width="20" height="26" viewBox="0 0 20 26" fill="none" xmlns="http://www.w3.org/2000/svg">
<path d="M10 24.2826L6.13616 20.3055L6.13478 20.3041C3.79846 17.9183 2.6511 15.987 2.08017 14.3677C1.50968 12.7497 1.5 11.4064 1.5 10.1358C1.5 5.32763 5.32435 1.51557 10 1.50014C14.6756 1.51557 18.5 5.32776 18.5 10.1359C18.5 11.4065 18.4903 12.7498 17.9198 14.3678C17.3489 15.9872 16.2015 17.9184 13.8652 20.3043L13.8638 20.3057L10 24.2826Z" fill="#0686D0" stroke="#4FA9F7"/>
<path d="M15 9L13 7L12.5 7.545L13.5 8.545V11L14 11.5V14C14 14.2652 13.8946 14.5196 13.7071 14.7071C13.5196 14.8946 13.2652 15 13 15H11V7C11.0109 6.74699 10.9214 6.49993 10.7509 6.31262C10.5805 6.12532 10.3429 6.01296 10.09 6H6.91C6.65709 6.01296 6.41954 6.12532 6.24909 6.31262C6.07865 6.49993 5.98912 6.74699 6 7V15H5V16H13C13.5304 16 14.0391 15.7893 14.4142 15.4142C14.7893 15.0391 15 14.5304 15 14V9ZM7 7H10V10.5H7V7Z" fill="white"/>
</svg>
