<svg width="20" height="26" viewBox="0 0 20 26" fill="none" xmlns="http://www.w3.org/2000/svg">
<path d="M10 24.2826L6.13616 20.3055L6.13478 20.3041C3.79846 17.9183 2.6511 15.987 2.08017 14.3677C1.50968 12.7497 1.5 11.4064 1.5 10.1358C1.5 5.32763 5.32435 1.51557 10 1.50014C14.6756 1.51557 18.5 5.32776 18.5 10.1359C18.5 11.4065 18.4903 12.7498 17.9198 14.3678C17.3489 15.9872 16.2015 17.9184 13.8652 20.3043L13.8638 20.3057L10 24.2826Z" fill="#BF173E" stroke="#E9475E"/>
<path d="M11.285 8.285C11.2662 8.6664 11.1338 9.03348 10.9049 9.33907C10.6759 9.64467 10.3608 9.87484 10 10C9.63923 9.87484 9.32412 9.64467 9.09514 9.33907C8.86617 9.03348 8.73379 8.6664 8.715 8.285V7.855L10 7.43L11.285 7.855V8.285ZM14.75 8.5L10 6L5.25 8.5L7 10V10.5C7 10.5 7.5 11 10 11C12.5 11 13 10.5 13 10.5V10L14.75 8.5ZM13 11.25C13 11.25 12.5 12.5 10 12.5C7.5 12.5 7 11.25 7 11.25V11.75C7 14.095 8.345 16 10 16C11.655 16 13 14.095 13 11.75V11.25Z" fill="white"/>
</svg>
