<svg width="20" height="26" viewBox="0 0 20 26" fill="none" xmlns="http://www.w3.org/2000/svg">
<path d="M10 24.2826L6.13616 20.3055L6.13478 20.3041C3.79846 17.9183 2.6511 15.987 2.08017 14.3677C1.50968 12.7497 1.5 11.4064 1.5 10.1358C1.5 5.32763 5.32435 1.51557 10 1.50014C14.6756 1.51557 18.5 5.32776 18.5 10.1359C18.5 11.4065 18.4903 12.7498 17.9198 14.3678C17.3489 15.9872 16.2015 17.9184 13.8652 20.3043L13.8638 20.3057L10 24.2826Z" fill="#BA6517" stroke="#E3883B"/>
<path d="M14.0569 9.9996H6.00188V14.9996L5.75188 15.9996H13.2519L13.0019 14.9996V14.4996L14.1969 14.3096C14.4271 14.2639 14.6339 14.1386 14.781 13.9558C14.9282 13.773 15.0064 13.5443 15.0019 13.3096V10.9996C15.0023 10.7436 14.9045 10.4973 14.7287 10.3113C14.5529 10.1252 14.3124 10.0137 14.0569 9.9996ZM9.00188 14.4996H8.00188V10.9996H9.00188V14.4996ZM11.0019 14.4996H10.0019V10.9996H11.0019V14.4996ZM14.0019 13.0946C14.0019 13.1522 13.982 13.2081 13.9455 13.2527C13.9091 13.2974 13.8583 13.3281 13.8019 13.3396L13.0019 13.4996V10.9996H13.7519C13.8182 10.9996 13.8818 11.0259 13.9287 11.0728C13.9755 11.1197 14.0019 11.1833 14.0019 11.2496V13.0946ZM6.54688 8.9996H5.54688C5.54167 8.91635 5.54167 8.83286 5.54688 8.7496C5.54673 8.29317 5.72491 7.85473 6.04343 7.52781C6.36195 7.20088 6.79559 7.01134 7.25188 6.9996H7.75188C7.92834 6.69885 8.18036 6.44946 8.48295 6.27617C8.78554 6.10289 9.12818 6.01172 9.47688 6.01172C9.82558 6.01172 10.1682 6.10289 10.4708 6.27617C10.7734 6.44946 11.0254 6.69885 11.2019 6.9996H11.7519C12.216 6.9996 12.6611 7.18398 12.9893 7.51217C13.3175 7.84036 13.5019 8.28548 13.5019 8.7496C13.5071 8.83286 13.5071 8.91635 13.5019 8.9996H12.5019C12.517 8.91696 12.517 8.83225 12.5019 8.7496C12.5019 8.55069 12.4229 8.35993 12.2822 8.21927C12.1416 8.07862 11.9508 7.9996 11.7519 7.9996H10.5019C10.5019 7.73439 10.3965 7.48003 10.209 7.2925C10.0214 7.10496 9.76709 6.9996 9.50188 6.9996C9.23666 6.9996 8.98231 7.10496 8.79477 7.2925C8.60724 7.48003 8.50188 7.73439 8.50188 7.9996H7.25188C7.05297 7.9996 6.8622 8.07862 6.72155 8.21927C6.5809 8.35993 6.50188 8.55069 6.50188 8.7496C6.5038 8.83477 6.51898 8.91911 6.54688 8.9996V8.9996Z" fill="white"/>
</svg>
