<svg width="20" height="26" viewBox="0 0 20 26" fill="none" xmlns="http://www.w3.org/2000/svg">
<circle cx="10" cy="13" r="8.5" fill="#275CAA" stroke="#547DCF"/>
<path fill-rule="evenodd" clip-rule="evenodd" d="M7.75005 8.5V7.75H12.25V8.5H10.5625V9.625H11.6484C11.9999 9.625 12.3043 9.86915 12.3805 10.2123L13 13V15.25C13 15.6642 12.6642 16 12.25 16H7.75C7.33579 16 7 15.6642 7 15.25V13L7.61949 10.2123C7.69574 9.86915 8.0001 9.625 8.35163 9.625H9.4375V8.5L7.75005 8.5ZM10 13.75C9.58579 13.75 9.25 14.0858 9.25 14.5C9.25 14.9142 9.58579 15.25 10 15.25C10.4142 15.25 10.75 14.9142 10.75 14.5C10.75 14.0858 10.4142 13.75 10 13.75ZM8.44778 11.0633C8.47792 10.8825 8.63436 10.75 8.81768 10.75H11.1823C11.3656 10.75 11.5221 10.8825 11.5522 11.0633L11.875 13H8.125L8.44778 11.0633Z" fill="white"/>
<path d="M6.25 18.25L8.125 16.75H9.25L8.125 18.25H6.25Z" fill="white"/>
<path d="M13.75 18.25L11.875 16.75H10.75L11.875 18.25H13.75Z" fill="white"/>
</svg>
