<svg width="20" height="26" viewBox="0 0 20 26" fill="none" xmlns="http://www.w3.org/2000/svg">
<path d="M10 24.2826L6.13616 20.3055L6.13478 20.3041C3.79846 17.9183 2.6511 15.987 2.08017 14.3677C1.50968 12.7497 1.5 11.4064 1.5 10.1358C1.5 5.32763 5.32435 1.51557 10 1.50014C14.6756 1.51557 18.5 5.32776 18.5 10.1359C18.5 11.4065 18.4903 12.7498 17.9198 14.3678C17.3489 15.9872 16.2015 17.9184 13.8652 20.3043L13.8638 20.3057L10 24.2826Z" fill="#875147" stroke="#AC7267"/>
<path d="M13.0005 6L11.0005 11V14.5H9.50045V10.5H5.50045V16H15.0005V11L13.0005 6ZM7.00045 14.5V11.5C7.05867 11.4224 7.13416 11.3594 7.22094 11.316C7.30773 11.2726 7.40342 11.25 7.50045 11.25C7.59748 11.25 7.69318 11.2726 7.77996 11.316C7.86674 11.3594 7.94223 11.4224 8.00045 11.5V14.5H7.00045ZM12.5005 14.5V11.5C12.5587 11.4224 12.6342 11.3594 12.7209 11.316C12.8077 11.2726 12.9034 11.25 13.0005 11.25C13.0975 11.25 13.1932 11.2726 13.28 11.316C13.3667 11.3594 13.4422 11.4224 13.5005 11.5V14.5H12.5005ZM10.0005 8.5C10.0058 8.69496 9.96302 8.88823 9.8758 9.06267C9.78858 9.23712 9.65965 9.38733 9.50045 9.5H5.50045C5.34125 9.38733 5.21232 9.23712 5.1251 9.06267C5.03788 8.88823 4.99507 8.69496 5.00045 8.5C5.00045 7.5 7.50045 6 7.50045 6C7.50045 6 10.0005 7.5 10.0005 8.5Z" fill="white"/>
</svg>
