<svg width="20" height="26" viewBox="0 0 20 26" fill="none" xmlns="http://www.w3.org/2000/svg">
<path d="M6.13616 20.3055L6.13478 20.3041C3.79846 17.9183 2.6511 15.987 2.08017 14.3677C1.50968 12.7497 1.5 11.4064 1.5 10.1358C1.5 5.32763 5.32435 1.51557 10 1.50014C14.6756 1.51557 18.5 5.32776 18.5 10.1359C18.5 11.4065 18.4903 12.7498 17.9198 14.3678C17.3489 15.9872 16.2015 17.9184 13.8652 20.3043L13.8638 20.3057L10 24.2826L6.13616 20.3055Z" fill="#5B72A4" stroke="#7F94C9"/>
<path d="M14.3574 10.9549C13.9806 11.3319 13.5116 11.6037 12.9971 11.7432C12.4826 11.8827 11.9406 11.885 11.4249 11.7499L7.35245 15.7999C7.21111 15.9413 7.04332 16.0534 6.85866 16.1299C6.674 16.2063 6.47608 16.2457 6.2762 16.2457C5.87253 16.2457 5.48539 16.0854 5.19995 15.7999C4.91451 15.5145 4.75415 15.1273 4.75415 14.7237C4.75415 14.32 4.91451 13.9329 5.19995 13.6474L9.24995 9.57492C9.10141 9.02445 9.1108 8.44329 9.27705 7.89791C9.4433 7.35253 9.75969 6.86495 10.19 6.49094C10.6204 6.11693 11.1473 5.8716 11.7105 5.783C12.2738 5.69439 12.8506 5.7661 13.3749 5.98992L11.3949 7.99992L11.6649 9.34992L13.0149 9.61992L15.0099 7.62492C15.2429 8.18225 15.3052 8.79617 15.189 9.38894C15.0729 9.98172 14.7835 10.5267 14.3574 10.9549Z" fill="white"/>
</svg>
