<svg width="20" height="26" viewBox="0 0 20 26" fill="none" xmlns="http://www.w3.org/2000/svg">
<path d="M10 24.2826L6.13616 20.3055L6.13478 20.3041C3.79846 17.9183 2.6511 15.987 2.08017 14.3677C1.50968 12.7497 1.5 11.4064 1.5 10.1358C1.5 5.32763 5.32435 1.51557 10 1.50014C14.6756 1.51557 18.5 5.32776 18.5 10.1359C18.5 11.4065 18.4903 12.7498 17.9198 14.3678C17.3489 15.9872 16.2015 17.9184 13.8652 20.3043L13.8638 20.3057L10 24.2826Z" fill="#97215E" stroke="#BD487F"/>
<path d="M12.4991 9L12.3491 8C12.3121 7.59486 12.1268 7.21764 11.8288 6.94078C11.5307 6.66393 11.1408 6.50695 10.7341 6.5H9.26406C8.8573 6.50695 8.46745 6.66393 8.16936 6.94078C7.87128 7.21764 7.68599 7.59486 7.64906 8L7.52406 9H5.66406L5.94906 14.55C5.9619 14.8065 6.0729 15.0481 6.25906 15.225C6.44523 15.4019 6.69229 15.5003 6.94906 15.5H13.0491C13.3058 15.5003 13.5529 15.4019 13.7391 15.225C13.9252 15.0481 14.0362 14.8065 14.0491 14.55L14.3341 9H12.4991ZM8.63906 8.1C8.65231 7.94104 8.72312 7.79237 8.83819 7.6819C8.95326 7.57143 9.10469 7.50675 9.26406 7.5H10.7341C10.8934 7.50675 11.0449 7.57143 11.1599 7.6819C11.275 7.79237 11.3458 7.94104 11.3591 8.1L11.4441 8.95C11.4511 9.01974 11.4433 9.09017 11.4214 9.15673C11.3994 9.22329 11.3637 9.28448 11.3165 9.33634C11.2694 9.3882 11.2119 9.42957 11.1477 9.45777C11.0835 9.48596 11.0142 9.50035 10.9441 9.5H9.05406C8.98397 9.50035 8.91459 9.48596 8.85042 9.45777C8.78626 9.42957 8.72873 9.3882 8.68159 9.33634C8.63444 9.28448 8.59872 9.22329 8.57675 9.15673C8.55478 9.09017 8.54705 9.01974 8.55406 8.95L8.63906 8.1Z" fill="white"/>
</svg>
