<svg width="20" height="26" viewBox="0 0 20 26" fill="none" xmlns="http://www.w3.org/2000/svg">
<path d="M10 1.5C14.6756 1.51543 18.4999 5.32767 18.5 10.1357C18.5 11.4064 18.4904 12.7501 17.9199 14.3682C17.349 15.9874 16.2014 17.919 13.8652 20.3047L13.8643 20.3057L10 24.2822L6.13574 20.3057L6.13477 20.3037C3.79877 17.9181 2.65104 15.9874 2.08008 14.3682C1.50959 12.7501 1.5 11.4064 1.5 10.1357C1.50002 5.32762 5.32436 1.51543 10 1.5Z" fill="#97215E" stroke="#BD487F"/>
<path fill-rule="evenodd" clip-rule="evenodd" d="M11.0798 5.75C11.7319 5.75016 12.2609 6.27864 12.2612 6.93066C12.2612 7.21333 12.161 7.47295 11.9954 7.67627C12.0492 7.66936 12.1043 7.66382 12.1602 7.66382C12.831 7.66394 13.3751 8.17868 13.3753 8.81299C13.3753 9.44745 12.8311 9.96203 12.1602 9.96216C12.1366 9.96216 12.1131 9.96048 12.0899 9.95923C12.1973 10.1371 12.2612 10.3449 12.2612 10.5679C12.2612 11.2202 11.7321 11.7491 11.0798 11.7493C10.894 11.7493 10.7184 11.7056 10.562 11.6291V16.25H9.43703V11.6291C9.28088 11.7056 9.10565 11.7492 8.91994 11.7493C8.26759 11.7492 7.73854 11.2202 7.73854 10.5679C7.73861 10.345 7.80185 10.1371 7.9092 9.95923C7.88646 9.96043 7.8634 9.96215 7.84035 9.96216C7.16932 9.96216 6.62526 9.44753 6.62526 8.81299C6.62546 8.17861 7.16944 7.66382 7.84035 7.66382C7.89573 7.66384 7.95026 7.66947 8.00368 7.67627C7.8382 7.47299 7.73854 7.21321 7.73854 6.93066C7.73886 6.27857 8.26778 5.75004 8.91994 5.75C9.4024 5.75008 9.81619 6.04 9.99953 6.45459C10.1828 6.03984 10.5972 5.75 11.0798 5.75ZM10.0003 7.50122C9.27538 7.50122 8.68776 8.08885 8.68776 8.81372C8.68782 9.53854 9.27542 10.1262 10.0003 10.1262C10.7249 10.126 11.3127 9.53838 11.3128 8.81372C11.3128 8.08901 10.7249 7.50149 10.0003 7.50122Z" fill="white"/>
<path d="M11.5149 13.2646C11.9888 12.7908 12.6144 12.7705 13.0047 12.8179C13.2388 12.8464 13.4177 13.0254 13.4463 13.2595C13.4938 13.6497 13.4735 14.2752 12.9995 14.7493C12.5255 15.2232 11.9 15.2435 11.5098 15.196C11.2757 15.1673 11.0966 14.9885 11.0681 14.7544C11.0207 14.3642 11.041 13.7387 11.5149 13.2646Z" fill="white"/>
<path d="M6.99074 12.7988C7.38085 12.7514 8.00646 12.7719 8.48048 13.2456C8.95452 13.7196 8.97472 14.3451 8.92726 14.7354C8.89874 14.9696 8.71989 15.1485 8.48561 15.177C8.09541 15.2244 7.46978 15.2047 6.99587 14.731C6.52208 14.257 6.50167 13.6314 6.54909 13.2412C6.57757 13.0071 6.75671 12.8276 6.99074 12.7988Z" fill="white"/>
</svg>
