<svg width="20" height="26" viewBox="0 0 20 26" fill="none" xmlns="http://www.w3.org/2000/svg">
<path d="M10 24.2826L6.13616 20.3055L6.13478 20.3041C3.79846 17.9183 2.6511 15.987 2.08017 14.3677C1.50968 12.7497 1.5 11.4064 1.5 10.1358C1.5 5.32763 5.32435 1.51557 10 1.50014C14.6756 1.51557 18.5 5.32776 18.5 10.1359C18.5 11.4065 18.4903 12.7498 17.9198 14.3678C17.3489 15.9872 16.2015 17.9184 13.8652 20.3043L13.8638 20.3057L10 24.2826Z" fill="#97215E" stroke="#BD487F"/>
<path d="M14.1839 8.04379L14.6839 7.17379C14.7475 7.05945 14.7638 6.92472 14.7292 6.79853C14.6946 6.67233 14.6119 6.56472 14.4989 6.49879L14.0639 6.24879C13.9491 6.18361 13.8132 6.16647 13.6858 6.20113C13.5584 6.23579 13.4499 6.31943 13.3839 6.43379L12.6339 7.73379L13.0689 7.97879L13.4989 8.22879C13.556 8.26185 13.619 8.28329 13.6844 8.29189C13.7498 8.30048 13.8162 8.29605 13.8799 8.27885C13.9436 8.26166 14.0032 8.23204 14.0554 8.19169C14.1076 8.15135 14.1512 8.10109 14.1839 8.04379V8.04379ZM13.6839 14.9588C13.2589 15.1988 13.0689 15.1838 12.7889 15.0188L9.74891 13.2838L11.4989 12.2588L10.9989 10.5538L8.84891 9.31379L9.96391 11.3888L8.66391 12.6638L5.84391 11.0488L5.25391 11.5738L12.4089 15.6638C12.6318 15.793 12.8904 15.8468 13.1463 15.817C13.4022 15.7873 13.6416 15.6757 13.8289 15.4988L13.6839 14.9588ZM14.2439 10.9588L12.9439 10.2138L12.8989 8.75379L11.2139 7.78879C11.1379 7.74491 11.0517 7.7218 10.9639 7.7218C10.8761 7.7218 10.7899 7.74491 10.7139 7.78879L9.90391 8.49879L7.29891 6.99879L6.92891 7.64879L13.8739 11.6188L14.2439 10.9588Z" fill="white"/>
</svg>
