<svg width="20" height="26" viewBox="0 0 20 26" fill="none" xmlns="http://www.w3.org/2000/svg">
<path d="M10 24.2826L6.13616 20.3055L6.13478 20.3041C3.79846 17.9183 2.6511 15.987 2.08017 14.3677C1.50968 12.7497 1.5 11.4064 1.5 10.1358C1.5 5.32763 5.32435 1.51557 10 1.50014C14.6756 1.51557 18.5 5.32776 18.5 10.1359C18.5 11.4065 18.4903 12.7498 17.9198 14.3678C17.3489 15.9872 16.2015 17.9184 13.8652 20.3043L13.8638 20.3057L10 24.2826Z" fill="#875147" stroke="#AC7267"/>
<path d="M10.6088 6.62787L9.99853 5.77344L9.38823 6.62786C8.54615 7.80678 7.44373 8.53226 6.53545 8.96477C6.0831 9.18017 5.68573 9.31958 5.40481 9.40439C5.26462 9.44671 5.15424 9.47519 5.08152 9.49259C5.04519 9.50129 5.01833 9.5072 5.00195 9.51068L4.98537 9.5141C4.98561 9.51406 4.98529 9.51414 5.12351 10.2513C5.26173 10.9884 5.262 10.9884 5.26229 10.9883L5.26439 10.9879L5.26816 10.9872L5.27898 10.9851C5.28763 10.9834 5.29913 10.981 5.31337 10.978C5.34185 10.9719 5.38128 10.9632 5.43064 10.9514C5.5293 10.9278 5.66795 10.8918 5.83831 10.8404C6.17849 10.7377 6.64831 10.5724 7.18034 10.3191C8.0416 9.90894 9.08398 9.25921 9.99853 8.25495C10.9131 9.25921 11.9554 9.90894 12.8167 10.3191C13.3487 10.5724 13.8186 10.7377 14.1587 10.8404C14.3291 10.8918 14.4677 10.9278 14.5664 10.9514C14.6158 10.9632 14.6552 10.9719 14.6837 10.978C14.6979 10.981 14.7094 10.9834 14.7181 10.9851L14.7289 10.9872L14.7326 10.9879L14.7341 10.9882C14.7344 10.9883 14.7353 10.9884 14.8735 10.2513C15.0117 9.51414 15.012 9.51418 15.0122 9.51423L14.9951 9.51068C14.9787 9.5072 14.9519 9.50129 14.9155 9.49259C14.8428 9.47519 14.7324 9.44671 14.5922 9.40439C14.3113 9.31958 13.9139 9.18017 13.4616 8.96477C12.5533 8.53226 11.4509 7.80678 10.6088 6.62787Z" fill="white"/>
<path d="M8.49848 11.7513H6.99848V16.2513H12.9985V11.7513H11.4985V14.7513H8.49848V11.7513Z" fill="white"/>
</svg>
