<svg width="19" height="17" viewBox="0 0 19 17" fill="none" xmlns="http://www.w3.org/2000/svg">
<g id="hybrid / detailedshield_b_01">
<g id="detailedshield_b_base">
<g id="stretchable-items">
<path id="shape01" d="M1.5 10.6C1.5 12.8105 2.95455 14.7632 5.86364 14.7632H7.74517C8.40372 14.7632 9.03434 15.0282 9.5 15.5C9.96566 15.0282 10.5963 14.7632 11.2548 14.7632H13.1364C16.0455 14.7632 17.5 12.8105 17.5 10.6C17.5 8.15 16.4091 8.15 16.4091 6.6579C16.4091 6.05 17.5 5 17.5 5L15.4957 1.5C15.4957 1.5 14.3148 2.50009 12.4967 2.50009C10.6785 2.50009 9.5 1.5 9.5 1.5C9.5 1.5 8.31666 2.50009 6.49848 2.50009C4.6803 2.50009 3.49939 1.5 3.49939 1.5L1.5 5C1.5 5 2.59091 6.05 2.59091 6.6579C2.59091 8.15 1.5 8.15 1.5 10.6Z" fill="white" stroke="#555759" stroke-linejoin="round"/>
</g>
</g>
</g>
</svg>
