<svg width="20" height="19" viewBox="0 0 20 19" fill="none" xmlns="http://www.w3.org/2000/svg">
<g id="hybrid / taiwan_01">
<g id="taiwan_base">
<g id="stretchable-items">
<path id="shape01" d="M5.71335 4.68807C6.25213 2.84638 7.96736 1.5 10 1.5C12.0326 1.5 13.7479 2.84636 14.2866 4.68804C16.6353 4.81608 18.5 6.74347 18.5 9.10232C18.5 10.4871 17.8574 11.7232 16.8514 12.5338C16.8736 12.7125 16.885 12.8944 16.885 13.0789C16.885 15.5206 14.8871 17.5 12.4225 17.5C11.5294 17.5 10.6977 17.2401 10 16.7925C9.30234 17.2401 8.47055 17.5 7.57749 17.5C5.11292 17.5 3.11499 15.5206 3.11499 13.0789C3.11499 12.8944 3.1264 12.7125 3.14857 12.5338C2.14264 11.7232 1.5 10.4871 1.5 9.10235C1.5 6.74349 3.36468 4.81611 5.71335 4.68807Z" fill="white" stroke="#1F9E87"/>
</g>
</g>
</g>
</svg>
