<svg width="20" height="20" viewBox="0 0 20 20" fill="none" xmlns="http://www.w3.org/2000/svg">
<g id="hybrid / usa_VT_01">
<g id="usa_VT_base">
<g id="stretchable-items">
<path id="shape02" d="M2.57037 7.5H17.4296C17.4296 7.5 18.5 10.25 18.5 13C18.5 15.75 17.4296 18.5 17.4296 18.5H2.57037C2.57037 18.5 1.5 15.75 1.5 13C1.5 10.25 2.57037 7.5 2.57037 7.5Z" fill="white" stroke="#1F9E87" stroke-linejoin="round"/>
<path id="shape01" d="M1.5 1.5H18.5V7.5H1.5V1.5Z" fill="white" stroke="#1F9E87" stroke-linejoin="round"/>
</g>
<g id="non-stretchable-items">
<g id="shape01_2">
<path d="M9.12617 6.27836H8.23117L7.20117 2.81836H7.98617L8.69117 5.66836L9.37117 2.81836H10.1212L9.12617 6.27836Z" fill="#1F9E87"/>
<path d="M12.6631 3.39336H11.7881V6.27836H11.0531V3.39336H10.1331V2.81836H12.7431L12.6631 3.39336Z" fill="#1F9E87"/>
</g>
</g>
</g>
</g>
</svg>
