<svg width="19" height="19" viewBox="0 0 19 19" fill="none" xmlns="http://www.w3.org/2000/svg">
<g id="hybrid / usa_d_KS_01">
<g id="usa_d_base">
<g id="stretchable-items">
<g id="KS">
<path id="shape01" d="M16.8562 8.0242C17.7209 8.82453 17.711 10.1806 16.8566 10.9719C17.3697 12.0881 16.7798 13.2916 15.7214 13.6846C15.7668 14.9367 14.7635 15.7816 13.6434 15.7416C13.2089 16.9029 11.9945 17.3187 10.9533 16.8451C10.1336 17.7224 8.8617 17.7113 8.05231 16.8455C6.99871 17.3251 5.79098 16.8885 5.36193 15.7427C4.23018 15.7834 3.23854 14.9216 3.28346 13.6863C2.21335 13.2893 1.64157 12.0764 2.14765 10.9739C1.28087 10.1716 1.29034 8.81957 2.14712 8.02613C1.63394 6.90971 2.22387 5.70678 3.28238 5.31381C3.23655 4.06182 4.24044 3.21687 5.3603 3.25683C5.79482 2.09552 7.0089 1.67962 8.05013 2.15322C8.86961 1.27538 10.1425 1.28649 10.9517 2.15284C12.0053 1.67327 13.2128 2.11006 13.6418 3.25576C14.774 3.21507 15.7648 4.07681 15.7203 5.31218C16.7802 5.70552 17.3713 6.90268 16.8562 8.0242Z" fill="#F2EDB1" stroke="#555759"/>
</g>
</g>
</g>
</g>
</svg>
