<svg width="32" height="32" viewBox="0 0 32 32" fill="none" xmlns="http://www.w3.org/2000/svg">
<path fill-rule="evenodd" clip-rule="evenodd" d="M31.0607 15.647C31.256 15.8422 31.256 16.1588 31.0607 16.3541L16.354 31.0608C16.1587 31.2561 15.8421 31.2561 15.6469 31.0608L0.939369 16.3533C0.744107 16.1581 0.744107 15.8415 0.939369 15.6462L15.6461 0.939491C15.8414 0.744229 16.1579 0.744229 16.3532 0.939491L31.0607 15.647Z" fill="#FF870F"/>
<path d="M15.9996 2L30 16.0004L16.0004 30L2 15.9996L15.9996 2Z" fill="#1C232E"/>
<path d="M28.5 16L16 28.5L3.5 16L16 3.5L28.5 16Z" fill="#FF870F"/>
<path d="M20 10L17 12L16 9L15 12L12 10L13.364 13.745L11 13L12.657 14.947L9 16.063L12.677 17.188L11 19L13.361 18.4L12 22L15 20L16 23L17 20L20 22L18.637 18.379L21 19L19.348 17.182L23 16.063L19.324 14.94L21 13L18.643 13.726L20 10ZM12 16L15 15L16 12L17 15L20 16L17 17L16 20L15 17L12 16Z" fill="#1C232E"/>
</svg>
