<svg width="32" height="32" viewBox="0 0 32 32" fill="none" xmlns="http://www.w3.org/2000/svg">
<path fill-rule="evenodd" clip-rule="evenodd" d="M31.0607 15.647C31.256 15.8422 31.256 16.1588 31.0607 16.3541L16.354 31.0608C16.1587 31.2561 15.8421 31.2561 15.6469 31.0608L0.939369 16.3533C0.744107 16.1581 0.744107 15.8415 0.939369 15.6462L15.6461 0.939491C15.8414 0.744229 16.1579 0.744229 16.3532 0.939491L31.0607 15.647Z" fill="white"/>
<path d="M15.9996 2L30 16.0004L16.0004 30L2 15.9996L15.9996 2Z" fill="#1C232E"/>
<path d="M28.5 16L16 28.5L3.5 16L16 3.5L28.5 16Z" fill="white"/>
<path d="M11 8.5V23.5L8 20.5L8 11.5L11 8.5ZM16 3.5L14 5.5V26.5L16 28.5L18 26.5V5.5L16 3.5ZM21 8.5V23.5L24 20.5V11.5L21 8.5Z" fill="#FB1858"/>
<path d="M19.4432 13.358C19.1252 14.968 17.9642 15.971 16.9762 16.405C16.9652 16.416 17.6592 15.111 17.6012 13.342C17.5292 11.148 16.0752 9.18202 14.1812 8.29102C14.3432 8.83702 14.4372 9.41302 14.4372 10.011C14.4372 11.599 13.8142 13.047 12.7912 14.104C11.5212 15.417 10.9492 16.631 11.0002 18.029C11.1482 22.148 14.7772 22.974 14.8852 23C14.2152 22.607 13.7632 21.859 13.7632 21.003C13.7632 18.965 15.9522 17.413 15.9522 17.413C15.9522 17.413 18.1402 18.993 18.1402 21.003C18.1402 21.857 17.6912 22.602 17.0292 22.995C18.3022 22.7 19.2872 22.025 20.0002 20.947C20.0202 20.916 21.0002 19.437 21.0002 17.497C21.0002 15.857 20.3982 14.384 19.4432 13.358Z" fill="#1C232E"/>
</svg>
