<svg width="30" height="30" viewBox="0 0 30 30" fill="none" xmlns="http://www.w3.org/2000/svg">
<path fill-rule="evenodd" clip-rule="evenodd" d="M29 15C29 22.732 22.732 29 15 29C7.26801 29 1 22.732 1 15C1 7.26801 7.26801 1 15 1C22.732 1 29 7.26801 29 15ZM15 28C22.1797 28 28 22.1797 28 15C28 7.8203 22.1797 2 15 2C7.8203 2 2 7.8203 2 15C2 22.1797 7.8203 28 15 28Z" fill="white"/>
<circle cx="15" cy="15" r="13" fill="#FB1858"/>
<circle cx="15" cy="15" r="11" fill="white"/>
<path d="M20.6779 19L24.4127 22.7349L22.7355 24.4121L17.3234 19H20.6779Z" fill="#FB1858"/>
<path d="M11.6779 10L7.0902 5.41235L5.41296 7.08959L8.32337 10H11.6779Z" fill="#FB1858"/>
<path d="M8.5156 16.9393C8.5156 17.1211 8.57259 17.212 8.68656 17.212H10.6649C10.8602 17.212 10.9742 17.0908 11.0068 16.8484L11.0556 16.3938L11.6174 16.5454L11.5197 17.1817C11.4545 17.5858 11.2592 17.7878 10.9335 17.7878H8.54002C8.1981 17.7878 8.02713 17.5656 8.02713 17.1211V14.1211H10.4939V15.9393C10.4939 16.2625 10.3636 16.4241 10.1031 16.4241H9.51696L9.46811 15.8484H9.90773C9.97286 15.8484 10.0054 15.808 10.0054 15.7272V14.6969H8.5156V16.9393ZM9.44369 12.9393H11.3976V13.5151H7.39213V15.0302C7.39213 16.3029 7.05834 17.2524 6.39077 17.8787L6.02442 17.3332C6.61058 16.8888 6.90366 16.0908 6.90366 14.9393V13.5151C6.70827 13.7373 6.47218 13.9292 6.19538 14.0908L6 13.4848C6.79783 13.0201 7.35142 12.212 7.66078 11.0605L8.1981 11.1514C8.26323 11.212 8.2388 11.2827 8.12483 11.3635L8.02713 11.5757H9.81004L9.90773 11.4544L10.2741 11.7878C10.3392 11.8888 10.3066 11.9494 10.1764 11.9696L9.44369 12.9393ZM7.83175 12.1514C7.70149 12.414 7.54681 12.6767 7.3677 12.9393H8.88195L9.41926 12.1514H7.83175Z" fill="#1C232E"/>
<path d="M13.9132 12.8787C14.6621 12.5353 15.2076 11.9191 15.5495 11.0302L16.1357 11.0908C16.1845 11.1312 16.1682 11.1817 16.0868 11.2423C16.5102 11.8686 17.1289 12.3433 17.943 12.6666L17.772 13.3332C16.8602 12.9494 16.209 12.3938 15.8182 11.6666C15.5088 12.4342 14.9471 13.0504 14.133 13.5151L13.9132 12.8787ZM13.6689 15.5757C13.6364 14.9494 13.4817 14.3635 13.2049 13.8181L13.5468 11.909H12.9606V17.9696H12.4722V11.3332H13.7178L13.8155 11.2423L14.1574 11.6666L14.0597 11.7878L13.6445 13.7575C13.9864 14.3837 14.1655 14.9898 14.1818 15.5757C14.1981 16.3837 14.0109 16.7878 13.6201 16.7878H13.2049L13.156 16.1211H13.4491C13.6119 16.1211 13.6852 15.9393 13.6689 15.5757ZM15.9891 16.3332C15.6961 17.2221 14.9959 17.7777 13.8887 17.9999L13.7422 17.3332C14.8005 17.1312 15.4355 16.6363 15.6472 15.8484H14.4749V14.1211H15.7205V13.606H14.9389V13.0302H16.9905V13.606H16.1357V14.1211H17.4057V15.8484H16.2334C16.5265 16.4544 17.1045 16.909 17.9674 17.212L17.7965 17.8787C16.9986 17.6363 16.3962 17.1211 15.9891 16.3332ZM16.1357 15.3635H16.9905V14.606H16.1357V15.3635ZM14.8901 15.3635H15.7205V14.606H14.8901V15.3635Z" fill="#1C232E"/>
<path d="M19.2374 12.5454H19.6282V10.9999H20.0923C20.2225 11.0201 20.2307 11.0807 20.1167 11.1817V12.5454H20.8005V13.1211H20.1167V14.7878L20.7517 14.4848L20.8738 14.9999L20.1167 15.3938V17.9999H19.6282V15.606L18.8711 15.909C18.8548 16.0504 18.8141 16.0807 18.749 15.9999L18.578 15.3332L19.6282 14.9696V13.1211H19.213C19.1805 13.505 19.1153 13.8787 19.0176 14.2423L18.5536 14.0302C18.749 13.3231 18.8467 12.5454 18.8467 11.6969L19.3351 11.7878C19.384 11.8484 19.3677 11.909 19.2863 11.9696L19.2374 12.5454ZM24 12.4848L23.9756 16.212C23.9756 17.2827 23.7313 17.8181 23.2429 17.8181H22.5346L22.4369 17.1514H23.0475C23.3406 17.1918 23.4871 16.8787 23.4871 16.212L23.5115 13.0605H23.2429C23.2592 14.8383 22.5509 16.4747 21.118 17.9696L20.8005 17.4241C22.0054 16.313 22.6649 14.8585 22.7788 13.0605H22.3881C22.3229 14.2928 21.8263 15.3837 20.8982 16.3332L20.5563 15.8181C21.3704 15.0302 21.8263 14.111 21.924 13.0605H21.5332C21.3541 13.606 21.1262 14.0706 20.8494 14.4544L20.4342 14.0908C21.0041 13.2221 21.3541 12.2221 21.4844 11.0908L21.9973 11.212C22.0624 11.2928 22.038 11.3433 21.924 11.3635C21.8752 11.707 21.8019 12.0807 21.7042 12.4848H24Z" fill="#1C232E"/>
<path fill-rule="evenodd" clip-rule="evenodd" d="M9.90773 15.8484C9.97286 15.8484 10.0054 15.808 10.0054 15.7272V14.6969H8.5156V16.9393C8.5156 17.1211 8.57259 17.212 8.68656 17.212H10.6649C10.8602 17.212 10.9742 17.0908 11.0068 16.8484L11.0556 16.3938L11.6174 16.5454L11.5197 17.1817C11.4545 17.5858 11.2592 17.7878 10.9335 17.7878H8.54002C8.1981 17.7878 8.02713 17.5656 8.02713 17.1211V14.1211H10.4939V15.9393C10.4939 16.2625 10.3636 16.4241 10.1031 16.4241H9.51696L9.46811 15.8484H9.90773ZM8.6156 14.7969V16.9393C8.6156 17.023 8.6293 17.0688 8.64307 17.0907C8.65194 17.1049 8.66142 17.112 8.68656 17.112H10.6649C10.7402 17.112 10.7892 17.0896 10.824 17.0526C10.8613 17.013 10.8927 16.9454 10.9075 16.8363L10.9687 16.2668L11.7298 16.4721L11.6185 17.1969C11.5841 17.4103 11.5132 17.5848 11.3962 17.7058C11.2766 17.8294 11.1188 17.8878 10.9335 17.8878H8.54002C8.3456 17.8878 8.1847 17.8233 8.0761 17.6821C7.97132 17.5459 7.92713 17.3534 7.92713 17.1211V14.0211H10.5939V15.9393C10.5939 16.1117 10.5596 16.2596 10.4741 16.3657C10.3852 16.4759 10.2552 16.5241 10.1031 16.5241H9.42508L9.35927 15.7484H9.90397C9.90478 15.7434 9.90542 15.7365 9.90542 15.7272V14.7969H8.6156ZM10.2741 11.7878C10.3392 11.8888 10.3066 11.9494 10.1764 11.9696L9.44369 12.9393H11.3976V13.5151H7.39213V15.0302C7.39213 16.2558 7.08261 17.1816 6.46359 17.8078C6.43977 17.8318 6.4155 17.8555 6.39077 17.8787L6.02442 17.3332C6.61058 16.8888 6.90366 16.0908 6.90366 14.9393V13.5151C6.87143 13.5517 6.8381 13.5875 6.80366 13.6225C6.65175 13.7769 6.4783 13.9153 6.2833 14.0376C6.25446 14.0557 6.22516 14.0734 6.19538 14.0908L6 13.4848C6.79783 13.0201 7.35142 12.212 7.66078 11.0605L8.1981 11.1514C8.26323 11.212 8.2388 11.2827 8.12483 11.3635L8.02713 11.5757H9.81004L9.90773 11.4544L10.2741 11.7878ZM9.7622 11.4757L9.8965 11.309L10.351 11.7226L10.3581 11.7336C10.3953 11.7913 10.4301 11.8753 10.3866 11.9563C10.354 12.0169 10.2925 12.0457 10.2333 12.0602L9.64458 12.8393H11.4976V13.6151H7.49213V15.0302C7.49213 16.3195 7.15378 17.3 6.45919 17.9516L6.37337 18.0321L5.88876 17.3106L5.964 17.2536C6.51374 16.8367 6.80366 16.0775 6.80366 14.9393V13.7625C6.63948 13.9178 6.45341 14.056 6.24581 14.1772L6.13838 14.2399L5.88013 13.4388L5.94967 13.3983C6.71861 12.9505 7.25961 12.1684 7.56421 11.0346L7.5878 10.9467L8.2443 11.0578L8.26622 11.0782C8.29161 11.1018 8.31411 11.1319 8.32567 11.1692C8.33762 11.2077 8.33555 11.2466 8.32315 11.2826C8.30315 11.3404 8.25728 11.3884 8.20491 11.4287L8.18329 11.4757H9.7622ZM13.934 12.8691C13.9271 12.8723 13.9201 12.8755 13.9132 12.8787L14.133 13.5151C14.1626 13.4981 14.192 13.481 14.221 13.4636C14.4474 13.3283 14.6534 13.1807 14.8389 13.0208C14.873 12.9914 14.9063 12.9617 14.9389 12.9316L14.9404 12.9302C15.2998 12.598 15.5759 12.2158 15.7686 11.7835C15.7858 11.7449 15.8023 11.706 15.8182 11.6666C15.8382 11.7039 15.859 11.7408 15.8804 11.7773C16.1481 12.2321 16.5228 12.6164 17.0045 12.9302C17.0328 12.9486 17.0614 12.9668 17.0905 12.9848C17.2722 13.0971 17.4684 13.1999 17.6791 13.2931C17.7098 13.3067 17.7408 13.3201 17.772 13.3332L17.943 12.6666C17.1289 12.3433 16.5102 11.8686 16.0868 11.2423C16.1682 11.1817 16.1845 11.1312 16.1357 11.0908L15.5495 11.0302C15.2108 11.9108 14.6723 12.5238 13.934 12.8691ZM16.2181 11.2561C16.2342 11.2362 16.2474 11.2142 16.2553 11.1897C16.2654 11.1583 16.2665 11.1235 16.2542 11.0893C16.2425 11.0565 16.2213 11.0318 16.1994 11.0138L16.1761 10.9945L15.4837 10.9229L15.4562 10.9943C15.1359 11.827 14.6365 12.4073 13.96 12.7454L14.1526 11.8319L14.2858 11.6666L13.8259 11.096L13.6784 11.2332H12.3722V18.0696H13.0606V16.1877L13.1119 16.8878H13.6201C13.7359 16.8878 13.8414 16.8575 13.9323 16.794C14.0224 16.731 14.092 16.6397 14.1443 16.5268C14.2476 16.3039 14.29 15.9824 14.2818 15.5736C14.2653 14.9792 14.0864 14.3679 13.7499 13.7421L13.8847 13.1027L14.0778 13.6617L14.1825 13.6019C14.4224 13.465 14.6413 13.3149 14.8389 13.1516V13.706H15.6205V14.0211H14.3749V15.9484H15.5121C15.2818 16.6154 14.6983 17.0489 13.7234 17.235L13.6225 17.2543L13.8121 18.1173L13.9084 18.0979C14.9558 17.8877 15.6628 17.3809 16.0065 16.5713C16.4215 17.2743 17.0091 17.744 17.7674 17.9744L17.8674 18.0048L18.0871 17.148L18.0006 17.1177C17.2253 16.8454 16.6972 16.4534 16.4002 15.9484H17.5057V14.0211H16.2357V13.706H17.0905V13.1018C17.2888 13.2207 17.5031 13.3285 17.7332 13.4254L17.8401 13.4704L18.0617 12.6061L17.9799 12.5736C17.2123 12.2689 16.6268 11.829 16.2181 11.2561ZM16.9905 13.0302H14.9389V13.606H15.7205V14.1211H14.4749V15.8484H15.6472C15.6381 15.8823 15.6282 15.9156 15.6176 15.9484C15.3879 16.6544 14.7955 17.1095 13.8402 17.3134C13.808 17.3203 13.7753 17.3269 13.7422 17.3332L13.8887 17.9999C14.9421 17.7885 15.627 17.2753 15.9435 16.4605C15.9597 16.4189 15.9749 16.3764 15.9891 16.3332C16.0101 16.3737 16.0315 16.4135 16.0534 16.4525C16.4414 17.1428 16.9906 17.6079 17.7011 17.8481C17.7326 17.8587 17.7644 17.8689 17.7965 17.8787L17.9674 17.212C17.1526 16.9259 16.5918 16.5047 16.2851 15.9484C16.267 15.9155 16.2497 15.8822 16.2334 15.8484H17.4057V14.1211H16.1357V13.606H16.9905V13.0302ZM15.0856 12.9302H16.8261C16.4121 12.6392 16.0797 12.2921 15.8306 11.8883C15.6484 12.2763 15.3998 12.6236 15.0856 12.9302ZM14.0597 11.7878L14.1574 11.6666L13.8155 11.2423L13.7178 11.3332H12.4722V17.9696H12.9606V11.909H13.5468L13.2049 13.8181C13.4817 14.3635 13.6364 14.9494 13.6689 15.5757C13.6852 15.9393 13.6119 16.1211 13.4491 16.1211H13.156L13.2049 16.7878H13.6201C14.0109 16.7878 14.1981 16.3837 14.1818 15.5757C14.1655 14.9898 13.9864 14.3837 13.6445 13.7575L14.0597 11.7878ZM13.569 15.5805C13.5371 14.968 13.386 14.3959 13.1157 13.8633L13.1005 13.8334L13.4273 12.009H13.0606V16.0211H13.4491C13.4699 16.0211 13.483 16.0158 13.4934 16.0078C13.505 15.9989 13.5197 15.9814 13.5334 15.9474C13.5619 15.8768 13.577 15.758 13.569 15.5805ZM19.3351 11.7878C19.384 11.8484 19.3677 11.909 19.2863 11.9696L19.2374 12.5454H19.6282V10.9999H20.0923C20.2225 11.0201 20.2307 11.0807 20.1167 11.1817V12.5454H20.8005V13.1211H20.1167V14.7878L20.7517 14.4848L20.8738 14.9999L20.1167 15.3938V17.9999H19.6282V15.606L18.8711 15.909C18.8548 16.0504 18.8141 16.0807 18.749 15.9999L18.578 15.3332L19.6282 14.9696V13.1211H19.213C19.1834 13.4705 19.1268 13.8114 19.0432 14.1441C19.0349 14.1769 19.0264 14.2097 19.0176 14.2423L18.5536 14.0302C18.7412 13.3515 18.8387 12.6076 18.8462 11.7985C18.8465 11.7647 18.8467 11.7309 18.8467 11.6969L19.3351 11.7878ZM19.3043 13.2211C19.269 13.5787 19.2057 13.9278 19.1142 14.2683L19.0835 14.3824L18.4345 14.0857L18.4572 14.0036C18.6499 13.3064 18.7467 12.5377 18.7467 11.6969V11.5765L19.3898 11.6962L19.413 11.725C19.4521 11.7735 19.4746 11.836 19.4561 11.9046C19.4438 11.9505 19.4158 11.9884 19.3824 12.0196L19.3463 12.4454H19.5282V10.8999H20.1L20.1076 10.9011C20.1456 10.907 20.1846 10.9171 20.2175 10.9363C20.2524 10.9567 20.2878 10.9925 20.2952 11.0472C20.3018 11.0966 20.2821 11.1391 20.2629 11.1683C20.2503 11.1876 20.2346 11.2063 20.2167 11.2246V12.4454H20.9005V12.995C21.1441 12.4065 21.3058 11.7681 21.3851 11.0794L21.3979 10.9676L22.0536 11.1226L22.0751 11.1493C22.1109 11.1936 22.1577 11.2715 22.1178 11.354C22.0992 11.3926 22.0676 11.4167 22.0382 11.4318C22.0303 11.4358 22.022 11.4395 22.0135 11.4427C21.9697 11.736 21.9087 12.05 21.8307 12.3848H24.1007L24.0756 16.212C24.0755 16.7517 24.0145 17.1707 23.8834 17.4581C23.8173 17.603 23.7314 17.7188 23.6224 17.7984C23.5124 17.8789 23.3845 17.9181 23.2429 17.9181H22.4482L22.3212 17.0514H23.0613C23.115 17.0588 23.1548 17.0505 23.1871 17.0305C23.2209 17.0095 23.2555 16.971 23.2866 16.9045C23.3503 16.7685 23.3871 16.5418 23.3871 16.212L23.4108 13.1605H23.343C23.3323 14.9296 22.611 16.5565 21.1902 18.0388L21.0984 18.1346L20.6737 17.4051L20.7327 17.3506C21.893 16.2807 22.5402 14.8864 22.6716 13.1605H22.4821C22.3956 14.3802 21.8897 15.462 20.9697 16.4031L20.8833 16.4916L20.427 15.8041L20.4868 15.7462C21.2566 15.0012 21.697 14.14 21.8129 13.1605H21.6053C21.4271 13.6843 21.2026 14.1356 20.9305 14.5129L20.8783 14.5853L20.9891 15.0526L20.2167 15.4545V18.0999H19.5282V15.7537L18.961 15.9807C18.9577 15.9967 18.9539 16.0118 18.9492 16.0257C18.9401 16.0533 18.9232 16.0918 18.8881 16.118C18.8686 16.1325 18.8445 16.1423 18.8173 16.1438C18.7911 16.1452 18.7682 16.1385 18.7502 16.1299C18.7167 16.114 18.6906 16.0869 18.6711 16.0627L18.6575 16.0458L18.4583 15.2689L19.5282 14.8984V13.2211H19.3043ZM20.9072 14.3721C20.8881 14.4 20.8689 14.4274 20.8494 14.4544L20.4342 14.0908C20.9872 13.2478 21.3333 12.2811 21.4723 11.1907C21.4765 11.1575 21.4805 11.1242 21.4844 11.0908L21.9973 11.212C22.0624 11.2928 22.038 11.3433 21.924 11.3635C21.8792 11.6785 21.8139 12.0189 21.728 12.3848C21.7203 12.4179 21.7123 12.4512 21.7042 12.4848H24L23.9756 16.212C23.9756 17.2827 23.7313 17.8181 23.2429 17.8181H22.5346L22.4369 17.1514H23.0475C23.3406 17.1918 23.4871 16.8787 23.4871 16.212L23.5115 13.0605H23.2429C23.2432 13.0939 23.2432 13.1272 23.243 13.1605C23.2325 14.8699 22.5481 16.4477 21.1898 17.894C21.1661 17.9193 21.1422 17.9444 21.118 17.9696L20.8005 17.4241C21.983 16.3337 22.6401 14.9125 22.7719 13.1605C22.7744 13.1273 22.7767 13.094 22.7788 13.0605H22.3881C22.3246 14.261 21.8517 15.3273 20.9693 16.2594C20.9459 16.2841 20.9222 16.3087 20.8982 16.3332L20.5563 15.8181C21.3445 15.0553 21.7969 14.1694 21.9136 13.1605C21.9174 13.1273 21.9209 13.094 21.924 13.0605H21.5332C21.3668 13.5675 21.1581 14.0047 20.9072 14.3721ZM20.6572 14.419L20.3029 14.1087L20.3506 14.036C20.5209 13.7764 20.6713 13.5048 20.8018 13.2211H20.2167V14.6293L20.6572 14.419ZM7.43472 12.8393C7.58568 12.61 7.71802 12.3807 7.83175 12.1514H9.41926L8.88195 12.9393H7.3677C7.39044 12.906 7.41278 12.8726 7.43472 12.8393ZM7.5541 12.8393C7.68043 12.6436 7.79356 12.4476 7.89341 12.2514H9.23003L8.82911 12.8393H7.5541ZM16.9905 15.3635H16.1357V14.606H16.9905V15.3635ZM16.8905 14.706H16.2357V15.2635H16.8905V14.706ZM15.7205 15.3635H14.8901V14.606H15.7205V15.3635ZM15.6205 14.706H14.9901V15.2635H15.6205V14.706Z" fill="#1C232E"/>
</svg>
