<svg width="30" height="30" viewBox="0 0 30 30" fill="none" xmlns="http://www.w3.org/2000/svg">
<path fill-rule="evenodd" clip-rule="evenodd" d="M29 15C29 22.732 22.732 29 15 29C7.26801 29 1 22.732 1 15C1 7.26801 7.26801 1 15 1C22.732 1 29 7.26801 29 15ZM15 28C22.1797 28 28 22.1797 28 15C28 7.8203 22.1797 2 15 2C7.8203 2 2 7.8203 2 15C2 22.1797 7.8203 28 15 28Z" fill="white"/>
<circle cx="15" cy="15" r="13" fill="#FB1858"/>
<circle cx="15" cy="15" r="11" fill="white"/>
<path d="M20.0691 24.765C18.5521 25.554 16.8281 26 15 26C13.1719 26 11.4479 25.554 9.93091 24.765L15 22L20.0691 24.765Z" fill="#1C232E"/>
<path d="M15 4C16.8281 4 18.5521 4.44597 20.0691 5.23504L15 8L9.93091 5.23504C11.4479 4.44597 13.1719 4 15 4Z" fill="#1C232E"/>
</svg>
