<svg width="32" height="32" viewBox="0 0 32 32" fill="none" xmlns="http://www.w3.org/2000/svg">
<path fill-rule="evenodd" clip-rule="evenodd" d="M31.0607 15.647C31.256 15.8422 31.256 16.1588 31.0607 16.3541L16.354 31.0608C16.1587 31.2561 15.8421 31.2561 15.6469 31.0608L0.939369 16.3533C0.744107 16.1581 0.744107 15.8415 0.939369 15.6462L15.6461 0.939491C15.8414 0.744229 16.1579 0.744229 16.3532 0.939491L31.0607 15.647Z" fill="#F7FA19"/>
<path d="M15.9996 2L30 16.0004L16.0004 30L2 15.9996L15.9996 2Z" fill="#1C232E"/>
<path d="M28.5 16L16 28.5L3.5 16L16 3.5L28.5 16Z" fill="#F7FA19"/>
<path d="M26.5 20V19.5H26H7H6H5.5V20V28V28.5H6H26H26.5V28V20Z" stroke="#F7FA19"/>
<path d="M15.9996 2L30 16.0004L16.0004 30L2 15.9996L15.9996 2Z" fill="#1C232E"/>
<path d="M28.5 16L16 28.5L3.5 16L16 3.5L28.5 16Z" fill="#F7FA19"/>
<path d="M26 20H7H6V28H26V20Z" fill="#1C232E"/>
<path d="M25 21H7V27H25V21Z" fill="#F7FA19"/>
<path d="M25 12L29 15.997L25 19.999" fill="#1C232E"/>
<path d="M7 19.999L3 15.997L7 12" fill="#1C232E"/>
<path fill-rule="evenodd" clip-rule="evenodd" d="M9 26H9.84971V22H9V26ZM12.2254 26L10.7861 23.8035L12.1214 22H11.2139L9.88439 23.8671L11.2312 26H12.2254ZM13.8878 22C14.408 22 14.8107 22.1079 15.0958 22.3237C15.3849 22.5395 15.5294 22.8613 15.5294 23.289C15.5294 23.736 15.3868 24.0732 15.1016 24.3006C14.8165 24.5241 14.435 24.6358 13.9571 24.6358H13.5005V26H12.6508V22H13.8878ZM13.8878 24.0116C14.1344 24.0116 14.3232 23.9557 14.4542 23.8439C14.5852 23.7322 14.6508 23.5472 14.6508 23.289C14.6508 22.8382 14.3926 22.6127 13.8762 22.6127H13.5005V24.0116H13.8878ZM17.1709 24.4335H17.6044L18.4599 26H19.4252L18.3905 24.2775C18.6603 24.158 18.8587 24.0135 18.9859 23.8439C19.1169 23.6744 19.1824 23.4586 19.1824 23.1965C19.1824 22.7958 19.0476 22.4971 18.7778 22.3006C18.5081 22.1002 18.1054 22 17.5697 22H16.3212V26H17.1709V24.4335ZM17.616 23.8324H17.1709V22.6069H17.5524C17.8106 22.6069 17.9994 22.6551 18.1189 22.7514C18.2422 22.8439 18.3038 22.9923 18.3038 23.1965C18.3038 23.4162 18.246 23.578 18.1304 23.6821C18.0148 23.7823 17.8433 23.8324 17.616 23.8324ZM20.6176 25.104H21.872L22.0974 26H22.9991L21.7737 22H20.739L19.5078 26H20.3922L20.6176 25.104ZM21.2419 22.6301L21.7101 24.474H20.7795L21.2419 22.6301Z" fill="#1C232E"/>
</svg>
