<svg width="32" height="32" viewBox="0 0 32 32" fill="none" xmlns="http://www.w3.org/2000/svg">
<path fill-rule="evenodd" clip-rule="evenodd" d="M31.0607 15.647C31.256 15.8422 31.256 16.1588 31.0607 16.3541L16.354 31.0608C16.1587 31.2561 15.8421 31.2561 15.6469 31.0608L0.939369 16.3533C0.744107 16.1581 0.744107 15.8415 0.939369 15.6462L15.6461 0.939491C15.8414 0.744229 16.1579 0.744229 16.3532 0.939491L31.0607 15.647Z" fill="#FF870F"/>
<path d="M15.9996 2L30 16.0004L16.0004 30L2 15.9996L15.9996 2Z" fill="#1C232E"/>
<path d="M28.5 16L16 28.5L3.5 16L16 3.5L28.5 16Z" fill="#FF870F"/>
<path d="M16 10C13.24 10 11.01 12.24 11.01 15C11.01 16.63 11.8 18.09 13 19V21.42C13.016 22.219 14 21.981 14 21.981V20C14 19.721 14.22 19.5 14.5 19.5C14.78 19.5 15 19.721 15 20V22H17V20C17 19.721 17.221 19.5 17.5 19.5C17.779 19.5 18 19.721 18 20V21.98C18 21.98 18.984 22.187 19 21.417V19C20.2 18.09 21 16.63 21 15C21 12.24 18.76 10 16 10ZM14.5 17H13.5C13.22 17 13 16.779 13 16.5V15.5C13 15.22 13.22 15 13.5 15H14.5C14.78 15 15 15.22 15 15.5V16.5C15 16.779 14.78 17 14.5 17ZM19 16.5C19 16.779 18.779 17 18.5 17H17.5C17.221 17 17 16.779 17 16.5V15.5C17 15.22 17.221 15 17.5 15H18.5C18.779 15 19 15.22 19 15.5V16.5Z" fill="#1C232E"/>
</svg>
