<svg width="32" height="32" viewBox="0 0 32 32" fill="none" xmlns="http://www.w3.org/2000/svg">
<path fill-rule="evenodd" clip-rule="evenodd" d="M31.0607 15.647C31.256 15.8422 31.256 16.1588 31.0607 16.3541L16.354 31.0608C16.1587 31.2561 15.8421 31.2561 15.6469 31.0608L0.939369 16.3533C0.744107 16.1581 0.744107 15.8415 0.939369 15.6462L15.6461 0.939491C15.8414 0.744229 16.1579 0.744229 16.3532 0.939491L31.0607 15.647Z" fill="#F8D40D"/>
<path d="M15.9996 2L30 16.0004L16.0004 30L2 15.9996L15.9996 2Z" fill="#1C232E"/>
<path d="M28.5 16L16 28.5L3.5 16L16 3.5L28.5 16Z" fill="#F8D40D"/>
<path d="M16 18C14.895 18 14.01 17.105 14.01 16C14.01 14.895 14.895 14 16 14C17.105 14 18 14.895 18 16C18 17.105 17.105 18 16 18ZM19.67 10L18 13C18.99 13.61 19.46 14.68 19.46 15.93H22.96C22.96 13.43 21.641 11.239 19.67 10ZM17.63 19C16.391 19.656 15.25 19.438 14.401 19.059L12.611 22.112C14.781 23.313 17.34 23.169 19.391 22.1L17.63 19ZM12.29 10C10.32 11.239 9.01001 13.43 9.01001 15.93H12.46C12.46 14.67 13 13.61 14 13L12.29 10Z" fill="#1C232E"/>
</svg>
