<svg width="30" height="30" viewBox="0 0 30 30" fill="none" xmlns="http://www.w3.org/2000/svg">
<path fill-rule="evenodd" clip-rule="evenodd" d="M29 15C29 22.732 22.732 29 15 29C7.26801 29 1 22.732 1 15C1 7.26801 7.26801 1 15 1C22.732 1 29 7.26801 29 15ZM15 28C22.1797 28 28 22.1797 28 15C28 7.8203 22.1797 2 15 2C7.8203 2 2 7.8203 2 15C2 22.1797 7.8203 28 15 28Z" fill="#FAEC47"/>
<circle cx="15" cy="15" r="13" fill="#FB1858"/>
<circle cx="15" cy="15" r="11" fill="#FAEC47"/>
<path d="M23.2111 13.2202C22.8221 11.4168 21.854 9.82877 20.5111 8.6604H18.4795V13.9801H19.2395V13.2202H19.9994V12.4602H21.5193V13.2202H22.2793V13.9801H23.0393V13.2202H23.2111Z" fill="#1C232E"/>
<path d="M21.5016 14.3602C21.5016 14.5692 21.3306 14.7401 21.1216 14.7401H20.3617C20.1527 14.7401 19.9817 14.5692 19.9817 14.3602V13.6002C19.9817 13.3912 20.1527 13.2202 20.3617 13.2202H21.1216C21.3306 13.2202 21.5016 13.3912 21.5016 13.6002V14.3602Z" fill="#1C232E"/>
<path d="M18.6391 13.2202H17.1437V13.9802L18.6391 13.9802V13.2202Z" fill="#1C232E"/>
<path d="M10.8427 14.3602C10.8427 14.5692 10.6717 14.7401 10.4627 14.7401H9.70274C9.49375 14.7401 9.32275 14.5692 9.32275 14.3602V13.6002C9.32275 13.3912 9.49375 13.2202 9.70274 13.2202H10.4627C10.6717 13.2202 10.8427 13.3912 10.8427 13.6002V14.3602Z" fill="#1C232E"/>
<path d="M11.6024 8.6604V11.7003H10.8425V9.42036H8.56258L7.80261 10.9403V13.9801H8.56258V13.2202H9.32254V12.4602H10.8425V13.2202H11.6024V13.9801L13.8896 13.9801V13.2202H14.6496V12.4602H16.1695V13.2202H16.9294V13.9801H17.6894V8.6604L11.6024 8.6604ZM10.0825 11.7003H8.24187L8.95472 10.1803H10.0825V11.7003Z" fill="#1C232E"/>
<path d="M16.1735 14.3602C16.1735 14.5692 16.0025 14.7401 15.7935 14.7401H15.0335C14.8246 14.7401 14.6536 14.5692 14.6536 14.3602V13.6002C14.6536 13.3912 14.8246 13.2202 15.0335 13.2202H15.7935C16.0025 13.2202 16.1735 13.3912 16.1735 13.6002V14.3602Z" fill="#1C232E"/>
</svg>
