<svg width="32" height="32" viewBox="0 0 32 32" fill="none" xmlns="http://www.w3.org/2000/svg">
<path fill-rule="evenodd" clip-rule="evenodd" d="M31.0607 15.647C31.256 15.8422 31.256 16.1588 31.0607 16.3541L16.354 31.0608C16.1587 31.2561 15.8421 31.2561 15.6469 31.0608L0.939369 16.3533C0.744107 16.1581 0.744107 15.8415 0.939369 15.6462L15.6461 0.939491C15.8414 0.744229 16.1579 0.744229 16.3532 0.939491L31.0607 15.647Z" fill="#F7FA19"/>
<path d="M15.9996 2L30 16.0004L16.0004 30L2 15.9996L15.9996 2Z" fill="#1C232E"/>
<path d="M28.5 16L16 28.5L3.5 16L16 3.5L28.5 16Z" fill="#F7FA19"/>
<path d="M16.0006 2L19.0007 5.00178L16.0011 7.99974L13.001 4.99796L16.0006 2Z" fill="#1C232E"/>
<path d="M16 21.501C16.8284 21.501 17.5 20.8294 17.5 20.001C17.5 19.1725 16.8284 18.501 16 18.501C15.1716 18.501 14.5 19.1725 14.5 20.001C14.5 20.8294 15.1716 21.501 16 21.501Z" fill="#1C232E"/>
<path d="M19 19.501H13V20.501H19V19.501Z" fill="#1C232E"/>
<path d="M21 21.501C21 21.776 20.775 22.001 20.5 22.001H19.5C19.225 22.001 19 21.776 19 21.501V18.501C19 18.226 19.225 18.001 19.5 18.001H20.5C20.775 18.001 21 18.226 21 18.501V21.501Z" fill="#1C232E"/>
<path d="M13 21.501C13 21.776 12.775 22.001 12.5 22.001H11.5C11.225 22.001 11 21.776 11 21.501V18.501C11 18.226 11.225 18.001 11.5 18.001H12.5C12.775 18.001 13 18.226 13 18.501V21.501Z" fill="#1C232E"/>
</svg>
