<svg width="32" height="32" viewBox="0 0 32 32" fill="none" xmlns="http://www.w3.org/2000/svg">
<path fill-rule="evenodd" clip-rule="evenodd" d="M31.0607 15.647C31.256 15.8422 31.256 16.1588 31.0607 16.3541L16.354 31.0608C16.1587 31.2561 15.8421 31.2561 15.6469 31.0608L0.939369 16.3533C0.744107 16.1581 0.744107 15.8415 0.939369 15.6462L15.6461 0.939491C15.8414 0.744229 16.1579 0.744229 16.3532 0.939491L31.0607 15.647Z" fill="#F7FA19"/>
<path d="M15.9996 2L30 16.0004L16.0004 30L2 15.9996L15.9996 2Z" fill="#1C232E"/>
<path d="M28.5 16L16 28.5L3.5 16L16 3.5L28.5 16Z" fill="#F7FA19"/>
<path d="M17.4431 17.4352H15.4591V18.714C15.733 18.5796 16.0146 18.5125 16.3039 18.5125C16.5932 18.5125 16.849 18.5822 17.0711 18.7217C17.2985 18.856 17.4767 19.055 17.6059 19.3185C17.7351 19.5768 17.7996 19.8868 17.7996 20.2485C17.7996 20.6205 17.717 20.9485 17.5516 21.2327C17.3863 21.5169 17.1512 21.7365 16.8464 21.8915C16.5416 22.0465 16.1851 22.124 15.7769 22.124C15.0846 22.124 14.5111 21.8708 14.0564 21.3645L14.6764 20.7832C14.9761 21.1139 15.33 21.2792 15.7381 21.2792C16.0378 21.2792 16.2677 21.1914 16.4279 21.0157C16.5881 20.84 16.6681 20.5843 16.6681 20.2485C16.6681 19.6078 16.4072 19.2875 15.8854 19.2875C15.7666 19.2875 15.6529 19.303 15.5444 19.334C15.4359 19.3598 15.3119 19.4037 15.1724 19.4657H14.4051V16.637H17.5749L17.4431 17.4352Z" fill="#1C232E"/>
<path d="M12.25 21.375C12.25 21.7188 11.9688 22 11.625 22H10.375C10.0312 22 9.75 21.7188 9.75 21.375V17.625C9.75 17.2812 10.0312 17 10.375 17H11.625C11.9688 17 12.25 17.2812 12.25 17.625V21.375Z" fill="#1C232E"/>
<path d="M22.25 21.375C22.25 21.7188 21.9688 22 21.625 22H20.375C20.0312 22 19.75 21.7188 19.75 21.375V17.625C19.75 17.2812 20.0312 17 20.375 17H21.625C21.9688 17 22.25 17.2812 22.25 17.625V21.375Z" fill="#1C232E"/>
<path d="M13.5 19H12V20H13.5V19Z" fill="#1C232E"/>
<path d="M20 19H18.5V20H20V19Z" fill="#1C232E"/>
</svg>
