<svg width="20" height="26" viewBox="0 0 20 26" fill="none" xmlns="http://www.w3.org/2000/svg">
<path d="M10 24.2826L6.13616 20.3055L6.13478 20.3041C3.79846 17.9183 2.6511 15.987 2.08017 14.3677C1.50968 12.7497 1.5 11.4064 1.5 10.1358C1.5 5.32763 5.32435 1.51557 10 1.50014C14.6756 1.51557 18.5 5.32776 18.5 10.1359C18.5 11.4065 18.4903 12.7498 17.9198 14.3678C17.3489 15.9872 16.2015 17.9184 13.8652 20.3043L13.8638 20.3057L10 24.2826Z" fill="#1B8862" stroke="#48AD84"/>
<path fill-rule="evenodd" clip-rule="evenodd" d="M8.80913 12.8376C8.94843 13.6074 8.87544 14.7729 8.12489 15.7633C7.94223 15.7633 7.87355 15.2597 7.79559 14.6881C7.71353 14.0864 7.6212 13.4094 7.37488 13.1653C7.12842 12.921 6.44388 12.8296 5.83566 12.7485C5.25843 12.6715 4.74996 12.6037 4.75 12.423C5.76784 11.6673 6.96868 11.6056 7.74565 11.753C7.64707 11.2288 7.57367 10.546 7.6416 9.81886C7.10165 9.76962 5.49989 9.42609 5.49989 9.08257C5.49988 8.40432 7.98118 7.10638 9.00278 6.88738C9.0171 6.8738 9.03156 6.86027 9.04616 6.84679C10.4548 5.62659 11.8089 5.6789 13.0135 5.72543C13.2658 5.73518 13.5115 5.74468 13.7499 5.74217V6.48448H14.4999C14.4985 6.60002 14.4981 6.72308 14.4977 6.85223C14.494 7.93719 14.4888 9.45203 13.9332 10.5495C13.1065 10.496 12.4243 10.3196 11.8713 10.0117C11.2046 9.64058 10.6953 9.06147 10.3481 8.20241L9.65173 8.4781C10.0545 9.47481 10.6702 10.1947 11.5036 10.6587C12.1339 11.0096 12.8708 11.2041 13.702 11.2764C13.4799 13.0205 12.5331 15.021 11.8749 15.021C11.5284 15.021 11.1818 13.2409 11.1312 12.5653C10.2384 12.8267 9.39409 12.8609 8.80913 12.8376ZM11.6874 8.34025C11.9981 8.34025 12.2499 8.091 12.2499 7.78352C12.2499 7.47605 11.9981 7.22679 11.6874 7.22679C11.3768 7.22679 11.1249 7.47605 11.1249 7.78352C11.1249 8.091 11.3768 8.34025 11.6874 8.34025Z" fill="white"/>
</svg>
