<svg width="20" height="26" viewBox="0 0 20 26" fill="none" xmlns="http://www.w3.org/2000/svg">
<path d="M10 24.2826L6.13616 20.3055L6.13478 20.3041C3.79846 17.9183 2.6511 15.987 2.08017 14.3677C1.50968 12.7497 1.5 11.4064 1.5 10.1358C1.5 5.32763 5.32435 1.51557 10 1.50014C14.6756 1.51557 18.5 5.32776 18.5 10.1359C18.5 11.4065 18.4903 12.7498 17.9198 14.3678C17.3489 15.9872 16.2015 17.9184 13.8652 20.3043L13.8638 20.3057L10 24.2826Z" fill="#1B8862" stroke="#48AD84"/>
<path d="M15.0003 9.69C15.0029 9.79375 14.9851 9.89701 14.9478 9.99388C14.9106 10.0907 14.8546 10.1793 14.7831 10.2545C14.7116 10.3298 14.626 10.3902 14.5311 10.4323C14.4362 10.4744 14.334 10.4974 14.2303 10.5H13.0003C12.8983 10.4997 12.7974 10.4787 12.7037 10.4383C12.61 10.3979 12.5255 10.339 12.4553 10.265L11.9253 9.69L11.3803 10.265C11.31 10.339 11.2255 10.3979 11.1318 10.4383C11.0381 10.4787 10.9373 10.4997 10.8353 10.5H9.16526C9.06325 10.4997 8.96237 10.4787 8.8687 10.4383C8.77503 10.3979 8.69051 10.339 8.62026 10.265L8.07526 9.69L7.53526 10.265C7.46617 10.3378 7.38327 10.396 7.29142 10.4364C7.19956 10.4767 7.10058 10.4983 7.00026 10.5H5.77026C5.6665 10.4974 5.56428 10.4744 5.46942 10.4323C5.37456 10.3902 5.28893 10.3298 5.21743 10.2545C5.14592 10.1793 5.08993 10.0907 5.05267 9.99388C5.01541 9.89701 4.9976 9.79375 5.00026 9.69C6.04526 8.155 7.14526 7 9.52526 7H9.73526V6.25H10.2353V7H10.5003C12.8553 7 13.9553 8.155 15.0003 9.69ZM9.61526 11.5L9.50026 15.5H10.5003L10.3853 11.5H9.61526Z" fill="white"/>
</svg>
