<svg width="20" height="26" viewBox="0 0 20 26" fill="none" xmlns="http://www.w3.org/2000/svg">
<path d="M10 24.2826L6.13616 20.3055L6.13478 20.3041C3.79846 17.9183 2.6511 15.987 2.08017 14.3677C1.50968 12.7497 1.5 11.4064 1.5 10.1358C1.5 5.32763 5.32435 1.51557 10 1.50014C14.6756 1.51557 18.5 5.32776 18.5 10.1359C18.5 11.4065 18.4903 12.7498 17.9198 14.3678C17.3489 15.9872 16.2015 17.9184 13.8652 20.3043L13.8638 20.3057L10 24.2826Z" fill="#97215E" stroke="#BD487F"/>
<path d="M7.92 6C6.445 6.835 5.64 7.665 5.5 8.5V15.5C5.5 15.6326 5.55268 15.7598 5.64645 15.8536C5.74021 15.9473 5.86739 16 6 16H12.5V8.5H6.535C6.655 8.21 7.035 7.69 8.185 7H14V14.5H15V6H7.92ZM7 11H11V12H7V11Z" fill="white"/>
</svg>
