<svg width="20" height="26" viewBox="0 0 20 26" fill="none" xmlns="http://www.w3.org/2000/svg">
<path d="M10 24.2826L6.13616 20.3055L6.13478 20.3041C3.79846 17.9183 2.6511 15.987 2.08017 14.3677C1.50968 12.7497 1.5 11.4064 1.5 10.1358C1.5 5.32763 5.32435 1.51557 10 1.50014C14.6756 1.51557 18.5 5.32776 18.5 10.1359C18.5 11.4065 18.4903 12.7498 17.9198 14.3678C17.3489 15.9872 16.2015 17.9184 13.8652 20.3043L13.8638 20.3057L10 24.2826Z" fill="#875147" stroke="#AC7267"/>
<path fill-rule="evenodd" clip-rule="evenodd" d="M15.25 6.5H4.75V8H5.5V11H4.75V15.5H6.25V14.8632C6.25 14.86 6.25052 14.8567 6.25156 14.8536C6.2724 14.7906 6.30744 14.6942 6.36045 14.5757C6.46706 14.3373 6.64248 14.0177 6.91417 13.6994C7.44056 13.0828 8.3632 12.425 10 12.425C11.6368 12.425 12.5594 13.0828 13.0858 13.6994C13.3575 14.0177 13.5329 14.3373 13.6395 14.5757C13.6926 14.6942 13.7276 14.7906 13.7484 14.8536C13.7495 14.8567 13.75 14.86 13.75 14.8632V15.5H15.25V11H14.5V8H15.25V6.5ZM8.125 8V11H6.625V8H8.125ZM9.25 8H10.75V11H9.25V8ZM13.375 8V11H11.875V8H13.375Z" fill="white"/>
</svg>
