<svg width="20" height="26" viewBox="0 0 20 26" fill="none" xmlns="http://www.w3.org/2000/svg">
<path d="M10 24.2826L6.13616 20.3055L6.13478 20.3041C3.79846 17.9183 2.6511 15.987 2.08017 14.3677C1.50968 12.7497 1.5 11.4064 1.5 10.1358C1.5 5.32763 5.32435 1.51557 10 1.50014C14.6756 1.51557 18.5 5.32776 18.5 10.1359C18.5 11.4065 18.4903 12.7498 17.9198 14.3678C17.3489 15.9872 16.2015 17.9184 13.8652 20.3043L13.8638 20.3057L10 24.2826Z" fill="#5B72A4" stroke="#7F94C9"/>
<path d="M5 8.5H7V10H6V11.5H7V13H6V14.5H7V16H5V8.5ZM15 7V16H12V13.5H11V16H8V7H15ZM10 13.5H9V15H10V13.5ZM10 11H9V12.5H10V11ZM10 8.5H9V10H10V8.5ZM12 11H11V12.5H12V11ZM12 8.5H11V10H12V8.5ZM14 13.5H13V15H14V13.5ZM14 11H13V12.5H14V11ZM14 8.5H13V10H14V8.5Z" fill="white"/>
</svg>
