<svg width="20" height="26" viewBox="0 0 20 26" fill="none" xmlns="http://www.w3.org/2000/svg">
<path d="M10 24.2826L6.13616 20.3055L6.13478 20.3041C3.79846 17.9183 2.6511 15.987 2.08017 14.3677C1.50968 12.7497 1.5 11.4064 1.5 10.1358C1.5 5.32763 5.32435 1.51557 10 1.50014C14.6756 1.51557 18.5 5.32776 18.5 10.1359C18.5 11.4065 18.4903 12.7498 17.9198 14.3678C17.3489 15.9872 16.2015 17.9184 13.8652 20.3043L13.8638 20.3057L10 24.2826Z" fill="#5B72A4" stroke="#7F94C9"/>
<path d="M13.2311 6.85609V6.99609H11.4961V7.99609H13.2311V8.14109C13.2298 8.36831 13.1386 8.58577 12.9774 8.74598C12.8163 8.90618 12.5983 8.9961 12.3711 8.99609H10.7311L10.3561 8.24609H6.74609C6.64752 8.14765 6.56933 8.03073 6.51597 7.90204C6.46262 7.77335 6.43516 7.63541 6.43516 7.49609C6.43516 7.35678 6.46262 7.21884 6.51597 7.09014C6.56933 6.96145 6.64752 6.84454 6.74609 6.74609H10.3611L10.7311 5.99609H12.3761C12.6033 5.99741 12.8208 6.0886 12.981 6.24974C13.1412 6.41088 13.2311 6.62887 13.2311 6.85609V6.85609ZM14.7311 11.4961C14.8087 11.5543 14.8717 11.6298 14.9151 11.7166C14.9585 11.8034 14.9811 11.8991 14.9811 11.9961C14.9811 12.0931 14.9585 12.1888 14.9151 12.2756C14.8717 12.3624 14.8087 12.4379 14.7311 12.4961H14.4961V15.4961C14.4961 15.6287 14.4434 15.7559 14.3496 15.8496C14.2559 15.9434 14.1287 15.9961 13.9961 15.9961H12.4961C12.3635 15.9961 12.2363 15.9434 12.1425 15.8496C12.0488 15.7559 11.9961 15.6287 11.9961 15.4961V14.9961H7.99609V15.4961C7.99609 15.6287 7.94341 15.7559 7.84965 15.8496C7.75588 15.9434 7.6287 15.9961 7.49609 15.9961H5.99609C5.86349 15.9961 5.73631 15.9434 5.64254 15.8496C5.54877 15.7559 5.49609 15.6287 5.49609 15.4961V12.4961H5.24609C5.16847 12.4379 5.10547 12.3624 5.06208 12.2756C5.01868 12.1888 4.99609 12.0931 4.99609 11.9961C4.99609 11.8991 5.01868 11.8034 5.06208 11.7166C5.10547 11.6298 5.16847 11.5543 5.24609 11.4961H6.11609L6.61609 10.3461C6.72179 10.097 6.89765 9.884 7.12226 9.73308C7.34686 9.58215 7.61052 9.49982 7.88109 9.49609H12.1111C12.38 9.50173 12.6415 9.58497 12.8641 9.73577C13.0868 9.88657 13.2611 10.0985 13.3661 10.3461L13.8661 11.4961H14.7311ZM6.99609 11.9961H12.9961L12.4411 10.7511C12.4146 10.6806 12.3685 10.6191 12.3083 10.574C12.2481 10.5288 12.1762 10.5018 12.1011 10.4961H7.88109C7.80601 10.5018 7.73411 10.5288 7.67388 10.574C7.61364 10.6191 7.56757 10.6806 7.54109 10.7511L6.99609 11.9961ZM7.99609 12.9961H6.74609C6.66847 13.0543 6.60547 13.1298 6.56208 13.2166C6.51868 13.3034 6.49609 13.3991 6.49609 13.4961C6.49609 13.5931 6.51868 13.6888 6.56208 13.7756C6.60547 13.8624 6.66847 13.9379 6.74609 13.9961H7.99609V12.9961ZM13.2461 12.9961H11.9961V13.9961H13.2461C13.3237 13.9379 13.3867 13.8624 13.4301 13.7756C13.4735 13.6888 13.4961 13.5931 13.4961 13.4961C13.4961 13.3991 13.4735 13.3034 13.4301 13.2166C13.3867 13.1298 13.3237 13.0543 13.2461 12.9961V12.9961Z" fill="white"/>
</svg>
