<svg width="20" height="26" viewBox="0 0 20 26" fill="none" xmlns="http://www.w3.org/2000/svg">
<path d="M10 24.2826L6.13616 20.3055L6.13478 20.3041C3.79846 17.9183 2.6511 15.987 2.08017 14.3677C1.50968 12.7497 1.5 11.4064 1.5 10.1358C1.5 5.32763 5.32435 1.51557 10 1.50014C14.6756 1.51557 18.5 5.32776 18.5 10.1359C18.5 11.4065 18.4903 12.7498 17.9198 14.3678C17.3489 15.9872 16.2015 17.9184 13.8652 20.3043L13.8638 20.3057L10 24.2826Z" fill="#5B72A4" stroke="#7F94C9"/>
<path d="M5.5 6.50011V15.5001H7V8.00024L9.81247 8.00013C10.2267 8.00012 10.5625 8.33591 10.5625 8.75013V12.5001H11.875V8C11.875 7.17156 11.2034 6.49998 10.375 6.5L5.5 6.50011Z" fill="white"/>
<path d="M14.5 6.50011L13 6.5001V13.2501C13 13.6643 12.6642 14.0001 12.25 14.0001L9.4375 14.0001L9.46529 9.50011L8.125 9.5001L8.12498 15.5001L13 15.5001C13.8284 15.5001 14.5 14.8285 14.5 14.0001V6.50011Z" fill="white"/>
</svg>
