<svg width="20" height="26" viewBox="0 0 20 26" fill="none" xmlns="http://www.w3.org/2000/svg">
<path d="M10 24.2826L6.13616 20.3055L6.13478 20.3041C3.79846 17.9183 2.6511 15.987 2.08017 14.3677C1.50968 12.7497 1.5 11.4064 1.5 10.1358C1.5 5.32763 5.32435 1.51557 10 1.50014C14.6756 1.51557 18.5 5.32776 18.5 10.1359C18.5 11.4065 18.4903 12.7498 17.9198 14.3678C17.3489 15.9872 16.2015 17.9184 13.8652 20.3043L13.8638 20.3057L10 24.2826Z" fill="#5B72A4" stroke="#7F94C9"/>
<path d="M7.72115 5.68359C8.0092 5.68359 8.26234 5.72098 8.48056 5.79574C8.69878 5.87051 8.88208 5.98733 9.03048 6.14621C9.20505 6.32378 9.34035 6.57144 9.43637 6.88919C9.53238 7.20695 9.58039 7.65554 9.58039 8.23498V9.09609H13.75V10.6711H9.58041V13.8845C9.58041 14.1462 9.61532 14.3425 9.68516 14.4733C9.75499 14.5948 9.9121 14.6556 10.1565 14.6556C10.3573 14.6556 10.5537 14.6229 10.7457 14.5574C10.9377 14.4827 11.1123 14.3892 11.2694 14.2771C11.4266 14.1556 11.5531 14.0154 11.6491 13.8565C11.7452 13.6976 11.7932 13.5341 11.7932 13.3659C11.7932 13.2817 11.7583 13.2023 11.6884 13.1275C11.6186 13.0528 11.4833 13.0154 11.2825 13.0154C11.1254 13.0154 10.9858 13.0294 10.8635 13.0574L10.6541 11.6275C10.8112 11.5808 10.9858 11.5481 11.1778 11.5294C11.3786 11.5107 11.5837 11.5014 11.7932 11.5014C12.3082 11.5014 12.7228 11.6275 13.037 11.8799C13.3513 12.1322 13.5084 12.5247 13.5084 13.0574C13.5084 13.5621 13.3993 14.0107 13.1811 14.4032C12.9628 14.7957 12.6748 15.1228 12.3169 15.3845C11.959 15.6462 11.5662 15.8471 11.1385 15.9873C10.7195 16.1182 10.3093 16.1836 9.90774 16.1836C9.54113 16.1836 9.23126 16.1369 8.97812 16.0434C8.73371 15.9499 8.53731 15.8285 8.38892 15.6789C8.29291 15.5761 8.20125 15.4593 8.11396 15.3285C8.03541 15.1976 7.96994 15.0154 7.91757 14.7817C7.87392 14.5481 7.8521 14.235 7.8521 13.8425V10.6711H6.75227V9.09609H7.85208V8.30507C7.85208 8.07143 7.83462 7.87517 7.79971 7.71629C7.76479 7.55741 7.69496 7.44059 7.59022 7.36583C7.48547 7.28172 7.32835 7.23966 7.11886 7.23966C7.00538 7.23966 6.88318 7.25368 6.75225 7.28171C6.63004 7.30975 6.50348 7.35181 6.37254 7.40788L5.875 6.0621C6.21542 5.93126 6.52093 5.8378 6.79153 5.78172C7.06212 5.7163 7.372 5.68359 7.72115 5.68359Z" fill="white"/>
</svg>
