<svg width="20" height="26" viewBox="0 0 20 26" fill="none" xmlns="http://www.w3.org/2000/svg">
<path d="M10 24.2826L6.13616 20.3055L6.13478 20.3041C3.79846 17.9183 2.6511 15.987 2.08017 14.3677C1.50968 12.7497 1.5 11.4064 1.5 10.1358C1.5 5.32763 5.32435 1.51557 10 1.50014C14.6756 1.51557 18.5 5.32776 18.5 10.1359C18.5 11.4065 18.4903 12.7498 17.9198 14.3678C17.3489 15.9872 16.2015 17.9184 13.8652 20.3043L13.8638 20.3057L10 24.2826Z" fill="#454C56" stroke="#656C77"/>
<path d="M12.961 5.81641L8.90758 7.32616L10.7921 12.4734L14.8455 10.9637L12.961 5.81641Z" fill="white"/>
<path d="M6.21436 7.0571L5.46406 6.49818L4.78906 7.39209L5.53936 7.95101C5.936 8.24647 6.23249 8.65505 6.38927 9.12222L7.52786 12.5149C6.98375 12.8837 6.62655 13.5045 6.62655 14.2082C6.62655 15.3395 7.54996 16.2567 8.68905 16.2567C9.68207 16.2567 10.5112 15.5597 10.7075 14.6313L15.2212 13.0201L14.8407 11.9686L10.6161 13.4766C10.3196 12.7065 9.56864 12.1596 8.68905 12.1596C8.65759 12.1596 8.6263 12.1603 8.59519 12.1617L7.45654 8.76887C7.22739 8.08608 6.79406 7.48893 6.21436 7.0571Z" fill="white"/>
</svg>
