<svg width="20" height="26" viewBox="0 0 20 26" fill="none" xmlns="http://www.w3.org/2000/svg">
<circle cx="10" cy="13" r="8.5" fill="#275CAA" stroke="#547DCF"/>
<path d="M13.45 12.925L13.225 9.925C13.15 9.55 12.85 9.25 12.475 9.25H10.225V7.75H9.25V9.25H7C6.625 9.25 6.25 9.55 6.25 9.925L6.025 12.925L9.775 11.725L13.45 12.925ZM9.7 13.075L4.75 14.65L6.025 17.65C6.4 17.05 7.075 16.6 7.825 16.6C8.65 16.6 9.325 17.05 9.7 17.725C10.075 17.05 10.75 16.6 11.575 16.6C12.325 16.6 13 17.05 13.375 17.65L14.65 14.65L9.7 13.075Z" fill="white"/>
</svg>
