<svg width="20" height="26" viewBox="0 0 20 26" fill="none" xmlns="http://www.w3.org/2000/svg">
<path d="M10 24.2826L6.13616 20.3055L6.13478 20.3041C3.79846 17.9183 2.6511 15.987 2.08017 14.3677C1.50968 12.7497 1.5 11.4064 1.5 10.1358C1.5 5.32763 5.32435 1.51557 10 1.50014C14.6756 1.51557 18.5 5.32776 18.5 10.1359C18.5 11.4065 18.4903 12.7498 17.9198 14.3678C17.3489 15.9872 16.2015 17.9184 13.8652 20.3043L13.8638 20.3057L10 24.2826Z" fill="#BF173E" stroke="#E9475E"/>
<path d="M14.5 7H13.5C13.5 7.92826 13.1312 8.8185 12.4749 9.47487C11.8185 10.1313 10.9283 10.5 10 10.5C9.07174 10.5 8.1815 10.1313 7.52513 9.47487C6.86875 8.8185 6.5 7.92826 6.5 7H5.5C5.50053 8.10653 5.90873 9.17408 6.64661 9.99866C7.38449 10.8232 8.40032 11.3471 9.5 11.47V15H10.5V11.47C11.5997 11.3471 12.6155 10.8232 13.3534 9.99866C14.0913 9.17408 14.4995 8.10653 14.5 7V7Z" fill="white"/>
</svg>
