<svg width="20" height="26" viewBox="0 0 20 26" fill="none" xmlns="http://www.w3.org/2000/svg">
<path d="M10 24.2826L6.13616 20.3055L6.13478 20.3041C3.79846 17.9183 2.6511 15.987 2.08017 14.3677C1.50968 12.7497 1.5 11.4064 1.5 10.1358C1.5 5.32763 5.32435 1.51557 10 1.50014C14.6756 1.51557 18.5 5.32776 18.5 10.1359C18.5 11.4065 18.4903 12.7498 17.9198 14.3678C17.3489 15.9872 16.2015 17.9184 13.8652 20.3043L13.8638 20.3057L10 24.2826Z" fill="#875147" stroke="#AC7267"/>
<path fill-rule="evenodd" clip-rule="evenodd" d="M6.6032 7.35237L7.37676 5.75L6.77994 6.21894C4.30502 8.16353 4.08559 11.8338 6.31121 14.0594L7.00179 14.75L7.75176 13.625L9.2324 14.5134L8.12682 15.125L8.50182 15.875L9.62672 15.2001V16.3053H10.3767V15.2L11.5018 15.875L11.8768 15.125L10.7707 14.5137L12.2518 13.625L13.0018 14.75L13.6369 14.1138C15.7424 12.0048 15.6722 8.5682 13.4825 6.54689L12.6192 5.75001L13.3936 7.3541C14.4319 9.50481 13.6092 12.092 11.5195 13.2481L10.3767 13.8803V13.125L11.1268 12.875C11.0344 12.69 10.9109 12.3855 10.7908 12.0044C11.855 11.6694 12.6268 10.6748 12.6268 9.5C12.6268 8.33381 11.8664 7.34524 10.8143 7.00314C10.9412 6.59841 11.0628 6.2851 11.1268 6.12497L10.0018 5.75L8.87683 6.12498C8.94088 6.2851 9.06247 6.59841 9.1894 7.00314C8.13731 7.34524 7.37683 8.33381 7.37683 9.5C7.37683 10.6748 8.14862 11.6694 9.21284 12.0044C9.09279 12.3855 8.96929 12.69 8.87683 12.875L9.62672 13.125V13.8815L8.47911 13.2473C6.38816 12.0918 5.56459 9.50378 6.6032 7.35237ZM10.5938 11.2796C11.3393 11.0318 11.8768 10.3287 11.8768 9.5C11.8768 8.67836 11.3483 7.98016 10.6128 7.72678C10.4803 8.27344 10.3768 8.89393 10.3768 9.49999C10.3768 10.1185 10.4688 10.7361 10.5938 11.2796ZM9.39091 7.72678C9.52084 8.26322 9.62295 8.87076 9.62672 9.466V9.5368C9.62317 10.143 9.53243 10.7469 9.40983 11.2796C8.6644 11.0318 8.12683 10.3287 8.12683 9.5C8.12683 8.67836 8.65532 7.98016 9.39091 7.72678Z" fill="white"/>
</svg>
