<svg width="20" height="26" viewBox="0 0 20 26" fill="none" xmlns="http://www.w3.org/2000/svg">
<path d="M10 24.2826L6.13616 20.3055L6.13478 20.3041C3.79846 17.9183 2.6511 15.987 2.08017 14.3677C1.50968 12.7497 1.5 11.4064 1.5 10.1358C1.5 5.32763 5.32435 1.51557 10 1.50014C14.6756 1.51557 18.5 5.32776 18.5 10.1359C18.5 11.4065 18.4903 12.7498 17.9198 14.3678C17.3489 15.9872 16.2015 17.9184 13.8652 20.3043L13.8638 20.3057L10 24.2826Z" fill="#5B72A4" stroke="#7F94C9"/>
<path d="M15 11.7484L13.75 9.74842L12.5 11.7484H13.25C13.25 13.3534 12.21 14.0884 10.705 14.2484L10.58 10.9984H12V9.99842H10.545L10.5 9.15842C10.8659 9.03617 11.1763 8.78774 11.3758 8.45758C11.5753 8.12742 11.6509 7.73705 11.5889 7.3563C11.527 6.97555 11.3316 6.62925 11.0378 6.37933C10.7439 6.12942 10.3708 5.99219 9.985 5.99219C9.59925 5.99219 9.22607 6.12942 8.93222 6.37933C8.63837 6.62925 8.44301 6.97555 8.38108 7.3563C8.31915 7.73705 8.39469 8.12742 8.59419 8.45758C8.79368 8.78774 9.10413 9.03617 9.47 9.15842L9.455 9.99842H8V10.9984H9.42L9.295 14.2484C7.795 14.0884 6.75 13.3534 6.75 11.7484H7.5L6.25 9.74842L5 11.7484H5.75V11.9984C5.75 13.7084 6.795 14.4334 8.295 15.0784C8.815 15.3034 10 15.9984 10 15.9984C10 15.9984 11.185 15.3034 11.705 15.0784C13.205 14.4334 14.25 13.7084 14.25 11.9984V11.7484H15ZM9.125 7.62342C9.125 7.45036 9.17632 7.28119 9.27246 7.1373C9.36861 6.9934 9.50527 6.88125 9.66515 6.81503C9.82504 6.7488 10.001 6.73147 10.1707 6.76523C10.3404 6.799 10.4963 6.88233 10.6187 7.0047C10.7411 7.12707 10.8244 7.28298 10.8582 7.45272C10.8919 7.62245 10.8746 7.79838 10.8084 7.95827C10.7422 8.11815 10.63 8.25481 10.4861 8.35096C10.3422 8.4471 10.1731 8.49842 10 8.49842C9.76834 8.49711 9.54654 8.4045 9.38273 8.24069C9.21892 8.07688 9.12631 7.85508 9.125 7.62342Z" fill="white"/>
</svg>
