<svg width="20" height="26" viewBox="0 0 20 26" fill="none" xmlns="http://www.w3.org/2000/svg">
<circle cx="10" cy="13" r="8.5" fill="#275CAA" stroke="#547DCF"/>
<path d="M13.9487 13.155L13.4987 9.41C13.4757 9.02798 13.3076 8.66918 13.0288 8.40706C12.7499 8.14494 12.3814 7.99931 11.9987 8H7.99869C7.61598 7.99931 7.24748 8.14494 6.96863 8.40706C6.68977 8.66918 6.52166 9.02798 6.49869 9.41L6.04869 13.155C6.0075 13.5469 6.06064 13.9429 6.20369 14.31L6.96869 16.05C7.0465 16.2531 7.18331 16.4284 7.36152 16.5531C7.53973 16.6779 7.75119 16.7464 7.96869 16.75L8.27869 15.25C8.335 15.0317 8.46343 14.8388 8.64314 14.7027C8.82285 14.5665 9.04329 14.4951 9.26869 14.5H10.7287C10.9529 14.4991 11.1709 14.5735 11.3477 14.7113C11.5245 14.8491 11.6499 15.0424 11.7037 15.26L11.9837 16.76C12.2012 16.7564 12.4127 16.6879 12.5909 16.5631C12.7691 16.4384 12.9059 16.2631 12.9837 16.06L13.7737 14.32C13.9251 13.9515 13.9852 13.5518 13.9487 13.155ZM7.94869 9H12.0587C12.2077 9.00331 12.3502 9.06198 12.4583 9.16458C12.5665 9.26717 12.6326 9.40635 12.6437 9.555C12.6437 9.555 12.6937 10.66 12.7237 11.5H7.25869C7.29369 10.66 7.35869 9.555 7.35869 9.555C7.36992 9.40551 7.43671 9.26563 7.54591 9.16292C7.6551 9.0602 7.79879 9.00208 7.94869 9V9ZM8.49869 13.75H7.49869C7.44137 13.7501 7.38463 13.7385 7.33198 13.7158C7.27932 13.6932 7.23185 13.66 7.19251 13.6183C7.15316 13.5766 7.12277 13.5273 7.10319 13.4734C7.08362 13.4195 7.07528 13.3622 7.07869 13.305L7.10369 12.895C7.11014 12.7862 7.1586 12.6843 7.23883 12.6106C7.31906 12.5369 7.42479 12.4972 7.53369 12.5H8.49869V13.75ZM12.4987 13.75H11.4987V12.5H12.4637C12.5709 12.4998 12.6741 12.5406 12.7522 12.6141C12.8303 12.6875 12.8773 12.788 12.8837 12.895L12.9087 13.305C12.9121 13.3614 12.904 13.4179 12.8851 13.4711C12.8661 13.5243 12.8366 13.5731 12.7983 13.6147C12.76 13.6562 12.7138 13.6896 12.6623 13.7129C12.6108 13.7361 12.5552 13.7488 12.4987 13.75ZM10.8537 15.88L11.2337 18H8.73369L9.12369 15.885C9.15107 15.7741 9.21562 15.6758 9.30659 15.6067C9.39756 15.5376 9.50948 15.5017 9.62369 15.505H10.3387C10.4531 15.5002 10.5656 15.5349 10.6575 15.6031C10.7495 15.6714 10.8152 15.7691 10.8437 15.88H10.8537Z" fill="white"/>
</svg>
