<svg width="20" height="26" viewBox="0 0 20 26" fill="none" xmlns="http://www.w3.org/2000/svg">
<path d="M10 24.2826L6.13616 20.3055L6.13478 20.3041C3.79846 17.9183 2.6511 15.987 2.08017 14.3677C1.50968 12.7497 1.5 11.4064 1.5 10.1358C1.5 5.32763 5.32435 1.51557 10 1.50014C14.6756 1.51557 18.5 5.32776 18.5 10.1359C18.5 11.4065 18.4903 12.7498 17.9198 14.3678C17.3489 15.9872 16.2015 17.9184 13.8652 20.3043L13.8638 20.3057L10 24.2826Z" fill="#BA4A82" stroke="#E26EA5"/>
<path d="M9.49951 10.5C9.49951 10.6483 9.45553 10.7933 9.37312 10.9167C9.2907 11.04 9.17357 11.1361 9.03653 11.1929C8.89948 11.2497 8.74868 11.2645 8.6032 11.2356C8.45771 11.2066 8.32407 11.1352 8.21918 11.0303C8.11429 10.9254 8.04286 10.7918 8.01392 10.6463C7.98499 10.5008 7.99984 10.35 8.0566 10.213C8.11337 10.0759 8.2095 9.95881 8.33284 9.8764C8.45617 9.79399 8.60118 9.75 8.74951 9.75C8.94843 9.75 9.13919 9.82902 9.27984 9.96967C9.4205 10.1103 9.49951 10.3011 9.49951 10.5ZM7.99951 14.18C7.33253 14.0474 6.71407 13.7362 6.21015 13.2796C5.70623 12.823 5.33578 12.2381 5.13833 11.5873C4.94088 10.9366 4.92385 10.2444 5.08906 9.58479C5.25427 8.92513 5.59552 8.32272 6.07638 7.84186C6.55723 7.36101 7.15964 7.01976 7.8193 6.85455C8.47896 6.68934 9.1711 6.70637 9.82183 6.90381C10.4726 7.10126 11.0575 7.47172 11.5141 7.97564C11.9707 8.47955 12.2819 9.09802 12.4145 9.765C12.5388 10.3712 12.5107 10.9987 12.3329 11.5913C12.155 12.184 11.8329 12.7233 11.3953 13.1608C10.9578 13.5983 10.4185 13.9205 9.82586 14.0984C9.2332 14.2762 8.60568 14.3043 7.99951 14.18V14.18ZM8.27451 8.81C7.98644 8.88649 7.7231 9.03631 7.51017 9.24486C7.29724 9.45341 7.14197 9.71358 7.05951 10C6.97542 10.2997 6.97253 10.6163 7.05114 10.9174C7.12974 11.2186 7.28701 11.4934 7.50683 11.7137C7.72665 11.934 8.00111 12.092 8.30207 12.1713C8.60303 12.2506 8.91966 12.2484 9.21951 12.165C9.50397 12.0904 9.76456 11.9442 9.97639 11.7402C10.1882 11.5363 10.3442 11.2814 10.4295 11C10.5189 10.6993 10.526 10.3801 10.4501 10.0757C10.3742 9.77131 10.2182 9.49282 9.99813 9.26921C9.7781 9.0456 9.50215 8.88506 9.19901 8.8043C8.89587 8.72354 8.57663 8.72551 8.27451 8.81V8.81ZM12.9995 6V8H13.4995V11.78C13.4989 12.0127 13.4441 12.2421 13.3395 12.45L12.8045 13.525L12.5795 13.415L11.7595 15.05L11.9845 15.16L12.8795 15.61L13.1045 15.72L13.9195 14.085L13.6945 14L14.2345 12.92C14.4118 12.5663 14.5026 12.1756 14.4995 11.78V8H14.9995V6H12.9995Z" fill="white"/>
</svg>
