<svg width="20" height="26" viewBox="0 0 20 26" fill="none" xmlns="http://www.w3.org/2000/svg">
<path d="M10 1.5C14.6756 1.51543 18.4999 5.32767 18.5 10.1357C18.5 11.4064 18.4904 12.7501 17.9199 14.3682C17.349 15.9874 16.2014 17.919 13.8652 20.3047L13.8643 20.3057L10 24.2822L6.13574 20.3057L6.13477 20.3037C3.79877 17.9181 2.65104 15.9874 2.08008 14.3682C1.50959 12.7501 1.5 11.4064 1.5 10.1357C1.50002 5.32762 5.32436 1.51543 10 1.5Z" fill="#97215E" stroke="#BD487F"/>
<path fill-rule="evenodd" clip-rule="evenodd" d="M11.5234 7.73857C12.3269 6.91804 13.7307 7.17693 14.1748 8.26226L15.2082 10.7869L15.25 10.8895V12.3125L15.239 12.5682C15.1883 13.1551 14.9613 13.6779 14.5695 14.0696C14.1217 14.5174 13.5028 14.75 12.8125 14.75C12.1222 14.75 11.5032 14.5174 11.0554 14.0696C10.6637 13.6779 10.4366 13.1551 10.386 12.5682L10.375 12.3125C10.375 12.136 10.375 11.8764 10.375 11.6512C10.375 11.47 10.4141 11.2858 10.4914 11.1172C10.352 11.0847 10.1884 11.063 9.99998 11.063C9.81125 11.063 9.64735 11.0846 9.5078 11.1172C9.58519 11.2858 9.62497 11.4699 9.62498 11.6512V12.3125C9.62498 13.0028 9.39234 13.6218 8.94457 14.0696C8.55265 14.4615 8.02959 14.6885 7.44237 14.7391L7.18749 14.75C6.4972 14.75 5.87822 14.5174 5.43042 14.0696C4.98265 13.6218 4.75 13.0028 4.75 12.3125V10.8895L4.79175 10.7869L5.82519 8.26226C6.26928 7.17693 7.67303 6.91804 8.47655 7.73857L8.55199 7.82134L8.58715 7.86675C8.75003 8.10081 8.71224 8.42492 8.4912 8.61455C8.27009 8.80407 7.94401 8.79207 7.73754 8.59551L7.69799 8.55376L7.65038 8.50542C7.40231 8.28376 6.99713 8.36761 6.86596 8.68779L6.18994 10.3394C6.47865 10.2872 6.81472 10.25 7.18749 10.25C7.65173 10.2501 8.05884 10.3084 8.38866 10.3812C8.45527 10.3382 8.53317 10.2921 8.62303 10.2471C8.94181 10.0877 9.40279 9.93804 9.99998 9.93804C10.5969 9.93805 11.0574 10.0878 11.3762 10.2471C11.466 10.292 11.5438 10.3382 11.6106 10.3812C11.9405 10.3084 12.3479 10.25 12.8125 10.25C13.1849 10.2501 13.5207 10.2872 13.8093 10.3394L13.134 8.68779C13.0028 8.36761 12.5977 8.28376 12.3496 8.50542L12.302 8.55376L12.2624 8.59551C12.056 8.79207 11.7299 8.80407 11.5088 8.61455C11.2877 8.42492 11.2499 8.10081 11.4128 7.86675L11.448 7.82134L11.5234 7.73857ZM7.18749 11.375C6.64325 11.375 6.19844 11.4741 5.91015 11.5625C5.90565 11.564 5.90075 11.5658 5.89404 11.5757C5.88545 11.5885 5.87501 11.6144 5.875 11.6512V12.3125C5.875 12.7472 6.01742 13.0658 6.22583 13.2742C6.43426 13.4826 6.75287 13.625 7.18749 13.625L7.34496 13.6185C7.7 13.5883 7.96677 13.4566 8.14916 13.2742C8.35756 13.0658 8.49999 12.7472 8.49999 12.3125V11.6512C8.49997 11.6144 8.48954 11.5885 8.48095 11.5757C8.47402 11.5655 8.46873 11.564 8.4641 11.5625C8.17582 11.4741 7.73159 11.3751 7.18749 11.375ZM12.8125 11.375C12.2682 11.375 11.8234 11.4741 11.5351 11.5625C11.5306 11.564 11.5257 11.5658 11.519 11.5757C11.5104 11.5885 11.5 11.6144 11.5 11.6512C11.5 11.8765 11.5 12.1361 11.5 12.3125L11.5066 12.47C11.5366 12.825 11.6684 13.0918 11.8508 13.2742C12.0592 13.4826 12.3778 13.625 12.8125 13.625C13.2471 13.625 13.5657 13.4826 13.7741 13.2742C13.9565 13.0918 14.0883 12.825 14.1184 12.47L14.125 12.3125C14.1249 12.136 14.125 11.8764 14.125 11.6512C14.125 11.6144 14.1145 11.5885 14.1059 11.5757C14.099 11.5655 14.0937 11.564 14.0891 11.5625C13.8008 11.4741 13.3566 11.3751 12.8125 11.375Z" fill="white"/>
</svg>
