<svg width="20" height="26" viewBox="0 0 20 26" fill="none" xmlns="http://www.w3.org/2000/svg">
<circle cx="10" cy="13" r="8.5" fill="#1F6A49" stroke="#538D73"/>
<path fill-rule="evenodd" clip-rule="evenodd" d="M14.801 15C14.801 16.849 13.007 19 9.9864 19C8.30219 19 6.35864 18.2433 5.29685 17.2914V14.8902C6.30372 16.3394 8.13743 17.4561 9.9864 17.4561C11.1184 17.4561 12.0276 16.8093 12.0276 16.1167C12.0276 13.5111 5.19922 15.122 5.19922 10.6278C5.19922 8.26926 7.5028 7 9.57145 7C11.2953 7 12.8392 7.56445 14.0688 8.5164V10.5179C13.007 9.37071 11.4082 8.36384 9.53179 8.36384C8.47 8.36384 7.86283 8.9283 7.86283 9.59039C7.86283 12.3791 14.801 10.4203 14.801 15Z" fill="white"/>
</svg>
