<svg width="20" height="26" viewBox="0 0 20 26" fill="none" xmlns="http://www.w3.org/2000/svg">
<path d="M10 1.5C14.6756 1.51543 18.4999 5.32767 18.5 10.1357C18.5 11.4064 18.4904 12.7501 17.9199 14.3682C17.349 15.9874 16.2014 17.919 13.8652 20.3047L13.8643 20.3057L10 24.2822L6.13574 20.3057L6.13477 20.3037C3.79877 17.9181 2.65104 15.9874 2.08008 14.3682C1.50959 12.7501 1.5 11.4064 1.5 10.1357C1.50002 5.32762 5.32436 1.51543 10 1.5Z" fill="#1B8862" stroke="#48AD84"/>
<path fill-rule="evenodd" clip-rule="evenodd" d="M14.7963 6.99854C15.3908 8.437 15.6434 12.1063 13.3747 14.375C11.1061 16.6433 7.43786 16.39 5.99929 15.7956L8.05846 13.7364L8.41063 14.0886L8.46087 14.1337C8.71854 14.3437 9.09848 14.3286 9.33871 14.0886C9.57873 13.8484 9.59434 13.4679 9.38428 13.2102L9.33871 13.1605L7.83887 11.6607L7.78863 11.6156C7.53095 11.4058 7.15093 11.4207 6.91079 11.6607C6.65474 11.9169 6.65476 12.3325 6.91079 12.5888L7.26296 12.9409L5.20379 15.0001C4.60951 13.5612 4.35704 9.89309 6.62543 7.62468C8.89398 5.35644 12.5622 5.60871 14.0008 6.20304L11.9412 8.26273L11.589 7.91056C11.3328 7.65455 10.9171 7.65456 10.6609 7.91056C10.4209 8.15069 10.4061 8.53071 10.6159 8.7884L10.6609 8.83864L12.1607 10.3385L12.211 10.3835C12.4687 10.5936 12.8486 10.5786 13.0888 10.3385C13.3288 10.0983 13.3439 9.71831 13.1339 9.46064L13.0888 9.4104L12.7367 9.05823L14.7963 6.99854ZM9.71367 9.78588L9.66343 9.74082C9.40568 9.531 9.02571 9.54576 8.78559 9.78588C8.5296 10.0421 8.52959 10.4577 8.78559 10.714L10.2854 12.2138L10.3357 12.2589C10.5933 12.4689 10.9733 12.4538 11.2135 12.2138C11.4537 11.9736 11.4686 11.5937 11.2586 11.336L11.2135 11.2857L9.71367 9.78588Z" fill="white"/>
</svg>
