<svg width="20" height="26" viewBox="0 0 20 26" fill="none" xmlns="http://www.w3.org/2000/svg">
<path d="M10 24.2826L6.13616 20.3055L6.13478 20.3041C3.79846 17.9183 2.6511 15.987 2.08017 14.3677C1.50968 12.7497 1.5 11.4064 1.5 10.1358C1.5 5.32763 5.32435 1.51557 10 1.50014C14.6756 1.51557 18.5 5.32776 18.5 10.1359C18.5 11.4065 18.4903 12.7498 17.9198 14.3678C17.3489 15.9872 16.2015 17.9184 13.8652 20.3043L13.8638 20.3057L10 24.2826Z" fill="#454C56" stroke="#656C77"/>
<path fill-rule="evenodd" clip-rule="evenodd" d="M9.625 6.5H10.375V7.04931L14.051 9.5H15.25L15.25 13.8125C14.8508 13.8125 14.5323 14.0012 14.3433 14.1131C14.321 14.1263 14.3005 14.1385 14.2819 14.1491C14.0832 14.2626 13.9233 14.3375 13.675 14.3375C13.4246 14.3375 13.2659 14.2634 13.0078 14.1344L12.9927 14.1268C12.7271 13.9939 12.3645 13.8125 11.8375 13.8125C11.3075 13.8125 10.9328 13.9956 10.6592 14.1294L10.6536 14.1321C10.3787 14.2664 10.224 14.3375 10 14.3375C9.74959 14.3375 9.5909 14.2634 9.33281 14.1344L9.31767 14.1268C9.05209 13.9939 8.68951 13.8125 8.1625 13.8125C7.63549 13.8125 7.27291 13.9939 7.00733 14.1268L6.99219 14.1344C6.7341 14.2634 6.57541 14.3375 6.325 14.3375C6.07667 14.3375 5.91679 14.2626 5.71814 14.1491C5.69961 14.1385 5.67906 14.1263 5.65687 14.1132C5.46787 14.0013 5.14918 13.8125 4.75 13.8125V9.5H5.94896L9.625 7.04931V6.5ZM7.30105 9.5H12.699L10.375 7.95069V8.75H9.625V7.95069L7.30105 9.5ZM9.625 10.625V13.0625H10.375V10.625H9.625ZM11.875 10.625H11.125V13.0625H11.875V10.625ZM12.625 10.625V13.0625H13.375V10.625H12.625ZM7.375 10.625H6.625V13.0625H7.375V10.625ZM8.125 10.625V13.0625H8.875V10.625H8.125Z" fill="white"/>
<path d="M5.15998 15.8759C4.87698 15.7142 4.82871 15.6875 4.75 15.6875V14.5625C5.14918 14.5625 5.4677 14.7512 5.65671 14.8631C5.67902 14.8763 5.69952 14.8885 5.71814 14.8991C5.91679 15.0126 6.07667 15.0875 6.325 15.0875C6.57541 15.0875 6.7341 15.0134 6.99219 14.8844L7.00733 14.8768C7.27291 14.7439 7.63549 14.5625 8.1625 14.5625C8.68951 14.5625 9.05209 14.7439 9.31767 14.8768L9.33281 14.8844C9.5909 15.0134 9.74959 15.0875 10 15.0875C10.224 15.0875 10.3787 15.0164 10.6536 14.8821L10.6592 14.8794C10.9328 14.7456 11.3075 14.5625 11.8375 14.5625C12.3645 14.5625 12.7271 14.7439 12.9927 14.8768L13.0078 14.8844C13.2659 15.0134 13.4246 15.0875 13.675 15.0875C13.9233 15.0875 14.0832 15.0126 14.2819 14.8991C14.3005 14.8885 14.321 14.8763 14.3433 14.8631C14.5323 14.7512 14.8508 14.5625 15.25 14.5625L15.25 15.6875C15.1713 15.6875 15.123 15.7142 14.84 15.8759C14.5793 16.0249 14.2142 16.2125 13.675 16.2125C13.148 16.2125 12.7854 16.0311 12.5198 15.8982L12.5047 15.8906C12.2466 15.7616 12.0879 15.6875 11.8375 15.6875C11.5836 15.6875 11.4105 15.7643 11.1475 15.8929L11.1173 15.9077C10.857 16.0353 10.4954 16.2125 10 16.2125C9.47299 16.2125 9.11041 16.0311 8.84483 15.8982L8.82969 15.8906C8.5716 15.7616 8.41291 15.6875 8.1625 15.6875C7.91209 15.6875 7.7534 15.7616 7.49531 15.8906L7.48017 15.8982C7.21459 16.0311 6.85201 16.2125 6.325 16.2125C5.78583 16.2125 5.42071 16.0249 5.15998 15.8759Z" fill="white"/>
</svg>
