<svg width="20" height="26" viewBox="0 0 20 26" fill="none" xmlns="http://www.w3.org/2000/svg">
<circle cx="10" cy="13" r="8.5" fill="#275CAA" stroke="#547DCF"/>
<path d="M14.5634 10.39C14.5356 10.0115 14.3653 9.65769 14.087 9.39976C13.8087 9.14183 13.4429 8.99898 13.0634 9H12.4984C12.2655 8.68951 11.9636 8.4375 11.6164 8.26393C11.2693 8.09036 10.8865 8 10.4984 8H9.49841C9.1103 8 8.72751 8.09036 8.38038 8.26393C8.03324 8.4375 7.73128 8.68951 7.49841 9H6.92841C6.54893 8.99898 6.18317 9.14183 5.90482 9.39976C5.62648 9.65769 5.45624 10.0115 5.42841 10.39L5.20841 13.315C5.17095 13.8903 5.33346 14.4608 5.66841 14.93L5.83341 16.25C5.89463 16.736 6.13207 17.1826 6.50072 17.5052C6.86937 17.8278 7.34358 18.0038 7.83341 18H12.1834C12.6732 18.0038 13.1474 17.8278 13.5161 17.5052C13.8847 17.1826 14.1222 16.736 14.1834 16.25L14.3484 14.93C14.6834 14.4608 14.8459 13.8903 14.8084 13.315L14.5634 10.39ZM13.1684 16.125C13.1378 16.368 13.0191 16.5913 12.8348 16.7526C12.6504 16.9139 12.4133 17.0019 12.1684 17H7.82341C7.57849 17.0019 7.34139 16.9139 7.15707 16.7526C6.97274 16.5913 6.85402 16.368 6.82341 16.125L6.78841 15.82C7.08145 15.9359 7.3933 15.9969 7.70841 16H12.2884C12.6018 15.9963 12.9119 15.9353 13.2034 15.82L13.1684 16.125ZM13.3884 14.5C13.2497 14.6551 13.0804 14.7796 12.891 14.8657C12.7016 14.9517 12.4964 14.9975 12.2884 15H7.70841C7.50182 15.0006 7.29734 14.9584 7.10779 14.8763C6.91824 14.7941 6.74771 14.6737 6.60688 14.5225C6.46605 14.3714 6.35797 14.1927 6.2894 13.9979C6.22083 13.803 6.19326 13.596 6.20841 13.39L6.42341 10.465C6.43228 10.3385 6.48885 10.2202 6.58168 10.1339C6.6745 10.0475 6.79665 9.99969 6.92341 10H7.04841C7.01644 10.1648 6.9997 10.3322 6.99841 10.5V11H7.99841V10.5C7.99841 10.1022 8.15645 9.72064 8.43775 9.43934C8.71905 9.15804 9.10059 9 9.49841 9H10.4984C10.8962 9 11.2778 9.15804 11.5591 9.43934C11.8404 9.72064 11.9984 10.1022 11.9984 10.5V11H12.9984V10.5C12.9971 10.3322 12.9804 10.1648 12.9484 10H13.0684C13.1952 9.99969 13.3173 10.0475 13.4101 10.1339C13.503 10.2202 13.5595 10.3385 13.5684 10.465L13.7834 13.39C13.7959 13.5921 13.7673 13.7946 13.6995 13.9854C13.6316 14.1762 13.5258 14.3512 13.3884 14.5V14.5ZM9.49841 13H7.99841V12H9.49841V13ZM11.9984 13H10.4984V12H11.9984V13ZM10.9984 11H8.99841V10H10.9984V11Z" fill="white"/>
</svg>
