<svg width="20" height="26" viewBox="0 0 20 26" fill="none" xmlns="http://www.w3.org/2000/svg">
<path d="M10 24.2826L6.13616 20.3055L6.13478 20.3041C3.79846 17.9183 2.6511 15.987 2.08017 14.3677C1.50968 12.7497 1.5 11.4064 1.5 10.1358C1.5 5.32763 5.32435 1.51557 10 1.50014C14.6756 1.51557 18.5 5.32776 18.5 10.1359C18.5 11.4065 18.4903 12.7498 17.9198 14.3678C17.3489 15.9872 16.2015 17.9184 13.8652 20.3043L13.8638 20.3057L10 24.2826Z" fill="#5B72A4" stroke="#7F94C9"/>
<path d="M11 13.9984V9.49844H7.5V11.4984H9V13.9984H7V15.9984H12.5V13.9984H11ZM11.35 7.49844C11.35 7.76544 11.2708 8.02645 11.1225 8.24846C10.9741 8.47046 10.7633 8.6435 10.5166 8.74567C10.2699 8.84785 9.9985 8.87459 9.73663 8.8225C9.47475 8.77041 9.23421 8.64183 9.04541 8.45303C8.8566 8.26423 8.72803 8.02368 8.67594 7.76181C8.62385 7.49993 8.65058 7.22849 8.75276 6.98181C8.85494 6.73513 9.02797 6.52429 9.24998 6.37595C9.47199 6.22761 9.73299 6.14844 10 6.14844C10.358 6.14844 10.7014 6.29067 10.9546 6.54384C11.2078 6.79702 11.35 7.1404 11.35 7.49844V7.49844Z" fill="white"/>
</svg>
