<svg width="20" height="26" viewBox="0 0 20 26" fill="none" xmlns="http://www.w3.org/2000/svg">
<path d="M10 1.5C14.6756 1.51543 18.4999 5.32767 18.5 10.1357C18.5 11.4064 18.4904 12.7501 17.9199 14.3682C17.3846 15.8863 16.3423 17.6783 14.2891 19.8623L13.8652 20.3047L13.8643 20.3057L10 24.2822L6.13574 20.3057L6.13477 20.3037L5.71094 19.8623C3.65768 17.6783 2.6154 15.8863 2.08008 14.3682C1.50959 12.7501 1.5 11.4064 1.5 10.1357C1.50002 5.32762 5.32436 1.51543 10 1.5Z" fill="#BF173E" stroke="#E9475E"/>
<path d="M7.0658 12.7876C5.88767 13.5257 6.11792 15.5 7.3494 15.5C8.88409 15.5 8.97692 15.1267 10.0001 15.1267C11.0232 15.1267 11.116 15.5 12.6507 15.5C13.8822 15.5 14.1124 13.5258 12.9343 12.7876C12.3841 12.4429 11.7965 12.0807 11.4795 11.5191C11.1716 10.9737 10.7515 10.647 10 10.647C9.24856 10.647 8.8285 10.9737 8.52061 11.5191C8.20356 12.0807 7.61603 12.4429 7.0658 12.7876Z" fill="white"/>
<path d="M7.04135 8.48257C6.80371 7.60824 7.2194 6.73879 7.96988 6.54054C8.72036 6.34229 9.52144 6.89032 9.75907 7.76464C9.99671 8.63897 9.58096 9.50845 8.83048 9.7067C8.08 9.90495 7.27898 9.3569 7.04135 8.48257Z" fill="white"/>
<path d="M12.9587 8.48279C13.1964 7.60841 12.7806 6.73884 12.0302 6.5406C11.2797 6.34235 10.4786 6.89049 10.241 7.76487C10.0033 8.63925 10.4191 9.50882 11.1695 9.70707C11.92 9.90531 12.7211 9.35717 12.9587 8.48279Z" fill="white"/>
<path d="M14.7417 11.4885C15.341 10.8976 15.422 10.0195 14.9226 9.52707C14.4231 9.03469 13.5324 9.11452 12.933 9.70538C12.3337 10.2962 12.2527 11.1744 12.7522 11.6668C13.2516 12.1592 14.1424 12.0793 14.7417 11.4885Z" fill="white"/>
<path d="M5.25831 11.4885C4.65898 10.8976 4.578 10.0194 5.07744 9.52705C5.57689 9.03466 6.46763 9.1145 7.06696 9.70536C7.66628 10.2962 7.74727 11.1744 7.24782 11.6668C6.74838 12.1591 5.85763 12.0793 5.25831 11.4885Z" fill="white"/>
</svg>
