<svg width="20" height="26" viewBox="0 0 20 26" fill="none" xmlns="http://www.w3.org/2000/svg">
<path d="M10 24.2826L6.13616 20.3055L6.13478 20.3041C3.79846 17.9183 2.6511 15.987 2.08017 14.3677C1.50968 12.7497 1.5 11.4064 1.5 10.1358C1.5 5.32763 5.32435 1.51557 10 1.50014C14.6756 1.51557 18.5 5.32776 18.5 10.1359C18.5 11.4065 18.4903 12.7498 17.9198 14.3678C17.3489 15.9872 16.2015 17.9184 13.8652 20.3043L13.8638 20.3057L10 24.2826Z" fill="#853A92" stroke="#AA5DB6"/>
<path d="M13.375 5.75V8.87869C13.375 9.27651 13.5368 9.65707 13.7543 9.99019C14.0809 10.4905 14.5 11.3556 14.5001 12.5C14.5002 14.375 14.5 16.25 14.5 16.25H10.75C10.75 16.25 10.7502 14.375 10.7501 12.5C10.75 11.3556 11.1691 10.4906 11.4957 9.99021C11.7132 9.65707 11.875 9.2765 11.875 8.87866V5.75H13.375Z" fill="white"/>
<path d="M9.25 8.75H5.5V10.625C5.5 11.4645 6.05179 12.1752 6.8125 12.4141L6.8125 15.5H6.25C5.83579 15.5 5.5 15.8358 5.5 16.25H9.25C9.25 15.8358 8.91421 15.5 8.5 15.5H7.9375L7.9375 12.4141C8.69821 12.1752 9.25 11.4645 9.25 10.625V8.75Z" fill="white"/>
</svg>
