<svg width="256" height="256" viewBox="0 0 256 256" fill="none" xmlns="http://www.w3.org/2000/svg">
<path fill-rule="evenodd" clip-rule="evenodd" d="M91.2914 94.4848L76.0853 100.788C63.9735 105.809 50.5 97.2157 50.5 84.4695L50.5 56.9818C50.5 51.5343 55.0654 47.1182 60.6972 47.1182C66.329 47.1182 70.8944 51.5343 70.8944 56.9818L70.8944 81.4778L111.687 64.5672C111.857 39.6491 132.792 19.5 158.593 19.5C184.499 19.5 205.5 39.814 205.5 64.8727C205.5 89.9314 184.499 110.245 158.593 110.245C155.35 110.245 152.185 109.927 149.127 109.321L167.344 129.459C172.017 134.625 172.96 141.477 170.753 147.294C190.764 152.475 205.5 170.137 205.5 191.127C205.5 216.186 184.499 236.5 158.593 236.5C132.687 236.5 111.686 216.186 111.686 191.127C111.686 187.095 112.229 183.186 113.25 179.465L79.0548 195.284L79.0548 199.018C79.0548 204.466 74.4893 208.882 68.8576 208.882C63.2258 208.882 58.6604 204.466 58.6604 199.018L58.6604 163.509C58.6604 158.062 63.2258 153.645 68.8576 153.645C74.4893 153.645 79.0548 158.062 79.0548 163.509L79.0548 173.417L91.2914 167.756L91.2914 94.4848ZM111.686 97.8884L111.686 158.321L150.225 140.492L111.686 97.8884ZM158.593 216.773C143.95 216.773 132.08 205.291 132.08 191.127C132.08 176.964 143.95 165.482 158.593 165.482C173.235 165.482 185.106 176.964 185.106 191.127C185.106 205.291 173.235 216.773 158.593 216.773ZM158.593 90.5182C143.95 90.5182 132.08 79.0363 132.08 64.8727C132.08 50.7091 143.95 39.2273 158.593 39.2273C173.235 39.2273 185.106 50.7091 185.106 64.8727C185.106 79.0363 173.235 90.5182 158.593 90.5182Z" fill="#FAFDFF" stroke="black" stroke-opacity="0.5" stroke-width="4" stroke-linecap="round"/>
</svg>
