<svg width="17" height="22" viewBox="0 0 17 22" fill="none" xmlns="http://www.w3.org/2000/svg">
<g id="day / canada_j_ON_01">
<g id="canada_j_base">
<g id="stretchable-items">
<path id="shape01" d="M1.5 6.5H15.5V9.38235C15.5 18.0294 8.50003 20.5 8.50003 20.5C8.50003 20.5 1.5 18.0294 1.5 9.38235V6.5Z" fill="white" stroke="#888B8F" stroke-linejoin="round"/>
</g>
<g id="non-stretchable-items">
<path id="shape02" fill-rule="evenodd" clip-rule="evenodd" d="M8.50007 1C7.95319 1 7.62502 1.30507 7.62502 1.81355C7.62502 2.32203 8.28124 3.74579 8.28124 3.74579C7.95311 3.74579 7.40629 3.23731 6.42192 3.23731C5.43755 3.23731 5 3.74579 5 3.74579L5.65622 7H11.3438L12 3.74579C12 3.74579 11.5624 3.23731 10.5781 3.23731C9.59371 3.23731 9.04689 3.74579 8.71876 3.74579C8.71876 3.74579 9.37498 2.22033 9.37498 1.81355C9.37498 1.30507 9.04694 1 8.50007 1Z" fill="#888B8F"/>
</g>
</g>
</g>
</svg>
