<svg width="24" height="24" viewBox="0 0 24 24" fill="none" xmlns="http://www.w3.org/2000/svg">
<g id="day / canada_b_01">
<g id="canada_b_base">
<g id="stretchable-items">
<rect id="shape01" x="1.5" y="1.5" width="21" height="21" rx="2" fill="#53C2AE" stroke="white" stroke-linejoin="round"/>
<path id="shape01_2" d="M9.38599 5.47823C9.78815 4.9275 10.3914 3.82609 12 3C13.6086 3.82609 14.2118 4.9275 14.614 5.47823C15.2843 6.442 15.6864 7.26809 15.9545 8.23186C16.2226 9.47099 16.3567 10.1594 16.3567 10.1594C18.5015 8.50721 20.6463 8.92026 20.6463 8.92026C21.1825 10.5724 21.0485 12.6377 20.6463 13.7391C19.9761 15.942 18.7696 16.9058 18.7696 16.9058C19.708 17.4565 20.1101 17.8696 20.1101 17.8696C16.8929 20.6232 12.7373 19.2464 12.7373 19.2464C12.3351 19.9348 12.7373 22 12.7373 22L11.2627 22C11.2627 22 11.6649 19.9348 11.2627 19.2464C11.2627 19.2464 7.10711 20.6232 3.88986 17.8695C3.88986 17.8695 4.29202 17.4565 5.23038 16.9058C5.23038 16.9058 4.02392 15.942 3.35366 13.7391C2.95151 12.6377 2.81746 10.5724 3.35366 8.92026C3.35366 8.92026 5.49847 8.50721 7.6433 10.1594C7.6433 10.1594 7.77737 9.47098 8.04548 8.23185C8.31358 7.26808 8.71574 6.44199 9.38599 5.47823Z" fill="white"/>
</g>
</g>
</g>
</svg>
