<svg width="19" height="17" viewBox="0 0 19 17" fill="none" xmlns="http://www.w3.org/2000/svg">
<g id="day / detailedshield_d_01">
<g id="detailedshield_d_base">
<g id="stretchable-items">
<path id="shape01" d="M1.5 10.4781C1.5 12.5413 2.95445 14.8123 5.86355 14.8123H7.74508C8.40363 14.8123 9.03424 15.0597 9.49991 15.5C9.96558 15.0597 10.5962 14.8123 11.2548 14.8123H13.1364C16.0455 14.8123 17.5 12.5413 17.5 10.4781C17.5 7.58482 16.4924 7.60238 16.4924 6.21691C16.4924 5.10537 17.3188 4.46915 17.3188 4.46915L14.6812 1.5C12.4994 2.15333 11.6818 2.5 9.49991 2.5C7.31809 2.5 6.50051 2.15333 4.3187 1.5L1.6812 4.46915C1.6812 4.46915 2.50755 5.10537 2.50755 6.21691C2.50755 7.60238 1.5 7.58482 1.5 10.4781Z" fill="#F56C6C" stroke="white" stroke-linejoin="round"/>
</g>
</g>
</g>
</svg>
