<svg width="19" height="26" viewBox="0 0 19 26" fill="none" xmlns="http://www.w3.org/2000/svg">
<g id="day / detailedshield_c_01_business-loop">
<g id="detailedshield_c_01_business-loop">
<g id="detailedshield_c_base">
<g id="stretchable-items">
<path id="shape01" d="M12.3235 2.30526C11.1235 2.30526 9.5 1.5 9.5 1.5C9.5 1.5 7.87647 2.30526 6.67647 2.30526C5.47647 2.30526 4.65294 1.95 3.85294 1.5C3.85294 1.5 1.5 3.75 1.5 9.6C1.5 15.45 5.26471 18.3 9.5 19.5C13.7353 18.3 17.5 15.45 17.5 9.6C17.5 3.75 15.1471 1.5 15.1471 1.5C14.3471 1.95 13.5235 2.30526 12.3235 2.30526Z" fill="#53C2AE" stroke="white" stroke-linejoin="round"/>
<path id="shape02" d="M12.3233 2.30526C11.1334 2.30526 9.49984 1.5 9.49984 1.5C9.49984 1.5 7.8662 2.30526 6.67628 2.30526C5.48636 2.30526 4.64603 1.92 3.85275 1.5C3.85275 1.5 2.59866 2.62365 1.94043 5.5H17.0592C16.401 2.62365 15.1469 1.5 15.1469 1.5C14.3536 1.92 13.5133 2.30526 12.3233 2.30526Z" fill="#53C2AE" stroke="white" stroke-linejoin="round"/>
</g>
</g>
<g id="non-stretchable-items">
<g id="roadtype_business-loop">
<rect id="background" x="2.5" y="15.5" width="14" height="9" fill="#53C2AE" stroke="white" stroke-linejoin="round"/>
<path id="BL" d="M8.41991 20.072C8.79324 20.1413 9.09457 20.2773 9.32391 20.48C9.55857 20.6773 9.67591 20.9813 9.67591 21.392C9.67591 21.9733 9.46791 22.3867 9.05191 22.632C8.63591 22.8773 8.05724 23 7.31591 23H5.58791V17.464H7.09991C7.85724 17.464 8.43591 17.576 8.83591 17.8C9.23591 18.024 9.43591 18.384 9.43591 18.88C9.43591 19.2053 9.33724 19.4693 9.13991 19.672C8.94791 19.8693 8.70791 20.0027 8.41991 20.072ZM6.76391 18.312V19.712H7.33991C7.62791 19.712 7.84924 19.6533 8.00391 19.536C8.15857 19.4133 8.23591 19.2293 8.23591 18.984C8.23591 18.7387 8.15324 18.5653 7.98791 18.464C7.82257 18.3627 7.56391 18.312 7.21191 18.312H6.76391ZM7.32391 22.128C7.69191 22.128 7.97191 22.0747 8.16391 21.968C8.35591 21.856 8.45191 21.648 8.45191 21.344C8.45191 20.7893 8.11057 20.512 7.42791 20.512H6.76391V22.128H7.32391ZM11.6858 22.056H13.8778L13.7498 23H10.5098V17.464H11.6858V22.056Z" fill="white"/>
</g>
</g>
</g>
</g>
</svg>
