<svg width="25" height="26" viewBox="0 0 25 26" fill="none" xmlns="http://www.w3.org/2000/svg">
<g id="day / detailedshield_c_02_toll">
<g id="detailedshield_c_02_toll">
<g id="detailedshield_c_base">
<g id="stretchable-items">
<path id="shape01" d="M15.3235 2.30526C14.1235 2.30526 12.5 1.5 12.5 1.5C12.5 1.5 10.8765 2.30526 9.67647 2.30526C8.47647 2.30526 7.65294 1.95 6.85294 1.5C6.85294 1.5 4.5 3.75 4.5 9.6C4.5 15.45 8.26471 18.3 12.5 19.5C16.7353 18.3 20.5 15.45 20.5 9.6C20.5 3.75 18.1471 1.5 18.1471 1.5C17.3471 1.95 16.5235 2.30526 15.3235 2.30526Z" fill="#5397F0" stroke="white" stroke-linejoin="round"/>
<path id="shape02" d="M15.3233 2.30526C14.1334 2.30526 12.4998 1.5 12.4998 1.5C12.4998 1.5 10.8662 2.30526 9.67628 2.30526C8.48636 2.30526 7.64603 1.92 6.85275 1.5C6.85275 1.5 5.59866 2.62365 4.94043 5.5H20.0592C19.401 2.62365 18.1469 1.5 18.1469 1.5C17.3536 1.92 16.5133 2.30526 15.3233 2.30526Z" fill="#F56C6C" stroke="white" stroke-linejoin="round"/>
</g>
</g>
<g id="non-stretchable-items">
<g id="roadtype_toll">
<rect id="background" x="1.5" y="15.5" width="22" height="9" fill="#FFF9BA" stroke="#888B8F" stroke-linejoin="round"/>
<path id="TOLL" d="M7.79597 18.384H6.39597V23H5.21997V18.384H3.74797V17.464H7.92397L7.79597 18.384ZM10.4282 17.336C10.9348 17.336 11.3722 17.4507 11.7402 17.68C12.1082 17.904 12.3908 18.232 12.5882 18.664C12.7855 19.096 12.8842 19.6187 12.8842 20.232C12.8842 20.8347 12.7855 21.3547 12.5882 21.792C12.3908 22.224 12.1082 22.5547 11.7402 22.784C11.3722 23.0133 10.9348 23.128 10.4282 23.128C9.92149 23.128 9.48149 23.016 9.10816 22.792C8.74016 22.5627 8.45749 22.232 8.26016 21.8C8.06282 21.3627 7.96416 20.84 7.96416 20.232C7.96416 19.6347 8.06282 19.12 8.26016 18.688C8.46282 18.2507 8.74816 17.9173 9.11616 17.688C9.48949 17.4533 9.92682 17.336 10.4282 17.336ZM10.4282 18.216C10.0228 18.216 9.71616 18.376 9.50816 18.696C9.30549 19.016 9.20416 19.528 9.20416 20.232C9.20416 20.936 9.30816 21.448 9.51616 21.768C9.72416 22.088 10.0282 22.248 10.4282 22.248C10.8335 22.248 11.1375 22.0907 11.3402 21.776C11.5428 21.456 11.6442 20.9413 11.6442 20.232C11.6442 19.5227 11.5428 19.0107 11.3402 18.696C11.1375 18.376 10.8335 18.216 10.4282 18.216ZM14.9514 22.056H17.1434L17.0154 23H13.7754V17.464H14.9514V22.056ZM19.0217 22.056H21.2137L21.0857 23H17.8457V17.464H19.0217V22.056Z" fill="#888B8F"/>
</g>
</g>
</g>
</g>
</svg>
