<svg width="19" height="26" viewBox="0 0 19 26" fill="none" xmlns="http://www.w3.org/2000/svg">
<g id="day / detailedshield_c_02_alternative">
<g id="detailedshield_c_02_alternative">
<g id="detailedshield_c_base">
<g id="stretchable-items">
<path id="shape01" d="M12.3235 2.30526C11.1235 2.30526 9.5 1.5 9.5 1.5C9.5 1.5 7.87647 2.30526 6.67647 2.30526C5.47647 2.30526 4.65294 1.95 3.85294 1.5C3.85294 1.5 1.5 3.75 1.5 9.6C1.5 15.45 5.26471 18.3 9.5 19.5C13.7353 18.3 17.5 15.45 17.5 9.6C17.5 3.75 15.1471 1.5 15.1471 1.5C14.3471 1.95 13.5235 2.30526 12.3235 2.30526Z" fill="#5397F0" stroke="white" stroke-linejoin="round"/>
<path id="shape02" d="M12.3233 2.30526C11.1334 2.30526 9.49984 1.5 9.49984 1.5C9.49984 1.5 7.8662 2.30526 6.67628 2.30526C5.48636 2.30526 4.64603 1.92 3.85275 1.5C3.85275 1.5 2.59866 2.62365 1.94043 5.5H17.0592C16.401 2.62365 15.1469 1.5 15.1469 1.5C14.3536 1.92 13.5133 2.30526 12.3233 2.30526Z" fill="#F56C6C" stroke="white" stroke-linejoin="round"/>
</g>
</g>
<g id="non-stretchable-items">
<g id="roadtype_alternative">
<rect id="background" x="1.5" y="15.5" width="16" height="9" fill="#5397F0" stroke="white" stroke-linejoin="round"/>
<path id="ALT" d="M6.54766 21.76H4.81166L4.49966 23H3.27566L4.97966 17.464H6.41166L8.10766 23H6.85966L6.54766 21.76ZM6.32366 20.888L5.67566 18.336L5.03566 20.888H6.32366ZM9.79516 22.056H11.9872L11.8592 23H8.61916V17.464H9.79516V22.056ZM15.5069 18.384H14.1069V23H12.9309V18.384H11.4589V17.464H15.6349L15.5069 18.384Z" fill="white"/>
</g>
</g>
</g>
</g>
</svg>
