<svg width="21" height="20" viewBox="0 0 21 20" fill="none" xmlns="http://www.w3.org/2000/svg">
<g id="day / usa_WA_01">
<g id="usa_WA_base">
<g id="stretchable-items">
<path id="shape01" d="M13.3115 1.8411C14.44 2.14757 15.5736 2.75212 16.3463 3.95589C16.9835 4.94855 17.2427 5.5028 17.436 5.90236C17.6412 6.32653 17.7074 6.76962 17.7846 7.22744C17.9007 7.91615 18.2711 8.39406 18.6544 8.85426C18.8623 9.10382 19.2167 9.43814 19.3607 9.73152C19.4778 9.97011 19.4995 10.0798 19.4998 10.3417C19.456 12.3477 17.5724 12.8004 16.9148 14.3557C16.5954 15.1111 17.284 15.7154 17.3665 15.8152L18.3273 15.1289L18.5901 15.5259C18.5901 15.5259 18.3116 16.6325 17.9047 17.3036L18.4998 18.5002H4.49978C4.49978 18.5002 4.46968 17.8796 5.17594 17.2031C5.88221 16.5266 6.17958 15.6939 5.52536 15.1587C4.87113 14.6234 3.59692 14.6658 3.16123 14.4227C2.26723 13.9237 2.84241 11.977 2.80435 11.087C2.55223 11.0498 2.11031 11.0482 1.89082 10.9137C1.76461 10.8363 1.54785 10.6592 1.54785 10.3522C1.54785 9.3447 2.49858 9.01359 2.80435 8.13613C2.98878 7.60684 2.76823 6.93866 2.98817 6.37663C3.32897 5.50579 3.81749 4.21144 4.77872 3.7511C5.26011 3.52056 5.17298 3.15938 5.36921 2.75063C5.87901 1.6887 9.15964 1.48281 10.1033 1.50087C11.181 1.52092 12.2649 1.5569 13.3115 1.8411Z" fill="white" stroke="#888B8F" stroke-linejoin="round"/>
</g>
</g>
</g>
</svg>
