<svg width="32" height="32" viewBox="0 0 32 32" fill="none" xmlns="http://www.w3.org/2000/svg">
<path fill-rule="evenodd" clip-rule="evenodd" d="M31.0607 15.647C31.256 15.8422 31.256 16.1588 31.0607 16.3541L16.354 31.0608C16.1587 31.2561 15.8421 31.2561 15.6469 31.0608L0.939369 16.3533C0.744107 16.1581 0.744107 15.8415 0.939369 15.6462L15.6461 0.939491C15.8414 0.744229 16.1579 0.744229 16.3532 0.939491L31.0607 15.647Z" fill="white"/>
<path d="M15.9996 2L30 16.0004L16.0004 30L2 15.9996L15.9996 2Z" fill="#1C232E"/>
<path d="M28.5 16L16 28.5L3.5 16L16 3.5L28.5 16Z" fill="#FF870F"/>
<path fill-rule="evenodd" clip-rule="evenodd" d="M11.4184 18.5207C11.2169 17.9363 10.6646 17.5145 10.0106 17.5098C9.18052 17.5038 8.506 18.172 8.50001 19.0002C8.49905 19.1328 8.55083 19.2604 8.64394 19.3548C8.73705 19.4493 8.86387 19.5029 8.9965 19.5038L10.5816 19.5149C10.7833 20.0992 11.3363 20.5191 11.9894 20.5238C12.6429 20.5285 13.2017 20.1165 13.4115 19.5345L14.5817 19.5421C14.7835 20.1263 15.3364 20.5461 15.9894 20.5508C16.643 20.5555 17.2015 20.143 17.4113 19.5615L18.5862 19.5691C18.7913 20.1464 19.3403 20.5601 19.9894 20.5648C20.6432 20.5695 21.2028 20.157 21.4121 19.5747L22.9965 19.5858C23.2726 19.5877 23.498 19.3655 23.5 19.0894C23.506 18.2609 22.8414 17.5838 22.0106 17.5778C21.3552 17.5731 20.7967 17.9887 20.5878 18.5715L19.4186 18.5621C19.2175 17.9776 18.6658 17.5555 18.0106 17.5508C17.3509 17.546 16.7895 17.9671 16.5838 18.5559L15.4184 18.5477C15.2169 17.9633 14.6646 17.5415 14.0106 17.5368C13.3557 17.5321 12.7982 17.9474 12.5887 18.5289L11.4184 18.5207ZM12.5 22.0042C12.506 21.174 13.1825 20.5108 14.0106 20.5168C14.6636 20.5215 15.2171 20.9402 15.4186 21.5257L16.5838 21.5339C16.7897 20.9451 17.3518 20.526 18.0106 20.5308C18.8388 20.5368 19.5038 21.2084 19.5 22.0363C19.5 22.0423 19.5 22.0484 19.5 22.0544C19.498 22.3305 19.2725 22.5528 18.9964 22.5508C18.9558 22.5505 18.9163 22.5454 18.8786 22.536L17.4162 22.5257C17.2105 23.1145 16.6491 23.5356 15.9894 23.5308C15.3353 23.5261 14.783 23.1042 14.5815 22.5197L12.9962 22.5078C12.7202 22.5057 12.498 22.2803 12.5 22.0042Z" fill="#1C232E"/>
<path d="M16.92 12.9996L18.783 11.1366C18.976 10.9426 18.976 10.6236 18.783 10.4296L18.57 10.2166C18.376 10.0226 18.056 10.0226 17.863 10.2166L16 12.0796L14.105 10.1846C13.911 9.99056 13.592 9.99056 13.398 10.1846L13.185 10.3976C12.991 10.5916 12.991 10.9106 13.185 11.1046L15.08 12.9996L13.166 14.9136C12.972 15.1076 12.972 15.4266 13.166 15.6206L13.379 15.8336C13.573 16.0276 13.892 16.0276 14.086 15.8336L16 13.9196L17.898 15.8176C18.09 16.0116 18.411 16.0116 18.605 15.8176L18.818 15.6046C19.011 15.4106 19.011 15.0916 18.818 14.8976L16.92 12.9996Z" fill="#1C232E"/>
</svg>
