<svg width="30" height="30" viewBox="0 0 30 30" fill="none" xmlns="http://www.w3.org/2000/svg">
<path fill-rule="evenodd" clip-rule="evenodd" d="M29 15C29 22.732 22.732 29 15 29C7.26801 29 1 22.732 1 15C1 7.26801 7.26801 1 15 1C22.732 1 29 7.26801 29 15ZM15 28C22.1797 28 28 22.1797 28 15C28 7.8203 22.1797 2 15 2C7.8203 2 2 7.8203 2 15C2 22.1797 7.8203 28 15 28Z" fill="white"/>
<circle cx="15" cy="15" r="13" fill="#FB1858"/>
<circle cx="15" cy="15" r="11" fill="white"/>
<path d="M10 19H20V8.776C20 8.483 19.547 8 19.178 8L10.821 8.008C10.44 8.008 10.008 8.446 10.008 8.747L10 19Z" fill="#1C232E"/>
<path d="M11 9V18H19V9H11Z" fill="#FF870F"/>
<path d="M9 18V19H21V18H9Z" fill="#1C232E"/>
<path d="M15 23C15.5523 23 16 22.3284 16 21.5C16 20.6716 15.5523 20 15 20C14.4477 20 14 20.6716 14 21.5C14 22.3284 14.4477 23 15 23Z" fill="#1C232E"/>
<path d="M11 20H10V23H11V20Z" fill="#1C232E"/>
<path d="M13 20H12V23H13V20Z" fill="#1C232E"/>
<path d="M20 20H19V23H20V20Z" fill="#1C232E"/>
<path d="M18 20H17V23H18V20Z" fill="#1C232E"/>
<path d="M19 21H11V22H19V21Z" fill="#1C232E"/>
<path d="M24.4127 22.7349L7.09021 5.41235L5.41297 7.08959L22.7355 24.4121L24.4127 22.7349Z" fill="#FB1858"/>
</svg>
