<svg width="32" height="32" viewBox="0 0 32 32" fill="none" xmlns="http://www.w3.org/2000/svg">
<path fill-rule="evenodd" clip-rule="evenodd" d="M31.0607 15.647C31.256 15.8422 31.256 16.1588 31.0607 16.3541L16.354 31.0608C16.1587 31.2561 15.8421 31.2561 15.6469 31.0608L0.939369 16.3533C0.744107 16.1581 0.744107 15.8415 0.939369 15.6462L15.6461 0.939491C15.8414 0.744229 16.1579 0.744229 16.3532 0.939491L31.0607 15.647Z" fill="white"/>
<path d="M15.9996 2L30 16.0004L16.0004 30L2 15.9996L15.9996 2Z" fill="#1C232E"/>
<path d="M28.5 16L16 28.5L3.5 16L16 3.5L28.5 16Z" fill="#F7FA19"/>
<path d="M18.5 19C19.6046 19 20.5 18.1046 20.5 17C20.5 15.8954 19.6046 15 18.5 15C17.3954 15 16.5 15.8954 16.5 17C16.5 18.1046 17.3954 19 18.5 19Z" fill="#1C232E"/>
<path d="M13.5 19C14.6046 19 15.5 18.1046 15.5 17C15.5 15.8954 14.6046 15 13.5 15C12.3954 15 11.5 15.8954 11.5 17C11.5 18.1046 12.3954 19 13.5 19Z" fill="#1C232E"/>
<path fill-rule="evenodd" clip-rule="evenodd" d="M11.3517 13.0581C11.4689 12.9408 11.6279 12.875 11.7937 12.875H20.2066C20.3723 12.875 20.5313 12.9408 20.6485 13.0581L21.9421 14.3516C22.1861 14.5957 22.1861 14.9914 21.9421 15.2355C21.698 15.4796 21.3023 15.4796 21.0582 15.2355L19.9477 14.125H12.0525L10.9421 15.2355C10.698 15.4796 10.3023 15.4796 10.0582 15.2355C9.8141 14.9914 9.8141 14.5957 10.0582 14.3516L11.3517 13.0581Z" fill="#1C232E"/>
</svg>
