<svg width="32" height="32" viewBox="0 0 32 32" fill="none" xmlns="http://www.w3.org/2000/svg">
<path fill-rule="evenodd" clip-rule="evenodd" d="M31.0607 15.647C31.256 15.8422 31.256 16.1588 31.0607 16.3541L16.354 31.0608C16.1587 31.2561 15.8421 31.2561 15.6469 31.0608L0.939369 16.3533C0.744107 16.1581 0.744107 15.8415 0.939369 15.6462L15.6461 0.939491C15.8414 0.744229 16.1579 0.744229 16.3532 0.939491L31.0607 15.647Z" fill="white"/>
<path d="M15.9996 2L30 16.0004L16.0004 30L2 15.9996L15.9996 2Z" fill="#1C232E"/>
<path d="M28.5 16L16 28.5L3.5 16L16 3.5L28.5 16Z" fill="#F7FA19"/>
<path d="M13 18.5C13 18.775 12.775 19 12.5 19H11.5C11.225 19 11 18.775 11 18.5V15.5C11 15.225 11.225 15 11.5 15H12.5C12.775 15 13 15.225 13 15.5V18.5Z" fill="#1C232E"/>
<path d="M21 18.5C21 18.775 20.775 19 20.5 19H19.5C19.225 19 19 18.775 19 18.5V15.5C19 15.225 19.225 15 19.5 15H20.5C20.775 15 21 15.225 21 15.5V18.5Z" fill="#1C232E"/>
<path d="M16 18.5C16.8284 18.5 17.5 17.8284 17.5 17C17.5 16.1716 16.8284 15.5 16 15.5C15.1716 15.5 14.5 16.1716 14.5 17C14.5 17.8284 15.1716 18.5 16 18.5Z" fill="#1C232E"/>
<path d="M19 16.5H13V17.5H19V16.5Z" fill="#1C232E"/>
</svg>
