<svg width="32" height="32" viewBox="0 0 32 32" fill="none" xmlns="http://www.w3.org/2000/svg">
<path fill-rule="evenodd" clip-rule="evenodd" d="M31.0607 15.647C31.256 15.8422 31.256 16.1588 31.0607 16.3541L16.354 31.0608C16.1587 31.2561 15.8421 31.2561 15.6469 31.0608L0.939369 16.3533C0.744107 16.1581 0.744107 15.8415 0.939369 15.6462L15.6461 0.939491C15.8414 0.744229 16.1579 0.744229 16.3532 0.939491L31.0607 15.647Z" fill="white"/>
<path d="M15.9996 2L30 16.0004L16.0004 30L2 15.9996L15.9996 2Z" fill="#1C232E"/>
<path d="M28.5 16L16 28.5L3.5 16L16 3.5L28.5 16Z" fill="#F8D40D"/>
<path d="M19.29 12.02C19.246 12.344 19.281 13.047 18.666 13.797C18.236 13.51 18.15 13.47 17.6 13.29C17.67 11.019 16.08 8.89 14.181 8C14.351 8.55 14.442 9.12 14.442 9.72C14.442 11.31 13.822 12.76 12.792 13.81C11.52 15.12 11 16.34 11 17.74C11 20.89 13.24 23 16 23C19.23 23 21 20.811 21 17.21C21 15.56 20.422 13.141 19.29 12.02ZM16 21.675C13.97 21.675 12.325 20.029 12.325 18C12.325 15.969 13.97 14.325 16 14.325C18.029 14.325 19.675 15.969 19.675 18C19.675 20.029 18.029 21.675 16 21.675Z" fill="#1C232E"/>
</svg>
