<svg width="32" height="32" viewBox="0 0 32 32" fill="none" xmlns="http://www.w3.org/2000/svg">
<path fill-rule="evenodd" clip-rule="evenodd" d="M31.0607 15.647C31.256 15.8422 31.256 16.1588 31.0607 16.3541L16.354 31.0608C16.1587 31.2561 15.8421 31.2561 15.6469 31.0608L0.939369 16.3533C0.744107 16.1581 0.744107 15.8415 0.939369 15.6462L15.6461 0.939491C15.8414 0.744229 16.1579 0.744229 16.3532 0.939491L31.0607 15.647Z" fill="white"/>
<path d="M15.9996 2L30 16.0004L16.0004 30L2 15.9996L15.9996 2Z" fill="#1C232E"/>
<path d="M28.5 16L16 28.5L3.5 16L16 3.5L28.5 16Z" fill="#FF870F"/>
<path d="M13.916 12.8359H14.744V19.1639H13.916V16.1579H11V19.1639H10.173V12.8359H11V15.4099H13.916V12.8359Z" fill="#1C232E"/>
<path d="M16.274 12.8359H17.183L19.055 16.6609L20.918 12.8359H21.827V19.1639H21.016V14.2499L19.387 17.5429H18.66L17.085 14.3389V19.1639H16.274V12.8359Z" fill="#1C232E"/>
</svg>
