<svg width="30" height="30" viewBox="0 0 30 30" fill="none" xmlns="http://www.w3.org/2000/svg">
<path fill-rule="evenodd" clip-rule="evenodd" d="M29 15C29 22.732 22.732 29 15 29C7.26801 29 1 22.732 1 15C1 7.26801 7.26801 1 15 1C22.732 1 29 7.26801 29 15ZM15 28C22.1797 28 28 22.1797 28 15C28 7.8203 22.1797 2 15 2C7.8203 2 2 7.8203 2 15C2 22.1797 7.8203 28 15 28Z" fill="white"/>
<circle cx="15" cy="15" r="13" fill="#FB1858"/>
<circle cx="15" cy="15" r="11" fill="white"/>
<rect x="10" y="11" width="11" height="4" fill="#1C232E"/>
<rect x="10" y="16" width="3" height="2" fill="#1C232E"/>
<rect x="18" y="16" width="3" height="2" fill="#1C232E"/>
<rect x="7" y="17" width="3" height="1" fill="#1C232E"/>
<path fill-rule="evenodd" clip-rule="evenodd" d="M17.5 17.5C17.5 18.6046 16.6046 19.5 15.5 19.5C14.3954 19.5 13.5 18.6046 13.5 17.5C13.5 16.3954 14.3954 15.5 15.5 15.5C16.6046 15.5 17.5 16.3954 17.5 17.5ZM15.5 18.25C15.9142 18.25 16.25 17.9142 16.25 17.5C16.25 17.0858 15.9142 16.75 15.5 16.75C15.0858 16.75 14.75 17.0858 14.75 17.5C14.75 17.9142 15.0858 18.25 15.5 18.25Z" fill="#1C232E"/>
</svg>
