<svg width="30" height="30" viewBox="0 0 30 30" fill="none" xmlns="http://www.w3.org/2000/svg">
<path fill-rule="evenodd" clip-rule="evenodd" d="M29 15C29 22.732 22.732 29 15 29C7.26801 29 1 22.732 1 15C1 7.26801 7.26801 1 15 1C22.732 1 29 7.26801 29 15ZM15 28C22.1797 28 28 22.1797 28 15C28 7.8203 22.1797 2 15 2C7.8203 2 2 7.8203 2 15C2 22.1797 7.8203 28 15 28Z" fill="white"/>
<circle cx="15" cy="15" r="13" fill="#FB1858"/>
<circle cx="15" cy="15" r="11" fill="#FAEC47"/>
<path d="M23.2111 13.2202C22.822 11.4168 21.8539 9.82877 20.5111 8.6604H18.4794V13.9801H19.2394V13.2202H19.9994V12.4602H21.5193V13.2202H22.2792V13.9801H23.0392V13.2202H23.2111Z" fill="#1C232E"/>
<path d="M21.5016 14.3602C21.5016 14.5692 21.3306 14.7401 21.1216 14.7401H20.3617C20.1527 14.7401 19.9817 14.5692 19.9817 14.3602V13.6002C19.9817 13.3912 20.1527 13.2202 20.3617 13.2202H21.1216C21.3306 13.2202 21.5016 13.3912 21.5016 13.6002V14.3602Z" fill="#1C232E"/>
<path d="M18.6391 13.2202H17.1436V13.9802L18.6391 13.9802V13.2202Z" fill="#1C232E"/>
<path d="M10.8426 14.3602C10.8426 14.5692 10.6716 14.7401 10.4626 14.7401H9.70261C9.49362 14.7401 9.32263 14.5692 9.32263 14.3602V13.6002C9.32263 13.3912 9.49362 13.2202 9.70261 13.2202H10.4626C10.6716 13.2202 10.8426 13.3912 10.8426 13.6002V14.3602Z" fill="#1C232E"/>
<path d="M11.6024 8.6604V11.7003H10.8424V9.42036H8.56251L7.80255 10.9403V13.9801H8.56251V13.2202H9.32248V12.4602H10.8424V13.2202H11.6024V13.9801L13.8895 13.9801V13.2202H14.6495V12.4602H16.1694V13.2202H16.9294V13.9801H17.6893V8.6604L11.6024 8.6604ZM10.0824 11.7003H8.24181L8.95466 10.1803H10.0824V11.7003Z" fill="#1C232E"/>
<path d="M16.1734 14.3602C16.1734 14.5692 16.0024 14.7401 15.7934 14.7401H15.0335C14.8245 14.7401 14.6535 14.5692 14.6535 14.3602V13.6002C14.6535 13.3912 14.8245 13.2202 15.0335 13.2202H15.7934C16.0024 13.2202 16.1734 13.3912 16.1734 13.6002V14.3602Z" fill="#1C232E"/>
</svg>
