<svg width="30" height="30" viewBox="0 0 30 30" fill="none" xmlns="http://www.w3.org/2000/svg">
<path fill-rule="evenodd" clip-rule="evenodd" d="M29 15C29 22.732 22.732 29 15 29C7.26801 29 1 22.732 1 15C1 7.26801 7.26801 1 15 1C22.732 1 29 7.26801 29 15ZM15 28C22.1797 28 28 22.1797 28 15C28 7.8203 22.1797 2 15 2C7.8203 2 2 7.8203 2 15C2 22.1797 7.8203 28 15 28Z" fill="white"/>
<circle cx="15" cy="15" r="13" fill="#FB1858"/>
<circle cx="15" cy="15" r="11" fill="white"/>
<path d="M21 18.5C21 18.775 20.775 19 20.5 19H19.5C19.225 19 19 18.775 19 18.5V17.5C19 17.225 19.225 17 19.5 17H20.5C20.775 17 21 17.225 21 17.5V18.5Z" fill="#1C232E"/>
<path d="M16 18.5C16 18.775 15.775 19 15.5 19H14.5C14.225 19 14 18.775 14 18.5V17.5C14 17.225 14.225 17 14.5 17H15.5C15.775 17 16 17.225 16 17.5V18.5Z" fill="#1C232E"/>
<path d="M12 11V18H13V17H14V16H16V17H17V18H18V17H19V16H21V17H22V18H23V11H12Z" fill="#1C232E"/>
<path d="M8 18.5C8 18.775 7.775 19 7.5 19H6.5C6.225 19 6 18.775 6 18.5V17.5C6 17.225 6.225 17 6.5 17H7.5C7.775 17 8 17.225 8 17.5V18.5Z" fill="#1C232E"/>
<path d="M10 11V18H9V17H8V16H6V17H5.2C5.07 16.359 5 15.69 5 15C5 13.58 5.3 12.22 5.84 11H10Z" fill="#1C232E"/>
<path d="M13 17H9V18H13V17Z" fill="#1C232E"/>
<path d="M24.4127 22.7349L7.09021 5.41235L5.41297 7.08959L22.7355 24.4121L24.4127 22.7349Z" fill="#FB1858"/>
</svg>
