<svg width="30" height="30" viewBox="0 0 30 30" fill="none" xmlns="http://www.w3.org/2000/svg">
<path fill-rule="evenodd" clip-rule="evenodd" d="M29 15C29 22.732 22.732 29 15 29C7.26801 29 1 22.732 1 15C1 7.26801 7.26801 1 15 1C22.732 1 29 7.26801 29 15ZM15 28C22.1797 28 28 22.1797 28 15C28 7.8203 22.1797 2 15 2C7.8203 2 2 7.8203 2 15C2 22.1797 7.8203 28 15 28Z" fill="white"/>
<circle cx="15" cy="15" r="13" fill="#FB1858"/>
<circle cx="15" cy="15" r="11" fill="white"/>
<path d="M19 18.5C19 18.775 19.225 19 19.5 19H20.5C20.775 19 21 18.775 21 18.5V17.5C21 17.225 20.775 17 20.5 17H19.5C19.225 17 19 17.225 19 17.5V18.5Z" fill="#1C232E"/>
<path d="M18 11V15H19V12H22L23 14V18H22V17H21V16H19V17H18V18H13V17H12V16H10V17H9V18H8V11H18ZM20 15H22.422L21.484 13H20V15Z" fill="#1C232E"/>
<path d="M10 18.5C10 18.775 10.225 19 10.5 19H11.5C11.775 19 12 18.775 12 18.5V17.5C12 17.225 11.775 17 11.5 17H10.5C10.225 17 10 17.225 10 17.5V18.5Z" fill="#1C232E"/>
<path d="M24.4127 22.7349L7.09021 5.41235L5.41297 7.08959L22.7355 24.4121L24.4127 22.7349Z" fill="#FB1858"/>
</svg>
