<svg width="32" height="32" viewBox="0 0 32 32" fill="none" xmlns="http://www.w3.org/2000/svg">
<path fill-rule="evenodd" clip-rule="evenodd" d="M31.0607 15.647C31.256 15.8422 31.256 16.1588 31.0607 16.3541L16.354 31.0608C16.1587 31.2561 15.8421 31.2561 15.6469 31.0608L0.939369 16.3533C0.744107 16.1581 0.744107 15.8415 0.939369 15.6462L15.6461 0.939491C15.8414 0.744229 16.1579 0.744229 16.3532 0.939491L31.0607 15.647Z" fill="white"/>
<path d="M15.9996 2L30 16.0004L16.0004 30L2 15.9996L15.9996 2Z" fill="#1C232E"/>
<path d="M28.5 16L16 28.5L3.5 16L16 3.5L28.5 16Z" fill="#FF870F"/>
<path d="M21 15V21H20V17.973V15C20 12.794 18.206 11 16 11C13.794 11 12 12.794 12 15V17.973V21H11V15C11 12.238 13.238 10 16 10C18.762 10 21 12.238 21 15ZM16 13C14.343 13 13 14.343 13 16V20H15V16C15 15.448 15.448 15 16 15C16.553 15 17 15.448 17 16V20H19V16C19 14.343 17.657 13 16 13Z" fill="#1C232E"/>
</svg>
