<svg width="30" height="30" viewBox="0 0 30 30" fill="none" xmlns="http://www.w3.org/2000/svg">
<path fill-rule="evenodd" clip-rule="evenodd" d="M29 15C29 22.732 22.732 29 15 29C7.26801 29 1 22.732 1 15C1 7.26801 7.26801 1 15 1C22.732 1 29 7.26801 29 15ZM15 28C22.1797 28 28 22.1797 28 15C28 7.8203 22.1797 2 15 2C7.8203 2 2 7.8203 2 15C2 22.1797 7.8203 28 15 28Z" fill="white"/>
<circle cx="15" cy="15" r="13" fill="#FB1858"/>
<circle cx="15" cy="15" r="11" fill="white"/>
<path d="M24.4127 22.7349L7.09021 5.41235L5.41297 7.08959L22.7355 24.4121L24.4127 22.7349Z" fill="#FB1858"/>
<path d="M10 19H20V8.776C20 8.483 19.547 8 19.178 8L10.821 8.008C10.44 8.008 10.008 8.446 10.008 8.747L10 19Z" fill="#1C232E"/>
<path d="M11 9V18H19V9H11Z" fill="#FF870F"/>
<path d="M9 18V19H21V18H9Z" fill="#1C232E"/>
<path d="M15 23C15.5523 23 16 22.3284 16 21.5C16 20.6716 15.5523 20 15 20C14.4477 20 14 20.6716 14 21.5C14 22.3284 14.4477 23 15 23Z" fill="#1C232E"/>
<path d="M11 20H10V23H11V20Z" fill="#1C232E"/>
<path d="M13 20H12V23H13V20Z" fill="#1C232E"/>
<path d="M20 20H19V23H20V20Z" fill="#1C232E"/>
<path d="M18 20H17V23H18V20Z" fill="#1C232E"/>
<path d="M19 21H11V22H19V21Z" fill="#1C232E"/>
<path d="M16.0577 13.4778C16.5068 13.5612 16.8693 13.7248 17.1452 13.9686C17.4275 14.206 17.5687 14.5717 17.5687 15.0657C17.5687 15.7651 17.3185 16.2623 16.818 16.5574C16.3176 16.8526 15.6214 17.0001 14.7296 17.0001H12.6508V10.3403H14.4698C15.3808 10.3403 16.077 10.4751 16.5582 10.7445C17.0394 11.014 17.28 11.4471 17.28 12.0438C17.28 12.4352 17.1613 12.7527 16.9239 12.9966C16.6929 13.2339 16.4042 13.3943 16.0577 13.4778ZM14.0655 11.3605V13.0447H14.7585C15.1049 13.0447 15.3712 12.9741 15.5573 12.8329C15.7433 12.6854 15.8364 12.464 15.8364 12.1689C15.8364 11.8738 15.7369 11.6652 15.538 11.5433C15.3391 11.4214 15.0279 11.3605 14.6045 11.3605H14.0655ZM14.7392 15.9511C15.1819 15.9511 15.5188 15.887 15.7497 15.7586C15.9807 15.6239 16.0962 15.3737 16.0962 15.008C16.0962 14.3407 15.6856 14.0071 14.8643 14.0071H14.0655V15.9511H14.7392Z" fill="#1C232E"/>
</svg>
