<svg width="32" height="32" viewBox="0 0 32 32" fill="none" xmlns="http://www.w3.org/2000/svg">
<path fill-rule="evenodd" clip-rule="evenodd" d="M31.0607 15.647C31.256 15.8422 31.256 16.1588 31.0607 16.3541L16.354 31.0608C16.1587 31.2561 15.8421 31.2561 15.6469 31.0608L0.939369 16.3533C0.744107 16.1581 0.744107 15.8415 0.939369 15.6462L15.6461 0.939491C15.8414 0.744229 16.1579 0.744229 16.3532 0.939491L31.0607 15.647Z" fill="white"/>
<path d="M15.9996 2L30 16.0004L16.0004 30L2 15.9996L15.9996 2Z" fill="#1C232E"/>
<path d="M28.5 16L16 28.5L3.5 16L16 3.5L28.5 16Z" fill="#F7FA19"/>
<path d="M18.0001 22C18.8285 22 19.5001 21.3284 19.5001 20.5C19.5001 19.6716 18.8285 19 18.0001 19C17.1717 19 16.5001 19.6716 16.5001 20.5C16.5001 21.3284 17.1717 22 18.0001 22Z" fill="#1C232E"/>
<path d="M14.0001 22C14.8285 22 15.5001 21.3284 15.5001 20.5C15.5001 19.6716 14.8285 19 14.0001 19C13.1717 19 12.5001 19.6716 12.5001 20.5C12.5001 21.3284 13.1717 22 14.0001 22Z" fill="#1C232E"/>
<path fill-rule="evenodd" clip-rule="evenodd" d="M12.201 17.6321C12.2954 17.5423 12.4207 17.4922 12.551 17.4922H19.449C19.5793 17.4922 19.7046 17.5423 19.799 17.6321L20.85 18.6321C21.0532 18.8254 21.0612 19.1469 20.8679 19.35C20.6746 19.5532 20.3531 19.5612 20.15 19.3679L19.246 18.5078H12.754L11.85 19.3679C11.6469 19.5612 11.3254 19.5532 11.1321 19.35C10.9388 19.1469 10.9468 18.8254 11.15 18.6321L12.201 17.6321Z" fill="#1C232E"/>
<path d="M15.9998 3.5L18.25 5.75143L16.0002 8L13.75 5.74857L15.9998 3.5Z" fill="#1C232E"/>
</svg>
