<svg width="32" height="32" viewBox="0 0 32 32" fill="none" xmlns="http://www.w3.org/2000/svg">
<path fill-rule="evenodd" clip-rule="evenodd" d="M31.0607 15.647C31.256 15.8422 31.256 16.1588 31.0607 16.3541L16.354 31.0608C16.1587 31.2561 15.8421 31.2561 15.6469 31.0608L0.939369 16.3533C0.744107 16.1581 0.744107 15.8415 0.939369 15.6462L15.6461 0.939491C15.8414 0.744229 16.1579 0.744229 16.3532 0.939491L31.0607 15.647Z" fill="white"/>
<path d="M15.9996 2L30 16.0004L16.0004 30L2 15.9996L15.9996 2Z" fill="#1C232E"/>
<path d="M28.5 16L16 28.5L3.5 16L16 3.5L28.5 16Z" fill="#F7FA19"/>
<path d="M16.0079 22C16.8364 22 17.5079 21.3284 17.5079 20.5C17.5079 19.6716 16.8364 19 16.0079 19C15.1795 19 14.5079 19.6716 14.5079 20.5C14.5079 21.3284 15.1795 22 16.0079 22Z" fill="#1C232E"/>
<path d="M20.0079 22C20.8364 22 21.5079 21.3284 21.5079 20.5C21.5079 19.6716 20.8364 19 20.0079 19C19.1795 19 18.5079 19.6716 18.5079 20.5C18.5079 21.3284 19.1795 22 20.0079 22Z" fill="#1C232E"/>
<path d="M12.0079 22C12.8364 22 13.5079 21.3284 13.5079 20.5C13.5079 19.6716 12.8364 19 12.0079 19C11.1795 19 10.5079 19.6716 10.5079 20.5C10.5079 21.3284 11.1795 22 12.0079 22Z" fill="#1C232E"/>
<path fill-rule="evenodd" clip-rule="evenodd" d="M10.2088 17.6321C10.3032 17.5423 10.4285 17.4922 10.5588 17.4922H21.4568C21.5871 17.4922 21.7124 17.5423 21.8069 17.6321L22.8579 18.6321C23.061 18.8254 23.069 19.1469 22.8757 19.35C22.6824 19.5532 22.361 19.5612 22.1578 19.3679L21.2538 18.5078H10.7618L9.85785 19.3679C9.65467 19.5612 9.33324 19.5532 9.13992 19.35C8.9466 19.1469 8.95459 18.8254 9.15777 18.6321L10.2088 17.6321Z" fill="#1C232E"/>
<path d="M15.9998 3.5L18.25 5.75143L16.0002 8L13.75 5.74857L15.9998 3.5Z" fill="#1C232E"/>
</svg>
