<svg width="19" height="14" viewBox="0 0 19 14" fill="none" xmlns="http://www.w3.org/2000/svg">
<rect x="3.8147e-06" width="19" height="14" rx="2" fill="#9F9FB4" fill-opacity="0.75"/>
<path d="M9.33651 5.42202C9.33651 4.51202 9.02651 3.81502 8.41751 3.34902C7.82551 2.89602 6.98551 2.66602 5.92051 2.66602H3.54851V11.334H5.08851V8.29802H5.93251C6.94051 8.29802 7.76451 8.06202 8.38051 7.59802C9.01551 7.12002 9.33651 6.38802 9.33651 5.42202ZM5.08851 3.95402H5.90851C6.50851 3.95402 6.97051 4.07402 7.28151 4.31002C7.57951 4.53702 7.72451 4.90702 7.72451 5.44002C7.72451 6.03602 7.57651 6.44802 7.28451 6.66502C6.97251 6.89402 6.50151 7.01002 5.88451 7.01002H5.08851V3.95402Z" fill="white"/>
<path d="M13.6835 2.66602H11.9525L9.1715 11.334H10.7465L11.3705 9.25802H14.2055L14.8295 11.334H16.4515L13.7275 2.80502L13.6835 2.66602ZM13.8085 7.93402H11.7655L12.7915 4.51302L13.8085 7.93402Z" fill="white"/>
</svg>
