<svg width="16" height="16" viewBox="0 0 16 16" fill="none" xmlns="http://www.w3.org/2000/svg">
<rect width="16" height="16" rx="2" fill="#9F9FB4" fill-opacity="0.75"/>
<path d="M11.373 10.2952C10.763 9.45822 10.165 8.21322 9.59499 6.59622C9.01099 4.94222 8.28399 3.51322 7.43499 2.34922L7.32499 2.19922L6.10899 2.96722L7.28999 4.88422C6.67899 6.72522 6.00299 8.19222 5.27999 9.24522C4.54699 10.3162 3.58399 11.2932 2.42099 12.1502L2.27899 12.2542L2.98599 13.5402L3.16899 13.4132C5.32499 11.9152 6.98999 9.65422 8.12399 6.68522L8.82099 8.44722C9.80299 10.9512 11.082 12.6122 12.621 13.3812L12.755 13.4482L13.785 12.3522L13.556 12.2292C12.711 11.7762 11.977 11.1262 11.373 10.2952Z" fill="white"/>
</svg>
