<svg width="21" height="20" viewBox="0 0 21 20" fill="none" xmlns="http://www.w3.org/2000/svg">
<circle cx="10.5" cy="10" r="8.5" fill="#FFBD09" stroke="#333B47"/>
<path d="M10.5 13C10.8107 13 11.0625 13.2518 11.0625 13.5625C11.0625 13.8732 10.8107 14.125 10.5 14.125C10.1893 14.125 9.9375 13.8732 9.9375 13.5625C9.9375 13.2518 10.1893 13 10.5 13Z" fill="#333B47"/>
<path d="M10.5 10.5625C10.8107 10.5625 11.0625 10.8143 11.0625 11.125C11.0625 11.4357 10.8107 11.6875 10.5 11.6875C10.1893 11.6875 9.9375 11.4357 9.9375 11.125C9.9375 10.8143 10.1893 10.5625 10.5 10.5625Z" fill="#333B47"/>
<path fill-rule="evenodd" clip-rule="evenodd" d="M11.625 7C12.0392 7 12.375 7.33579 12.375 7.75V14.5C12.375 14.9142 12.0392 15.25 11.625 15.25H9.375C8.96079 15.25 8.625 14.9142 8.625 14.5V7.75C8.625 7.33579 8.96079 7 9.375 7H11.625ZM10.5 12.625C9.98223 12.625 9.5625 13.0447 9.5625 13.5625C9.5625 14.0803 9.98223 14.5 10.5 14.5C11.0178 14.5 11.4375 14.0803 11.4375 13.5625C11.4375 13.0447 11.0178 12.625 10.5 12.625ZM10.5 10.1875C9.98223 10.1875 9.5625 10.6072 9.5625 11.125C9.5625 11.6428 9.98223 12.0625 10.5 12.0625C11.0178 12.0625 11.4375 11.6428 11.4375 11.125C11.4375 10.6072 11.0178 10.1875 10.5 10.1875ZM10.5 7.75C9.98223 7.75 9.5625 8.16973 9.5625 8.6875C9.5625 9.20527 9.98223 9.625 10.5 9.625C11.0178 9.625 11.4375 9.20527 11.4375 8.6875C11.4375 8.16973 11.0178 7.75 10.5 7.75Z" fill="#333B47"/>
<path d="M7.3125 8.125C7.62316 8.125 7.875 8.37684 7.875 8.6875C7.875 8.99816 7.62316 9.25 7.3125 9.25H6.75C6.43934 9.25 6.1875 8.99816 6.1875 8.6875C6.1875 8.37684 6.43934 8.125 6.75 8.125H7.3125Z" fill="#333B47"/>
<path d="M14.25 8.125C14.5607 8.125 14.8125 8.37684 14.8125 8.6875C14.8125 8.99816 14.5607 9.25 14.25 9.25H13.6875C13.3768 9.25 13.125 8.99816 13.125 8.6875C13.125 8.37684 13.3768 8.125 13.6875 8.125H14.25Z" fill="#333B47"/>
<path d="M6.91479 5.66479C7.13446 5.44512 7.49053 5.44512 7.7102 5.66479L8.0852 6.03979C8.30487 6.25946 8.30487 6.61553 8.0852 6.8352C7.86553 7.05487 7.50946 7.05487 7.28979 6.8352L6.91479 6.4602C6.69512 6.24053 6.69512 5.88446 6.91479 5.66479Z" fill="#333B47"/>
<path d="M13.2898 5.66479C13.5095 5.44512 13.8655 5.44512 14.0852 5.66479C14.3049 5.88446 14.3049 6.24054 14.0852 6.4602L13.7102 6.8352C13.4905 7.05487 13.1345 7.05487 12.9148 6.8352C12.6951 6.61553 12.6951 6.25946 12.9148 6.03979L13.2898 5.66479Z" fill="#333B47"/>
<path d="M10.5 4.75C10.8107 4.75 11.0625 5.00184 11.0625 5.3125V5.6875C11.0625 5.99816 10.8107 6.25 10.5 6.25C10.1893 6.25 9.9375 5.99816 9.9375 5.6875V5.3125C9.9375 5.00184 10.1893 4.75 10.5 4.75Z" fill="#333B47"/>
</svg>
