<svg width="20" height="26" viewBox="0 0 20 26" fill="none" xmlns="http://www.w3.org/2000/svg">
<path d="M6.13616 20.3055L6.13478 20.3041C3.79846 17.9183 2.6511 15.987 2.08017 14.3677C1.50968 12.7497 1.5 11.4064 1.5 10.1358C1.5 5.32763 5.32435 1.51557 10 1.50014C14.6756 1.51557 18.5 5.32776 18.5 10.1359C18.5 11.4065 18.4903 12.7498 17.9198 14.3678C17.3489 15.9872 16.2015 17.9184 13.8652 20.3043L13.8638 20.3057L10 24.2826L6.13616 20.3055Z" fill="#E265A7" stroke="#B34781"/>
<path d="M13.68 15.2035C13.4878 15.8103 12.9201 16.25 12.2498 16.25C7.96955 16.25 4.74976 13.0302 4.74976 8.75C4.74976 8.07964 5.1895 7.51198 5.79627 7.31977L4.94409 6.04151C4.86102 5.9169 4.95035 5.75 5.1001 5.75L7.39941 5.75C7.54916 5.75 7.63849 5.9169 7.55542 6.04151L6.70324 7.31977C7.31001 7.51198 7.74976 8.07964 7.74976 8.75C7.74976 11.3734 9.6264 13.25 12.2498 13.25C12.9201 13.25 13.4878 13.6897 13.68 14.2965L14.9582 13.4443C15.0829 13.3613 15.2498 13.4506 15.2498 13.6003L15.2498 15.8997C15.2498 16.0494 15.0829 16.1387 14.9582 16.0557L13.68 15.2035Z" fill="white"/>
</svg>
