<svg width="20" height="26" viewBox="0 0 20 26" fill="none" xmlns="http://www.w3.org/2000/svg">
<g id="day /  coach">
<g id="Marker default (web &#38; mobile)">
<g id="Marker default (web &#38; mobile)_2">
<g id="background">
<circle id="Background" cx="10" cy="13" r="8.5" fill="#5A91E2" stroke="#3C6EB4"/>
</g>
<g id="content">
<g id="Icon">
<path id="Vector" fill-rule="evenodd" clip-rule="evenodd" d="M6.25 12.25H5.875C5.46079 12.25 5.125 11.9142 5.125 11.5V10C5.125 9.58579 5.46079 9.25 5.875 9.25H6.37803C6.68691 8.37611 7.52034 7.75 8.5 7.75H11.5C12.4797 7.75 13.3131 8.37611 13.622 9.25H14.125C14.5392 9.25 14.875 9.58579 14.875 10V11.5C14.875 11.9142 14.5392 12.25 14.125 12.25L13.75 12.25V17.5C13.75 17.9142 13.4142 18.25 13 18.25H12.25C11.8358 18.25 11.5 17.9142 11.5 17.5V17.125H8.5V17.5C8.5 17.9142 8.16421 18.25 7.75 18.25H7C6.58579 18.25 6.25 17.9142 6.25 17.5V12.25ZM9.25 14.875H7.375V16H9.25V14.875ZM12.625 14.875H10.75V16H12.625V14.875ZM7.375 10.375C7.375 9.54657 8.04657 8.875 8.875 8.875H11.125C11.9534 8.875 12.625 9.54657 12.625 10.375V13.75H7.375V10.375Z" fill="white"/>
</g>
</g>
</g>
</g>
</g>
</svg>
