<svg width="20" height="26" viewBox="0 0 20 26" fill="none" xmlns="http://www.w3.org/2000/svg">
<path d="M6.13616 20.3055L6.13478 20.3041C3.79846 17.9183 2.6511 15.987 2.08017 14.3677C1.50968 12.7497 1.5 11.4064 1.5 10.1358C1.5 5.32763 5.32435 1.51557 10 1.50014C14.6756 1.51557 18.5 5.32776 18.5 10.1359C18.5 11.4065 18.4903 12.7498 17.9198 14.3678C17.3489 15.9872 16.2015 17.9184 13.8652 20.3043L13.8638 20.3057L10 24.2826L6.13616 20.3055Z" fill="#A0B1DA" stroke="#828DAB"/>
<path fill-rule="evenodd" clip-rule="evenodd" d="M9.25002 5.75H10.825V7.32722C12.1617 7.51576 12.9423 8.06666 12.9423 9.16558C12.9423 10.118 12.2352 10.6158 11.5168 10.7781C12.3811 10.9405 13.2679 11.3517 13.2679 12.5639C13.2679 13.9831 12.2782 14.5524 10.825 14.705V16.25H9.25002V14.75H7.375V7.25H9.25002V5.75ZM9.75459 8.50541H9.21582V10.2478H9.90051C10.6638 10.2478 11.0679 9.96645 11.0679 9.33874C11.0679 8.71104 10.6413 8.50541 9.75459 8.50541ZM9.88928 13.4621C10.7536 13.4621 11.3709 13.289 11.3709 12.4664C11.3709 11.7089 10.8209 11.4275 10.024 11.4275H9.21582V13.4621H9.88928Z" fill="white"/>
</svg>
