<svg width="20" height="26" viewBox="0 0 20 26" fill="none" xmlns="http://www.w3.org/2000/svg">
<path d="M6.13616 20.3055L6.13478 20.3041C3.79846 17.9183 2.6511 15.987 2.08017 14.3677C1.50968 12.7497 1.5 11.4064 1.5 10.1358C1.5 5.32763 5.32435 1.51557 10 1.50014C14.6756 1.51557 18.5 5.32776 18.5 10.1359C18.5 11.4065 18.4903 12.7498 17.9198 14.3678C17.3489 15.9872 16.2015 17.9184 13.8652 20.3043L13.8638 20.3057L10 24.2826L6.13616 20.3055Z" fill="#A0B1DA" stroke="#828DAB"/>
<path d="M13.6099 9.5C14.7447 9.5 15.25 10.3759 15.25 11.758C15.25 13.0759 14.5873 14.4232 13.5023 14.4232C13.0715 14.4232 12.7859 14.2973 12.5125 14V16.1134L11.125 16.25V9.63661H12.3625L12.5125 10.1107C12.877 9.66875 13.1709 9.5 13.6099 9.5ZM13.0964 13.4911C13.5851 13.4911 13.8916 12.875 13.8916 11.7741C13.8916 10.7134 13.6265 10.4321 13.1875 10.4321C12.8893 10.4321 12.703 10.617 12.5125 10.9304V13.1134C12.6948 13.3705 12.823 13.4911 13.0964 13.4911Z" fill="white"/>
<path d="M8.9375 14.75L7.40236 11.882H6.71047V14.75H4.9375V7.25H7.39155C9.42399 7.25 10.4726 7.97511 10.4726 9.53355C10.4726 10.5184 10.0078 11.1136 9.0348 11.5574L10.9375 14.75H8.9375ZM6.71047 8.49459V10.6591H7.45642C8.2348 10.6591 8.64561 10.3236 8.64561 9.53355C8.64561 8.80844 8.22399 8.49459 7.34831 8.49459H6.71047Z" fill="white"/>
</svg>
