<svg width="20" height="26" viewBox="0 0 20 26" fill="none" xmlns="http://www.w3.org/2000/svg">
<path d="M6.13616 20.3055L6.13478 20.3041C3.79846 17.9183 2.6511 15.987 2.08017 14.3677C1.50968 12.7497 1.5 11.4064 1.5 10.1358C1.5 5.32763 5.32435 1.51557 10 1.50014C14.6756 1.51557 18.5 5.32776 18.5 10.1359C18.5 11.4065 18.4903 12.7498 17.9198 14.3678C17.3489 15.9872 16.2015 17.9184 13.8652 20.3043L13.8638 20.3057L10 24.2826L6.13616 20.3055Z" fill="#A0B1DA" stroke="#828DAB"/>
<path d="M12.7911 6.5375H13.5625V7.5875H12.775V14.15H11.2L11.0641 13.3717C10.7072 13.8553 10.1546 14.2352 9.32566 14.2352C7.77138 14.2352 7 13.0148 7 11.1382C7 9.3421 7.99013 8.05263 9.49835 8.05263C10.097 8.05263 10.5921 8.27138 10.949 8.61678L10.9375 7.5875H9.3625L9.38553 6.55362L10.9375 6.5375L10.949 5.75L12.775 6.0125L12.7911 6.5375ZM9.8898 12.9687C10.3273 12.9687 10.6612 12.75 10.949 12.324V9.80263C10.6727 9.50329 10.3964 9.31908 9.99342 9.31908C9.34868 9.31908 8.88816 9.83717 8.88816 11.1382C8.88816 12.5888 9.30263 12.9687 9.8898 12.9687Z" fill="white"/>
<path d="M8.3125 14.9375V16.25H11.8562V14.9375H8.3125Z" fill="white"/>
</svg>
