<svg width="20" height="26" viewBox="0 0 20 26" fill="none" xmlns="http://www.w3.org/2000/svg">
<path d="M6.13616 20.3055L6.13478 20.3041C3.79846 17.9183 2.6511 15.987 2.08017 14.3677C1.50968 12.7497 1.5 11.4064 1.5 10.1358C1.5 5.32763 5.32435 1.51557 10 1.50014C14.6756 1.51557 18.5 5.32776 18.5 10.1359C18.5 11.4065 18.4903 12.7498 17.9198 14.3678C17.3489 15.9872 16.2015 17.9184 13.8652 20.3043L13.8638 20.3057L10 24.2826L6.13616 20.3055Z" fill="#667285" stroke="#4A5059" style="fill:#667285;fill:color(display-p3 0.4002 0.4480 0.5198);fill-opacity:1;stroke:#4A5059;stroke:color(display-p3 0.2912 0.3142 0.3488);stroke-opacity:1;"/>
<path d="M12.9595 5.81445L8.90612 7.3242L10.7906 12.4715L14.844 10.9617L12.9595 5.81445Z" fill="white" style="fill:white;fill:white;fill-opacity:1;"/>
<path d="M6.21289 7.05514L5.4626 6.49623L4.7876 7.39014L5.53789 7.94905C5.93453 8.24452 6.23102 8.6531 6.38781 9.12027L7.5264 12.5129C6.98228 12.8817 6.62509 13.5025 6.62509 14.2062C6.62509 15.3376 7.5485 16.2547 8.68759 16.2547C9.68061 16.2547 10.5097 15.5577 10.706 14.6294L15.2197 13.0182L14.8392 11.9666L10.6147 13.4746C10.3182 12.7045 9.56717 12.1577 8.68759 12.1577C8.65613 12.1577 8.62484 12.1584 8.59372 12.1597L7.45508 8.76692C7.22593 8.08413 6.7926 7.48698 6.21289 7.05514Z" fill="white" style="fill:white;fill:white;fill-opacity:1;"/>
</svg>
