<svg width="20" height="26" viewBox="0 0 20 26" fill="none" xmlns="http://www.w3.org/2000/svg">
<path d="M6.13616 20.3055L6.13478 20.3041C3.79846 17.9183 2.6511 15.987 2.08017 14.3677C1.50968 12.7497 1.5 11.4064 1.5 10.1358C1.5 5.32763 5.32435 1.51557 10 1.50014C14.6756 1.51557 18.5 5.32776 18.5 10.1359C18.5 11.4065 18.4903 12.7498 17.9198 14.3678C17.3489 15.9872 16.2015 17.9184 13.8652 20.3043L13.8638 20.3057L10 24.2826L6.13616 20.3055Z" fill="#E265A7" stroke="#B34781"/>
<path fill-rule="evenodd" clip-rule="evenodd" d="M10 15.5C13 15.5 15.25 14.375 15.25 11C15.25 7.68421 12.8995 6.5 10 6.5C7.1005 6.5 4.75 7.68421 4.75 11C4.75 14.375 7 15.5 10 15.5ZM5.87575 10.9056C6.01341 10.9712 6.1462 11.0001 6.25016 11.0001C6.58717 11 6.69692 11.303 6.81777 11.6367C6.96581 12.0454 7.13051 12.5001 7.75 12.5001C8.125 12.5001 8.21875 12.4063 8.3125 12.3126C8.40625 12.2188 8.5 12.1251 8.875 12.1251C9.21211 12.1251 9.32193 12.3524 9.44285 12.6026C9.59095 12.9091 9.75569 13.25 10.3751 13.25C10.9375 13.25 11.125 12.9688 11.3125 12.6875C11.5 12.4063 11.6875 12.125 12.25 12.125C13.0538 12.1251 13.2115 11.802 13.3579 11.5021C13.4846 11.2424 13.6029 11.0001 14.125 11.0001C14.125 12.413 13.6711 13.1686 13.075 13.6156C12.4181 14.1083 11.3918 14.375 10 14.375C8.60818 14.375 7.58193 14.1083 6.925 13.6156C6.32893 13.1686 5.875 12.413 5.875 11C5.875 10.9682 5.87525 10.9368 5.87575 10.9056ZM11.4791 9.37483C11.3599 9.0202 10.743 8.75 9.9999 8.75C9.25689 8.75 8.64006 9.02011 8.52076 9.37466C8.7832 9.67051 9.34692 9.87509 10 9.87509C10.653 9.87509 11.2166 9.67059 11.4791 9.37483Z" fill="white"/>
</svg>
