<svg width="20" height="26" viewBox="0 0 20 26" fill="none" xmlns="http://www.w3.org/2000/svg">
<path d="M6.13616 20.3055L6.13478 20.3041C3.79846 17.9183 2.6511 15.987 2.08017 14.3677C1.50968 12.7497 1.5 11.4064 1.5 10.1358C1.5 5.32763 5.32435 1.51557 10 1.50014C14.6756 1.51557 18.5 5.32776 18.5 10.1359C18.5 11.4065 18.4903 12.7498 17.9198 14.3678C17.3489 15.9872 16.2015 17.9184 13.8652 20.3043L13.8638 20.3057L10 24.2826L6.13616 20.3055Z" fill="#C19D95" stroke="#927C77" style="fill:#C19D95;fill:color(display-p3 0.7569 0.6157 0.5843);fill-opacity:1;stroke:#927C77;stroke:color(display-p3 0.5728 0.4866 0.4672);stroke-opacity:1;"/>
<path d="M14 8C13.5343 7.37902 12.9304 6.875 12.2361 6.52786C11.5418 6.18073 10.7763 6 10 6C9.2238 6 8.45824 6.18073 7.76396 6.52786C7.06968 6.875 6.46576 7.37902 6.00003 8C5.34765 8.86376 4.99638 9.91756 5.00003 11C5.00003 12.3261 5.52681 13.5979 6.46449 14.5355C7.40218 15.4732 8.67394 16 10 16C11.3261 16 12.5979 15.4732 13.5356 14.5355C14.4732 13.5979 15 12.3261 15 11C15.0037 9.91756 14.6524 8.86376 14 8ZM11.295 9L10 10.295L8.70503 9H11.295ZM10.5 8V7.035C11.2938 7.1354 12.0393 7.47154 12.64 8H10.5ZM9.50003 7.035V8H7.36003C7.96079 7.47154 8.70623 7.1354 9.50003 7.035ZM6.54003 9H7.29503L9.29503 11L6.84503 13.45C6.35494 12.8238 6.0639 12.0651 6.00953 11.2718C5.95516 10.4785 6.13995 9.68717 6.54003 9ZM7.54003 14.155L9.99003 11.705L12.44 14.155C11.7407 14.7024 10.8781 14.9998 9.99003 14.9998C9.10192 14.9998 8.23939 14.7024 7.54003 14.155ZM13.155 13.45L10.705 11L12.705 9H13.46C13.8601 9.68717 14.0449 10.4785 13.9905 11.2718C13.9362 12.0651 13.6451 12.8238 13.155 13.45Z" fill="white" style="fill:white;fill:white;fill-opacity:1;"/>
</svg>
