<svg width="20" height="26" viewBox="0 0 20 26" fill="none" xmlns="http://www.w3.org/2000/svg">
<path d="M6.13616 20.3055L6.13478 20.3041C3.79846 17.9183 2.6511 15.987 2.08017 14.3677C1.50968 12.7497 1.5 11.4064 1.5 10.1358C1.5 5.32763 5.32435 1.51557 10 1.50014C14.6756 1.51557 18.5 5.32776 18.5 10.1359C18.5 11.4065 18.4903 12.7498 17.9198 14.3678C17.3489 15.9872 16.2015 17.9184 13.8652 20.3043L13.8638 20.3057L10 24.2826L6.13616 20.3055Z" fill="#FFA857" stroke="#D0853E" style="fill:#FFA857;fill:color(display-p3 1.0000 0.6590 0.3400);fill-opacity:1;stroke:#D0853E;stroke:color(display-p3 0.8167 0.5204 0.2433);stroke-opacity:1;"/>
<path d="M15 8L14.5 16H12.075C12.1891 15.7664 12.2489 15.51 12.25 15.25V13.87C12.4132 13.6092 12.4998 13.3077 12.4998 13C12.4998 12.6923 12.4132 12.3908 12.25 12.13V11C12.25 10.337 11.9866 9.70107 11.5178 9.23223C11.0489 8.76339 10.413 8.5 9.75 8.5H9.545L9.5 8H11.75V7C11.7494 6.91312 11.779 6.82873 11.8337 6.76125C11.8884 6.69377 11.9649 6.64737 12.05 6.63L14.05 6L14.25 6.75L12.75 7.25V8H15ZM5.25 15.235C5.248 15.3347 5.26593 15.4339 5.30273 15.5266C5.33952 15.6194 5.39445 15.7038 5.4643 15.7751C5.53414 15.8463 5.61749 15.9029 5.70948 15.9415C5.80147 15.9801 5.90023 16 6 16H10.5C10.6989 16 10.8897 15.921 11.0303 15.7803C11.171 15.6397 11.25 15.4489 11.25 15.25V14.5H5.25V15.235ZM11.25 11.235C11.25 10.405 10.58 9.485 9.75 9.485H6.75C5.92 9.485 5.25 10.405 5.25 11.235V11.5H11.25V11.235ZM11.125 12.5H5.375C5.17 12.5 5 12.725 5 13C5 13.275 5.17 13.5 5.375 13.5H11.125C11.33 13.5 11.5 13.275 11.5 13C11.5 12.725 11.33 12.5 11.125 12.5Z" fill="white" style="fill:white;fill:white;fill-opacity:1;"/>
</svg>
