<svg width="20" height="26" viewBox="0 0 20 26" fill="none" xmlns="http://www.w3.org/2000/svg">
<path d="M6.13616 20.3055L6.13478 20.3041C3.79846 17.9183 2.6511 15.987 2.08017 14.3677C1.50968 12.7497 1.5 11.4064 1.5 10.1358C1.5 5.32763 5.32435 1.51557 10 1.50014C14.6756 1.51557 18.5 5.32776 18.5 10.1359C18.5 11.4065 18.4903 12.7498 17.9198 14.3678C17.3489 15.9872 16.2015 17.9184 13.8652 20.3043L13.8638 20.3057L10 24.2826L6.13616 20.3055Z" fill="#FC5A72" stroke="#CB3A54" style="fill:#FC5A72;fill:color(display-p3 0.9868 0.3532 0.4482);fill-opacity:1;stroke:#CB3A54;stroke:color(display-p3 0.7942 0.2258 0.3300);stroke-opacity:1;"/>
<path d="M14.5 6H5.5C5.36739 6 5.24021 6.05268 5.14645 6.14645C5.05268 6.24021 5 6.36739 5 6.5V15.5C5 15.6326 5.05268 15.7598 5.14645 15.8536C5.24021 15.9473 5.36739 16 5.5 16H14.5C14.6326 16 14.7598 15.9473 14.8536 15.8536C14.9473 15.7598 15 15.6326 15 15.5V6.5C15 6.36739 14.9473 6.24021 14.8536 6.14645C14.7598 6.05268 14.6326 6 14.5 6ZM14 12.5H11.5V15H8.5V12.5H6V9.5H8.5V7H11.5V9.5H14V12.5Z" fill="white" style="fill:white;fill:white;fill-opacity:1;"/>
</svg>
