<svg width="20" height="26" viewBox="0 0 20 26" fill="none" xmlns="http://www.w3.org/2000/svg">
<path d="M6.13616 20.3055L6.13478 20.3041C3.79846 17.9183 2.6511 15.987 2.08017 14.3677C1.50968 12.7497 1.5 11.4064 1.5 10.1358C1.5 5.32763 5.32435 1.51557 10 1.50014C14.6756 1.51557 18.5 5.32776 18.5 10.1359C18.5 11.4065 18.4903 12.7498 17.9198 14.3678C17.3489 15.9872 16.2015 17.9184 13.8652 20.3043L13.8638 20.3057L10 24.2826L6.13616 20.3055Z" fill="#45BF94" stroke="#2E9975" style="fill:#45BF94;fill:color(display-p3 0.2699 0.7501 0.5820);fill-opacity:1;stroke:#2E9975;stroke:color(display-p3 0.1794 0.6006 0.4602);stroke-opacity:1;"/>
<path d="M12 12.25C12 11.9533 12.088 11.6633 12.2528 11.4166C12.4176 11.17 12.6519 10.9777 12.926 10.8642C13.2001 10.7506 13.5017 10.7209 13.7926 10.7788C14.0836 10.8367 14.3509 10.9796 14.5607 11.1893C14.7704 11.3991 14.9133 11.6664 14.9712 11.9574C15.0291 12.2483 14.9993 12.5499 14.8858 12.824C14.7723 13.0981 14.58 13.3324 14.3334 13.4972C14.0867 13.662 13.7967 13.75 13.5 13.75C13.1022 13.75 12.7206 13.592 12.4393 13.3107C12.158 13.0294 12 12.6478 12 12.25ZM15 14.5H7.5V10.1L11.5 8L6.5 6V14.5H5V15.5H15V14.5Z" fill="white" style="fill:white;fill:white;fill-opacity:1;"/>
</svg>
