<svg width="20" height="26" viewBox="0 0 20 26" fill="none" xmlns="http://www.w3.org/2000/svg">
<path d="M6.13616 20.3055L6.13478 20.3041C3.79846 17.9183 2.6511 15.987 2.08017 14.3677C1.50968 12.7497 1.5 11.4064 1.5 10.1358C1.5 5.32763 5.32435 1.51557 10 1.50014C14.6756 1.51557 18.5 5.32776 18.5 10.1359C18.5 11.4065 18.4903 12.7498 17.9198 14.3678C17.3489 15.9872 16.2015 17.9184 13.8652 20.3043L13.8638 20.3057L10 24.2826L6.13616 20.3055Z" fill="#C19D95" stroke="#927C77" style="fill:#C19D95;fill:color(display-p3 0.7569 0.6157 0.5843);fill-opacity:1;stroke:#927C77;stroke:color(display-p3 0.5728 0.4866 0.4672);stroke-opacity:1;"/>
<path d="M15 7H13.19C12.4766 7 11.7924 7.28341 11.2879 7.78788C10.7834 8.29236 10.5 8.97657 10.5 9.69V15.5H11C11 15.2348 11.1054 14.9804 11.2929 14.7929C11.4804 14.6054 11.7348 14.5 12 14.5H15V7ZM5 7H6.825C7.17736 7.00065 7.52614 7.07079 7.85137 7.20639C8.1766 7.34199 8.47189 7.5404 8.72036 7.79025C8.96882 8.04011 9.16557 8.33651 9.29935 8.66249C9.43313 8.98847 9.50131 9.33764 9.5 9.69V15.5H9C9 15.2348 8.89464 14.9804 8.70711 14.7929C8.51957 14.6054 8.26522 14.5 8 14.5H5V7Z" fill="white" style="fill:white;fill:white;fill-opacity:1;"/>
</svg>
