<svg width="20" height="26" viewBox="0 0 20 26" fill="none" xmlns="http://www.w3.org/2000/svg">
<rect x="1.5" y="4.5" width="17" height="17" rx="4" fill="white" stroke="#EE5068"/>
<path fill-rule="evenodd" clip-rule="evenodd" d="M9.08926 7.5H5.90754L5.42238 14.5714H3.5C3.22386 14.5714 3 14.7953 3 15.0714V18C3 18.2761 3.22386 18.5 3.5 18.5H16.5C16.7761 18.5 17 18.2761 17 18V15.0714C17 14.7953 16.7761 14.5714 16.5 14.5714H14.5805L14.1121 7.5H10.9106L9.99992 11.5841L9.08926 7.5ZM12.6831 14.5714L12.3604 9.69919L11.274 14.5714H12.6831ZM8.72585 14.5714L7.65085 9.75031L7.32008 14.5714H8.72585Z" fill="#ED415B"/>
</svg>
