<svg width="20" height="26" viewBox="0 0 20 26" fill="none" xmlns="http://www.w3.org/2000/svg">
<rect x="1.5" y="4.5" width="17" height="17" rx="4" fill="#8484BD" stroke="#55578D"/>
<path d="M3.43554 9.32422H3.58152L5.47124 12.5329V16.6742H3.43554C3.19503 16.6742 3 16.4861 3 16.2556V9.74397C3 9.51149 3.19582 9.32422 3.43554 9.32422Z" fill="white"/>
<path d="M16.5627 9.32422H11.6701L11.7187 16.6742H16.5627C16.8036 16.6742 16.9994 16.4861 16.9994 16.2556V9.74397C16.9994 9.51149 16.8024 9.32422 16.5627 9.32422Z" fill="white"/>
<path d="M3.85352 9.32422H6.42089L9.68529 14.8592H7.06965L3.85352 9.32422Z" fill="white"/>
<path d="M9.92552 14.768L8.76367 12.814L11.0217 9.32422H11.3785V12.5329L9.92552 14.768Z" fill="white"/>
</svg>
