<svg width="90" height="90" viewBox="0 0 90 90" fill="none" xmlns="http://www.w3.org/2000/svg">
<path fill-rule="evenodd" clip-rule="evenodd" d="M50.5974 23.7071L46.2783 14.3491C42.1848 5.47982 29.509 5.68372 25.7029 14.6801L5.58125 62.2403C1.81542 71.1414 8.34945 81.0005 18.0143 81.0005H71.6398C81.5306 81.0005 88.0637 70.7153 83.8597 61.7624L67.8663 27.7024C64.5757 20.6946 55.9112 19.4101 50.5974 23.7071Z" fill="white"/>
<path d="M18.0048 72.0004C14.7831 72.0004 12.6051 68.7141 13.8604 65.747L33.9821 18.1868C34.7433 16.3875 37.2784 16.3467 38.0971 18.1206L45.5013 34.163L34.3411 60.0908C33.4361 62.1932 34.4121 64.6308 36.518 65.5277C38.6126 66.4199 41.0342 65.4503 41.9343 63.3591L55.6069 31.5945C56.3739 29.8126 58.8856 29.7717 59.7102 31.5277L75.7036 65.5878C77.1049 68.5721 74.9272 72.0004 71.6303 72.0004H18.0048Z" fill="#716561"/>
</svg>
