<svg width="20" height="26" viewBox="0 0 20 26" fill="none" xmlns="http://www.w3.org/2000/svg">
<path d="M6.13616 20.3055L6.13478 20.3041C3.79846 17.9183 2.6511 15.987 2.08017 14.3677C1.50968 12.7497 1.5 11.4064 1.5 10.1358C1.5 5.32763 5.32435 1.51557 10 1.50014C14.6756 1.51557 18.5 5.32776 18.5 10.1359C18.5 11.4065 18.4903 12.7498 17.9198 14.3678C17.3489 15.9872 16.2015 17.9184 13.8652 20.3043L13.8638 20.3057L10 24.2826L6.13616 20.3055Z" fill="#6BC9FF" stroke="#54A2CF" style="fill:#6BC9FF;fill:color(display-p3 0.4200 0.7873 1.0000);fill-opacity:1;stroke:#54A2CF;stroke:color(display-p3 0.3292 0.6342 0.8108);stroke-opacity:1;"/>
<path d="M15 7.5H5V7C5 6.73478 5.10536 6.48043 5.29289 6.29289C5.48043 6.10536 5.73478 6 6 6H14C14.2652 6 14.5196 6.10536 14.7071 6.29289C14.8946 6.48043 15 6.73478 15 7V7.5ZM5 15C5 15.2652 5.10536 15.5196 5.29289 15.7071C5.48043 15.8946 5.73478 16 6 16H14C14.2652 16 14.5196 15.8946 14.7071 15.7071C14.8946 15.5196 15 15.2652 15 15V14.5H5V15ZM6.18 13.5H5V8.5H6.615C7.905 8.5 8.7 9.035 8.7 10.13C8.7 11.225 7.875 11.835 6.7 11.835H6.18V13.5ZM6.18 11H6.62C7.155 11 7.5 10.76 7.5 10.13C7.5 9.595 7.185 9.345 6.6 9.345H6.18V11ZM9 10.745C8.99901 10.8938 9.04228 11.0394 9.12431 11.1635C9.20634 11.2876 9.32342 11.3846 9.46067 11.4419C9.59792 11.4993 9.74913 11.5146 9.89508 11.4858C10.041 11.457 10.1751 11.3855 10.2803 11.2803C10.3855 11.1751 10.457 11.041 10.4858 10.8951C10.5146 10.7491 10.4993 10.5979 10.4419 10.4607C10.3846 10.3234 10.2876 10.2063 10.1635 10.1243C10.0394 10.0423 9.89376 9.99901 9.745 10C9.64641 9.99724 9.5483 10.0146 9.45667 10.0511C9.36503 10.0876 9.2818 10.1423 9.21206 10.2121C9.14233 10.2818 9.08755 10.365 9.05109 10.4567C9.01462 10.5483 8.99724 10.6464 9 10.745ZM13.735 11.37L15 13.5H13.67L12.645 11.59H12.18V13.5H11V8.5H12.635C13.99 8.5 14.69 9 14.69 10C14.7032 10.3015 14.6169 10.599 14.4443 10.8466C14.2717 11.0942 14.0225 11.2781 13.735 11.37ZM13.5 10C13.5 9.5 13.215 9.31 12.63 9.31H12.205V10.755H12.705C13.2 10.775 13.5 10.55 13.5 10Z" fill="white" style="fill:white;fill:white;fill-opacity:1;"/>
</svg>
