<svg width="20" height="26" viewBox="0 0 20 26" fill="none" xmlns="http://www.w3.org/2000/svg">
<path d="M6.13616 20.3055L6.13478 20.3041C3.79846 17.9183 2.6511 15.987 2.08017 14.3677C1.50968 12.7497 1.5 11.4064 1.5 10.1358C1.5 5.32763 5.32435 1.51557 10 1.50014C14.6756 1.51557 18.5 5.32776 18.5 10.1359C18.5 11.4065 18.4903 12.7498 17.9198 14.3678C17.3489 15.9872 16.2015 17.9184 13.8652 20.3043L13.8638 20.3057L10 24.2826L6.13616 20.3055Z" fill="#C4CCD9" stroke="#A4A6A8" style="fill:#C4CCD9;fill:color(display-p3 0.7686 0.8000 0.8510);fill-opacity:1;stroke:#A4A6A8;stroke:color(display-p3 0.6430 0.6500 0.6570);stroke-opacity:1;"/>
<path d="M10 8.5C10.4945 8.5 10.9778 8.64662 11.3889 8.92133C11.8 9.19603 12.1205 9.58648 12.3097 10.0433C12.4989 10.5001 12.5484 11.0028 12.452 11.4877C12.3555 11.9727 12.1174 12.4181 11.7678 12.7678C11.4181 13.1174 10.9727 13.3555 10.4877 13.452C10.0028 13.5484 9.50011 13.4989 9.04329 13.3097C8.58648 13.1205 8.19603 12.8 7.92133 12.3889C7.64662 11.9778 7.5 11.4945 7.5 11C7.5 10.337 7.76339 9.70107 8.23223 9.23223C8.70107 8.76339 9.33696 8.5 10 8.5Z" fill="white" style="fill:white;fill:white;fill-opacity:1;"/>
</svg>
