<svg width="20" height="26" viewBox="0 0 20 26" fill="none" xmlns="http://www.w3.org/2000/svg">
<path d="M10 1.5C14.6756 1.51543 18.4999 5.32767 18.5 10.1357C18.5 11.4064 18.4904 12.7501 17.9199 14.3682C17.349 15.9874 16.2014 17.919 13.8652 20.3047L13.8643 20.3057L10 24.2822L6.13574 20.3057L6.13477 20.3037C3.79877 17.9181 2.65104 15.9874 2.08008 14.3682C1.50959 12.7501 1.5 11.4064 1.5 10.1357C1.50002 5.32762 5.32436 1.51543 10 1.5Z" fill="#45BF94" stroke="#2E9975"/>
<path fill-rule="evenodd" clip-rule="evenodd" d="M7.37476 6.45363L7.61212 6.32421C7.69251 6.28307 7.7736 6.24418 7.85516 6.20757C7.88169 6.19566 7.90885 6.1853 7.9355 6.17387C7.99178 6.14971 8.04777 6.12539 8.10452 6.10335C8.12718 6.09455 8.15018 6.0867 8.17291 6.07824C8.23503 6.0551 8.29735 6.03319 8.35994 6.01255C8.37346 6.00809 8.38695 6.00362 8.40049 5.99928C8.47267 5.97612 8.54509 5.95461 8.61778 5.93472C8.62995 5.9314 8.64207 5.92789 8.65425 5.92466C8.72606 5.90558 8.79815 5.88856 8.87033 5.87264C8.88383 5.86966 8.89729 5.86651 8.91081 5.86365C8.98183 5.84858 9.05302 5.83531 9.1243 5.82327C9.14282 5.82014 9.16132 5.81695 9.17985 5.81403C9.24379 5.80393 9.30782 5.79542 9.37188 5.78774C9.38286 5.78642 9.39376 5.78439 9.40474 5.78314C9.80371 5.73787 10.2042 5.73945 10.5983 5.785C10.6088 5.78622 10.6199 5.78803 10.6304 5.78931C10.695 5.79718 10.7594 5.80618 10.8236 5.81643C10.8505 5.82072 10.8774 5.82526 10.9042 5.82997C10.9598 5.83973 11.0152 5.85013 11.0705 5.86166C11.0993 5.86767 11.128 5.87396 11.1566 5.88045C11.2186 5.89447 11.2803 5.90952 11.3418 5.92577C11.3558 5.92948 11.3698 5.93321 11.3838 5.93703C11.4516 5.95557 11.5189 5.97586 11.5859 5.99709C11.6031 6.00252 11.6203 6.00743 11.6374 6.01303C11.6996 6.03344 11.7611 6.05599 11.8225 6.07871C11.841 6.08556 11.8597 6.09192 11.8782 6.09899C11.9412 6.12311 12.0037 6.14847 12.0658 6.17501C12.0819 6.18187 12.098 6.1884 12.114 6.19542C13.1018 6.62918 13.9656 7.36931 14.5464 8.37526L14.6758 8.61262C15.9409 11.0852 15.0574 14.1424 12.6248 15.5469L12.3874 15.6763C11.5933 16.0826 10.739 16.2661 9.8984 16.249L9.89813 16.25C9.8854 16.2498 9.87269 16.2487 9.85997 16.2484C9.82365 16.2474 9.78737 16.2462 9.75112 16.2444C9.70835 16.2423 9.66566 16.2395 9.62299 16.2363C9.60158 16.2348 9.58013 16.2338 9.55874 16.232C9.49286 16.2264 9.42715 16.2194 9.3616 16.2113L9.33615 16.2083C9.3077 16.2046 9.27944 16.1998 9.25106 16.1957C9.22079 16.1913 9.19052 16.187 9.16034 16.1821C8.70411 16.1079 8.25927 15.9734 7.83729 15.7831C7.82852 15.7791 7.81973 15.7752 7.81098 15.7712C6.93089 15.3684 6.15343 14.7207 5.59397 13.856L5.45313 13.6253C5.33679 13.4238 5.23688 13.2171 5.14995 13.0079C5.14248 12.9899 5.13462 12.9721 5.12736 12.9541C5.10114 12.8889 5.07634 12.8235 5.0529 12.7577C5.04672 12.7404 5.04068 12.723 5.03468 12.7057C5.01 12.6341 4.98737 12.5621 4.96595 12.4899C4.96145 12.4748 4.95676 12.4597 4.9524 12.4445C4.86091 12.1257 4.80046 11.8025 4.77103 11.4785C4.76906 11.4568 4.76655 11.4352 4.76484 11.4136C4.74068 11.1048 4.74565 10.796 4.77572 10.4905C4.79184 10.3261 4.81598 10.1628 4.8474 10.0009C4.88754 9.79445 4.93759 9.58999 5.00202 9.38982C5.02949 9.30447 5.05966 9.21996 5.09147 9.13605L5.09274 9.13532C5.29889 8.59193 5.59441 8.08028 5.97477 7.62643C5.99013 7.6081 6.00678 7.59085 6.02241 7.57271C6.0841 7.50113 6.14835 7.43152 6.21425 7.363C6.34724 7.22471 6.48865 7.09299 6.63847 6.96838C6.66399 6.94716 6.68869 6.92488 6.71468 6.90408C6.72659 6.89455 6.73907 6.88574 6.75108 6.8763C6.94605 6.7231 7.15377 6.58123 7.37476 6.45363ZM9.50703 13.6156L10.5461 15.0886C11.0654 15.0194 11.5803 14.8508 12.0623 14.5726C12.5888 14.2686 13.0218 13.8651 13.3537 13.4008L12.8182 11.9136L11.5622 11.4564L9.68593 12.5397L9.50703 13.6156ZM11.2014 9.04889L11.7266 10.7188L12.9735 11.1719L14.0965 10.5184C14.0331 9.9772 13.8619 9.43966 13.5721 8.93776C13.4064 8.65068 13.2104 8.392 12.992 8.16143L11.9534 8.17159L11.2014 9.04889ZM6.19199 12.5847C6.25964 12.7467 6.3373 12.9067 6.42741 13.0628C6.66972 13.4825 6.9753 13.8427 7.32423 14.14L8.77153 13.471L8.95201 12.3833L7.73329 11.0546L6.82754 11.2553L6.19199 12.5847ZM7.05148 8.11438C6.54118 8.63517 6.1869 9.27487 6.00824 9.96076L6.59714 10.5384L7.61815 10.3117L8.30171 8.80915L7.95088 8.2015L7.05148 8.11438ZM8.62018 7.86075L8.94171 8.41766L10.6155 8.58037L11.303 7.77749L11.0303 7.00633C10.3783 6.8381 9.68541 6.82848 9.01377 6.99414L8.62018 7.86075Z" fill="white"/>
</svg>
