<svg width="30" height="30" viewBox="0 0 30 30" fill="none" xmlns="http://www.w3.org/2000/svg">
<circle cx="15" cy="15" r="13" fill="#FB1858"/>
<circle cx="15" cy="15" r="10" fill="white"/>
<path d="M12.8379 9.59876L14.2649 13.1665L17.6543 13.6421L18.8435 16.0206L19.4381 14.5935L21.5788 11.888L19.4381 13.1665L19.9138 9.00412L18.1092 10.9642L18.2192 7.51758L16.2867 10.4015L14.592 8.23113V10.669L12.8379 9.59876Z" fill="#FB1858"/>
<path d="M14.5918 11.6319L15.761 13.4043L17.6542 13.6433L18.3362 15.0101L18.8434 14.6011L19.6693 13.6433L18.6543 13.9497L19.0633 11.0563L17.6542 12.6772L17.2303 10.2988L16.3971 11.6319L15.5185 10.617L15.6397 12.1015L14.5918 11.6319Z" fill="#F7FA19"/>
<path d="M19.7496 15.1538C19.8274 15.2165 19.8905 15.2978 19.9339 15.3913C19.9774 15.4848 20 15.5878 20 15.6923C20 15.7968 19.9774 15.8999 19.9339 15.9933C19.8905 16.0868 19.8274 16.1681 19.7496 16.2308H19.5143V19.4615C19.5143 19.6043 19.4615 19.7413 19.3676 19.8423C19.2737 19.9433 19.1463 20 19.0135 20H17.5113C17.3785 20 17.2511 19.9433 17.1572 19.8423C17.0633 19.7413 17.0105 19.6043 17.0105 19.4615V18.9231H13.0045V19.4615C13.0045 19.6043 12.9517 19.7413 12.8578 19.8423C12.7639 19.9433 12.6366 20 12.5038 20H11.0015C10.8687 20 10.7413 19.9433 10.6474 19.8423C10.5535 19.7413 10.5008 19.6043 10.5008 19.4615V16.2308H10.2504C10.1726 16.1681 10.1095 16.0868 10.0661 15.9933C10.0226 15.8999 10 15.7968 10 15.6923C10 15.5878 10.0226 15.4848 10.0661 15.3913C10.1095 15.2978 10.1726 15.2165 10.2504 15.1538H11.1217L11.6224 13.9154C11.7283 13.6471 11.9044 13.4177 12.1294 13.2552C12.3543 13.0927 12.6184 13.004 12.8893 13H17.1257C17.395 13.0061 17.6568 13.0957 17.8798 13.2581C18.1028 13.4205 18.2774 13.6488 18.3826 13.9154L18.8833 15.1538H19.7496ZM12.003 15.6923H18.012L17.4562 14.3515C17.4297 14.2756 17.3835 14.2094 17.3232 14.1608C17.2629 14.1121 17.1909 14.083 17.1157 14.0769H12.8893C12.8141 14.083 12.7421 14.1121 12.6818 14.1608C12.6215 14.2094 12.5753 14.2756 12.5488 14.3515L12.003 15.6923ZM13.0045 16.7692H11.7526C11.6749 16.8319 11.6118 16.9132 11.5683 17.0067C11.5249 17.1001 11.5023 17.2032 11.5023 17.3077C11.5023 17.4122 11.5249 17.5152 11.5683 17.6087C11.6118 17.7022 11.6749 17.7835 11.7526 17.8462H13.0045V16.7692ZM18.2624 16.7692H17.0105V17.8462H18.2624C18.3401 17.7835 18.4032 17.7022 18.4467 17.6087C18.4901 17.5152 18.5128 17.4122 18.5128 17.3077C18.5128 17.2032 18.4901 17.1001 18.4467 17.0067C18.4032 16.9132 18.3401 16.8319 18.2624 16.7692Z" fill="#333333"/>
<path d="M24.4129 22.7346L7.09033 5.41211L5.41309 7.08935L22.7356 24.4119L24.4129 22.7346Z" fill="#FB1858"/>
</svg>
