<svg width="30" height="30" viewBox="0 0 30 30" fill="none" xmlns="http://www.w3.org/2000/svg">
<circle cx="15" cy="15" r="13" fill="#E1BDBD"/>
<circle cx="15" cy="15" r="10" fill="#EBEBEB"/>
<path d="M24.4129 22.7346L7.09033 5.41211L5.41309 7.08935L22.7356 24.4119L24.4129 22.7346Z" fill="#E1BDBD"/>
<rect x="8" y="11" width="14" height="8" fill="#EBEBEB"/>
<path d="M17.5 18C18.6046 18 19.5 17.1046 19.5 16C19.5 14.8954 18.6046 14 17.5 14C16.3954 14 15.5 14.8954 15.5 16C15.5 17.1046 16.3954 18 17.5 18Z" fill="#999999"/>
<path d="M12.5 18C13.6046 18 14.5 17.1046 14.5 16C14.5 14.8954 13.6046 14 12.5 14C11.3954 14 10.5 14.8954 10.5 16C10.5 17.1046 11.3954 18 12.5 18Z" fill="#999999"/>
<path fill-rule="evenodd" clip-rule="evenodd" d="M10.3516 12.0581C10.4688 11.9408 10.6278 11.875 10.7935 11.875H19.2065C19.3722 11.875 19.5312 11.9408 19.6484 12.0581L20.9419 13.3516C21.186 13.5957 21.186 13.9914 20.9419 14.2355C20.6979 14.4796 20.3021 14.4796 20.0581 14.2355L18.9476 13.125H11.0524L9.94194 14.2355C9.69786 14.4796 9.30214 14.4796 9.05806 14.2355C8.81398 13.9914 8.81398 13.5957 9.05806 13.3516L10.3516 12.0581Z" fill="#999999"/>
</svg>
