<svg width="31" height="30" viewBox="0 0 31 30" fill="none" xmlns="http://www.w3.org/2000/svg">
<path d="M30.5 15.0003C30.5 21.9406 24.6797 27.5669 17.5 27.5669C10.3202 27.5669 6 21.9406 6 15.0003C6 8.05988 10.3202 2.43359 17.5 2.43359C24.6797 2.43359 30.5 8.05988 30.5 15.0003Z" fill="#FA9EB9"/>
<path d="M29.5 15.0003C29.5 21.9406 23.6797 27.5669 16.5 27.5669C9.32024 27.5669 5 21.9406 5 15.0003C5 8.05988 9.32024 2.43359 16.5 2.43359C23.6797 2.43359 29.5 8.05988 29.5 15.0003Z" fill="#E11851"/>
<path d="M15.5048 27.5301C22.215 27.0342 27.5 21.6139 27.5 15.0004C27.5 8.38685 22.215 2.96655 15.5048 2.4707C8.92291 2.96655 5 8.38685 5 15.0004C5 21.6139 8.92291 27.0342 15.5048 27.5301Z" fill="black" fill-opacity="0.15"/>
<path d="M26 15.0003C26 21.9406 20.1797 27.5669 13 27.5669C5.82024 27.5669 1.5 21.9406 1.5 15.0003C1.5 8.05988 5.82024 2.43359 13 2.43359C20.1797 2.43359 26 8.05988 26 15.0003Z" fill="#FA9EB9"/>
</svg>
