<svg width="30" height="30" viewBox="0 0 30 30" fill="none" xmlns="http://www.w3.org/2000/svg">
<path d="M14.9996 1L29 15.0004L15.0004 29L1 14.9996L14.9996 1Z" fill="#999999"/>
<path d="M27.5 15L15 27.5L2.5 15L15 2.5L27.5 15Z" fill="#DBDCA7"/>
<path d="M15.4202 17.4279C15.7043 17.4279 15.9601 17.4951 16.1874 17.6294C16.4147 17.7638 16.593 17.9627 16.7222 18.2262C16.8513 18.4897 16.9159 18.8074 16.9159 19.1794C16.9159 19.5514 16.8384 19.8847 16.6834 20.1792C16.5336 20.4737 16.3192 20.7062 16.0402 20.8767C15.7663 21.042 15.4486 21.1247 15.0869 21.1247C14.4256 21.1247 13.9373 20.8973 13.6222 20.4427C13.307 19.9828 13.1494 19.3422 13.1494 18.5207C13.1494 17.911 13.2372 17.3814 13.4129 16.9319C13.5886 16.4773 13.8417 16.1285 14.1724 15.8857C14.5082 15.6377 14.9035 15.5137 15.3582 15.5137C15.7973 15.5137 16.1797 15.6248 16.5052 15.8469L16.1099 16.5212C15.8826 16.3817 15.6372 16.3119 15.3737 16.3119C15.0585 16.3119 14.8053 16.4566 14.6142 16.7459C14.423 17.0301 14.3145 17.4383 14.2887 17.9704C14.5935 17.6088 14.9707 17.4279 15.4202 17.4279ZM15.0947 20.3187C15.3272 20.3187 15.5028 20.2205 15.6217 20.0242C15.7457 19.8278 15.8077 19.5514 15.8077 19.1949C15.8077 18.8333 15.7508 18.5775 15.6372 18.4277C15.5235 18.2778 15.3556 18.2029 15.1334 18.2029C14.8079 18.2029 14.5289 18.3579 14.2964 18.6679C14.3067 19.2621 14.3713 19.6858 14.4902 19.9389C14.609 20.1921 14.8105 20.3187 15.0947 20.3187Z" fill="#999999"/>
<path d="M11.25 20.375C11.25 20.7188 10.9688 21 10.625 21H9.375C9.03125 21 8.75 20.7188 8.75 20.375V16.625C8.75 16.2812 9.03125 16 9.375 16H10.625C10.9688 16 11.25 16.2812 11.25 16.625V20.375Z" fill="#999999"/>
<path d="M21.25 20.375C21.25 20.7188 20.9688 21 20.625 21H19.375C19.0312 21 18.75 20.7188 18.75 20.375V16.625C18.75 16.2812 19.0312 16 19.375 16H20.625C20.9688 16 21.25 16.2812 21.25 16.625V20.375Z" fill="#999999"/>
<path d="M12.5 18H11V19H12.5V18Z" fill="#999999"/>
<path d="M19 18H17.5V19H19V18Z" fill="#999999"/>
</svg>
