<svg width="30" height="30" viewBox="0 0 30 30" fill="none" xmlns="http://www.w3.org/2000/svg">
<circle cx="15" cy="15" r="13" fill="#FB1858"/>
<circle cx="15" cy="15" r="10" fill="white"/>
<path d="M16.8258 21.0974H14.5432C15.0755 20.6184 15.4914 20.2121 15.7904 19.8789C16.1122 19.5259 16.3429 19.2068 16.4802 18.9219C16.6228 18.6366 16.6945 18.345 16.6945 18.0474C16.6945 17.7548 16.6226 17.4876 16.4784 17.247C16.3385 17.0051 16.1267 16.8155 15.8456 16.6775C15.5683 16.5336 15.2346 16.4629 14.8465 16.4629C14.4426 16.4629 14.0884 16.539 13.7857 16.6929C13.4839 16.8412 13.2199 17.0607 12.9936 17.3501L12.9629 17.3894L13.7222 17.9848L13.7533 17.9478C13.9162 17.7543 14.0717 17.6199 14.2191 17.5413L14.2202 17.5406C14.3665 17.4577 14.5386 17.4154 14.738 17.4154C14.9709 17.4154 15.1458 17.4826 15.2684 17.61C15.3967 17.7382 15.463 17.9131 15.463 18.1404C15.463 18.3682 15.3987 18.6001 15.2679 18.8367C15.1365 19.0692 14.9095 19.358 14.5851 19.7029C14.2658 20.048 13.7784 20.5354 13.1224 21.1656L13.107 21.1803V22.0499H16.6959L16.8258 21.0974Z" fill="#333333"/>
<path d="M11.25 21.375C11.25 21.7188 10.9688 22 10.625 22H9.375C9.03125 22 8.75 21.7188 8.75 21.375V17.625C8.75 17.2812 9.03125 17 9.375 17H10.625C10.9688 17 11.25 17.2812 11.25 17.625V21.375Z" fill="#333333"/>
<path d="M21.25 21.375C21.25 21.7188 20.9688 22 20.625 22H19.375C19.0312 22 18.75 21.7188 18.75 21.375V17.625C18.75 17.2812 19.0312 17 19.375 17H20.625C20.9688 17 21.25 17.2812 21.25 17.625V21.375Z" fill="#333333"/>
<path d="M12.5 19H11V20H12.5V19Z" fill="#333333"/>
<path d="M19 19H17.5V20H19V19Z" fill="#333333"/>
</svg>
