<svg width="20" height="14" viewBox="0 0 20 14" fill="none" xmlns="http://www.w3.org/2000/svg">
<rect width="20" height="14" rx="2" fill="#9F9FB4" fill-opacity="0.75"/>
<path d="M7.953 6.57419C7.6 6.38819 7.153 6.21219 6.62 6.05019C6.137 5.90719 5.767 5.77219 5.52 5.64719C5.29501 5.53419 5.143 5.41319 5.067 5.28919C4.991 5.16219 4.95101 5.00119 4.95101 4.80919C4.95101 4.50719 5.06 4.28519 5.285 4.13019C5.53 3.96219 5.85 3.87719 6.239 3.87719C6.556 3.87719 6.85701 3.93119 7.13301 4.03819C7.412 4.14519 7.704 4.31919 7.998 4.55419L8.146 4.67219L9.026 3.69019L8.884 3.55419C8.5 3.19619 8.09701 2.92619 7.68501 2.75419C7.27101 2.58019 6.768 2.49219 6.192 2.49219C5.66101 2.49219 5.179 2.59019 4.759 2.78319C4.332 2.97819 3.99301 3.25519 3.75201 3.60919C3.51001 3.96419 3.38801 4.37319 3.38801 4.82219C3.38801 5.48619 3.60801 6.02119 4.04101 6.41319C4.45301 6.78719 5.106 7.10819 5.98001 7.36819C6.44401 7.50319 6.799 7.63819 7.038 7.76919C7.258 7.89019 7.412 8.02319 7.49601 8.16619C7.58001 8.30719 7.623 8.49319 7.623 8.71819C7.623 9.11819 7.48501 9.41219 7.20201 9.61719C6.90201 9.83419 6.514 9.94419 6.048 9.94419C5.652 9.94419 5.28901 9.87919 4.97101 9.74919C4.64601 9.61619 4.32 9.41919 4.001 9.16119L3.85401 9.04119L2.97701 10.0182L3.109 10.1522C3.873 10.9322 4.866 11.3282 6.06 11.3282C6.69401 11.3282 7.25301 11.2182 7.722 11.0022C8.19901 10.7822 8.57 10.4712 8.826 10.0782C9.083 9.68319 9.21301 9.22519 9.21301 8.71519C9.21301 8.18919 9.09501 7.74419 8.861 7.39219C8.63 7.04519 8.326 6.77019 7.953 6.57419Z" fill="white"/>
<path d="M14.256 2.66016H12.524L9.743 11.3282H11.318L11.942 9.25216H14.777L15.401 11.3282H17.023L14.299 2.79916L14.256 2.66016ZM14.381 7.92816H12.338L13.364 4.50716L14.381 7.92816Z" fill="white"/>
</svg>
