<svg width="32" height="32" viewBox="0 0 32 32" fill="none" xmlns="http://www.w3.org/2000/svg">
<path fill-rule="evenodd" clip-rule="evenodd" d="M31.0607 15.647C31.256 15.8422 31.256 16.1588 31.0607 16.3541L16.354 31.0608C16.1587 31.2561 15.8421 31.2561 15.6469 31.0608L0.939369 16.3533C0.744107 16.1581 0.744107 15.8415 0.939369 15.6462L15.6461 0.939491C15.8414 0.744229 16.1579 0.744229 16.3532 0.939491L31.0607 15.647Z" fill="#FF870F"/>
<path d="M15.9996 2L30 16.0004L16.0004 30L2 15.9996L15.9996 2Z" fill="#1C232E"/>
<path d="M28.5 16L16 28.5L3.5 16L16 3.5L28.5 16Z" fill="#FF870F"/>
<path d="M18.066 14.217C17.876 15.184 17.179 15.785 16.587 16.045C16.582 16.051 16.996 15.269 16.962 14.208C16.919 12.892 16.047 11.713 14.91 11.179C15.008 11.506 15.064 11.852 15.064 12.21C15.064 13.162 14.69 14.031 14.076 14.665C13.314 15.452 12.972 16.18 13.002 17.019C13.092 19.488 15.268 19.984 15.332 19.998C14.931 19.764 14.659 19.312 14.659 18.801C14.659 17.578 15.972 16.649 15.972 16.649C15.972 16.649 17.285 17.596 17.285 18.801C17.285 19.315 17.015 19.759 16.618 19.995C17.383 19.816 17.972 19.414 18.4 18.766C18.412 18.746 18.99 17.86 18.99 16.698C18.99 15.716 18.641 14.832 18.066 14.217ZM16 6L15.09 9.979C15.516 9.765 16.438 9.781 16.91 9.979L16 6ZM15.24 22.021L16 26L16.76 22.021C16.281 22.172 15.688 22.203 15.24 22.021ZM12 13C11.779 13.6 11.619 14.28 11.55 14.99L9 13H12ZM12 19H9L11.555 17.01C11.624 17.721 11.779 18.4 12 19ZM23 13L20.45 15C20.38 14.28 20.221 13.61 20 13H23ZM23 19H20C20.221 18.391 20.38 17.721 20.45 17L23 19Z" fill="#1C232E"/>
</svg>
