<svg width="30" height="30" viewBox="0 0 30 30" fill="none" xmlns="http://www.w3.org/2000/svg">
<path fill-rule="evenodd" clip-rule="evenodd" d="M29 15C29 22.732 22.732 29 15 29C7.26801 29 1 22.732 1 15C1 7.26801 7.26801 1 15 1C22.732 1 29 7.26801 29 15ZM15 28C22.1797 28 28 22.1797 28 15C28 7.8203 22.1797 2 15 2C7.8203 2 2 7.8203 2 15C2 22.1797 7.8203 28 15 28Z" fill="white"/>
<circle cx="15" cy="15" r="13" fill="#FB1858"/>
<circle cx="15" cy="15" r="11" fill="white"/>
<path d="M12 17.5C12 17.775 11.775 18 11.5 18H10.5C10.225 18 10 17.775 10 17.5V14.5C10 14.225 10.225 14 10.5 14H11.5C11.775 14 12 14.225 12 14.5V17.5Z" fill="#1C232E"/>
<path d="M20 17.5C20 17.775 19.775 18 19.5 18H18.5C18.225 18 18 17.775 18 17.5V14.5C18 14.225 18.225 14 18.5 14H19.5C19.775 14 20 14.225 20 14.5V17.5Z" fill="#1C232E"/>
<path d="M15 17.5C15.8284 17.5 16.5 16.8284 16.5 16C16.5 15.1716 15.8284 14.5 15 14.5C14.1716 14.5 13.5 15.1716 13.5 16C13.5 16.8284 14.1716 17.5 15 17.5Z" fill="#1C232E"/>
<path d="M18 15.5H12V16.5H18V15.5Z" fill="#1C232E"/>
</svg>
