<svg width="32" height="32" viewBox="0 0 32 32" fill="none" xmlns="http://www.w3.org/2000/svg">
<path fill-rule="evenodd" clip-rule="evenodd" d="M31.0607 15.647C31.256 15.8422 31.256 16.1588 31.0607 16.3541L16.354 31.0608C16.1587 31.2561 15.8421 31.2561 15.6469 31.0608L0.939369 16.3533C0.744107 16.1581 0.744107 15.8415 0.939369 15.6462L15.6461 0.939491C15.8414 0.744229 16.1579 0.744229 16.3532 0.939491L31.0607 15.647Z" fill="#F7FA19"/>
<path d="M15.9996 2L30 16.0004L16.0004 30L2 15.9996L15.9996 2Z" fill="#1C232E"/>
<path d="M28.5 16L16 28.5L3.5 16L16 3.5L28.5 16Z" fill="#F7FA19"/>
<path d="M16 19C17.1046 19 18 18.1046 18 17C18 15.8954 17.1046 15 16 15C14.8954 15 14 15.8954 14 17C14 18.1046 14.8954 19 16 19Z" fill="#1C232E"/>
<path d="M21 19C22.1046 19 23 18.1046 23 17C23 15.8954 22.1046 15 21 15C19.8954 15 19 15.8954 19 17C19 18.1046 19.8954 19 21 19Z" fill="#1C232E"/>
<path d="M11 19C12.1046 19 13 18.1046 13 17C13 15.8954 12.1046 15 11 15C9.89543 15 9 15.8954 9 17C9 18.1046 9.89543 19 11 19Z" fill="#1C232E"/>
<path fill-rule="evenodd" clip-rule="evenodd" d="M8.8516 13.0581C8.96881 12.9408 9.12778 12.875 9.29354 12.875H22.7065C22.8722 12.875 23.0312 12.9408 23.1484 13.0581L24.4419 14.3516C24.686 14.5957 24.686 14.9914 24.4419 15.2355C24.1979 15.4796 23.8021 15.4796 23.5581 15.2355L22.4476 14.125H9.55242L8.44194 15.2355C8.19786 15.4796 7.80214 15.4796 7.55806 15.2355C7.31398 14.9914 7.31398 14.5957 7.55806 14.3516L8.8516 13.0581Z" fill="#1C232E"/>
</svg>
