<svg width="32" height="32" viewBox="0 0 32 32" fill="none" xmlns="http://www.w3.org/2000/svg">
<path fill-rule="evenodd" clip-rule="evenodd" d="M31.0607 15.647C31.256 15.8422 31.256 16.1588 31.0607 16.3541L16.354 31.0608C16.1587 31.2561 15.8421 31.2561 15.6469 31.0608L0.939369 16.3533C0.744107 16.1581 0.744107 15.8415 0.939369 15.6462L15.6461 0.939491C15.8414 0.744229 16.1579 0.744229 16.3532 0.939491L31.0607 15.647Z" fill="#F8D40D"/>
<path d="M15.9996 2L30 16.0004L16.0004 30L2 15.9996L15.9996 2Z" fill="#1C232E"/>
<path d="M28.5 16L16 28.5L3.5 16L16 3.5L28.5 16Z" fill="#F8D40D"/>
<path d="M16 9C13.24 9 11.056 11.24 11.01 14C10.98 15.813 12.063 17.583 13.33 19.641C13.82 18.66 14.83 18 16 18C17.189 18 18.21 18.68 18.689 19.68C19.046 18.961 21.008 16.23 20.99 14C20.965 11.24 18.76 9 16 9ZM14 16.5C13.17 16.5 12.5 15.83 12.5 15C12.5 14.17 13.17 13.5 14 13.5C14.83 13.5 15.5 14.17 15.5 15C15.5 15.83 14.83 16.5 14 16.5ZM18 16.5C17.17 16.5 16.5 15.83 16.5 15C16.5 14.17 17.17 13.5 18 13.5C18.83 13.5 19.5 14.17 19.5 15C19.5 15.83 18.83 16.5 18 16.5ZM16 19C14.896 19 14.01 19.896 14.01 21C14.01 22.104 14.896 23 16 23C17.104 23 18 22.104 18 21C18 19.896 17.104 19 16 19ZM17 21C17 21.553 16.553 22 16 22C15.447 22 15 21.553 15 21C15 20.447 15.447 20 16 20C16.553 20 17 20.447 17 21Z" fill="#1C232E"/>
</svg>
