<svg width="30" height="30" viewBox="0 0 30 30" fill="none" xmlns="http://www.w3.org/2000/svg">
<path fill-rule="evenodd" clip-rule="evenodd" d="M29 15C29 22.732 22.732 29 15 29C7.26801 29 1 22.732 1 15C1 7.26801 7.26801 1 15 1C22.732 1 29 7.26801 29 15ZM15 28C22.1797 28 28 22.1797 28 15C28 7.8203 22.1797 2 15 2C7.8203 2 2 7.8203 2 15C2 22.1797 7.8203 28 15 28Z" fill="white"/>
<circle cx="15" cy="15" r="13" fill="#FB1858"/>
<circle cx="15" cy="15" r="11" fill="white"/>
<path d="M15.4202 18.4272C15.7043 18.4272 15.9601 18.4944 16.1874 18.6287C16.4147 18.763 16.593 18.9619 16.7222 19.2254C16.8513 19.4889 16.9159 19.8067 16.9159 20.1787C16.9159 20.5507 16.8384 20.8839 16.6834 21.1784C16.5336 21.4729 16.3192 21.7054 16.0402 21.8759C15.7663 22.0413 15.4486 22.1239 15.0869 22.1239C14.4256 22.1239 13.9373 21.8966 13.6222 21.4419C13.307 20.9821 13.1494 20.3414 13.1494 19.5199C13.1494 18.9103 13.2372 18.3807 13.4129 17.9312C13.5886 17.4765 13.8417 17.1278 14.1724 16.8849C14.5082 16.6369 14.9035 16.5129 15.3582 16.5129C15.7973 16.5129 16.1797 16.624 16.5052 16.8462L16.1099 17.5204C15.8826 17.3809 15.6372 17.3112 15.3737 17.3112C15.0585 17.3112 14.8053 17.4559 14.6142 17.7452C14.423 18.0294 14.3145 18.4375 14.2887 18.9697C14.5935 18.608 14.9707 18.4272 15.4202 18.4272ZM15.0947 21.3179C15.3272 21.3179 15.5028 21.2198 15.6217 21.0234C15.7457 20.8271 15.8077 20.5507 15.8077 20.1942C15.8077 19.8325 15.7508 19.5768 15.6372 19.4269C15.5235 19.2771 15.3556 19.2022 15.1334 19.2022C14.8079 19.2022 14.5289 19.3572 14.2964 19.6672C14.3067 20.2614 14.3713 20.685 14.4902 20.9382C14.609 21.1914 14.8105 21.3179 15.0947 21.3179Z" fill="#1C232E"/>
<path d="M11.25 21.375C11.25 21.7188 10.9688 22 10.625 22H9.375C9.03125 22 8.75 21.7188 8.75 21.375V17.625C8.75 17.2812 9.03125 17 9.375 17H10.625C10.9688 17 11.25 17.2812 11.25 17.625V21.375Z" fill="#1C232E"/>
<path d="M21.25 21.375C21.25 21.7188 20.9688 22 20.625 22H19.375C19.0312 22 18.75 21.7188 18.75 21.375V17.625C18.75 17.2812 19.0312 17 19.375 17H20.625C20.9688 17 21.25 17.2812 21.25 17.625V21.375Z" fill="#1C232E"/>
<path d="M12.5 19H11V20H12.5V19Z" fill="#1C232E"/>
<path d="M19 19H17.5V20H19V19Z" fill="#1C232E"/>
</svg>
