<svg width="32" height="32" viewBox="0 0 32 32" fill="none" xmlns="http://www.w3.org/2000/svg">
<path fill-rule="evenodd" clip-rule="evenodd" d="M31.0607 15.647C31.256 15.8422 31.256 16.1588 31.0607 16.3541L16.354 31.0608C16.1587 31.2561 15.8421 31.2561 15.6469 31.0608L0.939369 16.3533C0.744107 16.1581 0.744107 15.8415 0.939369 15.6462L15.6461 0.939491C15.8414 0.744229 16.1579 0.744229 16.3532 0.939491L31.0607 15.647Z" fill="#F7FA19"/>
<path d="M15.9996 2L30 16.0004L16.0004 30L2 15.9996L15.9996 2Z" fill="#1C232E"/>
<path d="M28.5 16L16 28.5L3.5 16L16 3.5L28.5 16Z" fill="#F7FA19"/>
<path d="M17.8259 21.0974H15.5434C16.0757 20.6184 16.4916 20.2121 16.7905 19.8789C17.1123 19.5259 17.343 19.2068 17.4803 18.9219C17.6229 18.6366 17.6947 18.345 17.6947 18.0474C17.6947 17.7548 17.6227 17.4876 17.4785 17.247C17.3386 17.0051 17.1268 16.8155 16.8457 16.6775C16.5684 16.5336 16.2347 16.4629 15.8467 16.4629C15.4427 16.4629 15.0885 16.539 14.7858 16.6929C14.484 16.8412 14.22 17.0607 13.9938 17.3501L13.963 17.3894L14.7223 17.9848L14.7534 17.9478C14.9164 17.7543 15.0718 17.6199 15.2192 17.5413L15.2203 17.5406C15.3667 17.4577 15.5387 17.4154 15.7382 17.4154C15.9711 17.4154 16.1459 17.4826 16.2686 17.61C16.3968 17.7382 16.4632 17.9131 16.4632 18.1404C16.4632 18.3682 16.3989 18.6001 16.268 18.8367C16.1366 19.0692 15.9096 19.358 15.5852 19.7029C15.2659 20.048 14.7785 20.5354 14.1225 21.1656L14.1072 21.1803V22.0499H17.6961L17.8259 21.0974Z" fill="#1C232E"/>
<path d="M12.25 21.375C12.25 21.7188 11.9688 22 11.625 22H10.375C10.0312 22 9.75 21.7188 9.75 21.375V17.625C9.75 17.2812 10.0312 17 10.375 17H11.625C11.9688 17 12.25 17.2812 12.25 17.625V21.375Z" fill="#1C232E"/>
<path d="M22.25 21.375C22.25 21.7188 21.9688 22 21.625 22H20.375C20.0312 22 19.75 21.7188 19.75 21.375V17.625C19.75 17.2812 20.0312 17 20.375 17H21.625C21.9688 17 22.25 17.2812 22.25 17.625V21.375Z" fill="#1C232E"/>
<path d="M13.5 19H12V20H13.5V19Z" fill="#1C232E"/>
<path d="M20 19H18.5V20H20V19Z" fill="#1C232E"/>
</svg>
