<svg width="32" height="32" viewBox="0 0 32 32" fill="none" xmlns="http://www.w3.org/2000/svg">
<path fill-rule="evenodd" clip-rule="evenodd" d="M31.0607 15.647C31.256 15.8422 31.256 16.1588 31.0607 16.3541L16.354 31.0608C16.1587 31.2561 15.8421 31.2561 15.6469 31.0608L0.939369 16.3533C0.744107 16.1581 0.744107 15.8415 0.939369 15.6462L15.6461 0.939491C15.8414 0.744229 16.1579 0.744229 16.3532 0.939491L31.0607 15.647Z" fill="#F7FA19"/>
<path d="M15.9996 2L30 16.0004L16.0004 30L2 15.9996L15.9996 2Z" fill="#1C232E"/>
<path d="M28.5 16L16 28.5L3.5 16L16 3.5L28.5 16Z" fill="#F7FA19"/>
<path d="M16.4202 18.4272C16.7043 18.4272 16.9601 18.4944 17.1874 18.6287C17.4147 18.763 17.593 18.9619 17.7222 19.2254C17.8513 19.4889 17.9159 19.8067 17.9159 20.1787C17.9159 20.5507 17.8384 20.8839 17.6834 21.1784C17.5336 21.4729 17.3192 21.7054 17.0402 21.8759C16.7663 22.0413 16.4486 22.1239 16.0869 22.1239C15.4256 22.1239 14.9373 21.8966 14.6222 21.4419C14.307 20.9821 14.1494 20.3414 14.1494 19.5199C14.1494 18.9103 14.2372 18.3807 14.4129 17.9312C14.5886 17.4765 14.8417 17.1278 15.1724 16.8849C15.5082 16.6369 15.9035 16.5129 16.3582 16.5129C16.7973 16.5129 17.1797 16.624 17.5052 16.8462L17.1099 17.5204C16.8826 17.3809 16.6372 17.3112 16.3737 17.3112C16.0585 17.3112 15.8053 17.4559 15.6142 17.7452C15.423 18.0294 15.3145 18.4375 15.2887 18.9697C15.5935 18.608 15.9707 18.4272 16.4202 18.4272ZM16.0947 21.3179C16.3272 21.3179 16.5028 21.2198 16.6217 21.0234C16.7457 20.8271 16.8077 20.5507 16.8077 20.1942C16.8077 19.8325 16.7508 19.5768 16.6372 19.4269C16.5235 19.2771 16.3556 19.2022 16.1334 19.2022C15.8079 19.2022 15.5289 19.3572 15.2964 19.6672C15.3067 20.2614 15.3713 20.685 15.4902 20.9382C15.609 21.1914 15.8105 21.3179 16.0947 21.3179Z" fill="#1C232E"/>
<path d="M12.25 21.375C12.25 21.7188 11.9688 22 11.625 22H10.375C10.0312 22 9.75 21.7188 9.75 21.375V17.625C9.75 17.2812 10.0312 17 10.375 17H11.625C11.9688 17 12.25 17.2812 12.25 17.625V21.375Z" fill="#1C232E"/>
<path d="M22.25 21.375C22.25 21.7188 21.9688 22 21.625 22H20.375C20.0312 22 19.75 21.7188 19.75 21.375V17.625C19.75 17.2812 20.0312 17 20.375 17H21.625C21.9688 17 22.25 17.2812 22.25 17.625V21.375Z" fill="#1C232E"/>
<path d="M13.5 19H12V20H13.5V19Z" fill="#1C232E"/>
<path d="M20 19H18.5V20H20V19Z" fill="#1C232E"/>
</svg>
