<svg width="32" height="32" viewBox="0 0 32 32" fill="none" xmlns="http://www.w3.org/2000/svg">
<path fill-rule="evenodd" clip-rule="evenodd" d="M31.0607 15.647C31.256 15.8422 31.256 16.1588 31.0607 16.3541L16.354 31.0608C16.1587 31.2561 15.8421 31.2561 15.6469 31.0608L0.939369 16.3533C0.744107 16.1581 0.744107 15.8415 0.939369 15.6462L15.6461 0.939491C15.8414 0.744229 16.1579 0.744229 16.3532 0.939491L31.0607 15.647Z" fill="#F7FA19"/>
<path d="M15.9996 2L30 16.0004L16.0004 30L2 15.9996L15.9996 2Z" fill="#1C232E"/>
<path d="M28.5 16L16 28.5L3.5 16L16 3.5L28.5 16Z" fill="#F7FA19"/>
<path d="M15.6954 22.2183L17.7877 17.399V16.5869H14.2157V17.5239H16.5217L14.6248 21.819L15.6954 22.2183Z" fill="#1C232E"/>
<path d="M12.25 21.375C12.25 21.7188 11.9688 22 11.625 22H10.375C10.0312 22 9.75 21.7188 9.75 21.375V17.625C9.75 17.2812 10.0312 17 10.375 17H11.625C11.9688 17 12.25 17.2812 12.25 17.625V21.375Z" fill="#1C232E"/>
<path d="M22.25 21.375C22.25 21.7188 21.9688 22 21.625 22H20.375C20.0312 22 19.75 21.7188 19.75 21.375V17.625C19.75 17.2812 20.0312 17 20.375 17H21.625C21.9688 17 22.25 17.2812 22.25 17.625V21.375Z" fill="#1C232E"/>
<path d="M13.5 19H12V20H13.5V19Z" fill="#1C232E"/>
<path d="M20 19H18.5V20H20V19Z" fill="#1C232E"/>
</svg>
