<svg width="20" height="26" viewBox="0 0 20 26" fill="none" xmlns="http://www.w3.org/2000/svg">
<path d="M6.13616 20.3055L6.13478 20.3041C3.79846 17.9183 2.6511 15.987 2.08017 14.3677C1.50968 12.7497 1.5 11.4064 1.5 10.1358C1.5 5.32763 5.32435 1.51557 10 1.50014C14.6756 1.51557 18.5 5.32776 18.5 10.1359C18.5 11.4065 18.4903 12.7498 17.9198 14.3678C17.3489 15.9872 16.2015 17.9184 13.8652 20.3043L13.8638 20.3057L10 24.2826L6.13616 20.3055Z" fill="#667285" stroke="#4A5059" style="fill:#667285;fill:color(display-p3 0.4002 0.4480 0.5198);fill-opacity:1;stroke:#4A5059;stroke:color(display-p3 0.2912 0.3142 0.3488);stroke-opacity:1;"/>
<path d="M7 10.8125L14.9671 6.91855C15.1787 6.82121 15.3167 6.61228 15.3232 6.37948C15.3329 6.03473 15.0561 5.75 14.7112 5.75H13.6103C13.2504 5.75 12.8958 5.83632 12.5762 6.00172L10.9375 6.875L6.25 5.75L5.125 6.5L8.5 8.375L7.375 9.125L5.5 8.9375L4.75 9.5L7 10.8125Z" fill="white" style="fill:white;fill:white;fill-opacity:1;"/>
<path d="M13 11.75V10.25H10.375V11.75H13Z" fill="white" style="fill:white;fill:white;fill-opacity:1;"/>
<path d="M13.75 16.25H12.625L12.625 15.5H7.375V16.25H6.25V14.75H13.75V16.25Z" fill="white" style="fill:white;fill:white;fill-opacity:1;"/>
<path d="M7 14H9.625V12.5H7V14Z" fill="white" style="fill:white;fill:white;fill-opacity:1;"/>
<path d="M13 14V12.5H10.375V14H13Z" fill="white" style="fill:white;fill:white;fill-opacity:1;"/>
</svg>
