<svg width="20" height="26" viewBox="0 0 20 26" fill="none" xmlns="http://www.w3.org/2000/svg">
<path d="M6.13616 20.3055L6.13478 20.3041C3.79846 17.9183 2.6511 15.987 2.08017 14.3677C1.50968 12.7497 1.5 11.4064 1.5 10.1358C1.5 5.32763 5.32435 1.51557 10 1.50014C14.6756 1.51557 18.5 5.32776 18.5 10.1359C18.5 11.4065 18.4903 12.7498 17.9198 14.3678C17.3489 15.9872 16.2015 17.9184 13.8652 20.3043L13.8638 20.3057L10 24.2826L6.13616 20.3055Z" fill="#E265A7" stroke="#B34781"/>
<path d="M7.86764 7.31801C7.79886 7.06008 7.92425 6.79438 8.18123 6.72217C8.55048 6.61842 9.15657 6.5 9.99951 6.5C10.8424 6.5 11.4485 6.61842 11.8178 6.72217C12.0748 6.79438 12.2002 7.06008 12.1314 7.31801L10.8609 12.0824C10.7952 12.3287 10.5722 12.5 10.3173 12.5H9.68166C9.42682 12.5 9.20382 12.3287 9.13816 12.0824L7.86764 7.31801Z" fill="white"/>
<path d="M7.10585 7.94414C7.04532 7.76256 6.85851 7.66242 6.68647 7.74631C6.43631 7.86828 6.05471 8.10459 5.61013 8.5492C5.23386 8.92548 5.02099 9.15852 4.90112 9.29964C4.80252 9.41572 4.81984 9.57037 4.92754 9.67807L7.55835 12.3089C7.67248 12.423 7.84685 12.4513 7.99122 12.3791L8.20857 12.2704C8.37549 12.187 8.45564 11.9935 8.39662 11.8165L7.10585 7.94414Z" fill="white"/>
<path d="M5.24442 11.1066C5.17537 11.0452 5.07432 11.047 5.02511 11.1252C4.91402 11.3017 4.74951 11.6888 4.74951 12.434C4.74951 13.0855 4.87526 13.6333 4.98111 13.9791C5.02866 14.1344 5.23258 14.1395 5.30831 13.9957C5.44992 13.727 5.65763 13.3805 5.87451 13.184C6.10978 12.9708 6.4025 12.7658 6.59765 12.6368C6.70303 12.5671 6.71619 12.4149 6.62177 12.3309L5.24442 11.1066Z" fill="white"/>
<path d="M12.8931 7.94414C12.9537 7.76256 13.1405 7.66242 13.3125 7.74631C13.5627 7.86828 13.9443 8.10459 14.3889 8.5492C14.7651 8.92548 14.978 9.15852 15.0979 9.29964C15.1965 9.41572 15.1791 9.57037 15.0714 9.67807L12.4406 12.3089C12.3265 12.423 12.1521 12.4513 12.0078 12.3791L11.7904 12.2704C11.6235 12.187 11.5433 11.9935 11.6024 11.8165L12.8931 7.94414Z" fill="white"/>
<path d="M14.7546 11.1066C14.8236 11.0452 14.9247 11.047 14.9739 11.1252C15.085 11.3017 15.2495 11.6888 15.2495 12.434C15.2495 13.0855 15.1237 13.6333 15.0179 13.9791C14.9703 14.1344 14.7664 14.1395 14.6907 13.9957C14.5491 13.727 14.3414 13.3805 14.1245 13.184C13.8892 12.9708 13.5965 12.7658 13.4013 12.6368C13.296 12.5671 13.2828 12.4149 13.3772 12.3309L14.7546 11.1066Z" fill="white"/>
</svg>
