<svg width="20" height="26" viewBox="0 0 20 26" fill="none" xmlns="http://www.w3.org/2000/svg">
<path d="M6.13616 20.3055L6.13478 20.3041C3.79846 17.9183 2.6511 15.987 2.08017 14.3677C1.50968 12.7497 1.5 11.4064 1.5 10.1358C1.5 5.32763 5.32435 1.51557 10 1.50014C14.6756 1.51557 18.5 5.32776 18.5 10.1359C18.5 11.4065 18.4903 12.7498 17.9198 14.3678C17.3489 15.9872 16.2015 17.9184 13.8652 20.3043L13.8638 20.3057L10 24.2826L6.13616 20.3055Z" fill="#45BF94" stroke="#2E9975" style="fill:#45BF94;fill:color(display-p3 0.2699 0.7501 0.5820);fill-opacity:1;stroke:#2E9975;stroke:color(display-p3 0.1794 0.6006 0.4602);stroke-opacity:1;"/>
<path d="M15 9.69C15.0027 9.79375 14.9849 9.89701 14.9476 9.99388C14.9103 10.0907 14.8544 10.1793 14.7828 10.2545C14.7113 10.3298 14.6257 10.3902 14.5309 10.4323C14.436 10.4744 14.3338 10.4974 14.23 10.5H13C12.898 10.4997 12.7971 10.4787 12.7035 10.4383C12.6098 10.3979 12.5253 10.339 12.455 10.265L11.925 9.69L11.38 10.265C11.3098 10.339 11.2252 10.3979 11.1316 10.4383C11.0379 10.4787 10.937 10.4997 10.835 10.5H9.16501C9.06301 10.4997 8.96212 10.4787 8.86845 10.4383C8.77478 10.3979 8.69027 10.339 8.62001 10.265L8.07501 9.69L7.53501 10.265C7.46593 10.3378 7.38303 10.396 7.29117 10.4364C7.19931 10.4767 7.10033 10.4983 7.00001 10.5H5.77002C5.66626 10.4974 5.56403 10.4744 5.46918 10.4323C5.37432 10.3902 5.28869 10.3298 5.21718 10.2545C5.14568 10.1793 5.08969 10.0907 5.05243 9.99388C5.01517 9.89701 4.99736 9.79375 5.00002 9.69C6.04502 8.155 7.14501 7 9.52501 7H9.73501V6.25H10.235V7H10.5C12.855 7 13.955 8.155 15 9.69ZM9.61501 11.5L9.50001 15.5H10.5L10.385 11.5H9.61501Z" fill="white" style="fill:white;fill:white;fill-opacity:1;"/>
</svg>
