<svg width="20" height="26" viewBox="0 0 20 26" fill="none" xmlns="http://www.w3.org/2000/svg">
<path d="M6.13616 20.3055L6.13478 20.3041C3.79846 17.9183 2.6511 15.987 2.08017 14.3677C1.50968 12.7497 1.5 11.4064 1.5 10.1358C1.5 5.32763 5.32435 1.51557 10 1.50014C14.6756 1.51557 18.5 5.32776 18.5 10.1359C18.5 11.4065 18.4903 12.7498 17.9198 14.3678C17.3489 15.9872 16.2015 17.9184 13.8652 20.3043L13.8638 20.3057L10 24.2826L6.13616 20.3055Z" fill="#FFA857" stroke="#D0853E" style="fill:#FFA857;fill:color(display-p3 1.0000 0.6590 0.3400);fill-opacity:1;stroke:#D0853E;stroke:color(display-p3 0.8167 0.5204 0.2433);stroke-opacity:1;"/>
<path d="M11.5 15H10.5C10.5 15 10.5 13.265 10.5 12.65C10.4997 12.3956 10.5962 12.1507 10.77 11.965L14.5 8H8.72505L6.72505 6L6.13505 6.63L7.50005 8H5.30005L9.21005 11.95C9.39479 12.1363 9.49894 12.3877 9.50005 12.65C9.50005 13.285 9.50005 15 9.50005 15H8.50005C8.23483 15 7.98048 15.1054 7.79294 15.2929C7.60541 15.4804 7.50005 15.7348 7.50005 16H12.5C12.5 15.7348 12.3947 15.4804 12.2072 15.2929C12.0196 15.1054 11.7653 15 11.5 15ZM10.5 11C10.3419 10.9988 10.1863 10.9602 10.0459 10.8872C9.90563 10.8142 9.78464 10.7089 9.69289 10.5801C9.60114 10.4513 9.54127 10.3025 9.51817 10.146C9.49508 9.98956 9.50943 9.82985 9.56005 9.68C9.62658 9.48299 9.75288 9.31163 9.92136 9.18975C10.0898 9.06787 10.2921 9.00154 10.5 9C10.6727 8.99716 10.8427 9.04242 10.991 9.13073C11.1394 9.21904 11.2602 9.3469 11.34 9.5C11.4268 9.65012 11.473 9.82021 11.4742 9.99359C11.4754 10.167 11.4314 10.3377 11.3467 10.4889C11.262 10.6402 11.1394 10.7669 10.991 10.8565C10.8425 10.9461 10.6734 10.9955 10.5 11Z" fill="white" style="fill:white;fill:white;fill-opacity:1;"/>
</svg>
