<svg width="20" height="26" viewBox="0 0 20 26" fill="none" xmlns="http://www.w3.org/2000/svg">
<path d="M6.13616 20.3055L6.13478 20.3041C3.79846 17.9183 2.6511 15.987 2.08017 14.3677C1.50968 12.7497 1.5 11.4064 1.5 10.1358C1.5 5.32763 5.32435 1.51557 10 1.50014C14.6756 1.51557 18.5 5.32776 18.5 10.1359C18.5 11.4065 18.4903 12.7498 17.9198 14.3678C17.3489 15.9872 16.2015 17.9184 13.8652 20.3043L13.8638 20.3057L10 24.2826L6.13616 20.3055Z" fill="#A0B1DA" stroke="#828DAB"/>
<path d="M8.05002 11C8.66157 11 9.17815 10.5256 9.34411 9.875H6.25V8.75H9.27482C9.06024 8.19304 8.5925 7.78571 8.05002 7.78571H6.25002V6.5H13.375V7.78571H10.8574C11.1345 8.03334 11.3538 8.37128 11.4908 8.75H13.375V9.875H11.6416C11.5567 11.0012 10.837 11.9274 9.76058 12.0972L12.1 15.5H9.62502L7.82502 12.35H6.25002V11H8.05002Z" fill="white"/>
</svg>
