<svg width="20" height="26" viewBox="0 0 20 26" fill="none" xmlns="http://www.w3.org/2000/svg">
<path d="M6.13616 20.3055L6.13478 20.3041C3.79846 17.9183 2.6511 15.987 2.08017 14.3677C1.50968 12.7497 1.5 11.4064 1.5 10.1358C1.5 5.32763 5.32435 1.51557 10 1.50014C14.6756 1.51557 18.5 5.32776 18.5 10.1359C18.5 11.4065 18.4903 12.7498 17.9198 14.3678C17.3489 15.9872 16.2015 17.9184 13.8652 20.3043L13.8638 20.3057L10 24.2826L6.13616 20.3055Z" fill="#C19D95" stroke="#927C77" style="fill:#C19D95;fill:color(display-p3 0.7569 0.6157 0.5843);fill-opacity:1;stroke:#927C77;stroke:color(display-p3 0.5728 0.4866 0.4672);stroke-opacity:1;"/>
<path d="M10 12.11C11.0241 12.1575 12.0466 11.987 13 11.61V11.755C13 14.1 11.66 16 10 16C8.34 16 7 14.1 7 11.755V11.61C7.95324 11.9875 8.97586 12.1579 10 12.11ZM15 8.855L10 6L5 8.855L7 10.25V10.75C7.95902 11.1062 8.97728 11.276 10 11.25C11.0227 11.276 12.041 11.1062 13 10.75V10.285L13.75 9.75V13.56H14.75V9.06L15 8.855Z" fill="white" style="fill:white;fill:white;fill-opacity:1;"/>
</svg>
