<svg width="20" height="26" viewBox="0 0 20 26" fill="none" xmlns="http://www.w3.org/2000/svg">
<path d="M6.13616 20.3055L6.13478 20.3041C3.79846 17.9183 2.6511 15.987 2.08017 14.3677C1.50968 12.7497 1.5 11.4064 1.5 10.1358C1.5 5.32763 5.32435 1.51557 10 1.50014C14.6756 1.51557 18.5 5.32776 18.5 10.1359C18.5 11.4065 18.4903 12.7498 17.9198 14.3678C17.3489 15.9872 16.2015 17.9184 13.8652 20.3043L13.8638 20.3057L10 24.2826L6.13616 20.3055Z" fill="#C19D95" stroke="#927C77" style="fill:#C19D95;fill:color(display-p3 0.7569 0.6157 0.5843);fill-opacity:1;stroke:#927C77;stroke:color(display-p3 0.5728 0.4866 0.4672);stroke-opacity:1;"/>
<path d="M7.5 6V7.5L6 8V8.5H12V7.385C12.0019 7.14008 11.9139 6.90298 11.7526 6.71866C11.5913 6.53433 11.368 6.41561 11.125 6.385L7.5 6ZM14.295 14.815L14.47 16H10.025L13.145 13C13.4515 13.2068 13.7119 13.4748 13.9099 13.7872C14.1078 14.0996 14.2389 14.4495 14.295 14.815ZM8.17 16H5.5L5.675 14.815C5.78725 14.1587 6.13089 13.5644 6.64364 13.1397C7.15639 12.715 7.80432 12.4881 8.47 12.5H11.5C11.6004 12.5032 11.7005 12.5115 11.8 12.525L8.17 16ZM12 9.25V9.28C12 10.34 11.5 10.5 11.5 11.5H8.25C8.25 10.695 7.5 10.545 7.5 9.75V9.25H12Z" fill="white" style="fill:white;fill:white;fill-opacity:1;"/>
</svg>
