<svg width="20" height="26" viewBox="0 0 20 26" fill="none" xmlns="http://www.w3.org/2000/svg">
<circle cx="10" cy="13" r="8.5" fill="#C96D83" stroke="#963F57"/>
<path d="M5 8.83333C5.23246 11.0318 7.39384 12.5833 10 12.5833C12.6063 12.5833 14.7677 11.0319 15 8.83333H13.3333C13.1104 10.1511 11.5876 10.9167 10 10.9167C8.41226 10.9167 6.88946 10.1512 6.66667 8.83333H5Z" fill="white"/>
<path d="M15 17.1667C14.7675 14.9682 12.6062 13.4167 10 13.4167C7.39373 13.4167 5.23231 14.9681 5 17.1667H6.66667C6.8896 15.8489 8.41237 15.0833 10 15.0833C11.5877 15.0833 13.1105 15.8488 13.3333 17.1667H15Z" fill="white"/>
<path d="M9.16667 8H10.8333V18H9.16667V8Z" fill="white"/>
</svg>
