<svg width="20" height="26" viewBox="0 0 20 26" fill="none" xmlns="http://www.w3.org/2000/svg">
<path d="M6.13616 20.3055L6.13478 20.3041C3.79846 17.9183 2.6511 15.987 2.08017 14.3677C1.50968 12.7497 1.5 11.4064 1.5 10.1358C1.5 5.32763 5.32435 1.51557 10 1.50014C14.6756 1.51557 18.5 5.32776 18.5 10.1359C18.5 11.4065 18.4903 12.7498 17.9198 14.3678C17.3489 15.9872 16.2015 17.9184 13.8652 20.3043L13.8638 20.3057L10 24.2826L6.13616 20.3055Z" fill="#C19D95" stroke="#927C77" style="fill:#C19D95;fill:color(display-p3 0.7569 0.6157 0.5843);fill-opacity:1;stroke:#927C77;stroke:color(display-p3 0.5728 0.4866 0.4672);stroke-opacity:1;"/>
<path d="M12.625 6.5C12.6524 6.5 12.6797 6.50025 12.7069 6.50073C11.9165 6.02417 10.9903 5.75 10 5.75C7.1005 5.75 4.75 8.1005 4.75 11C4.75 13.8995 7.1005 16.25 10 16.25C10.9903 16.25 11.9165 15.9758 12.7069 15.4993C12.6797 15.4998 12.6524 15.5 12.625 15.5C10.1397 15.5 8.125 13.4853 8.125 11C8.125 8.51472 10.1397 6.5 12.625 6.5Z" fill="white" style="fill:white;fill:white;fill-opacity:1;"/>
<path d="M13.4927 10.3505L13.5152 8.375L12.3923 10.0141L10.6008 9.46179L11.6984 11.1092L10.5625 12.7296L12.3936 11.9776L13.4912 13.625L13.4556 11.6464L15.2867 10.8944L13.4927 10.3505Z" fill="white" style="fill:white;fill:white;fill-opacity:1;"/>
</svg>
