<svg width="20" height="26" viewBox="0 0 20 26" fill="none" xmlns="http://www.w3.org/2000/svg">
<path d="M6.13616 20.3055L6.13478 20.3041C3.79846 17.9183 2.6511 15.987 2.08017 14.3677C1.50968 12.7497 1.5 11.4064 1.5 10.1358C1.5 5.32763 5.32435 1.51557 10 1.50014C14.6756 1.51557 18.5 5.32776 18.5 10.1359C18.5 11.4065 18.4903 12.7498 17.9198 14.3678C17.3489 15.9872 16.2015 17.9184 13.8652 20.3043L13.8638 20.3057L10 24.2826L6.13616 20.3055Z" fill="#C19D95" stroke="#927C77" style="fill:#C19D95;fill:color(display-p3 0.7569 0.6157 0.5843);fill-opacity:1;stroke:#927C77;stroke:color(display-p3 0.5728 0.4866 0.4672);stroke-opacity:1;"/>
<path d="M13.75 7.25C13.75 7.25 13 8 12.25 8V8.75H7.75V8C7 8 6.25 7.25 6.25 7.25C6.25 7.25 8.5 7.25 10 5.75C11.5 7.25 13.75 7.25 13.75 7.25Z" fill="white" style="fill:white;fill:white;fill-opacity:1;"/>
<path d="M14.5 10.25C14.5 10.25 13.75 11 13 11V11.75H7V11C6.25 11 5.5 10.25 5.5 10.25C5.5 10.25 7.375 10.25 7.75 9.5L12.25 9.5C12.625 10.25 14.5 10.25 14.5 10.25Z" fill="white" style="fill:white;fill:white;fill-opacity:1;"/>
<path fill-rule="evenodd" clip-rule="evenodd" d="M4.75 13.25C4.75 13.25 5.48856 14.4237 6.25 14.75V16.25L13.75 16.2501V14.75C14.5114 14.4237 15.25 13.25 15.25 13.25C15.25 13.25 13.75 13.25 13 12.5H7C6.25002 13.25 4.75 13.25 4.75 13.25ZM10 13.625C10.6213 13.625 11.125 14.1287 11.125 14.75V16.25H8.875V14.75C8.875 14.1287 9.37868 13.625 10 13.625Z" fill="white" style="fill:white;fill:white;fill-opacity:1;"/>
</svg>
