<svg width="20" height="26" viewBox="0 0 20 26" fill="none" xmlns="http://www.w3.org/2000/svg">
<path d="M6.13616 20.3055L6.13478 20.3041C3.79846 17.9183 2.6511 15.987 2.08017 14.3677C1.50968 12.7497 1.5 11.4064 1.5 10.1358C1.5 5.32763 5.32435 1.51557 10 1.50014C14.6756 1.51557 18.5 5.32776 18.5 10.1359C18.5 11.4065 18.4903 12.7498 17.9198 14.3678C17.3489 15.9872 16.2015 17.9184 13.8652 20.3043L13.8638 20.3057L10 24.2826L6.13616 20.3055Z" fill="#6BC9FF" stroke="#54A2CF"/>
<path fill-rule="evenodd" clip-rule="evenodd" d="M10.75 10.25H11.9125L12.175 11H10.375L9.625 11.75H7.75L7.1875 10.8125H4.75V11.75H6.625L7.18468 12.585C7.00793 12.5298 6.81994 12.5 6.625 12.5C5.58947 12.5 4.75 13.3395 4.75 14.375C4.75 15.4105 5.58947 16.25 6.625 16.25C7.59966 16.25 8.40063 15.5063 8.49143 14.5555L8.86913 15.125H10.375C10.375 15.125 10 14 10.75 12.875C11.5 11.75 12.4375 11.75 12.4375 11.75L12.726 12.6154C12.0103 12.8794 11.5 13.5676 11.5 14.375C11.5 15.4105 12.3395 16.25 13.375 16.25C14.4105 16.25 15.25 15.4105 15.25 14.375C15.25 13.5131 14.6684 12.787 13.8762 12.5677L13.5651 11.75H14.5V11H13.3375L12.775 9.5H10.75V10.25ZM6.625 15.125C7.03921 15.125 7.375 14.7892 7.375 14.375C7.375 13.9608 7.03921 13.625 6.625 13.625C6.21079 13.625 5.875 13.9608 5.875 14.375C5.875 14.7892 6.21079 15.125 6.625 15.125ZM13.375 15.125C13.7892 15.125 14.125 14.7892 14.125 14.375C14.125 13.9608 13.7892 13.625 13.375 13.625C12.9608 13.625 12.625 13.9608 12.625 14.375C12.625 14.7892 12.9608 15.125 13.375 15.125Z" fill="white"/>
<path fill-rule="evenodd" clip-rule="evenodd" d="M9.75 8.5H10.25C10.5815 8.5 10.8995 8.3683 11.1339 8.13388C11.3683 7.89946 11.5 7.58152 11.5 7.25C11.5 6.91848 11.3683 6.60054 11.1339 6.36612C10.8995 6.1317 10.5815 6 10.25 6H9V9.5H9.75V8.5ZM9.75 6.75H10.25C10.3826 6.75 10.5098 6.80268 10.6036 6.89645C10.6973 6.99021 10.75 7.11739 10.75 7.25C10.75 7.38261 10.6973 7.50978 10.6036 7.60355C10.5098 7.69732 10.3826 7.75 10.25 7.75H9.75V6.75Z" fill="white"/>
</svg>
