<svg width="20" height="26" viewBox="0 0 20 26" fill="none" xmlns="http://www.w3.org/2000/svg">
<path d="M6.13616 20.3055L6.13478 20.3041C3.79846 17.9183 2.6511 15.987 2.08017 14.3677C1.50968 12.7497 1.5 11.4064 1.5 10.1358C1.5 5.32763 5.32435 1.51557 10 1.50014C14.6756 1.51557 18.5 5.32776 18.5 10.1359C18.5 11.4065 18.4903 12.7498 17.9198 14.3678C17.3489 15.9872 16.2015 17.9184 13.8652 20.3043L13.8638 20.3057L10 24.2826L6.13616 20.3055Z" fill="#FC5A72" stroke="#CB3A54" style="fill:#FC5A72;fill:color(display-p3 0.9868 0.3532 0.4482);fill-opacity:1;stroke:#CB3A54;stroke:color(display-p3 0.7942 0.2258 0.3300);stroke-opacity:1;"/>
<path d="M12.5 7.50001H7.5V6.85501C7.49934 6.74255 7.521 6.63107 7.56373 6.52704C7.60646 6.423 7.66942 6.32849 7.74894 6.24896C7.82847 6.16943 7.92299 6.10648 8.02702 6.06375C8.13105 6.02101 8.24253 5.99935 8.355 6.00001H11.645C11.7575 5.99935 11.8689 6.02101 11.973 6.06375C12.077 6.10648 12.1715 6.16943 12.2511 6.24896C12.3306 6.32849 12.3935 6.423 12.4363 6.52704C12.479 6.63107 12.5007 6.74255 12.5 6.85501V7.50001ZM14 9.50001V16H6V9.50001C6 9.2348 6.10536 8.98044 6.29289 8.79291C6.48043 8.60537 6.73478 8.50001 7 8.50001H13C13.2652 8.50001 13.5196 8.60537 13.7071 8.79291C13.8946 8.98044 14 9.2348 14 9.50001ZM12.75 11.5H10.75V9.50001H9.25V11.5H7.25V13H9.25V15H10.75V13H12.75V11.5Z" fill="white" style="fill:white;fill:white;fill-opacity:1;"/>
</svg>
