<svg width="20" height="26" viewBox="0 0 20 26" fill="none" xmlns="http://www.w3.org/2000/svg">
<path d="M6.13616 20.3055L6.13478 20.3041C3.79846 17.9183 2.6511 15.987 2.08017 14.3677C1.50968 12.7497 1.5 11.4064 1.5 10.1358C1.5 5.32763 5.32435 1.51557 10 1.50014C14.6756 1.51557 18.5 5.32776 18.5 10.1359C18.5 11.4065 18.4903 12.7498 17.9198 14.3678C17.3489 15.9872 16.2015 17.9184 13.8652 20.3043L13.8638 20.3057L10 24.2826L6.13616 20.3055Z" fill="#6BC9FF" stroke="#54A2CF" style="fill:#6BC9FF;fill:color(display-p3 0.4200 0.7873 1.0000);fill-opacity:1;stroke:#54A2CF;stroke:color(display-p3 0.3292 0.6342 0.8108);stroke-opacity:1;"/>
<path d="M13 16H11.5V14.5H9.5L10 13H11V10H10.43L12.25 6L14.5 11H13.75L15 14.5H13V16ZM10 12V11H5V12H7V16H8V12H10Z" fill="white" style="fill:white;fill:white;fill-opacity:1;"/>
</svg>
