<svg width="20" height="26" viewBox="0 0 20 26" fill="none" xmlns="http://www.w3.org/2000/svg">
<path d="M6.13616 20.3055L6.13478 20.3041C3.79846 17.9183 2.6511 15.987 2.08017 14.3677C1.50968 12.7497 1.5 11.4064 1.5 10.1358C1.5 5.32763 5.32435 1.51557 10 1.50014C14.6756 1.51557 18.5 5.32776 18.5 10.1359C18.5 11.4065 18.4903 12.7498 17.9198 14.3678C17.3489 15.9872 16.2015 17.9184 13.8652 20.3043L13.8638 20.3057L10 24.2826L6.13616 20.3055Z" fill="#C19D95" stroke="#927C77" style="fill:#C19D95;fill:color(display-p3 0.7569 0.6157 0.5843);fill-opacity:1;stroke:#927C77;stroke:color(display-p3 0.5728 0.4866 0.4672);stroke-opacity:1;"/>
<path d="M6.625 6.5C6.625 6.08579 6.96079 5.75 7.375 5.75C7.78921 5.75 8.125 6.08579 8.125 6.5V7.25C8.125 7.66421 7.78921 8 7.375 8C6.96079 8 6.625 7.66421 6.625 7.25V6.5Z" fill="white" style="fill:white;fill:white;fill-opacity:1;"/>
<path d="M8.5 14H10L8.80906 9.83171C8.62612 9.19143 8.0409 8.75 7.375 8.75C6.7091 8.75 6.12388 9.19143 5.94094 9.83171L4.75 14H6.25001V15.875C6.25001 16.0821 6.4179 16.25 6.62501 16.25H8.125C8.33211 16.25 8.5 16.0821 8.5 15.875V14Z" fill="white" style="fill:white;fill:white;fill-opacity:1;"/>
<path d="M12.25 6.5C12.25 6.08579 12.5858 5.75 13 5.75C13.4142 5.75 13.75 6.08579 13.75 6.5V7.25C13.75 7.66421 13.4142 8 13 8C12.5858 8 12.25 7.66421 12.25 7.25V6.5Z" fill="white" style="fill:white;fill:white;fill-opacity:1;"/>
<path d="M11.875 15.875C11.875 16.0821 12.0429 16.25 12.25 16.25H13.75C13.9571 16.25 14.125 16.0821 14.125 15.875V13.25H15.25V9.5C15.25 9.08579 14.9142 8.75 14.5 8.75H11.5C11.0858 8.75 10.75 9.08579 10.75 9.5V13.25H11.875V15.875Z" fill="white" style="fill:white;fill:white;fill-opacity:1;"/>
</svg>
