<svg width="20" height="26" viewBox="0 0 20 26" fill="none" xmlns="http://www.w3.org/2000/svg">
<g id="day / shopping-camping-hiking">
<g id="Marker default (web &#38; mobile)">
<g id="Marker default (web &#38; mobile)_2">
<g id="background">
<path id="Background" d="M10 24.2826L6.13616 20.3055L6.13478 20.3041C3.79846 17.9183 2.6511 15.987 2.08017 14.3677C1.50968 12.7497 1.5 11.4064 1.5 10.1358C1.5 5.32763 5.32435 1.51557 10 1.50014C14.6756 1.51557 18.5 5.32776 18.5 10.1359C18.5 11.4065 18.4903 12.7498 17.9198 14.3678C17.3489 15.9872 16.2015 17.9184 13.8652 20.3043L13.8638 20.3057L10 24.2826Z" fill="#E265A7" stroke="#B34781"/>
</g>
<g id="content">
<g id="Icon">
<path id="Vector" d="M14.335 15L10.5 8.22L11.755 6H10.755L10 7.335L9.25 6H8.25L9.5 8.22L5.675 15H5V16H15V15H14.335ZM10 11.75L11.855 15H8.17L10 11.75Z" fill="white"/>
</g>
</g>
</g>
</g>
</g>
</svg>
