<svg width="20" height="26" viewBox="0 0 20 26" fill="none" xmlns="http://www.w3.org/2000/svg">
<path d="M6.13616 20.3055L6.13478 20.3041C3.79846 17.9183 2.6511 15.987 2.08017 14.3677C1.50968 12.7497 1.5 11.4064 1.5 10.1358C1.5 5.32763 5.32435 1.51557 10 1.50014C14.6756 1.51557 18.5 5.32776 18.5 10.1359C18.5 11.4065 18.4903 12.7498 17.9198 14.3678C17.3489 15.9872 16.2015 17.9184 13.8652 20.3043L13.8638 20.3057L10 24.2826L6.13616 20.3055Z" fill="#E265A7" stroke="#B34781"/>
<path d="M15.1975 10.2495C15.0543 9.2604 14.6317 8.33271 13.9794 7.57547C13.3271 6.81824 12.4722 6.26294 11.5151 5.97482C10.5581 5.68671 9.53874 5.67776 8.5768 5.94902C7.61487 6.22028 6.75035 6.76049 6.08484 7.50615C5.41934 8.25181 4.98051 9.17194 4.81992 10.1584C4.65934 11.1449 4.78367 12.1567 5.1783 13.0749C5.57294 13.9932 6.22148 14.7797 7.04771 15.342C7.87394 15.9044 8.84352 16.2192 9.84251 16.2495C10.048 16.2497 10.2509 16.204 10.4364 16.1158C10.622 16.0276 10.7855 15.899 10.915 15.7395C10.9987 15.6358 11.0533 15.5116 11.073 15.3798C11.0928 15.248 11.0771 15.1133 11.0275 14.9895L10.195 12.8445C10.183 12.7228 10.2009 12.5999 10.2472 12.4867C10.2935 12.3734 10.3669 12.2733 10.4608 12.1949C10.5547 12.1165 10.6664 12.0622 10.7861 12.0369C10.9058 12.0116 11.0299 12.0159 11.1475 12.0495L13.2625 12.642C13.4811 12.7034 13.7108 12.7144 13.9343 12.6742C14.1577 12.6339 14.3691 12.5434 14.5525 12.4095L14.635 12.357C14.8162 12.225 14.9655 12.0541 15.0719 11.8568C15.1783 11.6596 15.2392 11.4409 15.25 11.217C15.2595 10.8936 15.242 10.57 15.1975 10.2495ZM7.75001 13.2495C7.60168 13.2495 7.45667 13.2056 7.33334 13.1231C7.21 13.0407 7.11387 12.9236 7.05711 12.7866C7.00034 12.6495 6.98549 12.4987 7.01443 12.3532C7.04336 12.2077 7.1148 12.0741 7.21968 11.9692C7.32457 11.8643 7.45821 11.7929 7.6037 11.7639C7.74918 11.735 7.89998 11.7499 8.03703 11.8066C8.17407 11.8634 8.29121 11.9595 8.37362 12.0829C8.45603 12.2062 8.50001 12.3512 8.50001 12.4995C8.50001 12.6985 8.421 12.8892 8.28034 13.0299C8.13969 13.1705 7.94893 13.2495 7.75001 13.2495ZM7.75001 10.2495C7.60168 10.2495 7.45667 10.2056 7.33334 10.1231C7.21 10.0407 7.11387 9.92359 7.05711 9.78655C7.00034 9.64951 6.98549 9.49871 7.01443 9.35322C7.04336 9.20773 7.1148 9.0741 7.21968 8.96921C7.32457 8.86432 7.45821 8.79289 7.6037 8.76395C7.74918 8.73501 7.89998 8.74986 8.03703 8.80663C8.17407 8.86339 8.29121 8.95952 8.37362 9.08286C8.45603 9.2062 8.50001 9.3512 8.50001 9.49954C8.50001 9.69845 8.421 9.88922 8.28034 10.0299C8.13969 10.1705 7.94893 10.2495 7.75001 10.2495ZM10 8.74954C9.85168 8.74954 9.70667 8.70555 9.58334 8.62314C9.46 8.54073 9.36387 8.4236 9.3071 8.28655C9.25034 8.14951 9.23549 7.99871 9.26443 7.85322C9.29336 7.70774 9.3648 7.5741 9.46968 7.46921C9.57457 7.36432 9.70821 7.29289 9.8537 7.26395C9.99918 7.23501 10.15 7.24986 10.287 7.30663C10.4241 7.36339 10.5412 7.45952 10.6236 7.58286C10.706 7.7062 10.75 7.8512 10.75 7.99954C10.75 8.19845 10.671 8.38922 10.5303 8.52987C10.3897 8.67052 10.1989 8.74954 10 8.74954ZM12.25 10.2495C12.1017 10.2495 11.9567 10.2056 11.8333 10.1231C11.71 10.0407 11.6139 9.92359 11.5571 9.78655C11.5003 9.64951 11.4855 9.49871 11.5144 9.35322C11.5434 9.20773 11.6148 9.0741 11.7197 8.96921C11.8246 8.86432 11.9582 8.79289 12.1037 8.76395C12.2492 8.73501 12.4 8.74986 12.537 8.80663C12.6741 8.86339 12.7912 8.95952 12.8736 9.08286C12.956 9.2062 13 9.3512 13 9.49954C13 9.69845 12.921 9.88922 12.7803 10.0299C12.6397 10.1705 12.4489 10.2495 12.25 10.2495Z" fill="white"/>
</svg>
