<svg width="20" height="26" viewBox="0 0 20 26" fill="none" xmlns="http://www.w3.org/2000/svg">
<path d="M10 1.5C14.6756 1.51543 18.4999 5.32767 18.5 10.1357C18.5 11.4064 18.4904 12.7501 17.9199 14.3682C17.349 15.9874 16.2014 17.919 13.8652 20.3047L13.8643 20.3057L10 24.2822L6.13574 20.3057L6.13477 20.3037C3.79877 17.9181 2.65104 15.9874 2.08008 14.3682C1.50959 12.7501 1.5 11.4064 1.5 10.1357C1.50002 5.32762 5.32436 1.51543 10 1.5Z" fill="#45BF94" stroke="#2E9975"/>
<path d="M6.27107 7.27004C7.1085 6.43261 8.15858 5.93751 9.24745 5.78418C9.02546 7.36108 9.52056 9.01966 10.7333 10.2324L10.9291 10.4189C12.1208 11.4956 13.6875 11.9279 15.181 11.7178C15.0278 12.8068 14.5332 13.8571 13.6957 14.6947C12.8578 15.5325 11.8072 16.028 10.7178 16.181C10.9284 14.6871 10.497 13.1202 9.41991 11.928L9.23346 11.7323C8.02054 10.5194 6.36183 10.0248 4.7847 10.2469C4.93791 9.15783 5.4335 8.10764 6.27107 7.27004ZM4.75 11.392C6.04532 11.1467 7.43545 11.5253 8.43797 12.5278C9.44038 13.5302 9.81832 14.92 9.57321 16.2152C8.36948 16.1214 7.19175 15.6153 6.27107 14.6947C5.35025 13.7738 4.84369 12.5959 4.75 11.392ZM10.393 5.75C11.597 5.84368 12.7749 6.34921 13.6957 7.27004C14.6165 8.19087 15.122 9.36875 15.2157 10.5727C13.9207 10.8175 12.531 10.4391 11.5288 9.43693C10.5266 8.43471 10.1482 7.04498 10.393 5.75Z" fill="white"/>
</svg>
