<svg width="20" height="26" viewBox="0 0 20 26" fill="none" xmlns="http://www.w3.org/2000/svg">
<path d="M6.13616 20.3055L6.13478 20.3041C3.79846 17.9183 2.6511 15.987 2.08017 14.3677C1.50968 12.7497 1.5 11.4064 1.5 10.1358C1.5 5.32763 5.32435 1.51557 10 1.50014C14.6756 1.51557 18.5 5.32776 18.5 10.1359C18.5 11.4065 18.4903 12.7498 17.9198 14.3678C17.3489 15.9872 16.2015 17.9184 13.8652 20.3043L13.8638 20.3057L10 24.2826L6.13616 20.3055Z" fill="#667285" stroke="#4A5059" style="fill:#667285;fill:color(display-p3 0.4002 0.4480 0.5198);fill-opacity:1;stroke:#4A5059;stroke:color(display-p3 0.2912 0.3142 0.3488);stroke-opacity:1;"/>
<path fill-rule="evenodd" clip-rule="evenodd" d="M5.5 7.4375V12.5H10.5625V7.4375H10.75C11.2678 7.4375 11.6875 7.85723 11.6875 8.375V8.75H12.7988C13.3935 8.75 13.9138 9.14977 14.067 9.72432L14.5269 11.4489C14.9497 11.6107 15.25 12.0203 15.25 12.5V12.6788L15.25 12.6875L15.25 14.375H14.5C14.5 14.9963 13.9963 15.5 13.375 15.5C12.7537 15.5 12.25 14.9963 12.25 14.375H10.375C10.375 14.9963 9.87132 15.5 9.25 15.5C8.62868 15.5 8.125 14.9963 8.125 14.375H7.75C7.75 14.9963 7.24632 15.5 6.625 15.5C6.00368 15.5 5.5 14.9963 5.5 14.375L4.75 14.375V8.1875C4.75 7.77329 5.08579 7.4375 5.5 7.4375ZM12.98 10.0142L13.3429 11.375H11.6875V9.875H12.7988C12.8838 9.875 12.9581 9.93211 12.98 10.0142Z" fill="white" style="fill:white;fill:white;fill-opacity:1;"/>
<path fill-rule="evenodd" clip-rule="evenodd" d="M7.5625 8.75H9.25052C9.45762 8.75 9.625 8.58211 9.625 8.375V6.125C9.625 5.91789 9.45802 5.75 9.25092 5.75H6.625L6.62507 10.25H7.5625V8.75ZM7.5625 6.6875H8.6875V7.8125H7.5625V6.6875Z" fill="white" style="fill:white;fill:white;fill-opacity:1;"/>
</svg>
