<svg width="20" height="26" viewBox="0 0 20 26" fill="none" xmlns="http://www.w3.org/2000/svg">
<path d="M6.13616 20.3055L6.13478 20.3041C3.79846 17.9183 2.6511 15.987 2.08017 14.3677C1.50968 12.7497 1.5 11.4064 1.5 10.1358C1.5 5.32763 5.32435 1.51557 10 1.50014C14.6756 1.51557 18.5 5.32776 18.5 10.1359C18.5 11.4065 18.4903 12.7498 17.9198 14.3678C17.3489 15.9872 16.2015 17.9184 13.8652 20.3043L13.8638 20.3057L10 24.2826L6.13616 20.3055Z" fill="#C19D95" stroke="#927C77" style="fill:#C19D95;fill:color(display-p3 0.7569 0.6157 0.5843);fill-opacity:1;stroke:#927C77;stroke:color(display-p3 0.5728 0.4866 0.4672);stroke-opacity:1;"/>
<path d="M6.035 16H5V10.2C5 7.59 7.245 6 10 6C12.755 6 15 7.59 15 10.2V16H13.965L13.5 15.59V10.29C13.5 8.43 11.74 7.595 10 7.595C8.26 7.595 6.5 8.43 6.5 10.29V15.59L6.035 16ZM10 9.5C8.895 9.5 8 10.175 8 11.28V14.28L9 13.395V11.295C9 10.535 9.835 10.5 10 10.5C10.165 10.5 11 10.535 11 11.28V13.38L12 14.265V11.265C12 10.175 11.105 9.5 10 9.5Z" fill="white" style="fill:white;fill:white;fill-opacity:1;"/>
</svg>
