<svg width="20" height="26" viewBox="0 0 20 26" fill="none" xmlns="http://www.w3.org/2000/svg">
<path d="M6.13616 20.3055L6.13478 20.3041C3.79846 17.9183 2.6511 15.987 2.08017 14.3677C1.50968 12.7497 1.5 11.4064 1.5 10.1358C1.5 5.32763 5.32435 1.51557 10 1.50014C14.6756 1.51557 18.5 5.32776 18.5 10.1359C18.5 11.4065 18.4903 12.7498 17.9198 14.3678C17.3489 15.9872 16.2015 17.9184 13.8652 20.3043L13.8638 20.3057L10 24.2826L6.13616 20.3055Z" fill="#667285" stroke="#4A5059" style="fill:#667285;fill:color(display-p3 0.4002 0.4480 0.5198);fill-opacity:1;stroke:#4A5059;stroke:color(display-p3 0.2912 0.3142 0.3488);stroke-opacity:1;"/>
<path fill-rule="evenodd" clip-rule="evenodd" d="M5.6875 5.75C5.16973 5.75 4.75 6.16973 4.75 6.6875V11.375H5.5C5.5 11.9963 6.00368 12.5 6.625 12.5C7.24632 12.5 7.75 11.9963 7.75 11.375H8.125C8.125 11.9963 8.62868 12.5 9.25 12.5C9.87132 12.5 10.375 11.9963 10.375 11.375H12.25C12.25 11.9963 12.7537 12.5 13.375 12.5C13.9963 12.5 14.5 11.9963 14.5 11.375H15.25V9.6875C15.25 9.2162 14.9602 8.81259 14.549 8.64516L14.0832 7.36396C13.8945 6.84528 13.4016 6.5 12.8497 6.5H11.6687C11.5819 6.07208 11.2036 5.75 10.75 5.75H5.6875ZM5.5 9.875V6.875H10.5625V9.875H5.5ZM13.5265 9.125H11.6875V7.625H12.8497C12.9285 7.625 12.9989 7.67432 13.0259 7.74842L13.5265 9.125Z" fill="white" style="fill:white;fill:white;fill-opacity:1;"/>
<path d="M15.25 13.25H4.75V14H6.8125V14.75H5.5L7.375 16.25L9.25 14.75H7.9375V14H12.0625V14.75H10.75L12.625 16.25L14.5 14.75H13.1875V14H15.25V13.25Z" fill="white" style="fill:white;fill:white;fill-opacity:1;"/>
</svg>
