<svg width="30" height="30" viewBox="0 0 30 30" fill="none" xmlns="http://www.w3.org/2000/svg">
<circle cx="15" cy="15" r="13" fill="#9C2C32"/>
<circle cx="15" cy="15" r="10" fill="#97999E"/>
<path d="M24.4129 22.7346L7.09033 5.41211L5.41309 7.08935L22.7356 24.4119L24.4129 22.7346Z" fill="#9C2C32"/>
<path d="M10 19H20V8.776C20 8.483 19.547 8 19.178 8L10.821 8.008C10.44 8.008 10.008 8.446 10.008 8.747L10 19Z" fill="#3A3C4A"/>
<path d="M11 9V18H19V9H11Z" fill="#8C670A"/>
<path d="M9 18V19H21V18H9Z" fill="#3A3C4A"/>
<path d="M15 23C15.5523 23 16 22.3284 16 21.5C16 20.6716 15.5523 20 15 20C14.4477 20 14 20.6716 14 21.5C14 22.3284 14.4477 23 15 23Z" fill="#3A3C4A"/>
<path d="M11 20H10V23H11V20Z" fill="#3A3C4A"/>
<path d="M13 20H12V23H13V20Z" fill="#3A3C4A"/>
<path d="M20 20H19V23H20V20Z" fill="#3A3C4A"/>
<path d="M18 20H17V23H18V20Z" fill="#3A3C4A"/>
<path d="M19 21H11V22H19V21Z" fill="#3A3C4A"/>
<path d="M16.0578 13.4773C16.5069 13.5607 16.8694 13.7243 17.1453 13.9681C17.4276 14.2055 17.5687 14.5712 17.5687 15.0652C17.5687 15.7646 17.3185 16.2618 16.8181 16.5569C16.3176 16.8521 15.6215 16.9996 14.7297 16.9996H12.6509V10.3398H14.4698C15.3809 10.3398 16.077 10.4746 16.5582 10.7441C17.0394 11.0135 17.28 11.4466 17.28 12.0433C17.28 12.4347 17.1613 12.7523 16.9239 12.9961C16.693 13.2335 16.4042 13.3939 16.0578 13.4773ZM14.0656 11.36V13.0442H14.7585C15.105 13.0442 15.3713 12.9736 15.5573 12.8325C15.7434 12.6849 15.8364 12.4635 15.8364 12.1684C15.8364 11.8733 15.737 11.6647 15.5381 11.5428C15.3392 11.4209 15.028 11.36 14.6046 11.36H14.0656ZM14.7393 15.9506C15.182 15.9506 15.5188 15.8865 15.7498 15.7582C15.9808 15.6234 16.0963 15.3732 16.0963 15.0075C16.0963 14.3402 15.6856 14.0066 14.8644 14.0066H14.0656V15.9506H14.7393Z" fill="#3A3C4A"/>
</svg>
