<svg width="30" height="30" viewBox="0 0 30 30" fill="none" xmlns="http://www.w3.org/2000/svg">
<path d="M14.9996 1L29 15.0004L15.0004 29L1 14.9996L14.9996 1Z" fill="#333333"/>
<path d="M27.5 15L15 27.5L2.5 15L15 2.5L27.5 15Z" fill="#F7FA19"/>
<path d="M14.8157 15.5137C15.1773 15.5137 15.4925 15.5757 15.7612 15.6997C16.0298 15.8185 16.2365 15.9838 16.3812 16.1957C16.5258 16.4023 16.5982 16.6297 16.5982 16.8777C16.5982 17.2083 16.5 17.4822 16.3037 17.6992C16.1125 17.9162 15.849 18.066 15.5132 18.1487C15.9007 18.1952 16.2081 18.3295 16.4354 18.5517C16.6628 18.7687 16.7764 19.0787 16.7764 19.4817C16.7764 19.7865 16.6912 20.0655 16.5207 20.3187C16.3553 20.5667 16.1177 20.763 15.8077 20.9077C15.4977 21.0523 15.1412 21.1247 14.7382 21.1247C14.361 21.1247 14.0148 21.0575 13.6997 20.9232C13.3897 20.7888 13.1262 20.5925 12.9092 20.3342L13.5214 19.7684C13.8573 20.1043 14.2422 20.2722 14.6762 20.2722C14.9707 20.2722 15.2058 20.1973 15.3814 20.0474C15.5571 19.8976 15.6449 19.6883 15.6449 19.4197C15.6449 18.8513 15.3246 18.5672 14.6839 18.5672H14.1879L14.3119 17.7922H14.6684C14.9268 17.7922 15.1334 17.7302 15.2884 17.6062C15.4486 17.477 15.5287 17.291 15.5287 17.0482C15.5287 16.826 15.4512 16.6529 15.2962 16.5289C15.1412 16.3998 14.9423 16.3352 14.6994 16.3352C14.4876 16.3352 14.2938 16.3765 14.1182 16.4592C13.9477 16.5367 13.7798 16.6555 13.6144 16.8157L13.0409 16.2112C13.5369 15.7462 14.1285 15.5137 14.8157 15.5137Z" fill="#333333"/>
<path d="M11.25 20.375C11.25 20.7188 10.9688 21 10.625 21H9.375C9.03125 21 8.75 20.7188 8.75 20.375V16.625C8.75 16.2812 9.03125 16 9.375 16H10.625C10.9688 16 11.25 16.2812 11.25 16.625V20.375Z" fill="#333333"/>
<path d="M21.25 20.375C21.25 20.7188 20.9688 21 20.625 21H19.375C19.0312 21 18.75 20.7188 18.75 20.375V16.625C18.75 16.2812 19.0312 16 19.375 16H20.625C20.9688 16 21.25 16.2812 21.25 16.625V20.375Z" fill="#333333"/>
<path d="M12.5 18H11V19H12.5V18Z" fill="#333333"/>
<path d="M19 18H17.5V19H19V18Z" fill="#333333"/>
</svg>
