<svg width="19" height="14" viewBox="0 0 19 14" fill="none" xmlns="http://www.w3.org/2000/svg">
<rect width="19" height="14" rx="2" fill="#d5d5d5" fill-opacity="0.75"/>
<path d="M9.33652 5.42202C9.33652 4.51202 9.02652 3.81502 8.41752 3.34902C7.82552 2.89602 6.98552 2.66602 5.92052 2.66602H3.54852V11.334H5.08852V8.29802H5.93252C6.94052 8.29802 7.76452 8.06202 8.38052 7.59802C9.01552 7.12002 9.33652 6.38802 9.33652 5.42202ZM5.08852 3.95402H5.90852C6.50852 3.95402 6.97052 4.07402 7.28152 4.31002C7.57952 4.53702 7.72452 4.90702 7.72452 5.44002C7.72452 6.03602 7.57652 6.44802 7.28452 6.66502C6.97252 6.89402 6.50152 7.01002 5.88452 7.01002H5.08852V3.95402Z" fill="#282828"/>
<path d="M13.6835 2.66602H11.9525L9.17151 11.334H10.7465L11.3705 9.25802H14.2055L14.8295 11.334H16.4515L13.7275 2.80502L13.6835 2.66602ZM13.8085 7.93402H11.7655L12.7915 4.51302L13.8085 7.93402Z" fill="#282828"/>
</svg>
