<svg width="24" height="14" viewBox="0 0 24 14" fill="none" xmlns="http://www.w3.org/2000/svg">
<rect width="24" height="14" rx="2" fill="#d5d5d5" fill-opacity="0.75"/>
<path d="M4.64601 9.71112C4.64601 10.0731 4.61301 10.3681 4.54601 10.5891C4.48501 10.7911 4.37601 10.9661 4.21901 11.1101C4.05501 11.2601 3.79501 11.4041 3.44901 11.5391L3.26801 11.6091L3.70401 12.8141L3.88801 12.7551C4.64801 12.5131 5.22601 12.1711 5.60401 11.7361C5.99201 11.2931 6.18801 10.6311 6.18801 9.76913V2.45312H4.64801V9.71112H4.64601Z" fill="#282828"/>
<path d="M12.925 9.37341C12.642 9.58041 12.371 9.74241 12.12 9.85641C11.883 9.96441 11.599 10.0184 11.278 10.0184C10.649 10.0184 10.159 9.78641 9.77904 9.30741C9.39404 8.82241 9.19904 8.04241 9.19904 6.99041C9.19904 5.90941 9.39504 5.12041 9.78304 4.64641C10.167 4.17841 10.66 3.95041 11.291 3.95041C11.802 3.95041 12.296 4.14141 12.761 4.51741L12.913 4.64141L13.792 3.60141L13.641 3.47241C13.273 3.15641 12.905 2.92441 12.546 2.78241C12.185 2.63841 11.738 2.56641 11.219 2.56641C10.544 2.56641 9.92304 2.73941 9.37304 3.08141C8.82204 3.42541 8.38204 3.93741 8.06304 4.60341C7.74704 5.26141 7.58704 6.06041 7.58704 6.97941C7.58704 7.89641 7.74004 8.69541 8.04304 9.35241C8.35004 10.0194 8.78704 10.5344 9.34304 10.8824C9.89704 11.2284 10.536 11.4034 11.243 11.4034C11.788 11.4034 12.28 11.3064 12.705 11.1144C13.128 10.9234 13.48 10.6804 13.752 10.3924L13.87 10.2674L13.081 9.25941L12.925 9.37341Z" fill="#282828"/>
<path d="M14.403 4.11937H16.755V11.4034H18.295V4.11937H20.563L20.732 2.73438H14.403V4.11937Z" fill="#282828"/>
</svg>
