<svg width="48" height="14" viewBox="0 0 48 14" fill="none" xmlns="http://www.w3.org/2000/svg">
<rect width="48" height="14" rx="2" fill="#d5d5d5" fill-opacity="0.75"/>
<path d="M7.71199 6.58395C7.35899 6.39795 6.91199 6.22195 6.37899 6.05995C5.89499 5.91795 5.52499 5.78195 5.27799 5.65695C5.05299 5.54395 4.90099 5.42395 4.82499 5.29895C4.74899 5.17295 4.70999 5.01095 4.70999 4.81895C4.70999 4.51695 4.81899 4.29495 5.04399 4.13995C5.28899 3.97195 5.60899 3.88695 5.99799 3.88695C6.31499 3.88695 6.61599 3.94095 6.89199 4.04795C7.17099 4.15495 7.46299 4.32895 7.75699 4.56395L7.90499 4.68095L8.78499 3.69895L8.64199 3.56395C8.25799 3.20595 7.85499 2.93595 7.44299 2.76395C7.02899 2.59095 6.52599 2.50195 5.94999 2.50195C5.41899 2.50195 4.93699 2.59995 4.51699 2.79295C4.08999 2.98795 3.75199 3.26595 3.50999 3.61995C3.26799 3.97495 3.14599 4.38295 3.14599 4.83195C3.14599 5.49595 3.36599 6.03095 3.79899 6.42295C4.21099 6.79695 4.86299 7.11795 5.73699 7.37795C6.20099 7.51295 6.55599 7.64795 6.79499 7.77895C7.01499 7.90095 7.16999 8.03395 7.25399 8.17695C7.33899 8.31795 7.38199 8.50395 7.38199 8.72895C7.38199 9.12895 7.24399 9.42295 6.96099 9.62795C6.66099 9.84495 6.27299 9.95495 5.80699 9.95495C5.41099 9.95495 5.04799 9.88995 4.72999 9.75995C4.40399 9.62695 4.07799 9.42895 3.75899 9.17095L3.61199 9.05095L2.73499 10.028L2.86699 10.162C3.63099 10.942 4.62399 11.338 5.81799 11.338C6.45199 11.338 7.01099 11.228 7.47999 11.012C7.95699 10.792 8.32799 10.481 8.58399 10.088C8.83999 9.69395 8.96999 9.23495 8.96999 8.72495C8.96999 8.19895 8.85199 7.75395 8.61799 7.40195C8.38799 7.05595 8.08399 6.78095 7.71199 6.58395Z" fill="#282828"/>
<path d="M16.702 4.44531C16.257 4.44531 15.863 4.55531 15.531 4.77231C15.294 4.92731 15.071 5.13331 14.864 5.38731C14.733 5.14331 14.558 4.94131 14.342 4.78331C14.032 4.55931 13.655 4.44531 13.223 4.44531C12.568 4.44531 12.005 4.70431 11.545 5.21631L11.482 4.61331H10.155V11.3383H11.659V6.70931C11.877 6.37531 12.083 6.12331 12.273 5.96231C12.454 5.80831 12.673 5.73431 12.947 5.73431C13.135 5.73431 13.635 5.73431 13.635 6.75831V11.3383H15.14V6.70931C15.364 6.36831 15.574 6.11531 15.763 5.95731C15.944 5.80731 16.161 5.73331 16.427 5.73331C16.747 5.73331 17.115 5.84931 17.115 6.75731V11.3373H18.619V6.58531C18.619 5.94231 18.444 5.42131 18.1 5.03731C17.75 4.64431 17.279 4.44531 16.702 4.44531Z" fill="#282828"/>
<path d="M22.438 4.44531C21.746 4.44531 20.988 4.59231 20.186 4.88331L20.001 4.95031L20.404 6.12131L20.592 6.05831C21.827 5.64631 22.725 5.63931 23.097 5.96531C23.267 6.11231 23.353 6.37831 23.353 6.75431V7.01231H22.582C21.655 7.01231 20.923 7.20331 20.405 7.58131C19.869 7.97231 19.597 8.53831 19.597 9.26331C19.597 9.87531 19.799 10.3793 20.199 10.7623C20.595 11.1433 21.138 11.3373 21.813 11.3373C22.49 11.3373 23.044 11.1743 23.467 10.8513L23.516 11.3373H24.857V6.75331C24.857 6.02631 24.651 5.45431 24.246 5.05131C23.841 4.64831 23.233 4.44531 22.438 4.44531ZM23.354 8.14631V9.29431C23.033 9.83531 22.611 10.0983 22.066 10.0983C21.763 10.0983 21.537 10.0253 21.392 9.87931C21.247 9.73431 21.174 9.50431 21.174 9.19831C21.174 8.74731 21.335 8.14731 22.726 8.14731H23.354V8.14631Z" fill="#282828"/>
<path d="M29.066 4.44531C28.634 4.44531 28.252 4.58731 27.927 4.86631C27.773 4.99931 27.634 5.16131 27.511 5.35231L27.448 4.61331H26.117V11.3383H27.621L27.616 7.48831C27.744 6.90131 27.921 6.46731 28.14 6.19831C28.437 5.83231 28.891 5.76031 29.437 5.89631L29.639 5.94631L29.924 4.56031L29.734 4.51731C29.529 4.46931 29.304 4.44531 29.066 4.44531Z" fill="#282828"/>
<path d="M34.279 9.8213C33.726 10.1193 33.261 10.1003 33.108 9.9073C33.023 9.8023 32.978 9.6043 32.978 9.3353V5.8543H34.333L34.508 4.6133H32.978V3.0293L31.473 3.2083V4.6133H30.37V5.8543H31.474V9.3803C31.474 10.0023 31.645 10.4893 31.983 10.8283C32.32 11.1663 32.79 11.3383 33.379 11.3383C33.945 11.3383 34.459 11.1853 34.906 10.8833L35.062 10.7783L34.449 9.7303L34.279 9.8213Z" fill="#282828"/>
<path d="M37.893 2.58008H36.353V11.3391H37.893V2.58008Z" fill="#282828"/>
<path d="M44.319 9.30895C44.036 9.51595 43.765 9.67795 43.514 9.79195C43.278 9.89995 42.994 9.95395 42.673 9.95395C42.043 9.95395 41.553 9.72195 41.173 9.24295C40.788 8.75795 40.593 7.97795 40.593 6.92595C40.593 5.84495 40.789 5.05595 41.177 4.58195C41.561 4.11395 42.054 3.88595 42.685 3.88595C43.196 3.88595 43.69 4.07695 44.155 4.45295L44.307 4.57695L45.185 3.53695L45.036 3.40795C44.669 3.09195 44.301 2.85895 43.941 2.71795C43.579 2.57395 43.131 2.50195 42.613 2.50195C41.938 2.50195 41.317 2.67495 40.768 3.01695C40.216 3.35995 39.776 3.87195 39.456 4.53795C39.141 5.19795 38.98 5.99695 38.98 6.91295C38.98 7.83095 39.134 8.62895 39.437 9.28595C39.745 9.95395 40.181 10.469 40.736 10.816C41.29 11.162 41.929 11.337 42.636 11.337C43.181 11.337 43.673 11.24 44.098 11.048C44.52 10.858 44.872 10.615 45.146 10.327L45.264 10.202L44.474 9.19395L44.319 9.30895Z" fill="#282828"/>
</svg>
