<svg width="21" height="21" viewBox="0 0 21 21" fill="none" xmlns="http://www.w3.org/2000/svg">
<path d="M8.8 0C7.2536 0 6 1.17525 6 2.625V18.375C6 19.8247 7.2536 21 8.8 21H12.5333C14.0797 21 15.3333 19.8247 15.3333 18.375V2.625C15.3333 1.17525 14.0797 0 12.5333 0H8.8Z" fill="#2F2F2F"/>
<path d="M10.6668 18.6667C11.9555 18.6667 13.0001 17.622 13.0001 16.3333C13.0001 15.0447 11.9555 14 10.6668 14C9.37813 14 8.33347 15.0447 8.33347 16.3333C8.33347 17.622 9.37813 18.6667 10.6668 18.6667Z" fill="#ABABAB"/>
<path d="M10.6668 12.8327C11.9555 12.8327 13.0001 11.788 13.0001 10.4993C13.0001 9.21068 11.9555 8.16602 10.6668 8.16602C9.37813 8.16602 8.33347 9.21068 8.33347 10.4993C8.33347 11.788 9.37813 12.8327 10.6668 12.8327Z" fill="#ABABAB"/>
<path d="M10.6668 7.00064C11.9555 7.00064 13.0001 5.95598 13.0001 4.66731C13.0001 3.37865 11.9555 2.33398 10.6668 2.33398C9.37813 2.33398 8.33347 3.37865 8.33347 4.66731C8.33347 5.95598 9.37813 7.00064 10.6668 7.00064Z" fill="#ABABAB"/>
</svg>
