<svg width="17" height="23" viewBox="0 0 17 23" fill="none" xmlns="http://www.w3.org/2000/svg">
<g id="day / canada_a_SK_02">
<g id="canada_a_base">
<g id="stretchable-items">
<path id="shape01" d="M15.5 19.5C15.5 20.6046 14.6046 21.5 13.5 21.5L3.5 21.5C2.39543 21.5 1.5 20.6046 1.5 19.5L1.5 3.5C1.5 2.39543 2.39543 1.5 3.5 1.5L13.5 1.5C14.6046 1.5 15.5 2.39543 15.5 3.5L15.5 19.5Z" fill="white" stroke="#53C2AE" stroke-linejoin="round"/>
<path id="shape02" d="M1.5 10H15.5V11H1.5V10Z" fill="#53C2AE"/>
</g>
<g id="non-stretchable-items">
<g id="SK">
<g id="shape01_2">
<path d="M8.48682 3.00001C6.49341 3.0044 5 4.0044 5 6C5 6.77735 11.9693 6.77397 11.9693 6C11.9693 4.0044 10.4777 3.0044 8.48682 3.00001Z" fill="#53C2AE"/>
<path d="M6.22363 9.00004L7 6.83337C7 6.83337 7.68392 6.90388 8.40932 6.90388C9.13473 6.90388 10 6.83337 10 6.83337L10.7236 9.00004H6.22363Z" fill="#53C2AE"/>
</g>
</g>
</g>
</g>
</g>
</svg>
