<svg width="21" height="19" viewBox="0 0 21 19" fill="none" xmlns="http://www.w3.org/2000/svg">
<g id="day / detailedshield_g_01">
<g id="detailedshield_g_base">
<g id="stretchable-items">
<path id="shape01" d="M3.34967 1.5C4.48916 2.49315 8.27246 3.13752 10.5 1.5C12.7275 3.13752 16.5108 2.49315 17.6503 1.5L19.5 2.75V5.33334C18.9345 5.46424 18 5.99772 18 7.31754C18 8.49666 18.5975 9.05822 19.4881 9.43711C19.1505 15.5675 11.7524 17.5 10.5 17.5C9.24755 17.5 1.84946 15.5675 1.51193 9.43711C2.40245 9.05822 3 8.49666 3 7.31754C3 5.99772 2.06551 5.46424 1.5 5.33334V2.75L3.34967 1.5Z" fill="white" stroke="#888B8F" stroke-linejoin="round"/>
<g id="shape02">
<path d="M3.34967 1.5C4.48916 2.49315 8.27246 3.13752 10.5 1.5C12.7275 3.13752 16.5108 2.49315 17.6503 1.5L19.5 2.75V5.33334C19.2304 5.39573 18.8771 5.54959 18.581 5.83647H2.41899C2.12293 5.54959 1.76955 5.39573 1.5 5.33334V2.75L3.34967 1.5Z" fill="white"/>
<path d="M7.125 2.50658C9.375 2.50658 10.5 1.5 10.5 1.5M10.5 1.5C10.5 1.5 11.625 2.50658 13.875 2.50658M10.5 1.5C8.27246 3.13752 4.48916 2.49315 3.34967 1.5L1.5 2.75V5.33334C1.76955 5.39573 2.12293 5.54959 2.41899 5.83647H18.581C18.8771 5.54959 19.2304 5.39573 19.5 5.33334V2.75L17.6503 1.5C16.5108 2.49315 12.7275 3.13752 10.5 1.5Z" stroke="#888B8F" stroke-linejoin="round"/>
</g>
</g>
</g>
</g>
</svg>
