<svg width="21" height="20" viewBox="0 0 21 20" fill="none" xmlns="http://www.w3.org/2000/svg">
<g id="day / usa_e_CA_01">
<g id="usa_e_base">
<g id="stretchable-items">
<g id="CA">
<path id="shape01" d="M19.5 14.5901L19.5 11.8889C19.5001 6.67024 14.7906 1.5 10.5137 1.5C6.23684 1.5 1.52756 6.67024 1.52756 11.8889C1.50373 13.1871 1.49822 13.8629 1.50046 14.6681C1.50385 15.8882 2.21022 17.0146 3.48929 17.4424C5.00452 17.9492 7.37374 18.5 10.5137 18.5C13.5972 18.5 15.9373 17.9688 17.4555 17.4699C18.7824 17.0337 19.5 15.8533 19.5 14.5901Z" fill="#53C2AE" stroke="white" stroke-linejoin="round"/>
</g>
</g>
<g id="non-stretchable-items">
<g id="CA_2">
<g id="shape01_2">
<path d="M9.33687 4.21289C9.55354 4.21289 9.74187 4.24456 9.90188 4.30789C10.0619 4.36789 10.2185 4.46122 10.3719 4.58789L10.0069 5.01289C9.80688 4.84956 9.59687 4.76789 9.37687 4.76789C9.13021 4.76789 8.93354 4.86956 8.78688 5.07289C8.64354 5.27289 8.57188 5.58789 8.57188 6.01789C8.57188 6.43789 8.64354 6.74956 8.78688 6.95289C8.93354 7.15289 9.13187 7.25289 9.38188 7.25289C9.51188 7.25289 9.63021 7.22956 9.73688 7.18289C9.84354 7.13289 9.95521 7.06289 10.0719 6.97289L10.4119 7.39789C10.2885 7.52456 10.1352 7.62956 9.95187 7.71289C9.77188 7.79289 9.57188 7.83289 9.35188 7.83289C9.04188 7.83289 8.77021 7.76289 8.53688 7.62289C8.30354 7.48289 8.12188 7.27789 7.99188 7.00789C7.86188 6.73456 7.79688 6.40456 7.79688 6.01789C7.79688 5.64122 7.86354 5.31789 7.99688 5.04789C8.13021 4.77456 8.31354 4.56789 8.54688 4.42789C8.78021 4.28456 9.04354 4.21289 9.33687 4.21289Z" fill="white"/>
<path d="M12.4633 6.97789H11.3783L11.1833 7.75289H10.4183L11.4833 4.29289H12.3783L13.4383 7.75289H12.6583L12.4633 6.97789ZM12.3233 6.43289L11.9183 4.83789L11.5183 6.43289H12.3233Z" fill="white"/>
</g>
</g>
</g>
</g>
</g>
</svg>
