<svg width="30" height="30" viewBox="0 0 30 30" fill="none" xmlns="http://www.w3.org/2000/svg">
<circle cx="15" cy="15" r="13" fill="#E1BDBD"/>
<circle cx="15" cy="15" r="10" fill="#EBEBEB"/>
<path d="M23.2111 13.2199C22.8221 11.4165 21.854 9.82852 20.5111 8.66016H18.4795V13.9799H19.2395V13.2199H19.9994V12.46H21.5193V13.2199H22.2793V13.9799H23.0393V13.2199H23.2111Z" fill="#999999"/>
<path d="M21.5019 14.3606C21.5019 14.5696 21.3309 14.7406 21.1219 14.7406H20.3619C20.1529 14.7406 19.9819 14.5696 19.9819 14.3606V13.6007C19.9819 13.3917 20.1529 13.2207 20.3619 13.2207H21.1219C21.3309 13.2207 21.5019 13.3917 21.5019 13.6007V14.3606Z" fill="#999999"/>
<path d="M18.6395 13.2207H17.144V13.9807L18.6395 13.9807V13.2207Z" fill="#999999"/>
<path d="M10.8427 14.3606C10.8427 14.5696 10.6717 14.7406 10.4627 14.7406H9.70274C9.49375 14.7406 9.32275 14.5696 9.32275 14.3606V13.6007C9.32275 13.3917 9.49375 13.2207 9.70274 13.2207H10.4627C10.6717 13.2207 10.8427 13.3917 10.8427 13.6007V14.3606Z" fill="#999999"/>
<path d="M11.6026 8.66016V11.7H10.8426V9.42012H8.5627L7.80273 10.94V13.9799H8.5627V13.2199H9.32266V12.46H10.8426V13.2199H11.6026V13.9799L13.8897 13.9799V13.2199H14.6497V12.46H16.1696V13.2199H16.9296V13.9799H17.6895V8.66016L11.6026 8.66016ZM10.0826 11.7H8.24199L8.95484 10.1801H10.0826V11.7Z" fill="#999999"/>
<path d="M16.1737 14.3606C16.1737 14.5696 16.0027 14.7406 15.7938 14.7406H15.0338C14.8248 14.7406 14.6538 14.5696 14.6538 14.3606V13.6007C14.6538 13.3917 14.8248 13.2207 15.0338 13.2207H15.7938C16.0027 13.2207 16.1737 13.3917 16.1737 13.6007V14.3606Z" fill="#999999"/>
</svg>
