<svg width="30" height="30" viewBox="0 0 30 30" fill="none" xmlns="http://www.w3.org/2000/svg">
<circle cx="15" cy="15" r="13" fill="#E1BDBD"/>
<circle cx="15" cy="15" r="10" fill="#EBEBEB"/>
<path d="M24.4129 22.7346L7.09033 5.41211L5.41309 7.08935L22.7356 24.4119L24.4129 22.7346Z" fill="#E1BDBD"/>
<path d="M10 19H20V8.776C20 8.483 19.547 8 19.178 8L10.821 8.008C10.44 8.008 10.008 8.446 10.008 8.747L10 19Z" fill="#999999"/>
<path d="M11 9V18H19V9H11Z" fill="#CCBAA9"/>
<path d="M9 18V19H21V18H9Z" fill="#999999"/>
<path d="M15 23C15.5523 23 16 22.3284 16 21.5C16 20.6716 15.5523 20 15 20C14.4477 20 14 20.6716 14 21.5C14 22.3284 14.4477 23 15 23Z" fill="#999999"/>
<path d="M11 20H10V23H11V20Z" fill="#999999"/>
<path d="M13 20H12V23H13V20Z" fill="#999999"/>
<path d="M20 20H19V23H20V20Z" fill="#999999"/>
<path d="M18 20H17V23H18V20Z" fill="#999999"/>
<path d="M19 21H11V22H19V21Z" fill="#999999"/>
<path d="M15.4476 10.1855C15.8646 10.1855 16.2271 10.2465 16.5351 10.3684C16.8431 10.4839 17.1446 10.6635 17.4398 10.9073L16.7372 11.7254C16.3522 11.411 15.948 11.2538 15.5246 11.2538C15.0498 11.2538 14.6713 11.4495 14.3889 11.8409C14.1131 12.2258 13.9751 12.8321 13.9751 13.6598C13.9751 14.4682 14.1131 15.0681 14.3889 15.4595C14.6713 15.8445 15.053 16.0369 15.5342 16.0369C15.7844 16.0369 16.0122 15.992 16.2175 15.9022C16.4228 15.806 16.6378 15.6712 16.8623 15.498L17.5167 16.316C17.2794 16.5598 16.9842 16.7619 16.6313 16.9223C16.2849 17.0763 15.8999 17.1533 15.4765 17.1533C14.8798 17.1533 14.3569 17.0186 13.9077 16.7491C13.4586 16.4796 13.109 16.0851 12.8587 15.5654C12.6085 15.0392 12.4834 14.4041 12.4834 13.6598C12.4834 12.9348 12.6117 12.3124 12.8684 11.7928C13.125 11.2666 13.4779 10.8689 13.927 10.5994C14.3761 10.3235 14.883 10.1855 15.4476 10.1855Z" fill="#999999"/>
</svg>
