<svg width="30" height="30" viewBox="0 0 30 30" fill="none" xmlns="http://www.w3.org/2000/svg">
<circle cx="15" cy="15" r="13" fill="#FB1858"/>
<circle cx="15" cy="15" r="10" fill="white"/>
<path d="M24.4129 22.7346L7.09033 5.41211L5.41309 7.08935L22.7356 24.4119L24.4129 22.7346Z" fill="#FB1858"/>
<path d="M10 19H20V8.776C20 8.483 19.547 8 19.178 8L10.821 8.008C10.44 8.008 10.008 8.446 10.008 8.747L10 19Z" fill="#333333"/>
<path d="M11 9V18H19V9H11Z" fill="#FF870F"/>
<path d="M9 18V19H21V18H9Z" fill="#333333"/>
<path d="M15 23C15.5523 23 16 22.3284 16 21.5C16 20.6716 15.5523 20 15 20C14.4477 20 14 20.6716 14 21.5C14 22.3284 14.4477 23 15 23Z" fill="#333333"/>
<path d="M11 20H10V23H11V20Z" fill="#333333"/>
<path d="M13 20H12V23H13V20Z" fill="#333333"/>
<path d="M20 20H19V23H20V20Z" fill="#333333"/>
<path d="M18 20H17V23H18V20Z" fill="#333333"/>
<path d="M19 21H11V22H19V21Z" fill="#333333"/>
<path d="M14.3694 10.3398C15.4088 10.3398 16.2396 10.5772 16.862 11.052C17.4908 11.5204 17.8052 12.3833 17.8052 13.6409C17.8052 14.8727 17.4972 15.7421 16.8812 16.249C16.2717 16.7494 15.489 16.9996 14.533 16.9996H12.6274V10.3398H14.3694ZM14.0422 11.3792V15.9603H14.6196C15.165 15.9603 15.5852 15.7934 15.8804 15.4598C16.1819 15.1198 16.3327 14.5134 16.3327 13.6409C16.3327 13.0378 16.2557 12.5694 16.1017 12.2358C15.9541 11.9021 15.7552 11.6776 15.505 11.5621C15.2548 11.4402 14.95 11.3792 14.5907 11.3792H14.0422Z" fill="#333333"/>
</svg>
