<svg width="30" height="30" viewBox="0 0 30 30" fill="none" xmlns="http://www.w3.org/2000/svg">
<path d="M14.9996 1L29 15.0004L15.0004 29L1 14.9996L14.9996 1Z" fill="#333333"/>
<path d="M27.5 15L15 27.5L2.5 15L15 2.5L27.5 15Z" fill="#F7FA19"/>
<path d="M17 21C17.8284 21 18.5 20.3284 18.5 19.5C18.5 18.6716 17.8284 18 17 18C16.1716 18 15.5 18.6716 15.5 19.5C15.5 20.3284 16.1716 21 17 21Z" fill="#333333"/>
<path d="M13 21C13.8284 21 14.5 20.3284 14.5 19.5C14.5 18.6716 13.8284 18 13 18C12.1716 18 11.5 18.6716 11.5 19.5C11.5 20.3284 12.1716 21 13 21Z" fill="#333333"/>
<path fill-rule="evenodd" clip-rule="evenodd" d="M11.201 16.6321C11.2954 16.5423 11.4207 16.4922 11.551 16.4922H18.449C18.5793 16.4922 18.7046 16.5423 18.799 16.6321L19.85 17.6321C20.0532 17.8254 20.0612 18.1469 19.8679 18.35C19.6746 18.5532 19.3531 18.5612 19.15 18.3679L18.246 17.5078H11.754L10.85 18.3679C10.6469 18.5612 10.3254 18.5532 10.1321 18.35C9.93879 18.1469 9.94678 17.8254 10.15 17.6321L11.201 16.6321Z" fill="#333333"/>
<path d="M14.9998 2.5L17.25 4.75143L15.0002 7L12.75 4.74857L14.9998 2.5Z" fill="#333333"/>
</svg>
