<svg width="30" height="30" viewBox="0 0 30 30" fill="none" xmlns="http://www.w3.org/2000/svg">
<circle cx="15" cy="15" r="13" fill="#FB1858"/>
<circle cx="15" cy="15" r="10" fill="#FAEC47"/>
<path d="M15.0005 17L13 14H17L15.0005 17Z" fill="#333333"/>
<path d="M17 22C17.8284 22 18.5 21.3284 18.5 20.5C18.5 19.6716 17.8284 19 17 19C16.1716 19 15.5 19.6716 15.5 20.5C15.5 21.3284 16.1716 22 17 22Z" fill="#333333"/>
<path d="M13 22C13.8284 22 14.5 21.3284 14.5 20.5C14.5 19.6716 13.8284 19 13 19C12.1716 19 11.5 19.6716 11.5 20.5C11.5 21.3284 12.1716 22 13 22Z" fill="#333333"/>
<path fill-rule="evenodd" clip-rule="evenodd" d="M11.201 17.6321C11.2954 17.5423 11.4207 17.4922 11.551 17.4922H18.449C18.5793 17.4922 18.7046 17.5423 18.799 17.6321L19.85 18.6321C20.0532 18.8254 20.0612 19.1469 19.8679 19.35C19.6746 19.5532 19.3531 19.5612 19.15 19.3679L18.246 18.5078H11.754L10.85 19.3679C10.6469 19.5612 10.3254 19.5532 10.1321 19.35C9.93879 19.1469 9.94678 18.8254 10.15 18.6321L11.201 17.6321Z" fill="#333333"/>
</svg>
