<svg width="30" height="30" viewBox="0 0 30 30" fill="none" xmlns="http://www.w3.org/2000/svg">
<circle cx="15" cy="15" r="13" fill="#FB1858"/>
<circle cx="15" cy="15" r="10" fill="white"/>
<path d="M15.4202 18.4279C15.7043 18.4279 15.9601 18.4951 16.1874 18.6294C16.4147 18.7638 16.593 18.9627 16.7222 19.2262C16.8513 19.4897 16.9159 19.8074 16.9159 20.1794C16.9159 20.5514 16.8384 20.8847 16.6834 21.1792C16.5336 21.4737 16.3192 21.7062 16.0402 21.8767C15.7663 22.042 15.4486 22.1247 15.0869 22.1247C14.4256 22.1247 13.9373 21.8973 13.6222 21.4427C13.307 20.9828 13.1494 20.3422 13.1494 19.5207C13.1494 18.911 13.2372 18.3814 13.4129 17.9319C13.5886 17.4773 13.8417 17.1285 14.1724 16.8857C14.5082 16.6377 14.9035 16.5137 15.3582 16.5137C15.7973 16.5137 16.1797 16.6248 16.5052 16.8469L16.1099 17.5212C15.8826 17.3817 15.6372 17.3119 15.3737 17.3119C15.0585 17.3119 14.8053 17.4566 14.6142 17.7459C14.423 18.0301 14.3145 18.4383 14.2887 18.9704C14.5935 18.6088 14.9707 18.4279 15.4202 18.4279ZM15.0947 21.3187C15.3272 21.3187 15.5028 21.2205 15.6217 21.0242C15.7457 20.8278 15.8077 20.5514 15.8077 20.1949C15.8077 19.8333 15.7508 19.5775 15.6372 19.4277C15.5235 19.2778 15.3556 19.2029 15.1334 19.2029C14.8079 19.2029 14.5289 19.3579 14.2964 19.6679C14.3067 20.2621 14.3713 20.6858 14.4902 20.9389C14.609 21.1921 14.8105 21.3187 15.0947 21.3187Z" fill="#333333"/>
<path d="M11.25 21.375C11.25 21.7188 10.9688 22 10.625 22H9.375C9.03125 22 8.75 21.7188 8.75 21.375V17.625C8.75 17.2812 9.03125 17 9.375 17H10.625C10.9688 17 11.25 17.2812 11.25 17.625V21.375Z" fill="#333333"/>
<path d="M21.25 21.375C21.25 21.7188 20.9688 22 20.625 22H19.375C19.0312 22 18.75 21.7188 18.75 21.375V17.625C18.75 17.2812 19.0312 17 19.375 17H20.625C20.9688 17 21.25 17.2812 21.25 17.625V21.375Z" fill="#333333"/>
<path d="M12.5 19H11V20H12.5V19Z" fill="#333333"/>
<path d="M19 19H17.5V20H19V19Z" fill="#333333"/>
</svg>
