<svg width="30" height="30" viewBox="0 0 30 30" fill="none" xmlns="http://www.w3.org/2000/svg">
<circle cx="15" cy="15" r="13" fill="#E1BDBD"/>
<circle cx="15" cy="15" r="10" fill="#DBD6A9"/>
<path d="M16.9313 20.8381H16.3578V22.0006H15.2883V20.8381H13.0718V20.0941L14.5753 16.5059L15.5053 16.8624L14.211 20.0011H15.296L15.4123 18.6371H16.3578V20.0011H16.9313V20.8381Z" fill="#999999"/>
<path d="M11.25 21.375C11.25 21.7188 10.9688 22 10.625 22H9.375C9.03125 22 8.75 21.7188 8.75 21.375V17.625C8.75 17.2812 9.03125 17 9.375 17H10.625C10.9688 17 11.25 17.2812 11.25 17.625V21.375Z" fill="#999999"/>
<path d="M21.25 21.375C21.25 21.7188 20.9688 22 20.625 22H19.375C19.0312 22 18.75 21.7188 18.75 21.375V17.625C18.75 17.2812 19.0312 17 19.375 17H20.625C20.9688 17 21.25 17.2812 21.25 17.625V21.375Z" fill="#999999"/>
<path d="M12.5 19H11V20H12.5V19Z" fill="#999999"/>
<path d="M19 19H17.5V20H19V19Z" fill="#999999"/>
</svg>
