<svg width="30" height="30" viewBox="0 0 30 30" fill="none" xmlns="http://www.w3.org/2000/svg">
<path fill-rule="evenodd" clip-rule="evenodd" d="M24.6723 0.143527C24.2465 -0.047842 23.7535 -0.0478425 23.3277 0.143527L19 2.08849V6.79595C19 7.38006 19.3532 7.91164 19.9066 8.16035L24 10L28.0934 8.16035C28.6468 7.91164 29 7.38006 29 6.79595V2.08849L24.6723 0.143527Z" fill="#BFFFE4"/>
<path fill-rule="evenodd" clip-rule="evenodd" d="M24.6723 0.143527C24.2465 -0.047842 23.7535 -0.0478425 23.3277 0.143527L19 2.08849V6.79595C19 7.38006 19.3532 7.91164 19.9066 8.16035L24 10L28.0934 8.16035C28.6468 7.91164 29 7.38006 29 6.79595V2.08849L24.6723 0.143527ZM23.7759 1.05313C23.9178 0.98934 24.0822 0.98934 24.2241 1.05313L27.7196 2.62408L24 4.29575L20.2804 2.62408L23.7759 1.05313ZM20.0526 3.77162V6.79595C20.0526 6.99065 20.1704 7.16784 20.3548 7.25075L23.4079 8.62286V5.27956L20.0526 3.77162ZM24.5921 8.62285L27.6452 7.25075C27.8296 7.16784 27.9474 6.99065 27.9474 6.79595V3.77163L24.5921 5.27956V8.62285Z" fill="#008C5D"/>
</svg>
