<svg width="30" height="30" viewBox="0 0 30 30" fill="none" xmlns="http://www.w3.org/2000/svg">
<path fill-rule="evenodd" clip-rule="evenodd" d="M25.6723 0.143527C25.2465 -0.047842 24.7535 -0.0478425 24.3277 0.143527L20 2.08849V6.79595C20 7.38006 20.3532 7.91164 20.9066 8.16035L25 10L29.0934 8.16035C29.6468 7.91164 30 7.38006 30 6.79595V2.08849L25.6723 0.143527Z" fill="#7B9989"/>
<path fill-rule="evenodd" clip-rule="evenodd" d="M25.6723 0.143527C25.2465 -0.047842 24.7535 -0.0478425 24.3277 0.143527L20 2.08849V6.79595C20 7.38006 20.3532 7.91164 20.9066 8.16035L25 10L29.0934 8.16035C29.6468 7.91164 30 7.38006 30 6.79595V2.08849L25.6723 0.143527ZM24.7759 1.05313C24.9178 0.98934 25.0822 0.98934 25.2241 1.05313L28.7196 2.62408L25 4.29575L21.2804 2.62408L24.7759 1.05313ZM21.0526 3.77162V6.79595C21.0526 6.99065 21.1704 7.16784 21.3548 7.25075L24.4079 8.62286V5.27956L21.0526 3.77162ZM25.5921 8.62285L28.6452 7.25075C28.8296 7.16784 28.9474 6.99065 28.9474 6.79595V3.77163L25.5921 5.27956V8.62285Z" fill="#256844"/>
</svg>
