<svg width="30" height="30" viewBox="0 0 30 30" fill="none" xmlns="http://www.w3.org/2000/svg">
<path d="M30 15.0003C30 21.9406 24.1797 27.5669 17 27.5669C9.82024 27.5669 5.5 21.9406 5.5 15.0003C5.5 8.05988 9.82024 2.43359 17 2.43359C24.1797 2.43359 30 8.05988 30 15.0003Z" fill="#EE6B91"/>
<path d="M29 15.0003C29 21.9406 23.1797 27.5669 16 27.5669C8.82024 27.5669 4.5 21.9406 4.5 15.0003C4.5 8.05988 8.82024 2.43359 16 2.43359C23.1797 2.43359 29 8.05988 29 15.0003Z" fill="#DA194F"/>
<path d="M15.0048 27.5301C21.715 27.0342 27 21.6139 27 15.0004C27 8.38685 21.715 2.96655 15.0048 2.4707C8.42291 2.96655 4.5 8.38685 4.5 15.0004C4.5 21.6139 8.42291 27.0342 15.0048 27.5301Z" fill="black" fill-opacity="0.15"/>
<path d="M25.5 15.0003C25.5 21.9406 19.6797 27.5669 12.5 27.5669C5.32024 27.5669 1 21.9406 1 15.0003C1 8.05988 5.32024 2.43359 12.5 2.43359C19.6797 2.43359 25.5 8.05988 25.5 15.0003Z" fill="#EE6B91"/>
</svg>
