<svg width="30" height="30" viewBox="0 0 30 30" fill="none" xmlns="http://www.w3.org/2000/svg">
<path d="M14.9996 1L29 15.0004L15.0004 29L1 14.9996L14.9996 1Z" fill="#333333"/>
<path d="M27.5 15L15 27.5L2.5 15L15 2.5L27.5 15Z" fill="#F7FA19"/>
<path d="M14.6955 21.2193L16.7878 16.4V15.5879H13.2158V16.5249H15.5218L13.6249 20.82L14.6955 21.2193Z" fill="#333333"/>
<path d="M11.25 20.375C11.25 20.7188 10.9688 21 10.625 21H9.375C9.03125 21 8.75 20.7188 8.75 20.375V16.625C8.75 16.2812 9.03125 16 9.375 16H10.625C10.9688 16 11.25 16.2812 11.25 16.625V20.375Z" fill="#333333"/>
<path d="M21.25 20.375C21.25 20.7188 20.9688 21 20.625 21H19.375C19.0312 21 18.75 20.7188 18.75 20.375V16.625C18.75 16.2812 19.0312 16 19.375 16H20.625C20.9688 16 21.25 16.2812 21.25 16.625V20.375Z" fill="#333333"/>
<path d="M12.5 18H11V19H12.5V18Z" fill="#333333"/>
<path d="M19 18H17.5V19H19V18Z" fill="#333333"/>
</svg>
