<svg width="30" height="30" viewBox="0 0 30 30" fill="none" xmlns="http://www.w3.org/2000/svg">
<circle cx="15" cy="15" r="13" fill="#FB1858"/>
<circle cx="15" cy="15" r="10" fill="white"/>
<path d="M14.8157 16.5137C15.1773 16.5137 15.4925 16.5757 15.7612 16.6997C16.0298 16.8185 16.2365 16.9838 16.3812 17.1957C16.5258 17.4023 16.5982 17.6297 16.5982 17.8777C16.5982 18.2083 16.5 18.4822 16.3037 18.6992C16.1125 18.9162 15.849 19.066 15.5132 19.1487C15.9007 19.1952 16.2081 19.3295 16.4354 19.5517C16.6628 19.7687 16.7764 20.0787 16.7764 20.4817C16.7764 20.7865 16.6912 21.0655 16.5207 21.3187C16.3553 21.5667 16.1177 21.763 15.8077 21.9077C15.4977 22.0523 15.1412 22.1247 14.7382 22.1247C14.361 22.1247 14.0148 22.0575 13.6997 21.9232C13.3897 21.7888 13.1262 21.5925 12.9092 21.3342L13.5214 20.7684C13.8573 21.1043 14.2422 21.2722 14.6762 21.2722C14.9707 21.2722 15.2058 21.1973 15.3814 21.0474C15.5571 20.8976 15.6449 20.6883 15.6449 20.4197C15.6449 19.8513 15.3246 19.5672 14.6839 19.5672H14.1879L14.3119 18.7922H14.6684C14.9268 18.7922 15.1334 18.7302 15.2884 18.6062C15.4486 18.477 15.5287 18.291 15.5287 18.0482C15.5287 17.826 15.4512 17.6529 15.2962 17.5289C15.1412 17.3998 14.9423 17.3352 14.6994 17.3352C14.4876 17.3352 14.2938 17.3765 14.1182 17.4592C13.9477 17.5367 13.7798 17.6555 13.6144 17.8157L13.0409 17.2112C13.5369 16.7462 14.1285 16.5137 14.8157 16.5137Z" fill="#333333"/>
<path d="M11.25 21.375C11.25 21.7188 10.9688 22 10.625 22H9.375C9.03125 22 8.75 21.7188 8.75 21.375V17.625C8.75 17.2812 9.03125 17 9.375 17H10.625C10.9688 17 11.25 17.2812 11.25 17.625V21.375Z" fill="#333333"/>
<path d="M21.25 21.375C21.25 21.7188 20.9688 22 20.625 22H19.375C19.0312 22 18.75 21.7188 18.75 21.375V17.625C18.75 17.2812 19.0312 17 19.375 17H20.625C20.9688 17 21.25 17.2812 21.25 17.625V21.375Z" fill="#333333"/>
<path d="M12.5 19H11V20H12.5V19Z" fill="#333333"/>
<path d="M19 19H17.5V20H19V19Z" fill="#333333"/>
</svg>
