<svg width="31" height="26" viewBox="0 0 31 26" fill="none" xmlns="http://www.w3.org/2000/svg">
<g id="hybrid / detailedshield_c_02_truck">
<g id="detailedshield_c_02_truck">
<g id="detailedshield_c_base">
<g id="stretchable-items">
<path id="shape01" d="M18.3235 2.30526C17.1235 2.30526 15.5 1.5 15.5 1.5C15.5 1.5 13.8765 2.30526 12.6765 2.30526C11.4765 2.30526 10.6529 1.95 9.85294 1.5C9.85294 1.5 7.5 3.75 7.5 9.6C7.5 15.45 11.2647 18.3 15.5 19.5C19.7353 18.3 23.5 15.45 23.5 9.6C23.5 3.75 21.1471 1.5 21.1471 1.5C20.3471 1.95 19.5235 2.30526 18.3235 2.30526Z" fill="#4278BF" stroke="white" stroke-linejoin="round"/>
<path id="shape02" d="M18.3233 2.30526C17.1334 2.30526 15.4998 1.5 15.4998 1.5C15.4998 1.5 13.8662 2.30526 12.6763 2.30526C11.4864 2.30526 10.646 1.92 9.85275 1.5C9.85275 1.5 8.59866 2.62365 7.94043 5.5H23.0592C22.401 2.62365 21.1469 1.5 21.1469 1.5C20.3536 1.92 19.5133 2.30526 18.3233 2.30526Z" fill="#CC5252" stroke="white" stroke-linejoin="round"/>
</g>
</g>
<g id="non-stretchable-items">
<g id="roadtype_truck">
<rect id="background" x="1.5" y="15.5" width="28" height="9" fill="#4278BF" stroke="white" stroke-linejoin="round"/>
<path id="TRUCK" d="M7.67488 18.384H6.27488V23H5.09888V18.384H3.62688V17.464H7.80288L7.67488 18.384ZM10.1803 20.832H9.58031V23H8.40431V17.464H10.1323C10.8736 17.464 11.431 17.6027 11.8043 17.88C12.1776 18.152 12.3643 18.5653 12.3643 19.12C12.3643 19.4827 12.2736 19.7813 12.0923 20.016C11.9163 20.2507 11.6416 20.4507 11.2683 20.616L12.7003 23H11.3643L10.1803 20.832ZM9.58031 20H10.1963C10.511 20 10.7483 19.9307 10.9083 19.792C11.0683 19.648 11.1483 19.424 11.1483 19.12C11.1483 18.8373 11.063 18.632 10.8923 18.504C10.727 18.3707 10.4656 18.304 10.1083 18.304H9.58031V20ZM17.3919 21.176C17.3919 21.5547 17.3119 21.8907 17.1519 22.184C16.9919 22.4773 16.7519 22.7093 16.4319 22.88C16.1172 23.0453 15.7332 23.128 15.2799 23.128C14.5972 23.128 14.0745 22.952 13.7119 22.6C13.3545 22.2427 13.1759 21.768 13.1759 21.176V17.464H14.3519V21.12C14.3519 21.4933 14.4265 21.7733 14.5759 21.96C14.7252 22.1413 14.9599 22.232 15.2799 22.232C15.5999 22.232 15.8345 22.1413 15.9839 21.96C16.1385 21.7733 16.2159 21.4933 16.2159 21.12V17.464H17.3919V21.176ZM20.6743 17.336C21.0209 17.336 21.3223 17.3867 21.5783 17.488C21.8343 17.584 22.0849 17.7333 22.3303 17.936L21.7463 18.616C21.4263 18.3547 21.0903 18.224 20.7383 18.224C20.3436 18.224 20.0289 18.3867 19.7943 18.712C19.5649 19.032 19.4503 19.536 19.4503 20.224C19.4503 20.896 19.5649 21.3947 19.7943 21.72C20.0289 22.04 20.3463 22.2 20.7463 22.2C20.9543 22.2 21.1436 22.1627 21.3143 22.088C21.4849 22.008 21.6636 21.896 21.8503 21.752L22.3943 22.432C22.1969 22.6347 21.9516 22.8027 21.6583 22.936C21.3703 23.064 21.0503 23.128 20.6983 23.128C20.2023 23.128 19.7676 23.016 19.3943 22.792C19.0209 22.568 18.7303 22.24 18.5223 21.808C18.3143 21.3707 18.2103 20.8427 18.2103 20.224C18.2103 19.6213 18.3169 19.104 18.5303 18.672C18.7436 18.2347 19.0369 17.904 19.4103 17.68C19.7836 17.4507 20.2049 17.336 20.6743 17.336ZM24.2366 23H23.0606V17.464H24.2366V23ZM25.5326 19.96L27.5246 23H26.1486L24.2846 20.048L26.1246 17.464H27.3806L25.5326 19.96Z" fill="white"/>
</g>
</g>
</g>
</g>
</svg>
