<svg width="19" height="19" viewBox="0 0 19 19" fill="none" xmlns="http://www.w3.org/2000/svg">
<g id="hybrid / detailedshield_a_02">
<g id="detailedshield_a_base">
<g id="stretchable-items">
<path id="shape01" d="M1.5 12.059C1.5 14.5853 2.9428 16.6126 5.85189 16.6126H7.74875C8.4073 16.6126 9.03444 16.9608 9.5001 17.5C9.96577 16.9608 10.5928 16.6126 11.2513 16.6126H13.1482C16.0573 16.6126 17.5001 14.5853 17.5001 12.059C17.5001 9.25897 16.3402 9.0667 16.3402 7.36144C16.3402 6.17659 17.4167 5.18249 17.4167 5.18249L15.5006 1.5C15.5006 1.5 14.3197 2.64296 12.5015 2.64296C10.6833 2.64296 9.5001 1.5 9.5001 1.5C9.5001 1.5 8.31677 2.64296 6.49858 2.64296C4.6804 2.64296 3.4995 1.5 3.4995 1.5L1.58338 5.18249C1.58338 5.18249 2.65989 6.17659 2.65989 7.36144C2.65989 9.0667 1.5 9.25897 1.5 12.059Z" fill="white" stroke="#555759" stroke-linejoin="round"/>
<path id="shape02" d="M3.49946 1.5L1.58203 5.18359C1.58203 5.18359 2.03125 5.625 2.24219 6.01664C2.24219 6.01664 5.65941 6.01083 9.50008 6.00607C13.3433 6.01083 16.7627 6.01671 16.7627 6.01671C16.9738 5.62507 17.4233 5.18366 17.4233 5.18366L15.5046 1.50007C15.5046 1.50007 14.323 2.64306 12.5036 2.64306C10.6842 2.64306 9.50008 1.5 9.50008 1.5C9.50008 1.5 8.31674 2.64299 6.49856 2.64299C4.68038 2.64299 3.49946 1.5 3.49946 1.5Z" fill="#CC5252" stroke="#555759" stroke-linejoin="round"/>
</g>
</g>
</g>
</svg>
