<svg width="25" height="26" viewBox="0 0 25 26" fill="none" xmlns="http://www.w3.org/2000/svg">
<g id="hybrid / detailedshield_c_02_turnpike">
<g id="detailedshield_c_02_turnpike">
<g id="detailedshield_c_base">
<g id="stretchable-items">
<path id="shape01" d="M15.3235 2.30526C14.1235 2.30526 12.5 1.5 12.5 1.5C12.5 1.5 10.8765 2.30526 9.67647 2.30526C8.47647 2.30526 7.65294 1.95 6.85294 1.5C6.85294 1.5 4.5 3.75 4.5 9.6C4.5 15.45 8.26471 18.3 12.5 19.5C16.7353 18.3 20.5 15.45 20.5 9.6C20.5 3.75 18.1471 1.5 18.1471 1.5C17.3471 1.95 16.5235 2.30526 15.3235 2.30526Z" fill="#4278BF" stroke="white" stroke-linejoin="round"/>
<path id="shape02" d="M15.3233 2.30526C14.1334 2.30526 12.4998 1.5 12.4998 1.5C12.4998 1.5 10.8662 2.30526 9.67628 2.30526C8.48636 2.30526 7.64603 1.92 6.85275 1.5C6.85275 1.5 5.59866 2.62365 4.94043 5.5H20.0592C19.401 2.62365 18.1469 1.5 18.1469 1.5C17.3536 1.92 16.5133 2.30526 15.3233 2.30526Z" fill="#CC5252" stroke="white" stroke-linejoin="round"/>
</g>
</g>
<g id="non-stretchable-items">
<g id="roadtype_turnpike">
<rect id="background" x="1.5" y="15.5" width="22" height="9" fill="#4278BF" stroke="white" stroke-linejoin="round"/>
<path id="TPKE" d="M7.49519 18.384H6.09519V23H4.91919V18.384H3.44719V17.464H7.62319L7.49519 18.384ZM9.93663 17.464C10.6566 17.464 11.214 17.6133 11.6086 17.912C12.0086 18.2107 12.2086 18.656 12.2086 19.248C12.2086 19.8667 12.0113 20.3333 11.6166 20.648C11.222 20.9573 10.694 21.112 10.0326 21.112H9.40063V23H8.22463V17.464H9.93663ZM9.93663 20.248C10.278 20.248 10.5393 20.1707 10.7206 20.016C10.902 19.8613 10.9926 19.6053 10.9926 19.248C10.9926 18.624 10.6353 18.312 9.92063 18.312H9.40063V20.248H9.93663ZM14.1897 23H13.0137V17.464H14.1897V23ZM15.4857 19.96L17.4777 23H16.1017L14.2377 20.048L16.0777 17.464H17.3337L15.4857 19.96ZM21.1663 18.32H19.1663V19.76H20.9103V20.608H19.1663V22.136H21.3103V23H17.9903V17.464H21.2943L21.1663 18.32Z" fill="white"/>
</g>
</g>
</g>
</g>
</svg>
