<svg width="19" height="26" viewBox="0 0 19 26" fill="none" xmlns="http://www.w3.org/2000/svg">
<g id="hybrid / detailedshield_c_01_business-ring">
<g id="detailedshield_c_01_business-ring">
<g id="detailedshield_c_base">
<g id="stretchable-items">
<path id="shape01" d="M12.3235 2.30526C11.1235 2.30526 9.5 1.5 9.5 1.5C9.5 1.5 7.87647 2.30526 6.67647 2.30526C5.47647 2.30526 4.65294 1.95 3.85294 1.5C3.85294 1.5 1.5 3.75 1.5 9.6C1.5 15.45 5.26471 18.3 9.5 19.5C13.7353 18.3 17.5 15.45 17.5 9.6C17.5 3.75 15.1471 1.5 15.1471 1.5C14.3471 1.95 13.5235 2.30526 12.3235 2.30526Z" fill="#1F9E87" stroke="white" stroke-linejoin="round"/>
<path id="shape02" d="M12.3233 2.30526C11.1334 2.30526 9.49984 1.5 9.49984 1.5C9.49984 1.5 7.8662 2.30526 6.67628 2.30526C5.48636 2.30526 4.64603 1.92 3.85275 1.5C3.85275 1.5 2.59866 2.62365 1.94043 5.5H17.0592C16.401 2.62365 15.1469 1.5 15.1469 1.5C14.3536 1.92 13.5133 2.30526 12.3233 2.30526Z" fill="#1F9E87" stroke="white" stroke-linejoin="round"/>
</g>
</g>
<g id="non-stretchable-items">
<g id="roadtype_business-ring">
<rect id="background" x="2.5" y="15.5" width="14" height="9" fill="#1F9E87" stroke="white" stroke-linejoin="round"/>
<path id="BR" d="M7.99803 20.072C8.37136 20.1413 8.6727 20.2773 8.90203 20.48C9.1367 20.6773 9.25403 20.9813 9.25403 21.392C9.25403 21.9733 9.04603 22.3867 8.63003 22.632C8.21403 22.8773 7.63536 23 6.89403 23H5.16603V17.464H6.67803C7.43536 17.464 8.01403 17.576 8.41403 17.8C8.81403 18.024 9.01403 18.384 9.01403 18.88C9.01403 19.2053 8.91536 19.4693 8.71803 19.672C8.52603 19.8693 8.28603 20.0027 7.99803 20.072ZM6.34203 18.312V19.712H6.91803C7.20603 19.712 7.42736 19.6533 7.58203 19.536C7.7367 19.4133 7.81403 19.2293 7.81403 18.984C7.81403 18.7387 7.73136 18.5653 7.56603 18.464C7.4007 18.3627 7.14203 18.312 6.79003 18.312H6.34203ZM6.90203 22.128C7.27003 22.128 7.55003 22.0747 7.74203 21.968C7.93403 21.856 8.03003 21.648 8.03003 21.344C8.03003 20.7893 7.6887 20.512 7.00603 20.512H6.34203V22.128H6.90203ZM11.8639 20.832H11.2639V23H10.0879V17.464H11.8159C12.5572 17.464 13.1146 17.6027 13.4879 17.88C13.8612 18.152 14.0479 18.5653 14.0479 19.12C14.0479 19.4827 13.9572 19.7813 13.7759 20.016C13.5999 20.2507 13.3252 20.4507 12.9519 20.616L14.3839 23H13.0479L11.8639 20.832ZM11.2639 20H11.8799C12.1946 20 12.4319 19.9307 12.5919 19.792C12.7519 19.648 12.8319 19.424 12.8319 19.12C12.8319 18.8373 12.7466 18.632 12.5759 18.504C12.4106 18.3707 12.1492 18.304 11.7919 18.304H11.2639V20Z" fill="white"/>
</g>
</g>
</g>
</g>
</svg>
