<svg width="25" height="26" viewBox="0 0 25 26" fill="none" xmlns="http://www.w3.org/2000/svg">
<g id="hybrid / detailedshield_c_02_link">
<g id="detailedshield_c_02_link">
<g id="detailedshield_c_base">
<g id="stretchable-items">
<path id="shape01" d="M15.3235 2.30526C14.1235 2.30526 12.5 1.5 12.5 1.5C12.5 1.5 10.8765 2.30526 9.67647 2.30526C8.47647 2.30526 7.65294 1.95 6.85294 1.5C6.85294 1.5 4.5 3.75 4.5 9.6C4.5 15.45 8.26471 18.3 12.5 19.5C16.7353 18.3 20.5 15.45 20.5 9.6C20.5 3.75 18.1471 1.5 18.1471 1.5C17.3471 1.95 16.5235 2.30526 15.3235 2.30526Z" fill="#4278BF" stroke="white" stroke-linejoin="round"/>
<path id="shape02" d="M15.3233 2.30526C14.1334 2.30526 12.4998 1.5 12.4998 1.5C12.4998 1.5 10.8662 2.30526 9.67628 2.30526C8.48636 2.30526 7.64603 1.92 6.85275 1.5C6.85275 1.5 5.59866 2.62365 4.94043 5.5H20.0592C19.401 2.62365 18.1469 1.5 18.1469 1.5C17.3536 1.92 16.5133 2.30526 15.3233 2.30526Z" fill="#CC5252" stroke="white" stroke-linejoin="round"/>
</g>
</g>
<g id="non-stretchable-items">
<g id="roadtype_link">
<rect id="background" x="1.5" y="15.5" width="22" height="9" fill="#4278BF" stroke="white" stroke-linejoin="round"/>
<path id="LINK" d="M5.88891 22.056H8.08091L7.95291 23H4.71291V17.464H5.88891V22.056ZM9.95922 23H8.78322V17.464H9.95922V23ZM15.3108 23H13.7988L12.0388 18.608C12.0868 18.9867 12.1241 19.344 12.1508 19.68C12.1828 20.0107 12.1988 20.4 12.1988 20.848V23H11.1348V17.464H12.6148L14.4068 21.864C14.3001 21.1493 14.2468 20.4933 14.2468 19.896V17.464H15.3108V23ZM17.6545 23H16.4785V17.464H17.6545V23ZM18.9505 19.96L20.9425 23H19.5665L17.7025 20.048L19.5425 17.464H20.7985L18.9505 19.96Z" fill="white"/>
</g>
</g>
</g>
</g>
</svg>
