<svg width="256" height="256" viewBox="0 0 256 256" fill="none" xmlns="http://www.w3.org/2000/svg">
<path fill-rule="evenodd" clip-rule="evenodd" d="M164.709 161.515L179.915 155.212C192.027 150.191 205.5 158.784 205.5 171.531L205.5 199.018C205.5 204.466 200.935 208.882 195.303 208.882C189.671 208.882 185.106 204.466 185.106 199.018L185.106 174.522L144.313 191.433C144.143 216.351 123.208 236.5 97.4071 236.5C71.501 236.5 50.5 216.186 50.5 191.127C50.5 166.069 71.501 145.755 97.4071 145.755C100.65 145.755 103.815 146.073 106.873 146.679L88.6565 126.541C83.9834 121.375 83.0397 114.523 85.2465 108.706C65.2357 103.525 50.5 85.8632 50.5 64.8727C50.5 39.8141 71.501 19.5 97.4071 19.5C123.313 19.5 144.314 39.8141 144.314 64.8727C144.314 68.9045 143.771 72.8135 142.75 76.5348L176.945 60.7157L176.945 56.9818C176.945 51.5343 181.511 47.1182 187.142 47.1182C192.774 47.1182 197.34 51.5343 197.34 56.9818L197.34 92.4909C197.34 97.9384 192.774 102.355 187.142 102.355C181.511 102.355 176.945 97.9384 176.945 92.4909L176.945 82.583L164.709 88.2439L164.709 161.515ZM144.314 158.112L144.314 97.6787L105.775 115.508L144.314 158.112ZM97.4071 39.2273C112.05 39.2273 123.92 50.7091 123.92 64.8727C123.92 79.0363 112.05 90.5182 97.4071 90.5182C82.7645 90.5182 70.8944 79.0363 70.8944 64.8727C70.8944 50.7091 82.7645 39.2273 97.4071 39.2273ZM97.4071 165.482C112.05 165.482 123.92 176.964 123.92 191.127C123.92 205.291 112.05 216.773 97.4071 216.773C82.7645 216.773 70.8944 205.291 70.8944 191.127C70.8944 176.964 82.7645 165.482 97.4071 165.482Z" fill="#FAFDFF" stroke="black" stroke-opacity="0.5" stroke-width="4" stroke-linecap="round"/>
</svg>
