<svg width="20" height="26" viewBox="0 0 20 26" fill="none" xmlns="http://www.w3.org/2000/svg">
<path d="M6.13616 20.3055L6.13478 20.3041C3.79846 17.9183 2.6511 15.987 2.08017 14.3677C1.50968 12.7497 1.5 11.4064 1.5 10.1358C1.5 5.32763 5.32435 1.51557 10 1.50014C14.6756 1.51557 18.5 5.32776 18.5 10.1359C18.5 11.4065 18.4903 12.7498 17.9198 14.3678C17.3489 15.9872 16.2015 17.9184 13.8652 20.3043L13.8638 20.3057L10 24.2826L6.13616 20.3055Z" fill="#4D3D3A" stroke="#82655F" style="fill:#4D3D3A;fill:color(display-p3 0.3020 0.2392 0.2275);fill-opacity:1;stroke:#82655F;stroke:color(display-p3 0.5098 0.3961 0.3725);stroke-opacity:1;"/>
<path d="M14 9V8H10.5V7H9.5V8H6V9H7.295L9.295 11L6.465 13.83L7.17 14.535L10 11.705L12.83 14.535L13.535 13.83L10.705 11L12.705 9H14ZM10 10.295L8.705 9H11.295L10 10.295Z" fill="#BFBFBF" style="fill:#BFBFBF;fill:color(display-p3 0.7500 0.7500 0.7500);fill-opacity:1;"/>
</svg>
