<svg width="19" height="14" viewBox="0 0 19 14" fill="none" xmlns="http://www.w3.org/2000/svg">
<rect width="19" height="14" rx="2" fill="#232333" fill-opacity="0.85"/>
<path d="M9.33649 5.42202C9.33649 4.51202 9.02649 3.81502 8.41749 3.34902C7.82549 2.89602 6.98549 2.66602 5.92049 2.66602H3.54849V11.334H5.08849V8.29802H5.93249C6.94049 8.29802 7.76449 8.06202 8.38049 7.59802C9.01549 7.12002 9.33649 6.38802 9.33649 5.42202ZM5.08849 3.95402H5.90849C6.50849 3.95402 6.97049 4.07402 7.28149 4.31002C7.57949 4.53702 7.72449 4.90702 7.72449 5.44002C7.72449 6.03602 7.57649 6.44802 7.28449 6.66502C6.97249 6.89402 6.50149 7.01002 5.88449 7.01002H5.08849V3.95402Z" fill="#777777"/>
<path d="M13.6835 2.66602H11.9525L9.17148 11.334H10.7465L11.3705 9.25802H14.2055L14.8295 11.334H16.4515L13.7275 2.80502L13.6835 2.66602ZM13.8085 7.93402H11.7655L12.7915 4.51302L13.8085 7.93402Z" fill="#777777"/>
</svg>
