<svg width="32" height="32" viewBox="0 0 32 32" fill="none" xmlns="http://www.w3.org/2000/svg">
<path fill-rule="evenodd" clip-rule="evenodd" d="M31.0607 15.647C31.256 15.8422 31.256 16.1588 31.0607 16.3541L16.354 31.0608C16.1587 31.2561 15.8421 31.2561 15.6469 31.0608L0.939369 16.3533C0.744107 16.1581 0.744107 15.8415 0.939369 15.6462L15.6461 0.939491C15.8414 0.744229 16.1579 0.744229 16.3532 0.939491L31.0607 15.647Z" fill="white"/>
<path d="M15.9996 2L30 16.0004L16.0004 30L2 15.9996L15.9996 2Z" fill="#1C232E"/>
<path d="M28.5 16L16 28.5L3.5 16L16 3.5L28.5 16Z" fill="#F7FA19"/>
<path d="M13 13.5C13 13.775 12.775 14 12.5 14H11.5C11.225 14 11 13.775 11 13.5V10.5C11 10.225 11.225 10 11.5 10H12.5C12.775 10 13 10.225 13 10.5V13.5Z" fill="#1C232E"/>
<path d="M21 13.5C21 13.775 20.775 14 20.5 14H19.5C19.225 14 19 13.775 19 13.5V10.5C19 10.225 19.225 10 19.5 10H20.5C20.775 10 21 10.225 21 10.5V13.5Z" fill="#1C232E"/>
<path d="M16 13.5C16.8284 13.5 17.5 12.8284 17.5 12C17.5 11.1716 16.8284 10.5 16 10.5C15.1716 10.5 14.5 11.1716 14.5 12C14.5 12.8284 15.1716 13.5 16 13.5Z" fill="#1C232E"/>
<path d="M19 11.5H13V12.5H19V11.5Z" fill="#1C232E"/>
</svg>
