<svg width="30" height="30" viewBox="0 0 30 30" fill="none" xmlns="http://www.w3.org/2000/svg">
<path fill-rule="evenodd" clip-rule="evenodd" d="M29 15C29 22.732 22.732 29 15 29C7.26801 29 1 22.732 1 15C1 7.26801 7.26801 1 15 1C22.732 1 29 7.26801 29 15ZM15 28C22.1797 28 28 22.1797 28 15C28 7.8203 22.1797 2 15 2C7.8203 2 2 7.8203 2 15C2 22.1797 7.8203 28 15 28Z" fill="white"/>
<circle cx="15" cy="15" r="13" fill="#FB1858"/>
<circle cx="15" cy="15" r="11" fill="#FAEC47"/>
<path d="M12 12.5C12 12.775 11.775 13 11.5 13H10.5C10.225 13 10 12.775 10 12.5V9.5C10 9.225 10.225 9 10.5 9H11.5C11.775 9 12 9.225 12 9.5V12.5Z" fill="#1C232E"/>
<path d="M20 12.5C20 12.775 19.775 13 19.5 13H18.5C18.225 13 18 12.775 18 12.5V9.5C18 9.225 18.225 9 18.5 9H19.5C19.775 9 20 9.225 20 9.5V12.5Z" fill="#1C232E"/>
<path d="M15 12.5C15.8284 12.5 16.5 11.8284 16.5 11C16.5 10.1716 15.8284 9.5 15 9.5C14.1716 9.5 13.5 10.1716 13.5 11C13.5 11.8284 14.1716 12.5 15 12.5Z" fill="#1C232E"/>
<path d="M18 10.5H12V11.5H18V10.5Z" fill="#1C232E"/>
</svg>
