<svg width="32" height="32" viewBox="0 0 32 32" fill="none" xmlns="http://www.w3.org/2000/svg">
<path fill-rule="evenodd" clip-rule="evenodd" d="M31.0607 15.647C31.256 15.8422 31.256 16.1588 31.0607 16.3541L16.354 31.0608C16.1587 31.2561 15.8421 31.2561 15.6469 31.0608L0.939369 16.3533C0.744107 16.1581 0.744107 15.8415 0.939369 15.6462L15.6461 0.939491C15.8414 0.744229 16.1579 0.744229 16.3532 0.939491L31.0607 15.647Z" fill="white"/>
<path d="M15.9996 2L30 16.0004L16.0004 30L2 15.9996L15.9996 2Z" fill="#1C232E"/>
<path d="M28.5 16L16 28.5L3.5 16L16 3.5L28.5 16Z" fill="#F8D40D"/>
<path d="M16.35 17.84C16.96 17.942 17.57 18.08 18 18.17V19.77C16.48 19.85 14.4 19.88 14 20C13.38 20.18 12 22 12 22L10 20C10 20 13.667 17.812 14.62 17.73C14.78 17.587 15.91 16.547 16.19 16.318C16.48 16.068 16.58 15.858 16.85 16.108C17.121 16.368 17.299 16.387 17.079 16.708C16.939 16.891 16.609 17.42 16.35 17.84ZM21.77 16.02C21.77 16.02 19.05 18.121 19 18.15V19.711C19.771 19.668 22.188 17.356 22.471 16.841C22.62 16.566 22.15 15.86 21.77 16.02ZM12 11C11.447 11 11 11.447 11 12C11 12.553 11.447 13 12 13H17V11H12ZM18.5 12C18.225 12 18 12.224 18 12.5C18 12.776 18.225 13 18.5 13C18.775 13 19 12.776 19 12.5C19 12.224 18.775 12 18.5 12ZM18.5 14C18.225 14 18 14.224 18 14.5C18 14.776 18.225 15 18.5 15C18.775 15 19 14.776 19 14.5C19 14.224 18.775 14 18.5 14ZM18.5 16C18.225 16 18 16.224 18 16.5C18 16.775 18.225 17 18.5 17C18.775 17 19 16.775 19 16.5C19 16.224 18.775 16 18.5 16Z" fill="#1C232E"/>
</svg>
