<svg width="30" height="30" viewBox="0 0 30 30" fill="none" xmlns="http://www.w3.org/2000/svg">
<path fill-rule="evenodd" clip-rule="evenodd" d="M29 15C29 22.732 22.732 29 15 29C7.26801 29 1 22.732 1 15C1 7.26801 7.26801 1 15 1C22.732 1 29 7.26801 29 15ZM15 28C22.1797 28 28 22.1797 28 15C28 7.8203 22.1797 2 15 2C7.8203 2 2 7.8203 2 15C2 22.1797 7.8203 28 15 28Z" fill="white"/>
<circle cx="15" cy="15" r="13" fill="#FB1858"/>
<circle cx="15" cy="15" r="11" fill="#FAEC47"/>
<path d="M17.5 18C18.6046 18 19.5 17.1046 19.5 16C19.5 14.8954 18.6046 14 17.5 14C16.3954 14 15.5 14.8954 15.5 16C15.5 17.1046 16.3954 18 17.5 18Z" fill="#1C232E"/>
<path d="M12.5 18C13.6046 18 14.5 17.1046 14.5 16C14.5 14.8954 13.6046 14 12.5 14C11.3954 14 10.5 14.8954 10.5 16C10.5 17.1046 11.3954 18 12.5 18Z" fill="#1C232E"/>
<path fill-rule="evenodd" clip-rule="evenodd" d="M10.3517 12.0581C10.4689 11.9408 10.6279 11.875 10.7937 11.875H19.2066C19.3723 11.875 19.5313 11.9408 19.6485 12.0581L20.9421 13.3516C21.1861 13.5957 21.1861 13.9914 20.9421 14.2355C20.698 14.4796 20.3023 14.4796 20.0582 14.2355L18.9477 13.125H11.0525L9.94206 14.2355C9.69799 14.4796 9.30226 14.4796 9.05818 14.2355C8.8141 13.9914 8.8141 13.5957 9.05818 13.3516L10.3517 12.0581Z" fill="#1C232E"/>
<path d="M24.4127 22.7349L7.09021 5.41235L5.41297 7.08959L22.7355 24.4121L24.4127 22.7349Z" fill="#FB1858"/>
</svg>
