<svg width="30" height="30" viewBox="0 0 30 30" fill="none" xmlns="http://www.w3.org/2000/svg">
<path fill-rule="evenodd" clip-rule="evenodd" d="M29 15C29 22.732 22.732 29 15 29C7.26801 29 1 22.732 1 15C1 7.26801 7.26801 1 15 1C22.732 1 29 7.26801 29 15ZM15 28C22.1797 28 28 22.1797 28 15C28 7.8203 22.1797 2 15 2C7.8203 2 2 7.8203 2 15C2 22.1797 7.8203 28 15 28Z" fill="white"/>
<circle cx="15" cy="15" r="13" fill="#FB1858"/>
<circle cx="15" cy="15" r="11" fill="white"/>
<path d="M24.4127 22.7349L7.09021 5.41235L5.41297 7.08959L22.7355 24.4121L24.4127 22.7349Z" fill="#FB1858"/>
<path d="M9 18.5C9 18.775 9.225 19 9.5 19H10.5C10.775 19 11 18.775 11 18.5V17.5C11 17.225 10.775 17 10.5 17H9.5C9.225 17 9 17.225 9 17.5V18.5Z" fill="#1C232E"/>
<path d="M14 18.5C14 18.775 14.225 19 14.5 19H15.5C15.775 19 16 18.775 16 18.5V17.5C16 17.225 15.775 17 15.5 17H14.5C14.225 17 14 17.225 14 17.5V18.5Z" fill="#1C232E"/>
<path d="M18 11V18H17V17H16V16H14V17H13V18H12V17H11V16H9V17H8V18H7V11H18Z" fill="#1C232E"/>
<path d="M22 18.5C22 18.775 22.225 19 22.5 19H23.5C23.775 19 24 18.775 24 18.5V17.5C24 17.225 23.775 17 23.5 17H22.5C22.225 17 22 17.225 22 17.5V18.5Z" fill="#1C232E"/>
<path d="M20 11V18H21V17H22V16H24V17H24.8C24.93 16.359 25 15.69 25 15C25 13.58 24.7 12.22 24.16 11H20Z" fill="#1C232E"/>
<path d="M21 17H17V18H21V17Z" fill="#1C232E"/>
</svg>
