<svg width="30" height="30" viewBox="0 0 30 30" fill="none" xmlns="http://www.w3.org/2000/svg">
<path fill-rule="evenodd" clip-rule="evenodd" d="M29 15C29 22.732 22.732 29 15 29C7.26801 29 1 22.732 1 15C1 7.26801 7.26801 1 15 1C22.732 1 29 7.26801 29 15ZM15 28C22.1797 28 28 22.1797 28 15C28 7.8203 22.1797 2 15 2C7.8203 2 2 7.8203 2 15C2 22.1797 7.8203 28 15 28Z" fill="white"/>
<circle cx="15" cy="15" r="13" fill="#FB1858"/>
<circle cx="15" cy="15" r="11" fill="white"/>
<path d="M14.8157 16.5129C15.1773 16.5129 15.4925 16.5749 15.7612 16.6989C16.0298 16.8178 16.2365 16.9831 16.3812 17.1949C16.5258 17.4016 16.5982 17.6289 16.5982 17.8769C16.5982 18.2076 16.5 18.4814 16.3037 18.6984C16.1125 18.9154 15.849 19.0653 15.5132 19.1479C15.9007 19.1944 16.2081 19.3288 16.4354 19.5509C16.6628 19.7679 16.7764 20.0779 16.7764 20.4809C16.7764 20.7858 16.6912 21.0648 16.5207 21.3179C16.3553 21.5659 16.1177 21.7623 15.8077 21.9069C15.4977 22.0516 15.1412 22.1239 14.7382 22.1239C14.361 22.1239 14.0148 22.0568 13.6997 21.9224C13.3897 21.7881 13.1262 21.5918 12.9092 21.3334L13.5214 20.7677C13.8573 21.1035 14.2422 21.2714 14.6762 21.2714C14.9707 21.2714 15.2058 21.1965 15.3814 21.0467C15.5571 20.8969 15.6449 20.6876 15.6449 20.4189C15.6449 19.8506 15.3246 19.5664 14.6839 19.5664H14.1879L14.3119 18.7914H14.6684C14.9268 18.7914 15.1334 18.7294 15.2884 18.6054C15.4486 18.4763 15.5287 18.2903 15.5287 18.0474C15.5287 17.8253 15.4512 17.6522 15.2962 17.5282C15.1412 17.399 14.9423 17.3344 14.6994 17.3344C14.4876 17.3344 14.2938 17.3758 14.1182 17.4584C13.9477 17.5359 13.7798 17.6548 13.6144 17.8149L13.0409 17.2104C13.5369 16.7454 14.1285 16.5129 14.8157 16.5129Z" fill="#1C232E"/>
<path d="M11.25 21.375C11.25 21.7188 10.9688 22 10.625 22H9.375C9.03125 22 8.75 21.7188 8.75 21.375V17.625C8.75 17.2812 9.03125 17 9.375 17H10.625C10.9688 17 11.25 17.2812 11.25 17.625V21.375Z" fill="#1C232E"/>
<path d="M21.25 21.375C21.25 21.7188 20.9688 22 20.625 22H19.375C19.0312 22 18.75 21.7188 18.75 21.375V17.625C18.75 17.2812 19.0312 17 19.375 17H20.625C20.9688 17 21.25 17.2812 21.25 17.625V21.375Z" fill="#1C232E"/>
<path d="M12.5 19H11V20H12.5V19Z" fill="#1C232E"/>
<path d="M19 19H17.5V20H19V19Z" fill="#1C232E"/>
</svg>
