<svg width="32" height="32" viewBox="0 0 32 32" fill="none" xmlns="http://www.w3.org/2000/svg">
<path fill-rule="evenodd" clip-rule="evenodd" d="M31.0607 15.647C31.256 15.8422 31.256 16.1588 31.0607 16.3541L16.354 31.0608C16.1587 31.2561 15.8421 31.2561 15.6469 31.0608L0.939369 16.3533C0.744107 16.1581 0.744107 15.8415 0.939369 15.6462L15.6461 0.939491C15.8414 0.744229 16.1579 0.744229 16.3532 0.939491L31.0607 15.647Z" fill="white"/>
<path d="M15.9996 2L30 16.0004L16.0004 30L2 15.9996L15.9996 2Z" fill="#1C232E"/>
<path d="M28.5 16L16 28.5L3.5 16L16 3.5L28.5 16Z" fill="#F7FA19"/>
<path d="M15.8157 16.5129C16.1773 16.5129 16.4925 16.5749 16.7612 16.6989C17.0298 16.8178 17.2365 16.9831 17.3812 17.1949C17.5258 17.4016 17.5982 17.6289 17.5982 17.8769C17.5982 18.2076 17.5 18.4814 17.3037 18.6984C17.1125 18.9154 16.849 19.0653 16.5132 19.1479C16.9007 19.1944 17.2081 19.3288 17.4354 19.5509C17.6628 19.7679 17.7764 20.0779 17.7764 20.4809C17.7764 20.7858 17.6912 21.0648 17.5207 21.3179C17.3553 21.5659 17.1177 21.7623 16.8077 21.9069C16.4977 22.0516 16.1412 22.1239 15.7382 22.1239C15.361 22.1239 15.0148 22.0568 14.6997 21.9224C14.3897 21.7881 14.1262 21.5918 13.9092 21.3334L14.5214 20.7677C14.8573 21.1035 15.2422 21.2714 15.6762 21.2714C15.9707 21.2714 16.2058 21.1965 16.3814 21.0467C16.5571 20.8969 16.6449 20.6876 16.6449 20.4189C16.6449 19.8506 16.3246 19.5664 15.6839 19.5664H15.1879L15.3119 18.7914H15.6684C15.9268 18.7914 16.1334 18.7294 16.2884 18.6054C16.4486 18.4763 16.5287 18.2903 16.5287 18.0474C16.5287 17.8253 16.4512 17.6522 16.2962 17.5282C16.1412 17.399 15.9423 17.3344 15.6994 17.3344C15.4876 17.3344 15.2938 17.3758 15.1182 17.4584C14.9477 17.5359 14.7798 17.6548 14.6144 17.8149L14.0409 17.2104C14.5369 16.7454 15.1285 16.5129 15.8157 16.5129Z" fill="#1C232E"/>
<path d="M12.25 21.375C12.25 21.7188 11.9688 22 11.625 22H10.375C10.0312 22 9.75 21.7188 9.75 21.375V17.625C9.75 17.2812 10.0312 17 10.375 17H11.625C11.9688 17 12.25 17.2812 12.25 17.625V21.375Z" fill="#1C232E"/>
<path d="M22.25 21.375C22.25 21.7188 21.9688 22 21.625 22H20.375C20.0312 22 19.75 21.7188 19.75 21.375V17.625C19.75 17.2812 20.0312 17 20.375 17H21.625C21.9688 17 22.25 17.2812 22.25 17.625V21.375Z" fill="#1C232E"/>
<path d="M13.5 19H12V20H13.5V19Z" fill="#1C232E"/>
<path d="M20 19H18.5V20H20V19Z" fill="#1C232E"/>
</svg>
